<svg width="236" height="56" viewBox="0 0 236 56" fill="none" xmlns="http://www.w3.org/2000/svg">
<path d="M80.2915 43H72.7695V21.3101H65.9712V15.1592H87.0708V21.3101H80.2915V43ZM108.132 43L106.761 37.7822H97.7158L96.3066 43H88.042L97.1255 15.0449H107.161L116.359 43H108.132ZM105.2 31.6123L104 27.042C103.873 26.5469 103.689 25.8423 103.448 24.9282C103.207 24.0015 102.965 23.0493 102.724 22.0718C102.496 21.0815 102.318 20.269 102.191 19.6343C102.077 20.269 101.912 21.0562 101.696 21.9956C101.493 22.9224 101.277 23.8428 101.048 24.7568C100.833 25.6709 100.642 26.4326 100.477 27.042L99.2773 31.6123H105.2ZM144.466 43H135.764L130.336 34.2974L124.966 43H116.454L125.69 28.7559L117.006 15.1592H125.347L130.375 23.7666L135.211 15.1592H143.8L134.983 29.3462L144.466 43ZM148.408 43V15.1592H151.646V43H148.408ZM181.067 43H177.334L162.157 19.6152H162.005C162.043 20.2373 162.087 20.9482 162.138 21.748C162.189 22.5352 162.227 23.3794 162.252 24.2808C162.291 25.1694 162.31 26.0771 162.31 27.0039V43H159.301V15.1592H163.014L178.134 38.4678H178.268C178.242 38.0234 178.21 37.395 178.172 36.5825C178.134 35.7573 178.096 34.875 178.058 33.9355C178.033 32.9834 178.02 32.1011 178.02 31.2886V15.1592H181.067V43ZM191.902 43H188.665V15.1592H204.166V18.0156H191.902V28.2227H203.423V31.0601H191.902V43Z" fill="white"/>
<path d="M50 22.5C50 31.8822 44.5103 39.9232 36.3483 43.2998C33.7 44.3954 29.1967 52.3315 27.5 55.1124C25.7303 52.2119 21.5528 44.3954 18.9045 43.2998C10.7425 39.9232 5 31.8822 5 22.5C5 10.0736 15.0736 0 27.5 0C39.9264 0 50 10.0736 50 22.5Z" fill="#F5D531"/>
<rect x="14" y="22.4043" width="5.4" height="5.40449" fill="black"/>
<rect x="19.4" y="17" width="5.4" height="5.40449" fill="black"/>
<rect x="24.8" y="22.4043" width="5.4" height="5.40449" fill="black"/>
<rect x="30.2" y="17" width="5.4" height="5.40449" fill="black"/>
<rect x="35.6" y="22.4043" width="5.4" height="5.40449" fill="black"/>
<rect width="25" height="16" transform="translate(211 9)" fill="#F5D531"/>
<path d="M218.979 13.8613C219.626 13.8613 220.16 13.9395 220.58 14.0957C221.003 14.252 221.317 14.488 221.522 14.8037C221.728 15.1195 221.83 15.5182 221.83 16C221.83 16.3255 221.768 16.6104 221.645 16.8545C221.521 17.0986 221.358 17.3053 221.156 17.4746C220.954 17.6439 220.736 17.7822 220.502 17.8896L222.602 21H220.922L219.218 18.2607H218.412V21H216.898V13.8613H218.979ZM218.871 15.1016H218.412V17.0303H218.9C219.402 17.0303 219.76 16.9473 219.975 16.7812C220.193 16.612 220.302 16.3646 220.302 16.0391C220.302 15.7005 220.185 15.4596 219.95 15.3164C219.719 15.1732 219.359 15.1016 218.871 15.1016ZM229.311 13.8613V18.4805C229.311 18.972 229.201 19.4163 228.983 19.8135C228.769 20.2074 228.441 20.5199 228.002 20.751C227.566 20.9821 227.016 21.0977 226.352 21.0977C225.408 21.0977 224.688 20.8568 224.193 20.375C223.699 19.8932 223.451 19.2552 223.451 18.4609V13.8613H224.96V18.2314C224.96 18.8206 225.08 19.234 225.321 19.4717C225.562 19.7093 225.919 19.8281 226.391 19.8281C226.723 19.8281 226.991 19.7712 227.196 19.6572C227.405 19.5433 227.558 19.3675 227.655 19.1299C227.753 18.8923 227.802 18.5895 227.802 18.2217V13.8613H229.311Z" fill="black"/>
</svg>
