<svg width="55" height="56" viewBox="0 0 55 56" fill="none" xmlns="http://www.w3.org/2000/svg">
<path d="M50 22.5C50 31.8822 44.5103 39.9232 36.3483 43.2998C33.7 44.3954 29.1967 52.3315 27.5 55.1124C25.7303 52.2119 21.5528 44.3954 18.9045 43.2998C10.7425 39.9232 5 31.8822 5 22.5C5 10.0736 15.0736 0 27.5 0C39.9264 0 50 10.0736 50 22.5Z" fill="#F5D531"/>
<rect x="14" y="22.4045" width="5.4" height="5.40449" fill="black"/>
<rect x="19.3999" y="17" width="5.4" height="5.40449" fill="black"/>
<rect x="24.8" y="22.4045" width="5.4" height="5.40449" fill="black"/>
<rect x="30.2" y="17" width="5.4" height="5.40449" fill="black"/>
<rect x="35.6001" y="22.4045" width="5.4" height="5.40449" fill="black"/>
</svg>
