<svg width="240" height="56" viewBox="0 0 240 56" fill="none" xmlns="http://www.w3.org/2000/svg">
<path d="M80.2915 43H72.7695V21.3101H65.9712V15.1592H87.0708V21.3101H80.2915V43ZM108.132 43L106.761 37.7822H97.7158L96.3066 43H88.042L97.1255 15.0449H107.161L116.359 43H108.132ZM105.2 31.6123L104 27.042C103.873 26.5469 103.689 25.8423 103.448 24.9282C103.207 24.0015 102.965 23.0493 102.724 22.0718C102.496 21.0815 102.318 20.269 102.191 19.6343C102.077 20.269 101.912 21.0562 101.696 21.9956C101.493 22.9224 101.277 23.8428 101.048 24.7568C100.833 25.6709 100.642 26.4326 100.477 27.042L99.2773 31.6123H105.2ZM144.466 43H135.764L130.336 34.2974L124.966 43H116.454L125.69 28.7559L117.006 15.1592H125.347L130.375 23.7666L135.211 15.1592H143.8L134.983 29.3462L144.466 43ZM147.608 43V15.1592H155.168V43H147.608ZM183.771 43H180.039L164.861 19.6152H164.709C164.747 20.2373 164.792 20.9482 164.842 21.748C164.893 22.5352 164.931 23.3794 164.957 24.2808C164.995 25.1694 165.014 26.0771 165.014 27.0039V43H162.005V15.1592H165.718L180.838 38.4678H180.972C180.946 38.0234 180.915 37.395 180.876 36.5825C180.838 35.7573 180.8 34.875 180.762 33.9355C180.737 32.9834 180.724 32.1011 180.724 31.2886V15.1592H183.771V43ZM194.606 43H191.369V15.1592H206.87V18.0156H194.606V28.2227H206.127V31.0601H194.606V43Z" fill="black"/>
<path d="M50 22.5C50 31.8822 44.5103 39.9232 36.3483 43.2998C33.7 44.3954 29.1967 52.3315 27.5 55.1124C25.7303 52.2119 21.5528 44.3954 18.9045 43.2998C10.7425 39.9232 5 31.8822 5 22.5C5 10.0736 15.0736 0 27.5 0C39.9264 0 50 10.0736 50 22.5Z" fill="#F5D531"/>
<rect x="14" y="22.4043" width="5.4" height="5.40449" fill="black"/>
<rect x="19.4004" y="17" width="5.4" height="5.40449" fill="black"/>
<rect x="24.7998" y="22.4043" width="5.4" height="5.40449" fill="black"/>
<rect x="30.2002" y="17" width="5.4" height="5.40449" fill="black"/>
<rect x="35.5996" y="22.4043" width="5.4" height="5.40449" fill="black"/>
<path d="M215 9H240V25H215V9Z" fill="#F5D531"/>
<path d="M223.08 13.8613C223.728 13.8613 224.262 13.9395 224.682 14.0957C225.105 14.252 225.419 14.488 225.624 14.8037C225.829 15.1195 225.932 15.5182 225.932 16C225.932 16.3255 225.87 16.6104 225.746 16.8545C225.622 17.0986 225.46 17.3053 225.258 17.4746C225.056 17.6439 224.838 17.7822 224.604 17.8896L226.703 21H225.023L223.319 18.2607H222.514V21H221V13.8613H223.08ZM222.973 15.1016H222.514V17.0303H223.002C223.503 17.0303 223.861 16.9473 224.076 16.7812C224.294 16.612 224.403 16.3646 224.403 16.0391C224.403 15.7005 224.286 15.4596 224.052 15.3164C223.821 15.1732 223.461 15.1016 222.973 15.1016Z" fill="black"/>
<path d="M233.412 13.8613V18.4805C233.412 18.972 233.303 19.4163 233.085 19.8135C232.87 20.2074 232.543 20.5199 232.104 20.751C231.667 20.9821 231.117 21.0977 230.453 21.0977C229.509 21.0977 228.79 20.8568 228.295 20.375C227.8 19.8932 227.553 19.2552 227.553 18.4609V13.8613H229.062V18.2314C229.062 18.8206 229.182 19.234 229.423 19.4717C229.664 19.7093 230.02 19.8281 230.492 19.8281C230.824 19.8281 231.093 19.7712 231.298 19.6572C231.506 19.5433 231.659 19.3675 231.757 19.1299C231.854 18.8923 231.903 18.5895 231.903 18.2217V13.8613H233.412Z" fill="black"/>
</svg>
