<svg width="70" height="70" viewBox="0 0 70 70" fill="none" xmlns="http://www.w3.org/2000/svg">
<path d="M69.0536 57.9952C69.3866 57.1014 69.5619 56.12 69.7371 55.1561C69.8248 54.7005 69.8949 54.2623 70 53.8242V51.1253C69.9299 50.7924 69.8598 50.4068 69.8072 50.0388V50.0212C69.667 49.2151 69.5093 48.3739 69.299 47.5677C68.5104 44.7111 66.9681 42.1349 64.7249 39.8917C63.1301 38.3144 61.5528 36.7196 59.9756 35.1423L59.7302 34.897C58.4859 33.6527 57.2416 32.3909 55.9798 31.1466C54.7531 29.9198 53.2284 29.3765 51.7738 29.6569C50.3016 29.9373 49.0749 31.0239 48.3739 32.6187C48.3563 32.6713 48.3213 32.7238 48.3038 32.7589L48.2161 32.8816L45.675 32.3208V9.8359C45.675 6.66383 44.308 4.87626 41.2411 4.0701C41.1885 4.05258 41.1535 4.03505 41.1184 4H8.55656C8.52151 4.01753 8.48646 4.05258 8.43388 4.0701C5.40202 4.85874 4 6.69888 4 9.8359C4 16.1976 4 34.5465 4 42.8885C4 42.9761 4 43.0462 4 43.1163V43.5544V45.0441C4 45.1492 4 45.2544 4 45.342V47.9357C4 53.4211 4 58.9241 4 64.4095C4 67.7393 6.2257 69.9825 9.53797 69.9825C11.7462 69.9825 13.9368 69.9825 16.145 69.9825H26.0818C30.761 69.9825 35.4403 69.9825 40.1195 69.9825C41.5916 69.9825 42.7132 69.6144 43.5369 68.8609C43.9049 68.5279 44.2554 68.3702 44.641 68.3702C44.8864 68.3702 45.1492 68.4227 45.4997 68.5629C48.6192 69.7897 51.4758 70.2103 54.2098 69.8598C61.5353 68.9134 66.53 64.9177 69.0536 57.9952ZM6.19065 12.0791C6.20818 11.7111 6.2257 11.3255 6.2257 10.9575C6.24323 10.0988 6.26075 9.22252 6.41848 8.36378C6.64631 7.13702 7.85555 6.24323 9.31014 6.24323C11.1503 6.24323 13.043 6.24323 14.8481 6.24323H20.5789C27.0457 6.24323 33.53 6.24323 39.9968 6.24323C42.1699 6.24323 43.3792 7.43494 43.3792 9.60807C43.3792 10.1689 43.3792 10.7297 43.3792 11.2905V12.2544H6.17313L6.19065 12.0791ZM23.0674 39.2082C26.7477 42.906 30.428 46.5863 34.1259 50.2666L39.4711 55.6118C39.5762 55.7169 39.6989 55.8396 39.804 55.9623C39.8566 56.0149 39.9092 56.0674 39.9618 56.12L40.2947 56.4705L39.8216 56.418C38.9453 56.3128 38.1041 56.12 37.2979 55.9272L37.1227 55.8922C34.5815 55.2963 32.3032 56.5406 31.427 59.0292C31.3919 59.1168 31.3569 59.2045 31.3218 59.2746L31.2517 59.4498H6.24323V58.5035C6.24323 54.1221 6.24323 49.7408 6.24323 45.3595C6.24323 45.2544 6.24323 45.1668 6.24323 45.0616V44.5534V43.1864C6.24323 43.0813 6.24323 42.9936 6.24323 42.8885C6.24323 37.666 6.24323 27.256 6.24323 20.5263V14.5677H43.2916L43.3266 14.7079C43.3266 14.7254 43.3441 14.7605 43.3441 14.778C43.3617 14.8306 43.3792 14.9007 43.3792 14.9533C43.3792 20.684 43.3792 26.7653 43.3792 32.829C43.3792 32.864 43.3792 33.2496 43.1514 33.4249C42.0823 34.3011 41.539 35.4753 41.4514 36.9825V37.1402H41.2937C39.2257 37.2454 37.7886 38.2618 36.9474 40.2246L36.8423 40.47L36.667 40.2597C36.5969 40.1896 36.5443 40.1195 36.4918 40.0669L36.4742 40.0494C36.3691 39.9267 36.2815 39.8216 36.1763 39.7164C35.5629 39.103 34.9671 38.5072 34.3712 37.8938L34.2485 37.7711C32.6012 36.1237 30.9012 34.4063 29.2188 32.7589C28.2549 31.8125 26.958 31.3394 25.6437 31.462C24.3468 31.5847 23.1726 32.2682 22.419 33.3548C21.1397 35.1774 21.385 37.5258 23.0674 39.2082ZM41.2411 67.6166C41.1535 67.6341 41.0659 67.6516 40.9782 67.6691C40.7679 67.7042 40.5576 67.7568 40.3298 67.7568C34.1259 67.7568 28.4477 67.7568 23.0149 67.7568C18.3181 67.7568 13.7966 67.7568 9.25757 67.7568C7.55762 67.7568 6.26075 66.4599 6.2257 64.76C6.20818 64.1291 6.20818 63.4981 6.2257 62.8322C6.2257 62.5343 6.2257 62.2188 6.2257 61.9033V61.7281H11.3956C17.0037 61.7281 23.9788 61.7281 30.6208 61.7106C31.1816 61.7106 31.4796 61.8858 31.6899 62.3941C32.2156 63.5507 33.1445 64.3569 34.5465 64.8301C36.1062 65.3733 37.6484 65.8991 39.2082 66.4424L40.5927 66.9156C40.838 67.0032 41.0659 67.0908 41.3112 67.3362L41.5741 67.5815L41.2411 67.6166ZM51.7037 67.7217C49.6532 67.6166 47.743 67.0207 46.3059 66.5125C42.7658 65.2507 39.1556 64.0064 35.6681 62.7971L35.3176 62.6745C34.4588 62.3765 33.9156 61.9209 33.6352 61.2374C33.2671 60.3611 33.3898 59.5199 34.0032 58.8189C34.6341 58.0653 35.4578 57.7849 36.3866 58.0127C37.8062 58.3457 39.2257 58.6962 40.6452 59.0292L40.8555 59.0818C41.8019 59.3096 42.7483 59.5374 43.6946 59.7653C44.4307 59.9405 44.9039 59.7828 45.1668 59.2746C45.4296 58.7839 45.307 58.2756 44.7812 57.7499L40.4875 53.4562C35.3351 48.3038 30.025 42.9936 24.7849 37.7185C24.3818 37.3155 24.0489 36.7546 23.9262 36.2289C23.7159 35.3702 24.1715 34.4238 25.0303 33.9681C25.8715 33.53 26.6952 33.5826 27.4663 34.1609C27.6415 34.2836 27.7817 34.4413 27.9219 34.5815L27.9395 34.599C27.9745 34.6341 28.0096 34.6691 28.0446 34.7042L44.0276 50.6872C44.0802 50.7398 44.1152 50.7748 44.1678 50.8274C44.308 50.9851 44.4657 51.1253 44.6235 51.2655C45.0791 51.616 45.71 51.581 46.0956 51.1779C46.4811 50.7748 46.5337 50.1965 46.2007 49.7408C46.0956 49.6006 45.9554 49.4604 45.8327 49.3378L45.7451 49.2501C45.1317 48.6368 44.5183 48.0234 43.9049 47.41L43.8173 47.3224C42.4679 45.9729 41.0659 44.5709 39.6989 43.1864C39.2608 42.7483 39.0329 42.1875 39.0329 41.5916C39.0329 41.0133 39.2783 40.4525 39.6989 40.0319C40.5576 39.1907 41.872 39.1731 42.8008 40.0143C42.8885 40.102 42.9936 40.1896 43.0813 40.2772L43.1864 40.3824L44.6059 41.8019C46.1657 43.3617 47.7254 44.9214 49.2852 46.4811L49.3378 46.5337C49.478 46.6739 49.6357 46.8317 49.7934 46.9368C50.214 47.2172 50.7573 47.1646 51.1253 46.8316C51.5284 46.4636 51.616 45.9203 51.3356 45.4647C51.213 45.2719 51.0552 45.0967 50.88 44.9389L50.8625 44.9214C50.0738 44.1328 49.2852 43.3441 48.4965 42.5555L48.3388 42.3978C47.0595 41.1184 45.7801 39.8391 44.5008 38.5597C43.7472 37.8062 43.572 36.7371 44.0451 35.8609C44.5358 34.9671 45.4822 34.5289 46.4286 34.7743C46.8842 34.897 47.3574 35.1774 47.7605 35.5629C48.7594 36.5443 49.7759 37.5608 50.7573 38.5422L50.7748 38.5597C51.8964 39.6814 53.0356 40.8205 54.1922 41.9421C54.4551 42.205 54.9458 42.4503 55.2788 42.4153C55.5943 42.3802 55.9798 42.0297 56.1901 41.6968C56.488 41.2411 56.1375 40.7504 55.8922 40.505C55.2788 39.8917 54.6479 39.2432 54.0696 38.6824C53.8242 38.4371 53.5789 38.1917 53.316 37.9464C53.0882 37.7185 52.8603 37.4907 52.6325 37.2629C52.1243 36.7546 51.581 36.2289 51.0728 35.7031C50.1439 34.7392 50.1089 33.4073 51.0027 32.5135C51.8964 31.6198 53.2459 31.6373 54.1572 32.5311C54.8757 33.2496 55.6118 33.9681 56.3303 34.6867C58.7839 37.1227 61.325 39.6288 63.7435 42.1699C66.2671 44.8162 67.6867 48.2687 67.7568 51.9315C67.7568 56.453 66.0218 60.589 62.8672 63.5858C60.0457 66.2671 56.3479 67.7568 52.4572 67.7568C52.2119 67.7392 51.949 67.7392 51.7037 67.7217Z" fill="black"/>
<path d="M35.3351 24.3291C35.4052 24.224 35.4753 24.1188 35.5455 24.0137C35.4753 23.891 35.4052 23.7858 35.3351 23.6807C35.1599 23.4003 35.0022 23.1549 34.8094 22.9972C32.128 20.5612 29.0786 19.3169 25.7488 19.3169C24.5922 19.3169 23.3654 19.4746 22.1387 19.7726C19.948 20.2983 17.9676 21.4199 16.2151 23.1023C15.8296 23.4879 15.7069 23.8735 15.8471 24.3291C15.9698 24.7147 16.2677 25.1177 16.7409 25.0827C17.1264 25.0476 17.5821 24.8549 17.88 24.592C22.349 20.5261 28.8158 20.5086 33.2496 24.5745C33.2847 24.6095 33.3373 24.6621 33.3898 24.7147C33.4775 24.8023 33.5826 24.925 33.6703 24.925L33.7754 24.9425C34.1434 24.9951 34.564 25.0476 34.8269 24.925C35.0022 24.8198 35.1599 24.592 35.3351 24.3291Z" fill="black"/>
<path d="M31.1111 28.2725C31.0936 27.9395 30.9184 27.6065 30.5854 27.3086C29.1308 25.9767 27.4659 25.3633 25.3804 25.3633C23.6629 25.3808 21.998 26.0468 20.596 27.3086C20.263 27.6065 20.0878 27.9395 20.0702 28.2725C20.0527 28.5529 20.1579 28.8157 20.3682 29.0436C20.964 29.692 21.63 29.3766 22.0681 28.991C23.1722 28.0622 24.3464 27.5715 25.5732 27.5715C26.7999 27.5715 27.9741 28.0446 29.0957 28.991C29.5514 29.3766 30.2173 29.692 30.7957 29.0436C31.006 28.8157 31.1287 28.5353 31.1111 28.2725Z" fill="black"/>
<path d="M23.6802 64.7427C23.6977 65.356 24.1709 65.8292 24.7842 65.8292C25.3801 65.8292 25.8883 65.3035 25.8883 64.7076C25.8883 64.4097 25.7657 64.1293 25.5378 63.919C25.3275 63.7087 25.0471 63.6035 24.7667 63.6035H24.7317C24.1358 63.621 23.6626 64.1293 23.6802 64.7427Z" fill="black"/>
</svg>
