<svg width="70" height="70" viewBox="0 0 70 70" fill="none" xmlns="http://www.w3.org/2000/svg">
<path fill-rule="evenodd" clip-rule="evenodd" d="M2.00613 24.3858V44.917C2.00613 47.3808 2.00613 49.4925 2.14301 51.135C2.29944 52.9535 2.61229 54.2636 3.17934 55.3977C4.21568 57.4508 5.85817 59.0737 7.91129 60.1296C9.0454 60.6967 10.3555 61.0291 12.174 61.166C13.8165 61.3028 15.8305 61.3028 18.392 61.3028H51.6134C54.1749 61.3028 56.1889 61.3028 57.8314 61.166C59.6499 61.0095 60.9599 60.6967 62.094 60.1296C64.1472 59.0933 65.7701 57.4508 66.826 55.3977C67.3931 54.2636 67.7255 52.9535 67.8623 51.135C67.9992 49.4925 67.9992 47.3808 67.9992 44.917V24.3858C67.9992 22.5087 67.9992 20.8858 67.9406 19.4975V19.2824L67.9797 19.0673C68.0188 18.8522 67.9992 18.6176 67.9406 18.422L67.8819 18.2265L67.8623 18.0114C67.7059 16.2711 67.3931 15.0197 66.826 13.9247C65.7897 11.8716 64.1472 10.2487 62.094 9.19276C60.9599 8.62571 59.6499 8.2933 57.8314 8.15643C56.1889 8 54.0576 8 51.6134 8H18.392C18.2942 8 18.216 8 18.1182 8C15.7914 8 13.7578 8 12.174 8.13687C10.3555 8.27375 9.0454 8.60616 7.91129 9.17321C5.85817 10.2291 4.23523 11.852 3.17934 13.9052C2.61229 15.0002 2.29944 16.2711 2.14301 17.9918L2.12346 18.2069L2.06479 18.4025C1.98658 18.6176 1.98658 18.8326 2.02569 19.0673L2.06479 19.2824V19.4975C2.00613 20.8858 2.00613 22.5087 2.00613 24.3858ZM4.91961 17.0337C5.05648 16.2516 5.25202 15.6454 5.52576 15.0979C6.3079 13.5532 7.55933 12.3018 9.10406 11.5196C9.9253 11.109 10.903 10.8744 12.389 10.757C13.9142 10.6397 15.85 10.6397 18.5288 10.6397H51.4765C54.1553 10.6397 56.0716 10.6397 57.6163 10.757C59.1024 10.8744 60.08 11.109 60.9013 11.5196C62.446 12.3018 63.6974 13.5532 64.4796 15.0979C64.7533 15.6454 64.9489 16.2516 65.0857 17.0337L65.2813 18.1874L40.0573 35.8442C37.574 37.5844 36.9678 37.9364 36.2052 38.1319C35.8141 38.2297 35.4035 38.2884 34.9929 38.2884C34.5823 38.2884 34.1716 38.2297 33.7806 38.1319C33.018 37.9364 32.4118 37.5844 29.9285 35.8442L4.70452 18.1874L4.91961 17.0337ZM4.6263 21.3355L28.7944 38.2493C30.3783 39.3638 31.747 40.3219 33.1353 40.6739C34.3476 40.9672 35.6186 40.9672 36.8309 40.6739C38.2192 40.3219 39.588 39.3638 41.1718 38.2493L41.5433 37.9951L65.3595 21.3355V44.7997C65.3595 47.4785 65.3595 49.3948 65.2422 50.9395C65.1248 52.4256 64.8902 53.4032 64.4796 54.2245C63.6974 55.7692 62.446 57.0206 60.9013 57.8028C60.08 58.2134 59.1024 58.448 57.6163 58.5654C56.0911 58.6827 54.1553 58.6827 51.4765 58.6827H18.5288C15.85 58.6827 13.9338 58.6827 12.389 58.5654C10.903 58.448 9.9253 58.2134 9.10406 57.8028C7.55933 57.0206 6.3079 55.7692 5.52576 54.2245C5.11514 53.4032 4.8805 52.4256 4.76318 50.9395C4.64586 49.4143 4.64586 47.4785 4.64586 44.7997V21.3355H4.6263Z" fill="black"/>
</svg>
