<svg width="70" height="70" viewBox="0 0 70 70" fill="none" xmlns="http://www.w3.org/2000/svg">
<path d="M32.5936 66.2818C38.4645 64.9848 43.2944 61.8274 46.9296 56.8952C47.3221 56.3661 47.8 56.0248 48.4827 55.7688C58.552 52.0483 64.6619 44.8632 66.6416 34.3672C66.744 33.7869 66.8293 33.2237 66.8976 32.6093C66.9317 32.3362 66.9659 32.0802 67 31.8072V28.4621C66.9488 28.1208 66.8976 27.7794 66.8635 27.4381C66.7611 26.6872 66.6587 25.9021 66.5221 25.1512C65.9589 21.9768 64.8155 18.956 63.1259 16.1741C62.7504 15.5597 62.7333 14.9794 63.0576 14.3309C63.928 12.6242 64.8496 10.7469 65.9589 8.45998C66.232 7.91385 66.4709 7.33358 66.7099 6.78745C66.7952 6.58264 66.8976 6.36078 66.9829 6.15598V5.31971L66.9659 5.28558C66.9147 5.16611 66.8635 5.02958 66.8293 4.91011C66.5392 4.12504 65.9931 3.52771 65.2592 3.22051C64.5595 2.93038 63.7573 2.94744 63.0405 3.28878C60.4976 4.48344 57.9888 5.72931 55.6507 6.88984C54.9509 7.23118 54.3536 7.21411 53.688 6.82158C46.6395 2.58904 38.1232 1.83811 30.3408 4.73944C22.5413 7.65784 16.6192 13.8189 14.0592 21.6354C13.9056 22.1133 13.5643 22.5912 13.1376 22.8984C7.42027 27.1309 4.05813 32.8653 3.13653 39.9821C3.1024 40.2381 3.06827 40.477 3.03413 40.733L3 41.0061V44.2146C3.0512 44.5389 3.1024 44.8461 3.13653 45.1704C3.23893 45.8872 3.34133 46.621 3.47787 47.3378C3.9728 49.9832 4.92853 52.5261 6.328 54.8472C6.72053 55.5128 6.7376 56.1101 6.39627 56.8098C5.57707 58.4141 4.792 60.0525 4.024 61.6397L3.8192 62.0664C3.6144 62.493 3.4096 62.9538 3.22187 63.3805C3.1536 63.5341 3.08533 63.6877 3.01707 63.8584V64.8312C3.39253 65.8552 4.0752 66.5208 5.06507 66.8792H6.1744L7.4032 66.2818C9.38293 65.309 11.4309 64.3021 13.4448 63.3464C13.8885 63.1416 14.4517 63.2269 14.8101 63.4317C17.7797 65.1896 21.0224 66.2989 24.4528 66.7085C24.76 66.7426 25.0672 66.7938 25.3744 66.828C25.4939 66.8451 25.6133 66.8621 25.7328 66.8792H28.9413C29.3168 66.8109 29.7093 66.7597 30.0848 66.7085C30.904 66.5891 31.7744 66.4696 32.5936 66.2818ZM18.9915 16.6349C22.5072 11.2077 27.9344 7.40184 34.2832 5.96824C40.8709 4.46638 47.1344 5.49038 52.9029 9.02318C54.0293 9.70584 55.0533 9.75705 56.2139 9.17678C57.784 8.39171 59.3541 7.62371 61.0096 6.82158C61.7093 6.48024 62.4261 6.13891 63.16 5.78051L65.0715 4.84184L64.2011 6.78745C64.1328 6.92398 64.0816 7.04345 64.0475 7.12878C63.9621 7.31651 63.8939 7.45304 63.8256 7.60665C63.5355 8.18691 63.2624 8.76718 62.9723 9.33038C62.2896 10.7298 61.5899 12.1634 60.856 13.5629C60.1733 14.8429 60.2245 15.9352 61.0096 17.181C63.4672 21.1064 64.696 25.4754 64.6789 30.1858C64.6619 35.9714 62.5627 41.6205 58.808 46.0749C55.0363 50.5293 49.8139 53.5331 44.1136 54.5229C42.68 54.7618 41.2635 54.8984 39.8469 54.8984C34.8805 54.8984 30.0165 53.4136 25.8352 50.5464C20.4592 46.877 16.7899 41.3304 15.5099 34.9474C14.2469 28.5645 15.4757 22.0792 18.9915 16.6349ZM15.8683 61.3837C14.6736 60.6499 13.6496 60.5987 12.472 61.2301C11.2773 61.8616 10.0656 62.4418 8.80267 63.0562C8.23947 63.3293 7.6592 63.6024 7.07893 63.8925L5.28693 64.78L6.03787 62.9197C6.08907 62.8003 6.1232 62.6978 6.15733 62.6296C6.2256 62.4589 6.2768 62.3224 6.34507 62.1858C6.56693 61.7421 6.77173 61.2984 6.9936 60.8376C7.53973 59.7112 8.10293 58.5336 8.70027 57.4072C9.31467 56.2296 9.26347 55.2226 8.5296 54.0109C6.08907 50.0173 5.01387 45.4434 5.4064 40.7842C5.816 36.125 7.6592 31.8072 10.7312 28.2744C10.8677 28.1208 11.0043 27.9842 11.1579 27.7965C11.2432 27.7112 11.3285 27.6088 11.4309 27.4893L12.9499 25.8338L12.7792 28.0696C12.1648 35.8349 15.0491 43.532 20.6981 49.1981C26.3472 54.8643 34.0613 57.7656 41.8779 57.1682L43.8235 57.0146L42.4923 58.4482C42.4411 58.4995 42.4069 58.5507 42.3728 58.5848C42.2875 58.6872 42.2021 58.7896 42.0827 58.8749C38.5328 62.0835 34.1467 64.029 29.4021 64.4898C24.6235 64.9506 19.9472 63.8755 15.8683 61.3837Z" fill="black"/>
<path d="M51.7083 38.395H39.8811H36.7238C33.9078 38.395 30.9894 38.395 28.1222 38.395C27.5931 38.395 27.2518 38.5486 26.9958 38.907C26.7227 39.2996 26.6886 39.675 26.8934 40.1188C27.1323 40.5966 27.5078 40.8014 28.071 40.8185C29.7776 40.8185 31.4843 40.8185 33.191 40.8185H38.9936C40.2907 40.8185 41.5878 40.8185 42.8848 40.8185C45.735 40.8185 48.6022 40.8185 51.4523 40.8185C52.0667 40.8185 52.4251 40.682 52.6811 40.3748C53.0054 39.9822 53.0566 39.5897 52.8688 39.146C52.647 38.6169 52.2886 38.395 51.7083 38.395Z" fill="black"/>
<path d="M51.7246 19.8604C48.8916 19.8604 46.0585 19.8604 43.2254 19.8604H39.8974H37.7129C36.7742 19.8604 35.8356 19.8604 34.8798 19.8604C32.6782 19.8604 30.4766 19.8604 28.258 19.8604C28.002 19.8604 27.7289 19.8774 27.5241 19.9457C26.9609 20.1505 26.6708 20.6625 26.7902 21.2769C26.9097 21.9084 27.4046 22.2668 28.1726 22.2668C34.5897 22.2668 43.0548 22.2668 51.571 22.2668C51.8441 22.2668 52.1513 22.1985 52.3902 22.079C52.851 21.8572 53.09 21.2769 52.9364 20.7308C52.7998 20.1846 52.322 19.8604 51.7246 19.8604Z" fill="black"/>
<path d="M45.65 31.5002H46.418H48.3124C50.514 31.5002 52.7156 31.5002 54.9172 31.5002C55.3439 31.5002 55.6852 31.3807 55.9242 31.1588C56.146 30.954 56.2655 30.6468 56.2655 30.3055C56.2655 29.5716 55.7194 29.1108 54.9002 29.1108C48.0564 29.1108 42.0148 29.1108 36.417 29.1108C36.178 29.1108 35.9391 29.162 35.7343 29.2474C35.2223 29.4692 34.9834 29.9812 35.0858 30.5615C35.1882 31.1247 35.666 31.5002 36.2463 31.5002C38.4991 31.5172 40.8031 31.5172 43.0218 31.5002C43.9092 31.5002 44.7796 31.5002 45.65 31.5002Z" fill="black"/>
<path d="M24.5038 29.1279C23.8894 29.162 23.4286 29.6911 23.4627 30.3737C23.4798 31.0223 23.9918 31.4831 24.6745 31.5001C25.1182 31.5172 25.579 31.5001 26.0227 31.5001C26.2275 31.5001 26.4323 31.5001 26.6371 31.5001C26.6542 31.5001 26.6542 31.5001 26.6712 31.5001C26.876 31.5001 27.0808 31.5001 27.2686 31.5001C27.7123 31.5001 28.1561 31.5001 28.5998 31.5001C29.2825 31.4831 29.7774 31.0052 29.7945 30.3567C29.8115 29.674 29.3507 29.1449 28.7192 29.1279C27.2686 29.0596 25.8521 29.0596 24.5038 29.1279Z" fill="black"/>
</svg>
