<svg width="870" height="759" viewBox="0 0 870 759" fill="none" xmlns="http://www.w3.org/2000/svg">
<mask id="mask0_123_1876" style="mask-type:alpha" maskUnits="userSpaceOnUse" x="0" y="0" width="870" height="759">
<rect width="870" height="759" fill="#D9D9D9"/>
</mask>
<g mask="url(#mask0_123_1876)">
<rect width="870" height="759" fill="#F5D531"/>
<path fill-rule="evenodd" clip-rule="evenodd" d="M358.031 -118.67H393.818L449.901 -56.5259L519.813 -96.2223L529.572 -117.788L532.306 -116.552L523.237 -96.511L609.651 -90.7172L620.858 -117.744L623.63 -116.595L612.811 -90.5053L698.649 -84.7502L696.282 -117.06L699.274 -117.279L701.722 -83.8541L776.853 -16.9739L827.237 -61.6905L812.535 -116.783L815.434 -117.557L829.748 -63.9185L891.013 -118.292L893.004 -116.048L830.523 -60.5954L844.413 37.8331C848.385 25.5386 854.447 9.71704 861.695 -3.9092C865.988 -11.9797 870.733 -19.3487 875.752 -24.763C880.737 -30.1395 886.208 -33.819 891.96 -34.0046L892.057 -31.0061C887.517 -30.8597 882.757 -27.9057 877.952 -22.7234C873.183 -17.5788 868.579 -10.4636 864.344 -2.50034C855.877 13.4165 849.022 32.447 845.305 45.1112L845.253 45.2897L816.661 93.8418L891.959 91.3322L892.059 94.3306L814.858 96.9036L769.182 174.468C779.969 172.252 791.464 170.367 803.844 168.876C813.849 167.672 824.431 166.724 835.684 166.068L890.883 103.46L893.134 105.444L839.887 165.838C855.853 165.021 873.154 164.78 892.042 165.206L891.975 168.205C871.738 167.749 853.347 168.061 836.481 169.027C825.767 169.64 815.668 170.518 806.104 171.63L829.628 233.966L891.116 188.427L892.901 190.838L830.729 236.884L869.599 339.888L891.373 329.696L892.644 332.413L869.88 343.069L816.396 451.571H893.791L877.672 544.663L830.196 629.01L796.685 676.954L878.377 688.892L829.659 803.801L729.297 748.917C715.047 763.194 700.812 776.825 688.286 787.732C675.578 798.798 664.483 807.195 656.879 810.534L655.673 807.787C662.803 804.656 673.583 796.558 686.316 785.47C698.52 774.843 712.383 761.591 726.321 747.65L587.275 695.712L531.387 804.094L529.943 802.811C522.721 796.391 516.305 787.572 510.603 776.809L433.187 803.496L432.554 802.488C422.25 786.087 401.261 754.265 382.941 730.65L294.697 775.44L323.012 808.179L320.743 810.141L230.554 705.864L184.584 726.001L272.986 808.061L270.945 810.259L181.588 727.314L134.798 747.811L160.429 801.039L157.726 802.34L132.802 750.581L108.976 802.317L106.251 801.062L129.758 750.018L-8.386 810.534L-10.0462 808.097L78.5162 719.922L-21.348 711.989L-27.8614 751.302L-30.8211 750.812L9.6924 506.285L-30.1088 482.581L-28.5737 480.004L10.219 503.107L30.0751 383.262L-30.8413 310.015V277.889L41.7955 236.618L2.79357 145.657C-10.8399 142.984 -21.7267 142.15 -29.2772 142.473L-29.4053 139.475C-21.6524 139.144 -10.7014 139.988 2.849 142.612L29.7366 60.7233L-29.6986 46.1456L-28.984 43.232L30.6752 57.8645L57.5594 -24.0138L-29.7462 -48.492L-28.9363 -51.3806L59.1045 -26.6963L110.416 -70.8483L30.9278 -115.865L32.4062 -118.475L112.833 -72.9275L165.571 -118.307L167.528 -116.033L115.652 -71.3953L185.296 -34.287C194.633 -41.524 205.824 -48.8004 218.089 -55.9239C242.816 -70.2859 271.992 -84.0768 299.32 -95.7155L280.813 -116.163L283.038 -118.176L302.244 -96.9556C322.839 -105.654 342.263 -113.093 357.788 -118.584L358.031 -118.67ZM301.373 -93.3288C274.435 -81.885 245.679 -68.3441 221.171 -54.2404L331.58 72.2404H430.748L301.373 -93.3288ZM436.057 72.5655L497.446 81.9842L500.198 59.8428L474.347 -6.6961L436.057 72.5655ZM476.147 -10.3451L518.523 -87.5665L500.979 53.5669L476.147 -10.3451ZM503.083 60.9599L593.583 46.8364C581.994 59.6304 571.715 74.369 563.692 91.1943L500.415 82.4183L503.083 60.9599ZM497.076 84.9625L433.709 75.2404H337.183L488.748 151.953L497.076 84.9625ZM486.297 154.075L410.475 115.699L302.631 176.655L352.831 205.972L486.297 154.075ZM350.645 208.17L326.338 249.595L323.512 192.324L350.645 208.17ZM320.42 190.518L267.517 159.623C265.489 163.396 263.65 169.687 262.035 177.708C260.246 186.599 258.773 197.39 257.582 208.726C255.258 230.85 254.018 254.95 253.575 270.839C273.903 276.638 299.096 281.532 329.062 283.998L323.595 254.866L320.42 190.518ZM329.553 287.048C298.524 284.543 272.515 279.446 251.627 273.401C227.235 266.341 209.776 257.973 199.466 250.886C198.633 269.497 196.386 288.851 192.271 308.892C197.181 312.918 203.156 317.154 209.676 321.776L210.006 322.01C216.945 326.929 224.461 332.268 231.824 338.182C246.118 349.661 259.962 363.399 268.051 380.686L335.875 340.348L329.553 287.048ZM336.262 343.608L269.28 383.445C271.008 387.531 272.412 391.81 273.428 396.297C278.323 417.916 275.722 439.387 266.147 457.525L347.63 439.45L336.262 343.608ZM347.985 442.444L264.183 461.034C253.692 478.736 236.294 492.817 212.646 500.156C184.431 508.912 155.327 502.269 134.584 482.769C117.784 482.136 93.9306 483.631 76.1192 490.07C67.1058 493.328 59.8416 497.78 55.7348 503.667C51.7773 509.34 50.6102 516.549 54.0243 525.85C65.9761 531.511 79.1001 537.201 93.2244 542.757C122.54 554.288 156.155 565.236 192.529 574.144L351.101 468.716L347.985 442.444ZM348.635 473.958L196.501 575.106C226.152 582.206 257.575 587.93 289.95 591.503C295.641 588.63 303.821 583.416 310.309 576.897C316.999 570.174 321.569 562.398 320.394 554.559C319.704 549.952 320.674 543.573 322.565 536.435C324.47 529.244 327.364 521.09 330.68 512.842C336.313 498.833 343.201 484.47 348.635 473.958ZM285.366 594.002C272.531 601.239 256.426 611.964 245.494 623.124C239.441 629.303 234.804 635.784 233.344 642.021C232.606 645.175 232.673 648.299 233.814 651.27C234.953 654.237 237.116 656.93 240.369 659.304C251.719 667.586 268.3 673.26 285.825 678.377L231.377 702.228L97.7578 547.736C126.014 558.576 158.011 568.809 192.456 577.214C221.901 584.399 253.139 590.25 285.366 594.002ZM91.7824 545.413C78.8223 540.308 66.6981 535.088 55.5421 529.879C69.8816 568.555 79.7583 616.18 83.177 636.783L178.32 645.469L91.7824 545.413ZM179.578 648.597L83.3847 639.814V719.308L-2.25445 804.573L131.668 745.907L179.578 648.597ZM135.932 744.039L182.234 649.994L228.5 703.488L135.932 744.039ZM80.0822 636.464L-7.24899 626.892L12.4825 507.799L51.6364 528.015C66.2848 566.431 76.469 615.004 80.0822 636.464ZM50.2446 523.92L12.9979 504.688L32.9389 384.33H112.465C107.539 395.593 104.977 407.595 106.12 420.007C108.442 445.222 117.852 465.413 131.469 479.678C114.745 479.335 92.2989 481.031 75.0994 487.248C65.8382 490.596 57.8961 495.326 53.2744 501.95C49.1322 507.888 47.7762 515.173 50.2446 523.92ZM113.841 381.33C113.973 381.056 114.105 380.783 114.24 380.51L43.073 239.342L-27.8413 279.634V308.931L32.3705 381.33H113.841ZM47.0561 240.579L115.936 377.211C132.571 346.262 166.054 321.409 187.359 309.542L47.0561 240.579ZM190.441 311.271C168.906 322.933 133.376 348.988 117.258 381.176C116.877 381.936 116.508 382.699 116.149 383.466C110.77 394.97 107.95 407.172 109.107 419.732C111.521 445.938 121.752 466.392 136.241 480.207C156.201 499.238 184.366 505.792 211.757 497.291C234.986 490.082 251.872 476.236 261.924 458.957C272.413 440.928 275.51 419.078 270.502 396.959C269.43 392.223 267.905 387.723 266.008 383.437C258.322 366.077 244.524 352.229 229.945 340.521C222.662 334.672 215.217 329.381 208.271 324.457L207.877 324.178C201.44 319.615 195.422 315.349 190.441 311.271ZM189.54 307.271L44.8625 236.158L6.37107 146.388C28.9311 151.179 58.3009 160.807 91.9945 177.971C123.712 194.128 159.257 216.962 196.554 248.719C195.817 267.489 193.637 287.026 189.54 307.271ZM199.609 247.313C209.044 254.184 226.079 262.703 250.598 269.973C251.062 254.027 252.302 230.272 254.599 208.413C255.794 197.031 257.279 186.136 259.094 177.116C260.726 169.012 262.658 162.232 264.988 157.994L178.756 96.4895C184.429 117.537 190.219 140.945 194.293 166.469C198.281 191.455 200.625 218.475 199.609 247.313ZM177.516 91.9208L266.524 155.404C268.767 151.162 269.519 145.606 269.415 139.144C269.308 132.533 268.317 125.207 267.303 117.713C267.22 117.1 267.137 116.485 267.054 115.87C265.967 107.791 264.937 99.5778 265.135 92.1732C265.333 84.7791 266.758 77.9601 270.784 72.8159C277.271 64.5263 289.07 63.0119 300.561 64.1338C309.491 65.0057 318.597 67.5005 325.707 70.074L218.527 -52.707C206.421 -45.63 195.454 -38.4382 186.375 -31.3246C179.096 -25.6214 173.063 -19.9938 168.631 -14.5432C164.191 -9.08195 161.428 -3.88433 160.554 0.962639C158.718 11.1427 160.222 23.9514 163.612 39.3428C166.148 50.8579 169.708 63.6886 173.624 77.8082C174.892 82.3777 176.197 87.0822 177.516 91.9208ZM330.26 75.0988C323.025 71.9638 311.457 68.212 300.269 67.1196C288.947 66.0142 278.611 67.6816 273.146 74.6648C269.702 79.0662 268.325 85.1169 268.134 92.2535C267.943 99.3796 268.936 107.359 270.028 115.469C270.112 116.096 270.197 116.723 270.282 117.351C271.29 124.797 272.305 132.298 272.414 139.096C272.522 145.819 271.754 152.084 269.049 157.043L299.633 174.904L407.258 114.071L330.26 75.0988ZM196.685 244.896C160.224 214.085 125.441 191.731 94.2592 175.759L100.374 107.097L191.434 167.591C195.228 191.572 197.485 217.401 196.685 244.896ZM190.778 163.553C186.495 137.863 180.518 114.349 174.763 93.2257C173.406 88.2459 172.06 83.3945 170.751 78.6767C166.828 64.5322 163.238 51.589 160.682 39.9881C157.422 25.1846 155.794 12.3537 157.375 1.80573L117.159 -8.58348L100.725 103.729L190.778 163.553ZM97.9617 101.893L114.237 -9.33821L60.46 -23.2309L33.4485 59.0349L97.9617 101.893ZM32.4777 61.9917L97.53 105.208L91.3776 174.296C57.7067 157.351 28.3601 147.876 5.8116 143.206L32.4777 61.9917ZM62.627 -25.7695L157.941 -1.14642C159.199 -6.17745 162.129 -11.3013 166.304 -16.4358C170.544 -21.6506 176.128 -26.9493 182.725 -32.2575L113.212 -69.296L62.627 -25.7695ZM-7.74009 629.856L80.3847 639.515V717.061L-20.8559 709.019L-7.74009 629.856ZM233.431 704.604L292.675 773.102L381.059 728.241C375.939 721.736 371.069 715.951 366.749 711.42C359.269 703.572 347.599 697.724 333.906 692.761C323.276 688.907 311.576 685.635 299.865 682.36C296.681 681.47 293.497 680.579 290.333 679.677L233.431 704.604ZM385.664 729.268C403.663 752.527 424.037 783.355 434.46 799.884L480.542 783.998L432.479 705.506L385.664 729.268ZM430.907 702.939L383.785 726.857C378.472 720.087 373.408 714.058 368.921 709.35C360.942 700.978 348.72 694.94 334.928 689.94C324.182 686.045 312.333 682.731 300.602 679.451C298.491 678.86 296.383 678.271 294.286 677.68L386.357 630.183L430.907 702.939ZM435.163 704.144L483.447 782.997L509.211 774.115C497.304 750.495 488.477 717.947 482.048 680.346L435.163 704.144ZM481.525 677.247L433.591 701.577L389.048 628.832L471.32 588.526C473.645 619.782 476.966 649.835 481.525 677.247ZM485.012 679.882C491.563 718.179 500.572 750.958 512.664 774.28C518.022 784.612 523.957 793.035 530.507 799.255L584.262 695.009L485.012 679.882ZM593.461 694.821L728.648 745.317C751.733 722.116 774.745 697.355 790.456 679.865L593.461 694.821ZM793.437 676.364L708.727 653.574L725.395 622.328L826.181 629.518L793.437 676.364ZM828.845 625.295L873.78 545.462L772.805 537.41L828.845 625.295ZM772.32 534.362L874.993 542.549L890.227 454.571H814.884L772.32 534.362ZM811.457 454.622L710.558 456.634L666.856 541.382L768.987 534.237L811.457 454.622ZM767.32 537.361L665.247 544.502L634.651 603.836L723.716 619.101L767.32 537.361ZM726.94 619.431L826.057 626.502L770.035 538.646L726.94 619.431ZM722.228 621.89L633.209 606.633L621.153 630.013L705.753 652.774L722.228 621.89ZM619.747 632.741L589.116 692.142L785.2 677.255L619.747 632.741ZM616.81 631.891L585.713 692.196L564.114 688.904L591.557 624.227L616.81 631.891ZM618.207 629.18L592.379 621.341L605.195 536.595C648.609 510.335 688.552 474.48 722.593 426.748L618.207 629.18ZM736.545 406.236L712.121 453.602L808.933 451.671L736.545 406.236ZM813.374 450.917L739.088 404.29L865.532 345.104L813.374 450.917ZM866.874 341.163L828.219 238.729L730.586 310.193L737.297 401.816L866.874 341.163ZM734.319 402.231L727.735 312.343L652.26 369.778C674.633 383.817 701.766 395.447 734.319 402.231ZM649.564 368.06L727.474 308.772L723.225 250.768L606.081 331.318C617.86 344.212 632.248 356.854 649.564 368.06ZM604.055 329.07L722.971 247.301L718.899 191.708C707.068 195.969 695.953 200.627 685.115 205.528C673.914 210.595 663.028 215.913 651.948 221.327C648.105 223.204 644.239 225.093 640.329 226.987C617.555 238.015 593.353 249.165 563.785 258.993C568.544 276.712 581.108 303.24 604.055 329.07ZM562.942 256.112C541.233 188.479 546.63 135.34 565.433 94.5481L617.761 105.728C626.206 136.743 634.299 177.226 638.099 224.733C615.663 235.582 591.882 246.486 562.942 256.112ZM640.995 223.33C644.215 221.766 647.411 220.204 650.596 218.649C661.338 213.4 671.941 208.22 682.814 203.278L665.236 105.952H620.931C629.251 136.743 637.183 176.639 640.995 223.33ZM620.111 102.952H712.398L708.24 46.1888H600.033C605.269 57.0367 612.797 76.4835 620.111 102.952ZM601.144 43.1888H708.02L703.708 -15.681C673.239 -7.97379 632.972 10.7426 601.144 43.1888ZM703.46 -19.0645H588.639L611.678 -87.5746L698.87 -81.7286L703.46 -19.0645ZM702.037 -79.5575L710.908 41.5524L774.593 -14.9687L702.037 -79.5575ZM776.85 -12.9601L711.184 45.3186L715.413 103.054C779.087 107.581 825.636 66.928 841.856 44.9076L776.85 -12.9601ZM833.714 58.9716C811.75 81.4815 769.832 109.765 715.635 106.077L721.604 187.567C734.99 182.901 749.327 178.743 765.207 175.306L833.714 58.9716ZM763.148 178.832C748.164 182.188 734.568 186.196 721.831 190.666L725.672 243.112L763.148 178.832ZM726.06 248.404L767.128 177.962C778.26 175.594 790.16 173.58 803.036 171.997L827.119 235.816L730.327 306.664L726.06 248.404ZM718.671 188.603L712.617 105.952H668.285L685.632 202.005C696.21 197.26 707.092 192.744 718.671 188.603ZM841.809 40.8498L827.83 -58.2058L779.109 -14.9653L841.809 40.8498ZM608.583 -87.7821L585.474 -19.0645H513.031L522.292 -93.5676L608.583 -87.7821ZM517.118 -91.2421L451.636 -54.0608L474.478 -13.5395L517.118 -91.2421ZM447.199 -55.0426L368.239 -12.6289L304.234 -94.5394C324.362 -103.02 343.325 -110.28 358.546 -115.67H392.485L447.199 -55.0426ZM370.113 -10.2302L433.522 70.9175L472.804 -10.4001L449.01 -52.6099L370.113 -10.2302ZM512.658 -16.0645L503.468 57.8635L595.871 43.443L585.295 -16.0645H512.658ZM588.342 -16.0645H693.936C664.271 -7.01049 627.87 11.4789 598.577 41.5234L588.342 -16.0645ZM597.234 47.2917C602.285 57.7084 609.646 76.5989 616.863 102.469L566.747 91.7612C574.912 74.8393 585.406 60.0665 597.234 47.2917ZM562.366 94.0392C543.485 135.505 538.309 189.199 560.092 257.05C536.314 264.798 509.037 271.679 476.231 276.966L500.045 85.3957L562.366 94.0392ZM473.288 276.319L356.139 207.904L488.175 156.564L473.288 276.319ZM470.093 277.927L353.236 209.683L326.666 254.965L332.16 284.243C345.966 285.289 360.761 285.821 376.539 285.693C404.628 285.466 435.829 283.148 470.093 277.927ZM469.77 281.01C436.775 286.003 406.601 288.315 379.292 288.665L409.58 335.401L469.77 281.01ZM407.325 337.438L375.739 288.699C360.441 288.801 346.06 288.286 332.603 287.284L345.209 393.569L407.325 337.438ZM345.642 397.221L408.903 340.056L437.222 389.465L421.119 513.677L350.71 439.946L345.642 397.221ZM351.298 444.906L420.282 517.144L368.851 592.895L351.298 444.906ZM366.148 595.575C342.236 595.722 318.487 594.456 295.203 592.062C300.592 588.941 307.051 584.424 312.436 579.013C319.309 572.107 324.754 563.411 323.361 554.114C322.768 550.153 323.59 544.282 325.465 537.203C327.326 530.177 330.171 522.148 333.463 513.962C339.221 499.644 346.309 484.932 351.777 474.416L366.148 595.575ZM366.999 598.569C341.189 598.763 315.572 597.315 290.525 594.584C277.337 601.68 259.356 613.26 247.637 625.223C241.696 631.289 237.534 637.284 236.265 642.705C235.639 645.379 235.725 647.878 236.614 650.195C237.505 652.515 239.249 654.772 242.138 656.88C253.729 665.339 271.228 671.081 290.067 676.481L384.786 627.617L366.999 598.569ZM370.495 598.533L387.474 626.263L461.763 589.867C431.501 595.436 400.874 598.131 370.495 598.533ZM474.245 587.401C518.387 578.073 561.569 562.411 601.859 538.59L589.247 621.988L561.054 688.437L484.486 676.767C479.901 649.2 476.569 618.922 474.245 587.401ZM600.534 535.889C560.623 559.518 517.823 575.086 474.025 584.381C470.701 537.902 469.542 488.86 469.765 441.942L555.139 431.082C546.896 434.529 540.993 438.884 536.886 443.577C529.07 452.508 527.911 462.499 529.358 469.266C526.358 475.541 527.867 482.191 531.899 488.582C536.026 495.123 542.932 501.641 551.015 507.74C566.238 519.226 586.008 529.501 600.534 535.889ZM603.7 533.994C589.157 527.747 568.489 517.166 552.822 505.345C544.85 499.33 538.279 493.071 534.436 486.981C530.605 480.909 529.622 475.257 532.271 470.145L532.528 469.648L532.397 469.104C530.982 463.217 531.802 453.942 539.144 445.552C545.459 438.337 556.716 431.646 575.848 428.448L585.886 427.171C635.185 422.687 702.258 411.688 732.861 406.184C696.47 463.105 652.261 504.608 603.7 533.994ZM728.212 403.966C697.247 396.87 671.249 385.388 649.649 371.678C624.336 388.257 601.631 394.626 581.52 393.802C561.189 392.968 543.671 384.791 528.939 372.678C502.108 350.617 484.39 315.406 475.395 287.091C472.458 328.884 470.121 382.263 469.781 438.916L575.423 425.477C578.606 424.947 581.99 424.512 585.586 424.186C632.656 419.906 696.057 409.659 728.212 403.966ZM466.807 435.049C467.214 381.594 469.377 331.233 472.119 290.979L440.406 388.987L466.807 435.049ZM439.69 393.77L424.609 510.092L466.531 440.601L439.69 393.77ZM466.749 446.048C466.611 491.903 467.806 539.666 471.062 585C437.876 591.823 404.144 595.074 370.689 595.53L423.467 517.794L466.749 446.048ZM438.391 385.471L411.181 337.997L471.343 283.632L438.391 385.471ZM476.391 279.978C509.447 274.668 536.947 267.742 560.931 259.932C565.913 278.36 578.972 305.67 602.702 332.057C614.62 345.311 629.237 358.339 646.885 369.896C622.425 385.67 600.701 391.585 581.642 390.804C562.09 390.003 545.179 382.147 530.844 370.36C502.642 347.172 484.562 308.882 476.391 279.978ZM794.644 679.687C779.055 697.114 755.362 722.687 731.501 746.703L828.191 799.579L874.098 691.299L794.644 679.687Z" fill="white"/>
<path fill-rule="evenodd" clip-rule="evenodd" d="M235.834 -71.1896C278.179 -93.6268 327.378 -113.444 359.783 -124.848L363.434 -114.472C331.373 -103.188 282.709 -83.5782 240.984 -61.4698C220.107 -50.4078 201.151 -38.8161 186.913 -27.4315C172.396 -15.8244 163.854 -5.25889 161.964 3.5146C159.347 15.6656 161.324 29.6433 165.952 47.1622C168.252 55.8702 171.147 65.2533 174.332 75.5691L174.38 75.724C177.542 85.9627 180.971 97.0687 184.3 109.108C197.537 156.99 209.158 219.579 197.397 305.024C209.28 312.469 228.077 325.385 244.516 341.791C262.135 359.375 278.029 381.943 278.292 406.793C285.175 437.913 272.724 462.441 254.218 479.524C235.784 496.539 211.06 506.521 192.209 509.151C172.046 511.964 148.411 501.247 130.656 483.059C112.722 464.688 99.9251 437.886 102.129 407.027C103.928 381.851 119.325 359.228 136.912 341.499C153.545 324.733 172.767 311.703 186.396 304.275C198.071 220.319 186.696 159.057 173.698 112.039C170.413 100.158 167.024 89.1825 163.852 78.9131L163.822 78.8147C160.652 68.5513 157.685 58.9406 155.316 49.9712C150.605 32.1354 148.018 16.024 151.211 1.19848C153.969 -11.6092 165.32 -24.2503 180.044 -36.0229C195.045 -48.0178 214.676 -59.9787 235.834 -71.1896ZM191.253 314.156C178.453 321.183 160.337 333.506 144.722 349.246C127.862 366.241 114.623 386.504 113.101 407.81C111.155 435.054 122.43 458.885 138.527 475.375C154.803 492.049 175.16 500.423 190.689 498.256C207.531 495.906 230.121 486.797 246.757 471.441C263.202 456.261 273.536 435.342 267.433 408.644L267.295 408.039V407.418C267.295 386.863 253.979 366.776 236.745 349.577C220.971 333.835 202.75 321.34 191.253 314.156ZM467.484 377.765C473.673 195.307 499.9 1.83891 522.208 -120.646L533.03 -118.675C510.792 3.42752 484.644 196.346 478.478 378.138C475.395 469.041 477.314 557.006 487.168 631.876C496.419 702.169 512.582 760.219 537.61 798.391L732.016 406.34L689.806 -119.22L700.77 -120.1L742.29 396.855C757.908 385.115 780.34 369.996 804.836 356.78C833.813 341.147 866.39 327.783 894.224 326.391L894.773 337.377C869.485 338.642 838.701 351.009 810.059 366.461C782.17 381.508 756.985 399.105 742.003 410.961L539.341 819.661L533.989 812.433C504.239 772.254 486.198 708.814 476.262 633.312C466.3 557.615 464.39 468.989 467.484 377.765Z" fill="white"/>
<path fill-rule="evenodd" clip-rule="evenodd" d="M152.923 222.87C99.5321 193.651 42.8473 162.629 -30.1901 144.37L-28.4924 137.579C45.4869 156.073 103.017 187.566 156.407 216.793C165.698 221.879 174.865 226.897 183.97 231.766C245.471 264.648 304.319 290.82 381.352 286.887C470.423 282.338 536.607 255.336 604.638 227.58C610.569 225.161 616.513 222.735 622.488 220.319C697.024 190.172 775.982 161.535 890.4 163.206L890.297 170.205C777.283 168.555 699.362 196.777 625.113 226.808C619.122 229.231 613.153 231.667 607.19 234.1C539.227 261.836 472.012 289.266 381.709 293.878C302.695 297.912 242.431 270.961 180.67 237.939C171.475 233.022 162.25 227.974 152.923 222.87Z" fill="white"/>
<path fill-rule="evenodd" clip-rule="evenodd" d="M597.458 547.392C545.301 578.097 481.159 593.511 383.369 598.504C226.467 606.516 112.061 570.054 -32.8223 481.791L-29.1805 475.813C114.792 563.52 227.818 599.438 383.012 591.513C480.284 586.546 543.138 571.248 593.907 541.36C644.729 511.44 683.804 466.7 733.177 401.976L738.743 406.221C689.341 470.984 649.561 516.718 597.458 547.392Z" fill="white"/>
<rect width="870" height="759" fill="#F5D531" fill-opacity="0.66"/>
</g>
</svg>
