<svg width="57" height="57" viewBox="0 0 57 57" fill="none" xmlns="http://www.w3.org/2000/svg">
<circle cx="28.5" cy="28.5" r="28.5" fill="#F5D531"/>
<path d="M27.5954 13C28.201 13 28.8066 13 29.4122 13C29.821 13.0455 30.2298 13.091 30.6386 13.1517C33.6969 13.5842 36.3995 14.8057 38.7084 16.8465C41.4337 19.2516 43.137 22.2484 43.7653 25.8369C43.8637 26.4211 43.9243 27.0129 44 27.5971C44 28.204 44 28.811 44 29.4179C43.9546 29.8125 43.9167 30.2146 43.8562 30.6091C43.4322 33.6514 42.2437 36.3751 40.1922 38.6663C36.5055 42.7935 31.8725 44.5233 26.3841 43.8633C23.2955 43.4915 20.5853 42.2094 18.2613 40.1533C15.5512 37.7483 13.8554 34.7591 13.2271 31.1781C13.1363 30.5939 13.0757 30.0021 13 29.4179C13 28.811 13 28.204 13 27.5971C13.0151 27.4909 13.0379 27.3847 13.053 27.2784C13.1287 26.717 13.1665 26.1556 13.2725 25.6018C13.863 22.5139 15.2711 19.8433 17.4816 17.6128C19.798 15.2761 22.5763 13.7966 25.8315 13.2352C26.4144 13.1366 27.0049 13.0759 27.5954 13ZM24.8549 30.0249C23.2046 28.811 22.2205 27.2557 22.0237 25.2528C21.8269 23.2347 22.4628 21.4897 23.8632 20.0406C26.2024 17.6128 30.1692 17.4383 32.7052 19.6385C34.0073 20.7613 34.8022 22.1725 34.9687 23.8795C35.2186 26.4363 34.2269 28.4696 32.1829 30.0173C35.6274 31.4133 37.8303 33.879 38.8447 37.4296C43.5458 32.0885 43.5231 23.2498 37.2322 17.9846C31.0549 12.8027 21.8269 14.1001 17.209 20.7993C15.0515 23.9326 14.3778 27.4226 15.0818 31.1553C15.5284 33.5072 16.5656 35.5936 18.1629 37.4524C18.6247 35.6998 19.4195 34.1977 20.5929 32.9003C21.7663 31.6105 23.1744 30.6622 24.8549 30.0249ZM28.7536 42.2018C29.0716 42.179 29.6317 42.1487 30.1919 42.0804C32.7885 41.7693 35.0974 40.7603 37.1263 39.1139C37.202 39.0532 37.2474 38.9091 37.2398 38.818C36.5509 33.9928 32.1526 30.6394 27.3607 31.2919C23.4015 31.8306 20.3431 34.8577 19.7678 38.818C19.7526 38.9167 19.8208 39.0684 19.8965 39.1367C22.4098 41.1472 25.2864 42.1563 28.7536 42.2018ZM28.5189 29.3193C31.1155 29.3041 33.2125 27.2026 33.22 24.6155C33.22 22.0283 31.0852 19.8964 28.4962 19.904C25.8996 19.9116 23.7648 22.0663 23.7951 24.6382C23.8254 27.2481 25.9375 29.3345 28.5189 29.3193Z" fill="black"/>
</svg>
