<svg width="143" height="100" viewBox="0 0 143 100" fill="none" xmlns="http://www.w3.org/2000/svg">
<path d="M28.6159 70.872C23.8002 70.872 19.1436 70.872 14.4871 70.872C10.8255 70.872 7.56193 69.678 4.81575 67.2502C1.55219 64.2652 0 60.5241 0 56.1461C0 42.0571 0 37.9282 0 23.8391C0 12.934 0 1.98915 0 -8.91595C0 -17.8709 6.12914 -24 15.0443 -24C52.6947 -24 90.3053 -24 127.956 -24C136.911 -24 143 -17.9107 143 -8.95575C143 15.9588 143 30.8734 143 55.8277C143 64.7826 136.911 70.872 127.956 70.872C109.369 70.872 90.8227 70.872 72.2363 70.9118C71.4005 70.9118 70.3657 71.27 69.7289 71.7874C59.0626 80.2249 48.4759 88.742 37.8494 97.2591C37.3718 97.6173 36.934 98.0153 36.4564 98.3735C34.8645 99.5675 33.1133 99.8859 31.2825 98.9705C29.4517 98.0551 28.6159 96.5029 28.6159 94.5129C28.6159 87.3092 28.6159 80.1055 28.6159 72.9018C28.6159 72.3048 28.6159 71.7078 28.6159 70.872ZM38.128 84.762C38.7648 84.2446 39.123 84.0058 39.4812 83.7272C47.9983 76.9215 56.5552 70.1158 65.0326 63.2304C66.6643 61.9171 68.3359 61.3201 70.4851 61.3201C89.6287 61.3599 108.812 61.3599 127.956 61.3599C131.578 61.3599 133.488 59.4893 133.488 55.8675C133.488 30.9132 133.488 15.919 133.488 -9.03535C133.488 -12.5775 131.578 -14.4481 128.075 -14.4481C90.3849 -14.4481 52.7345 -14.4481 15.0443 -14.4481C11.3827 -14.4481 9.55191 -12.5775 9.55191 -8.95575C9.55191 15.9588 9.55191 30.8734 9.55191 55.7879C9.55191 59.4495 11.3827 61.3201 15.0045 61.3201C21.0142 61.3201 27.0239 61.3201 33.0337 61.3201C36.1778 61.3201 38.128 63.31 38.128 66.4542C38.128 71.9466 38.128 77.4787 38.128 82.9711C38.128 83.4884 38.128 83.966 38.128 84.762Z" fill="#F0F0F0"/>
<path d="M71.5197 23.6796C58.9033 23.6796 46.2868 23.6796 33.6703 23.6796C30.0485 23.6796 27.6606 20.416 28.9342 17.2321C29.6505 15.4013 31.0435 14.4063 32.9937 14.2073C33.4315 14.1675 33.8693 14.1675 34.3469 14.1675C59.1023 14.1675 83.8974 14.1675 108.653 14.1675C109.29 14.1675 109.966 14.1277 110.563 14.2869C112.911 14.7645 114.543 16.9137 114.384 19.2619C114.225 21.6498 112.235 23.6398 109.767 23.6796C106.504 23.7592 103.2 23.7194 99.9367 23.7194C90.4644 23.6796 80.992 23.6796 71.5197 23.6796Z" fill="#F0F0F0"/>
<path d="M52.4963 33.1919C58.5856 33.1919 64.7147 33.1919 70.8041 33.1919C74.0677 33.1919 76.2566 35.1421 76.2566 38.0076C76.2566 40.7936 74.0677 42.7438 70.8837 42.7438C58.5856 42.7438 46.2477 42.7438 33.9497 42.7438C30.7657 42.7438 28.6165 40.8334 28.5767 38.0076C28.5369 35.1421 30.7259 33.1919 33.9895 33.1919C40.1982 33.1919 46.3671 33.1919 52.4963 33.1919Z" fill="#F0F0F0"/>
</svg>
