<svg width="25" height="25" viewBox="0 0 25 25" fill="none" xmlns="http://www.w3.org/2000/svg">
<path fill-rule="evenodd" clip-rule="evenodd" d="M13 3.18182C8.70445 3.18182 5.22222 6.60073 5.22222 10.8182C5.22222 12.8823 6.17019 14.8306 7.7692 16.8691C9.11934 18.5904 10.8475 20.2734 12.7025 22.08C12.8013 22.1762 12.9005 22.2728 13 22.3697C13.0995 22.2728 13.1987 22.1762 13.2975 22.08C15.1525 20.2734 16.8807 18.5904 18.2308 16.8691C19.8298 14.8306 20.7778 12.8823 20.7778 10.8182C20.7778 6.60073 17.2955 3.18182 13 3.18182ZM3 10.8182C3 5.39575 7.47715 1 13 1C18.5228 1 23 5.39575 23 10.8182C23 13.574 21.7257 15.9893 19.9914 18.2004C18.5422 20.048 16.6873 21.8534 14.8343 23.6569C14.4837 23.9981 14.1333 24.3392 13.7857 24.6805C13.3518 25.1065 12.6482 25.1065 12.2143 24.6805C11.8667 24.3392 11.5163 23.9981 11.1657 23.6569C9.31275 21.8534 7.45783 20.048 6.00858 18.2004C4.27426 15.9893 3 13.574 3 10.8182ZM13 8.63636C11.7727 8.63636 10.7778 9.6132 10.7778 10.8182C10.7778 12.0232 11.7727 13 13 13C14.2273 13 15.2222 12.0232 15.2222 10.8182C15.2222 9.6132 14.2273 8.63636 13 8.63636ZM8.55556 10.8182C8.55556 8.40821 10.5454 6.45455 13 6.45455C15.4546 6.45455 17.4444 8.40821 17.4444 10.8182C17.4444 13.2282 15.4546 15.1818 13 15.1818C10.5454 15.1818 8.55556 13.2282 8.55556 10.8182Z" fill="#A0A0A0"/>
</svg>
