<svg width="70" height="70" viewBox="0 0 70 70" fill="none" xmlns="http://www.w3.org/2000/svg">
<g clip-path="url(#clip0_1_764)">
<path d="M58.9293 69.011H11.0698C9.56591 69.011 8.34692 67.7919 8.34692 66.288V3.71225C8.34692 2.20849 9.56591 0.989369 11.0698 0.989369H58.9293C60.4332 0.989369 61.6523 2.20849 61.6523 3.71225V66.288C61.6523 67.7919 60.4332 69.011 58.9293 69.011Z" stroke="black" stroke-width="2" stroke-miterlimit="10" stroke-linecap="round" stroke-linejoin="round"/>
<path d="M13.4917 45.3333V6.6594C13.4917 6.57867 13.5076 6.49872 13.5385 6.42413C13.5694 6.34955 13.6147 6.28178 13.6718 6.2247C13.7289 6.16762 13.7967 6.12235 13.8712 6.09146C13.9458 6.06058 14.0258 6.0447 14.1065 6.04471H55.8926C55.9733 6.0447 56.0532 6.06058 56.1278 6.09146C56.2024 6.12235 56.2702 6.16762 56.3273 6.2247C56.3844 6.28178 56.4297 6.34955 56.4606 6.42413C56.4915 6.49872 56.5074 6.57867 56.5074 6.6594V63.3405C56.5074 63.5036 56.4426 63.6599 56.3273 63.7752C56.212 63.8905 56.0556 63.9553 55.8926 63.9553H14.1065C13.9435 63.9553 13.7871 63.8905 13.6718 63.7752C13.5565 63.6599 13.4917 63.5036 13.4917 63.3405V50.1614" stroke="black" stroke-width="2" stroke-miterlimit="10" stroke-linecap="round" stroke-linejoin="round"/>
<path d="M41.2745 18.3967H19.2749C19.1326 18.3967 18.9917 18.3687 18.8602 18.3142C18.7287 18.2597 18.6092 18.1799 18.5085 18.0793C18.4079 17.9786 18.3281 17.8591 18.2736 17.7276C18.2192 17.5961 18.1911 17.4552 18.1912 17.3128V13.403C18.1912 13.1155 18.3053 12.8398 18.5086 12.6366C18.7118 12.4333 18.9875 12.3191 19.2749 12.3191H50.7242C51.0117 12.3191 51.2874 12.4333 51.4906 12.6366C51.6938 12.8398 51.808 13.1155 51.808 13.403V17.3128C51.808 17.4552 51.78 17.5961 51.7256 17.7276C51.6711 17.8591 51.5913 17.9786 51.4906 18.0793C51.39 18.1799 51.2705 18.2597 51.139 18.3142C51.0075 18.3687 50.8666 18.3967 50.7242 18.3967H45.9803" stroke="black" stroke-width="2" stroke-miterlimit="10" stroke-linecap="round" stroke-linejoin="round"/>
<path d="M43.8154 35.0001V41.9453C43.8154 42.4205 44.3695 42.6803 44.7349 42.3763L46.4572 40.9434C46.558 40.8596 46.6848 40.8138 46.8159 40.8138C46.9469 40.8138 47.0737 40.8596 47.1745 40.9434L48.8968 42.3763C49.2622 42.6803 49.8163 42.4205 49.8163 41.9453V34.7589" stroke="black" stroke-width="2" stroke-miterlimit="10" stroke-linecap="round" stroke-linejoin="round"/>
<path d="M51.8079 30.769C51.8079 33.5262 49.5727 35.7612 46.8155 35.7612C44.0583 35.7612 41.8232 33.5262 41.8232 30.769C41.8232 28.0118 44.0583 25.7766 46.8155 25.7766C49.5727 25.7766 51.8079 28.0118 51.8079 30.769Z" stroke="black" stroke-width="2" stroke-miterlimit="10" stroke-linecap="round" stroke-linejoin="round"/>
<path d="M39.7262 57.2721C38.2252 57.6367 35.475 58.0913 34.2096 56.9798C33.4882 56.346 33.203 55.3518 33.1722 54.418C32.4505 55.5706 31.1422 57.5807 29.5369 56.7672C28.3201 56.1505 28.2149 54.4392 28.8698 53.3784C28.4063 54.1287 27.8299 54.7901 27.1692 55.3739C26.5989 55.8779 25.0578 57.3578 24.2235 56.7719C23.0727 55.9639 25.29 53.0375 25.7695 52.2889C26.6937 50.8453 27.7178 49.4692 28.7399 48.0946C26.0708 50.8089 21.9374 51.9205 18.1912 51.2432" stroke="black" stroke-width="2" stroke-miterlimit="10" stroke-linecap="round" stroke-linejoin="round"/>
<path d="M31.8523 25.7766H34.9997" stroke="black" stroke-width="2" stroke-miterlimit="10" stroke-linecap="round" stroke-linejoin="round"/>
<path d="M18.1912 25.7766H26.749" stroke="black" stroke-width="2" stroke-miterlimit="10" stroke-linecap="round" stroke-linejoin="round"/>
<path d="M18.1912 30.5129H34.9996" stroke="black" stroke-width="2" stroke-miterlimit="10" stroke-linecap="round" stroke-linejoin="round"/>
<path d="M26.749 35.2498H34.9997" stroke="black" stroke-width="2" stroke-miterlimit="10" stroke-linecap="round" stroke-linejoin="round"/>
<path d="M18.1912 35.2498H21.7695" stroke="black" stroke-width="2" stroke-miterlimit="10" stroke-linecap="round" stroke-linejoin="round"/>
<path d="M18.1912 39.9863H30.9957" stroke="black" stroke-width="2" stroke-miterlimit="10" stroke-linecap="round" stroke-linejoin="round"/>
</g>
<defs>
<clipPath id="clip0_1_764">
<rect width="70" height="70" fill="white"/>
</clipPath>
</defs>
</svg>
