<svg width="70" height="70" viewBox="0 0 70 70" fill="none" xmlns="http://www.w3.org/2000/svg">
<path d="M27.6954 49.6755C24.1824 49.6755 21.3236 46.8171 21.3236 43.3037C21.3236 40.2004 24.9982 36.2867 27.031 33.4804C27.8833 32.3032 28.9406 34.2564 29.5817 35.0747C31.5792 37.6238 34.066 40.7964 34.066 43.3028C34.066 46.8167 31.2084 49.675 27.695 49.675L27.6954 49.6755ZM27.6954 35.3249C25.9088 37.6324 22.9651 41.1462 22.9651 43.3041C22.9651 45.9123 25.0876 48.0344 27.6962 48.0344C30.3048 48.0344 32.4266 45.9123 32.4266 43.3041C32.4266 41.1479 29.4833 37.6304 27.6954 35.3249Z" fill="black"/>
<path d="M27.9732 46.8439C24.2879 46.8439 22.9016 42.0122 24.7825 42.0122C25.2354 42.0122 25.6029 42.3802 25.6029 42.8326C25.6029 44.1397 26.6664 45.2029 27.9732 45.2029C29.0535 45.2029 29.0523 46.8443 27.9732 46.8443V46.8439ZM51.6093 56.4461H47.5348C46.4549 56.4461 46.4553 54.8055 47.5348 54.8055H50.789V49.375H47.5348C46.4549 49.375 46.4553 47.7344 47.5348 47.7344H51.6093C52.0622 47.7344 52.4297 48.1023 52.4297 48.5547V55.6262C52.4305 56.0786 52.0626 56.4461 51.6093 56.4461ZM61.2546 33.04H53.6318C52.8821 33.04 52.2709 32.4297 52.2709 31.68V12.7225C52.2709 11.9727 52.8816 11.3628 53.6318 11.3628H61.2546C62.0044 11.3628 62.6151 11.9731 62.6151 12.7229C62.6151 19.1496 63.1438 18.6361 60.4568 18.6361V28.8696C62.8928 28.8696 62.6155 28.7211 62.6155 31.6804C62.6155 32.4297 62.0048 33.04 61.255 33.04H61.2546ZM53.912 31.3994H60.9732V30.5102C60.0824 30.5102 58.8146 30.7284 58.8146 29.6899V17.8158C58.8146 16.7773 60.0832 16.9955 60.9732 16.9955V13.0026H53.912V31.399V31.3994Z" fill="black"/>
<path d="M61.7943 30.5102C60.7144 30.5102 60.7148 28.8696 61.7943 28.8696C63.8906 28.8696 65.5956 27.1645 65.5956 25.069V20.4785L61.4502 18.5606C60.4707 18.1074 61.1581 16.6173 62.1392 17.0718L66.2207 18.961C66.5365 19.1062 67.2371 19.4294 67.2371 20.2448V25.0686C67.2371 28.0689 64.7954 30.5102 61.7947 30.5102H61.7943Z" fill="black"/>
<path d="M62.7266 26.1579L59.3457 24.9381C58.3359 24.557 58.9134 23.0202 59.9252 23.4033L61.9904 24.1834C61.9612 23.8479 61.894 23.5374 61.837 23.3294L59.0454 20.4432C58.2948 19.6667 59.4736 18.5269 60.2246 19.3029C60.6803 19.7738 63.2122 22.27 63.3381 22.6326C63.3923 22.7893 64.2979 26.1583 62.7266 26.1583V26.1579ZM58.9261 13.0029C57.2329 13.0029 55.4496 13.3454 55.4496 12.1826V6.38337C55.4496 6.19551 55.514 6.01299 55.6325 5.86739L59.8026 0.718675C60.1877 0.242481 60.9539 0.340919 61.1959 0.916781L62.3365 3.62792C62.3952 3.76747 62.4142 3.92054 62.3912 4.07018C62.3683 4.21981 62.3043 4.36018 62.2065 4.47572L59.7468 7.38251V12.1826C59.7464 12.6358 59.3793 13.0025 58.9261 13.0025V13.0029ZM57.0902 11.3623H58.1053C58.1053 10.3065 57.9253 6.99532 58.2994 6.55276L60.629 3.8006L60.2148 2.81622L57.0902 6.67417V11.3623ZM57.4425 52.3083H51.6093C50.5293 52.3083 50.5297 50.6677 51.6093 50.6677H56.6222V32.2196C56.6222 31.1397 58.2628 31.1397 58.2628 32.2196V51.488C58.2633 51.9404 57.8953 52.3083 57.4425 52.3083ZM47.5348 60.9639H7.85608C7.40327 60.9639 7.03577 60.596 7.03577 60.1436V4.7493C7.03577 2.13044 9.16572 0.000488281 11.7846 0.000488281H43.6071C46.2259 0.000488281 48.3559 2.13085 48.3559 4.7493V60.1428C48.3551 60.5964 47.9876 60.9639 47.5348 60.9639ZM8.6764 59.3224H46.7144V4.7493C46.7144 3.03525 45.3207 1.64071 43.6071 1.64071L11.7842 1.6403C10.0705 1.6403 8.67599 3.03484 8.67599 4.74889V59.322L8.6764 59.3224Z" fill="black"/>
<path d="M51.8074 69.9997H3.5835C3.13069 69.9997 2.76318 69.6318 2.76318 69.1794V61.7146C2.76318 60.3959 3.83575 59.3225 5.1544 59.3225H50.2357C51.5543 59.3225 52.6277 60.3959 52.6277 61.7146V69.1794C52.6277 69.6322 52.2602 69.9997 51.8074 69.9997ZM4.40382 68.3591H50.9871V61.7154C50.9871 61.3007 50.6503 60.9648 50.2361 60.9648H5.1544C4.74014 60.9648 4.40382 61.3015 4.40382 61.7154V68.3595V68.3591Z" fill="black"/>
<path d="M51.8069 65.9726H27.6954C26.6159 65.9726 26.6159 64.332 27.6954 64.332H51.8069C52.8869 64.332 52.8869 65.9726 51.8069 65.9726ZM42.0353 23.4942H13.3555C12.9027 23.4942 12.5352 23.1267 12.5352 22.6739V7.15601C12.5352 6.70319 12.9027 6.33569 13.3555 6.33569H42.0345C42.4873 6.33569 42.8548 6.70319 42.8548 7.15601V22.6739C42.8557 23.1276 42.4882 23.4942 42.0353 23.4942ZM14.1758 21.8536H41.2142V7.97632H14.1758V21.8536Z" fill="black"/>
<path d="M38.8427 20.4009H16.5477C16.0949 20.4009 15.7274 20.0334 15.7274 19.5806V10.2495C15.7274 9.7967 16.0949 9.4292 16.5477 9.4292H38.8427C39.2955 9.4292 39.663 9.7967 39.663 10.2495V19.5806C39.6638 20.0342 39.2959 20.4009 38.8427 20.4009ZM17.368 18.7603H38.0224V11.0698H17.368V18.7603Z" fill="black"/>
<path d="M21.5574 20.4008C21.1046 20.4008 20.7371 20.0333 20.7371 19.5805V10.2494C20.7371 9.16947 22.3777 9.16947 22.3777 10.2494V19.5805C22.3777 20.0341 22.0111 20.4008 21.5574 20.4008ZM27.6954 20.4008C27.2426 20.4008 26.8751 20.0333 26.8751 19.5805V10.2494C26.8751 9.16947 28.5158 9.16947 28.5158 10.2494V19.5805C28.5158 20.0341 28.1491 20.4008 27.6954 20.4008ZM33.8335 20.4008C33.3806 20.4008 33.0131 20.0333 33.0131 19.5805V10.2494C33.0131 9.16947 34.6538 9.16947 34.6538 10.2494V19.5805C34.6538 20.0341 34.2863 20.4008 33.8335 20.4008ZM47.5348 54.204H7.8561C6.77616 54.204 6.77616 52.5634 7.8561 52.5634H47.5348C48.6143 52.5634 48.6143 54.204 47.5348 54.204ZM47.5348 30.254H7.8561C6.77616 30.254 6.77616 28.6134 7.8561 28.6134H47.5348C48.6147 28.6134 48.6147 30.254 47.5348 30.254Z" fill="black"/>
</svg>
