<svg width="70" height="70" viewBox="0 0 70 70" fill="none" xmlns="http://www.w3.org/2000/svg">
<path d="M36.4056 39.9819H33.6001C33.31 39.9819 33.0318 40.0972 32.8267 40.3023C32.6216 40.5074 32.5063 40.7856 32.5063 41.0757C32.5063 41.3658 32.6216 41.644 32.8267 41.8491C33.0318 42.0542 33.31 42.1694 33.6001 42.1694H36.4056C36.6956 42.1694 36.9738 42.0542 37.179 41.8491C37.3841 41.644 37.4993 41.3658 37.4993 41.0757C37.4993 40.7856 37.3841 40.5074 37.179 40.3023C36.9738 40.0972 36.6956 39.9819 36.4056 39.9819Z" fill="black"/>
<path d="M57.4767 44.1273C56.8196 43.2826 56.3363 42.3161 56.0547 41.2836C55.7731 40.2511 55.6988 39.1731 55.8361 38.1117C55.9564 37.1164 56.0931 35.7492 56.2407 34.0539C58.1165 32.2547 59.4454 29.9578 59.4454 27.0594C59.4454 24.7406 59.1611 21.8477 57.1704 20.5625C57.1704 14.8477 55.3111 9.91484 51.7509 6.25078C47.7915 2.1875 41.9946 0 35.0001 0C28.0056 0 22.2087 2.1875 18.2329 6.24531C14.6673 9.90938 12.8079 14.8422 12.8079 20.557C10.8173 21.8422 10.5329 24.7352 10.5329 27.0539C10.5329 29.9523 11.8673 32.2492 13.7431 34.0484C13.8907 35.7328 14.022 37.1 14.1423 38.1063C14.2796 39.1676 14.2052 40.2457 13.9237 41.2782C13.6421 42.3106 13.1588 43.2771 12.5017 44.1219C11.3423 45.5656 8.61886 48.9398 10.6259 55.6063L12.0314 60.7469C13.3493 65.0125 17.7462 70 25.8564 70H44.1439C52.2595 70 56.6509 65.0125 57.9579 60.7031L59.347 55.6445C61.3595 48.9453 58.6415 45.5711 57.4767 44.1273ZM43.7501 37.6469H41.7212L46.5228 30.4391C46.561 30.4418 46.5994 30.4418 46.6376 30.4391C48.1251 30.182 50.8267 29.4875 52.2157 27.7484C52.8009 27.0211 53.0689 25.9437 53.3478 24.8008C53.6267 23.6578 54.0204 22.0664 54.6384 22.0664C54.9565 22.0531 55.2745 22.0937 55.579 22.1867C55.6459 22.2197 55.7154 22.2471 55.7868 22.2688C56.5634 22.6516 57.2798 23.7672 57.2798 27.0539C57.2798 34.5898 44.9423 37.3953 43.7501 37.6469ZM40.9009 46.3969L41.1032 44.0289H46.14C47.7806 46.1344 49.3118 48.4422 49.3118 51.3516C49.3118 58.0125 43.9962 62.8797 41.2235 62.8797H40.6056C40.1531 62.8797 39.7191 62.6999 39.3991 62.3799C39.0791 62.06 38.8993 61.626 38.8993 61.1734C38.8993 60.7578 39.129 60.3312 39.6868 59.7023L39.8454 59.5273C42.0329 57.0938 43.5751 55.3383 43.5751 52.2867C43.5751 49.6125 42.4431 47.2609 40.9228 46.4078L40.9009 46.3969ZM30.1384 59.5219L30.2915 59.6969C30.8384 60.3258 31.079 60.7523 31.079 61.168C31.0834 61.6196 30.9086 62.0545 30.5928 62.3774C30.2771 62.7003 29.8462 62.8849 29.3946 62.8906H28.7548C25.9876 62.8906 20.6665 58.0234 20.6665 51.3625C20.6665 48.2891 22.6407 45.7734 24.1228 44.1547C24.1556 44.1164 24.1775 44.0781 24.2048 44.0398H28.8751L29.0884 46.4844C27.7157 47.425 26.4306 49.7383 26.4306 52.2758C26.4306 55.3492 27.9946 57.1047 30.1603 59.5383L30.1384 59.5219ZM21.5907 39.8344H28.5087L28.6837 41.8523H20.94L21.5907 39.8344ZM24.6204 28.2406L26.529 27.8195L32.047 36.2414H29.9743L24.6204 28.2406ZM38.5767 46.9984H31.4071C31.3875 46.8831 31.3525 46.7709 31.3032 46.6648L30.5868 38.4289H39.4189L38.7025 46.6648C38.6508 46.77 38.6157 46.8825 38.5986 46.9984H38.5767ZM34.6392 36.2414L30.3189 29.5914C33.2738 30.7589 36.5583 30.7804 39.5282 29.6516L35.3337 36.2141L34.6392 36.2414ZM40.004 36.2414H37.9314L43.0446 28.2078L45.2321 28.4266L40.004 36.2414ZM35.0001 28.2953C32.905 28.2953 30.857 27.674 29.115 26.5101C27.373 25.3461 26.0152 23.6917 25.2135 21.7561C24.4117 19.8205 24.202 17.6906 24.6107 15.6358C25.0194 13.5809 26.0283 11.6934 27.5098 10.212C28.9912 8.73053 30.8787 7.72165 32.9335 7.31292C34.9884 6.90418 37.1183 7.11396 39.0539 7.91572C40.9895 8.71747 42.6439 10.0752 43.8078 11.8172C44.9718 13.5592 45.5931 15.6073 45.5931 17.7023C45.5902 20.5109 44.4732 23.2036 42.4873 25.1895C40.5013 27.1754 37.8087 28.2924 35.0001 28.2953ZM33.2884 49.1859H36.7118V51.6688H33.2884V49.1859ZM41.3165 41.8523L41.4915 39.8344H48.2181L48.672 41.8523H41.3165ZM19.797 7.77109C23.3571 4.11797 28.6126 2.1875 35.0001 2.1875C41.3876 2.1875 46.6486 4.11797 50.2032 7.77109C53.2275 10.8773 54.8681 15.05 54.9993 19.9062H54.6384C52.3087 19.9062 51.6798 22.4438 51.2259 24.2812C51.0983 25.0161 50.8566 25.7265 50.5095 26.3867C49.8834 27.0522 49.0902 27.5376 48.2126 27.7922C48.2674 27.5433 48.2366 27.2831 48.1251 27.0539C48.0448 26.8827 47.9214 26.7353 47.7671 26.6261C47.6128 26.5168 47.4328 26.4494 47.2446 26.4305L44.5485 26.1625C46.17 24.3314 47.2319 22.0735 47.6083 19.6568C47.9848 17.2402 47.6599 14.7663 46.6722 12.5288C45.6845 10.2913 44.0756 8.38414 42.0363 7.0338C39.9971 5.68346 37.6132 4.94661 35.1677 4.91073C32.7221 4.87485 30.3176 5.54144 28.2397 6.83137C26.1617 8.12129 24.4975 9.98038 23.4446 12.1879C22.3917 14.3955 21.9943 16.8588 22.2997 19.2855C22.6051 21.7122 23.6003 24.0002 25.1673 25.8781L22.586 26.425C22.4126 26.4639 22.2512 26.5445 22.1159 26.6598C21.9806 26.7751 21.8754 26.9216 21.8095 27.0867C21.726 27.2975 21.7126 27.5295 21.7712 27.7484C20.8948 27.4911 20.1023 27.0062 19.4743 26.343C19.1272 25.6828 18.8855 24.9724 18.7579 24.2375C18.2985 22.3891 17.6642 19.8625 15.3454 19.8625H14.979C15.1376 15.05 16.7782 10.8773 19.797 7.77109ZM12.7204 27.0539C12.7204 23.7727 13.4423 22.6789 14.2189 22.2688C14.2885 22.2471 14.3562 22.2197 14.4212 22.1867C14.7275 22.0936 15.0474 22.053 15.3673 22.0664C15.9853 22.0664 16.3571 23.5758 16.6525 24.8008C16.9478 26.0258 17.1993 27.0211 17.7845 27.7484C19.19 29.5039 21.9079 30.1984 23.4884 30.4828L28.2845 37.6797H26.2501C25.0634 37.3953 12.7204 34.5898 12.7204 27.0539ZM57.2415 55.0539L55.8579 60.107C55.4696 61.3922 53.047 67.8125 44.1439 67.8125H25.8564C16.9423 67.8125 14.536 61.3922 14.1532 60.1562L12.7532 55.0484C11.0689 49.4211 13.1251 46.8672 14.2189 45.5C15.0552 44.425 15.67 43.1948 16.0277 41.8806C16.3853 40.5664 16.4787 39.1943 16.3025 37.8438C16.2423 37.2969 16.1712 36.657 16.1001 35.9078C17.348 36.7168 18.6679 37.4088 20.0431 37.975C19.9236 38.0906 19.8336 38.2331 19.7806 38.3906L18.386 42.6016C18.3315 42.766 18.3167 42.9411 18.3431 43.1123C18.3694 43.2836 18.4361 43.4461 18.5375 43.5866C18.639 43.7271 18.7724 43.8414 18.9267 43.9202C19.081 43.999 19.2518 44.04 19.4251 44.0398H21.3282C19.8845 45.8773 18.4626 48.3492 18.4626 51.3625C18.479 58.6195 24.2267 65.0781 28.7548 65.0781H29.3946C29.906 65.0781 30.4123 64.9774 30.8847 64.7817C31.3571 64.5861 31.7864 64.2992 32.1479 63.9377C32.5095 63.5761 32.7963 63.1469 32.992 62.6744C33.1877 62.202 33.2884 61.6957 33.2884 61.1844C33.2297 60.0743 32.7506 59.0282 31.9485 58.2586L31.7954 58.0836C29.7446 55.7812 28.6181 54.5125 28.6181 52.2977C28.6374 51.1058 29.0188 49.948 29.7118 48.9781C29.8965 49.1118 30.1183 49.1845 30.3462 49.1859H31.1228V52.7625C31.1228 53.0526 31.238 53.3308 31.4431 53.5359C31.6482 53.741 31.9264 53.8563 32.2165 53.8563H37.8056C38.0957 53.8563 38.3739 53.741 38.579 53.5359C38.7841 53.3308 38.8993 53.0526 38.8993 52.7625V49.1859H39.6759C39.9602 49.1848 40.2328 49.073 40.4361 48.8742C41.0907 49.8935 41.4224 51.0867 41.3876 52.2977C41.3876 54.5125 40.2611 55.7812 38.2103 58.0836L38.0517 58.2586C37.2496 59.0282 36.7705 60.0743 36.7118 61.1844C36.7133 62.2166 37.124 63.2062 37.8539 63.9361C38.5838 64.666 39.5733 65.0767 40.6056 65.0781H41.2454C45.779 65.0781 51.5212 58.6195 51.5212 51.3625C51.5212 48.4477 50.3181 46.0742 48.8907 44.0398H50.0337C50.1995 44.0437 50.3639 44.0099 50.5147 43.9409C50.6654 43.8718 50.7985 43.7695 50.9039 43.6415C51.0092 43.5134 51.0841 43.3632 51.1228 43.202C51.1616 43.0407 51.1631 42.8728 51.1275 42.7109L50.1923 38.5055C50.1506 38.3176 50.06 38.144 49.9298 38.0023C51.3213 37.4288 52.6576 36.7296 53.922 35.9133C53.8454 36.668 53.7798 37.3133 53.7142 37.8492C53.5402 39.2001 53.6352 40.5721 53.9937 41.8861C54.3523 43.2001 54.9672 44.4302 55.8032 45.5055C56.8751 46.8672 58.9314 49.4211 57.2415 55.0539Z" fill="black"/>
</svg>
