<svg width="70" height="70" viewBox="0 0 70 70" fill="none" xmlns="http://www.w3.org/2000/svg">
<path d="M54.6514 22.5751C54.1496 21.9472 53.6178 21.3438 53.0578 20.7672L51.4883 22.2897C51.9969 22.8147 52.4869 23.3703 52.943 23.9412L54.6514 22.5751ZM55.3503 27.6206L57.2873 26.6045C56.9135 25.8927 56.5058 25.1992 56.0656 24.5264L54.2358 25.7295C54.6339 26.3333 55.0091 26.9709 55.3503 27.6206ZM51.2969 19.1189C50.6849 18.5987 50.0488 18.1078 49.3905 17.6478L48.1381 19.4393C48.7353 19.8583 49.3216 20.3143 49.8794 20.7858L51.2969 19.1189ZM57.8594 36.0064L60.037 35.7876C59.9583 34.9866 59.8412 34.1898 59.6859 33.4L57.54 33.8233C57.6778 34.5418 57.7861 35.2747 57.8594 36.0064ZM57.0095 31.6926L59.1052 31.0648C58.8766 30.2992 58.6064 29.5336 58.3045 28.792L56.2778 29.6167C56.5545 30.297 56.8006 30.9926 57.0095 31.6926ZM57.8725 40.4043L60.0502 40.6045C60.1202 39.8389 60.1595 39.0568 60.1595 38.1983L57.9688 38.2814C57.9688 38.9901 57.9359 39.7033 57.8725 40.4043ZM29.6406 62.8645C30.3417 63.0165 31.057 63.1401 31.768 63.2309L32.0447 61.062C31.3938 60.9774 30.7469 60.8654 30.1055 60.7262L29.6406 62.8645ZM34.0047 61.2283L33.9095 63.4158C34.2719 63.4303 34.6354 63.4376 35 63.4376C35.3577 63.4376 35.7131 63.43 36.0686 63.4147L35.9756 61.2272C35.3205 61.2578 34.6577 61.2567 34.0047 61.2283ZM25.5172 61.5892C26.1844 61.8604 26.868 62.1054 27.5494 62.3154L28.1947 60.2253C27.5677 60.0314 26.9495 59.8102 26.3419 59.5625L25.5172 61.5892ZM41.7812 60.2318L42.4255 62.322C43.1134 62.1093 43.7918 61.867 44.4587 61.5958L43.6406 59.5701C43.0308 59.8177 42.4104 60.0384 41.7812 60.2318ZM37.94 61.0631L38.2167 63.2331C38.9266 63.1423 39.6386 63.0143 40.3441 62.8678L39.8814 60.7295C39.2405 60.8684 38.5875 60.9811 37.94 61.0631ZM12.1264 40.3792C12.0629 39.6817 12.0312 38.9817 12.0312 38.2814V38.172L9.84375 38.2814C9.84375 39.047 9.87875 39.8181 9.95313 40.5783L12.1264 40.3792ZM13.7287 29.5992L11.7031 28.7712C11.3996 29.5153 11.1317 30.2734 10.9003 31.0429L12.9959 31.6718C13.2059 30.9708 13.4531 30.274 13.7287 29.5992ZM21.875 19.4317L20.6238 17.6379C19.9675 18.0973 19.3233 18.5928 18.7152 19.1101L20.125 20.7814C20.6853 20.3024 21.2694 19.8519 21.875 19.4317ZM12.4687 33.8058L10.3206 33.3814C10.1653 34.1667 10.0472 34.9695 9.96734 35.7658L12.145 35.9845C12.2161 35.255 12.3255 34.5222 12.4687 33.8058ZM15.773 25.7098L13.9442 24.5067C13.5067 25.1772 13.0933 25.8761 12.7214 26.5848L14.6573 27.6031C14.9975 26.96 15.3727 26.3223 15.773 25.7098ZM18.5216 22.2809L16.9531 20.7562C16.3932 21.3321 15.861 21.9343 15.3584 22.5609L17.0647 23.9303C17.5241 23.3583 18.0141 22.8037 18.5216 22.2809Z" fill="black"/>
<path d="M56.875 42.6564C55.1934 42.6573 53.5307 43.012 51.9951 43.6975C50.4596 44.3831 49.0854 45.3841 47.962 46.6354L40.8275 41.2848C41.3029 40.3685 41.5548 39.3527 41.5626 38.3204C41.5703 37.2881 41.3337 36.2687 40.872 35.3454C40.4104 34.422 39.7368 33.621 38.9063 33.0079C38.0758 32.3947 37.1121 31.9867 36.0938 31.8173V27.2881C39.177 27.0066 42.0331 25.5473 44.068 23.2138C46.1028 20.8803 47.1597 17.8521 47.0188 14.7592C46.8779 11.6663 45.5501 8.74676 43.3116 6.60787C41.073 4.46897 38.0961 3.27539 35 3.27539C31.9039 3.27539 28.927 4.46897 26.6884 6.60787C24.4499 8.74676 23.1221 11.6663 22.9812 14.7592C22.8403 17.8521 23.8972 20.8803 25.932 23.2138C27.9669 25.5473 30.823 27.0066 33.9063 27.2881V31.8173C32.8879 31.9869 31.9241 32.395 31.0937 33.0083C30.2632 33.6216 29.5897 34.4227 29.128 35.3461C28.6664 36.2694 28.4298 37.289 28.4375 38.3213C28.4452 39.3536 28.6971 40.3695 29.1725 41.2859L22.0391 46.6354C19.9581 44.33 17.0685 42.9156 13.9712 42.6865C10.874 42.4575 7.80773 43.4313 5.41027 45.4055C3.01282 47.3797 1.46881 50.2023 1.09947 53.2859C0.730129 56.3696 1.56389 59.4769 3.4273 61.9614C5.29071 64.446 8.04029 66.1164 11.104 66.6253C14.1677 67.1341 17.3097 66.4422 19.8762 64.6934C22.4427 62.9446 24.2362 60.2737 24.8835 57.2362C25.5308 54.1987 24.9821 51.0286 23.3516 48.3854L30.4861 43.0359C31.7013 44.1976 33.3177 44.8459 34.9989 44.8459C36.6801 44.8459 38.2965 44.1976 39.5117 43.0359L46.6463 48.3854C45.254 50.6524 44.6532 53.3172 44.938 55.9623C45.2228 58.6074 46.3771 61.0833 48.2201 63.0019C50.0631 64.9205 52.4905 66.1734 55.122 66.5643C57.7535 66.9552 60.4404 66.462 62.7615 65.162C65.0826 63.8619 66.9068 61.8286 67.9482 59.3805C68.9896 56.9324 69.1894 54.208 68.5162 51.6342C67.843 49.0604 66.3349 46.7827 64.2282 45.158C62.1215 43.5333 59.5354 42.6535 56.875 42.6564ZM8.75 63.4923V61.2501C8.75 60.0898 9.21094 58.977 10.0314 58.1565C10.8519 57.336 11.9647 56.8751 13.125 56.8751C14.2853 56.8751 15.3981 57.336 16.2186 58.1565C17.0391 58.977 17.5 60.0898 17.5 61.2501V63.4923C16.1427 64.1752 14.6444 64.5308 13.125 64.5308C11.6056 64.5308 10.1073 64.1752 8.75 63.4923ZM10.9375 52.5001V51.4064C10.9375 50.8262 11.168 50.2698 11.5782 49.8596C11.9884 49.4493 12.5448 49.2189 13.125 49.2189C13.7052 49.2189 14.2616 49.4493 14.6718 49.8596C15.082 50.2698 15.3125 50.8262 15.3125 51.4064V52.5001C15.3125 53.0803 15.082 53.6367 14.6718 54.0469C14.2616 54.4571 13.7052 54.6876 13.125 54.6876C12.5448 54.6876 11.9884 54.4571 11.5782 54.0469C11.168 53.6367 10.9375 53.0803 10.9375 52.5001ZM19.6875 62.0037V61.2501C19.6868 60.076 19.3712 58.9236 18.7734 57.913C18.1757 56.9024 17.3178 56.0707 16.2892 55.5046C17.0645 54.6963 17.4982 53.6201 17.5 52.5001V51.4064C17.5 50.246 17.0391 49.1332 16.2186 48.3128C15.3981 47.4923 14.2853 47.0314 13.125 47.0314C11.9647 47.0314 10.8519 47.4923 10.0314 48.3128C9.21094 49.1332 8.75 50.246 8.75 51.4064V52.5001C8.75184 53.6201 9.18552 54.6963 9.96078 55.5046C8.93218 56.0707 8.07428 56.9024 7.47656 57.913C6.87884 58.9236 6.56318 60.076 6.5625 61.2501V62.0037C5.07656 60.6746 4.02918 58.9257 3.55897 56.9883C3.08876 55.051 3.21788 53.0165 3.92924 51.1541C4.64061 49.2918 5.90068 47.6893 7.54273 46.5587C9.18478 45.4282 11.1314 44.8228 13.125 44.8228C15.1186 44.8228 17.0652 45.4282 18.7073 46.5587C20.3493 47.6893 21.6094 49.2918 22.3208 51.1541C23.0321 53.0165 23.1612 55.051 22.691 56.9883C22.2208 58.9257 21.1734 60.6746 19.6875 62.0037ZM32.8125 13.1251V12.0314C32.8125 11.4512 33.043 10.8948 33.4532 10.4846C33.8634 10.0743 34.4198 9.84385 35 9.84385C35.5802 9.84385 36.1366 10.0743 36.5468 10.4846C36.957 10.8948 37.1875 11.4512 37.1875 12.0314V13.1251C37.1875 13.7053 36.957 14.2617 36.5468 14.6719C36.1366 15.0821 35.5802 15.3126 35 15.3126C34.4198 15.3126 33.8634 15.0821 33.4532 14.6719C33.043 14.2617 32.8125 13.7053 32.8125 13.1251ZM35 17.5001C36.1603 17.5001 37.2731 17.961 38.0936 18.7815C38.9141 19.602 39.375 20.7148 39.375 21.8751V24.1173C38.0177 24.8002 36.5194 25.1558 35 25.1558C33.4806 25.1558 31.9823 24.8002 30.625 24.1173V21.8751C30.625 20.7148 31.0859 19.602 31.9064 18.7815C32.7269 17.961 33.8397 17.5001 35 17.5001ZM25.1563 15.3126C25.1528 13.6697 25.5605 12.0521 26.3423 10.6072C27.1241 9.16222 28.2552 7.93594 29.6323 7.0401C31.0095 6.14425 32.5889 5.60733 34.2267 5.47828C35.8646 5.34923 37.5086 5.63216 39.0091 6.30126C40.5095 6.97037 41.8187 8.00437 42.8171 9.30903C43.8156 10.6137 44.4717 12.1475 44.7255 13.7707C44.9794 15.3938 44.8229 17.0547 44.2704 18.6019C43.718 20.1491 42.787 21.5334 41.5625 22.6287V21.8751C41.5618 20.701 41.2462 19.5486 40.6484 18.538C40.0507 17.5275 39.1928 16.6957 38.1642 16.1296C38.9395 15.3213 39.3732 14.2451 39.375 13.1251V12.0314C39.375 10.871 38.9141 9.75823 38.0936 8.93776C37.2731 8.11729 36.1603 7.65635 35 7.65635C33.8397 7.65635 32.7269 8.11729 31.9064 8.93776C31.0859 9.75823 30.625 10.871 30.625 12.0314V13.1251C30.6268 14.2451 31.0605 15.3213 31.8358 16.1296C30.8072 16.6957 29.9493 17.5275 29.3516 18.538C28.7538 19.5486 28.4382 20.701 28.4375 21.8751V22.6287C27.4063 21.709 26.5809 20.5819 26.0155 19.3211C25.45 18.0603 25.1572 16.6944 25.1563 15.3126ZM35 42.6564C34.1347 42.6564 33.2888 42.3998 32.5694 41.919C31.8499 41.4383 31.2892 40.755 30.958 39.9556C30.6269 39.1562 30.5403 38.2765 30.7091 37.4278C30.8779 36.5792 31.2946 35.7996 31.9064 35.1878C32.5183 34.5759 33.2978 34.1592 34.1465 33.9904C34.9951 33.8216 35.8748 33.9082 36.6742 34.2394C37.4737 34.5705 38.157 35.1313 38.6377 35.8507C39.1184 36.5702 39.375 37.4161 39.375 38.2814C39.375 39.4417 38.9141 40.5545 38.0936 41.3749C37.2731 42.1954 36.1603 42.6564 35 42.6564ZM52.5 63.4923V61.2501C52.5 60.0898 52.9609 58.977 53.7814 58.1565C54.6019 57.336 55.7147 56.8751 56.875 56.8751C58.0353 56.8751 59.1481 57.336 59.9686 58.1565C60.7891 58.977 61.25 60.0898 61.25 61.2501V63.4923C59.8927 64.1752 58.3944 64.5308 56.875 64.5308C55.3556 64.5308 53.8573 64.1752 52.5 63.4923ZM54.6875 52.5001V51.4064C54.6875 50.8262 54.918 50.2698 55.3282 49.8596C55.7384 49.4493 56.2948 49.2189 56.875 49.2189C57.4552 49.2189 58.0116 49.4493 58.4218 49.8596C58.832 50.2698 59.0625 50.8262 59.0625 51.4064V52.5001C59.0625 53.0803 58.832 53.6367 58.4218 54.0469C58.0116 54.4571 57.4552 54.6876 56.875 54.6876C56.2948 54.6876 55.7384 54.4571 55.3282 54.0469C54.918 53.6367 54.6875 53.0803 54.6875 52.5001ZM63.4375 62.0037V61.2501C63.4368 60.076 63.1212 58.9236 62.5234 57.913C61.9257 56.9024 61.0678 56.0707 60.0392 55.5046C60.8145 54.6963 61.2482 53.6201 61.25 52.5001V51.4064C61.25 50.246 60.7891 49.1332 59.9686 48.3128C59.1481 47.4923 58.0353 47.0314 56.875 47.0314C55.7147 47.0314 54.6019 47.4923 53.7814 48.3128C52.9609 49.1332 52.5 50.246 52.5 51.4064V52.5001C52.5018 53.6201 52.9355 54.6963 53.7108 55.5046C52.6822 56.0707 51.8243 56.9024 51.2266 57.913C50.6288 58.9236 50.3132 60.076 50.3125 61.2501V62.0037C48.8266 60.6746 47.7792 58.9257 47.309 56.9883C46.8388 55.051 46.9679 53.0165 47.6792 51.1541C48.3906 49.2918 49.6507 47.6893 51.2927 46.5587C52.9348 45.4282 54.8814 44.8228 56.875 44.8228C58.8686 44.8228 60.8152 45.4282 62.4573 46.5587C64.0993 47.6893 65.3594 49.2918 66.0708 51.1541C66.7821 53.0165 66.9112 55.051 66.441 56.9883C65.9708 58.9257 64.9235 60.6746 63.4375 62.0037Z" fill="black"/>
</svg>
