<svg width="70" height="70" viewBox="0 0 70 70" fill="none" xmlns="http://www.w3.org/2000/svg">
<path d="M26.25 63.4375H17.5C17.2099 63.4375 16.9317 63.5527 16.7266 63.7579C16.5215 63.963 16.4062 64.2412 16.4062 64.5312C16.4062 64.8213 16.5215 65.0995 16.7266 65.3046C16.9317 65.5098 17.2099 65.625 17.5 65.625H26.25C26.5401 65.625 26.8183 65.5098 27.0234 65.3046C27.2285 65.0995 27.3438 64.8213 27.3438 64.5312C27.3438 64.2412 27.2285 63.963 27.0234 63.7579C26.8183 63.5527 26.5401 63.4375 26.25 63.4375Z" fill="black"/>
<path d="M63.9844 21.875H41.5625V4.92188C41.5614 3.90694 41.1577 2.93389 40.44 2.21622C39.7224 1.49855 38.7493 1.09487 37.7344 1.09375H6.01562C5.00069 1.09487 4.02764 1.49855 3.30997 2.21622C2.5923 2.93389 2.18862 3.90694 2.1875 4.92188V65.0781C2.18862 66.0931 2.5923 67.0661 3.30997 67.7838C4.02764 68.5014 5.00069 68.9051 6.01562 68.9062H37.7344C38.7493 68.9051 39.7224 68.5014 40.44 67.7838C41.1577 67.0661 41.5614 66.0931 41.5625 65.0781V49.2188H63.9844C64.9993 49.2176 65.9724 48.8139 66.69 48.0963C67.4077 47.3786 67.8114 46.4056 67.8125 45.3906V25.7031C67.8114 24.6882 67.4077 23.7151 66.69 22.9975C65.9724 22.2798 64.9993 21.8761 63.9844 21.875ZM27.0361 3.28125L26.4893 5.46875H17.2607L16.7139 3.28125H27.0361ZM39.375 65.0781C39.3746 65.5131 39.2017 65.9302 38.8941 66.2378C38.5865 66.5454 38.1694 66.7184 37.7344 66.7188H6.01562C5.58062 66.7184 5.16353 66.5454 4.85593 66.2378C4.54833 65.9302 4.37536 65.5131 4.375 65.0781V4.92188C4.37536 4.48687 4.54833 4.06978 4.85593 3.76218C5.16353 3.45458 5.58062 3.28161 6.01562 3.28125H14.458L15.3453 6.82773C15.4045 7.06436 15.541 7.27442 15.7332 7.42454C15.9255 7.57465 16.1623 7.65621 16.4062 7.65625H27.3438C27.5877 7.65621 27.8245 7.57465 28.0168 7.42454C28.209 7.27442 28.3455 7.06436 28.4047 6.82773L29.292 3.28125H37.7344C38.1694 3.28161 38.5865 3.45458 38.8941 3.76218C39.2017 4.06978 39.3746 4.48687 39.375 4.92188V65.0781ZM41.5625 38.2812H44.8438V42.6562H41.5625V38.2812ZM65.625 45.3906C65.6246 45.8256 65.4517 46.2427 65.1441 46.5503C64.8365 46.8579 64.4194 47.0309 63.9844 47.0312H41.5625V44.8438H45.9375C46.2276 44.8438 46.5058 44.7285 46.7109 44.5234C46.916 44.3183 47.0312 44.0401 47.0312 43.75V37.1875C47.0312 36.8974 46.916 36.6192 46.7109 36.4141C46.5058 36.209 46.2276 36.0938 45.9375 36.0938H41.5625V32.8125H65.625V45.3906ZM65.625 30.625H41.5625V28.4375H65.625V30.625ZM65.625 26.25H41.5625V24.0625H63.9844C64.4194 24.0629 64.8365 24.2358 65.1441 24.5434C65.4517 24.851 65.6246 25.2681 65.625 25.7031V26.25Z" fill="black"/>
<path d="M62.3438 36.0938H52.5C52.2099 36.0938 51.9317 36.209 51.7266 36.4141C51.5215 36.6192 51.4063 36.8974 51.4063 37.1875C51.4063 37.4776 51.5215 37.7558 51.7266 37.9609C51.9317 38.166 52.2099 38.2812 52.5 38.2812H62.3438C62.6338 38.2812 62.912 38.166 63.1172 37.9609C63.3223 37.7558 63.4375 37.4776 63.4375 37.1875C63.4375 36.8974 63.3223 36.6192 63.1172 36.4141C62.912 36.209 62.6338 36.0938 62.3438 36.0938ZM62.3438 39.375H52.5C52.2099 39.375 51.9317 39.4902 51.7266 39.6954C51.5215 39.9005 51.4063 40.1787 51.4063 40.4688C51.4063 40.7588 51.5215 41.037 51.7266 41.2421C51.9317 41.4473 52.2099 41.5625 52.5 41.5625H62.3438C62.6338 41.5625 62.912 41.4473 63.1172 41.2421C63.3223 41.037 63.4375 40.7588 63.4375 40.4688C63.4375 40.1787 63.3223 39.9005 63.1172 39.6954C62.912 39.4902 62.6338 39.375 62.3438 39.375ZM62.3438 42.6562H57.9688C57.6787 42.6562 57.4005 42.7715 57.1954 42.9766C56.9902 43.1817 56.875 43.4599 56.875 43.75C56.875 44.0401 56.9902 44.3183 57.1954 44.5234C57.4005 44.7285 57.6787 44.8438 57.9688 44.8438H62.3438C62.6338 44.8438 62.912 44.7285 63.1172 44.5234C63.3223 44.3183 63.4375 44.0401 63.4375 43.75C63.4375 43.4599 63.3223 43.1817 63.1172 42.9766C62.912 42.7715 62.6338 42.6562 62.3438 42.6562ZM21.875 21.875C19.2791 21.875 16.7415 22.6448 14.5831 24.087C12.4248 25.5292 10.7425 27.579 9.74909 29.9773C8.75569 32.3756 8.49577 35.0146 9.0022 37.5606C9.50863 40.1066 10.7587 42.4452 12.5942 44.2808C14.4298 46.1163 16.7684 47.3664 19.3144 47.8728C21.8604 48.3792 24.4994 48.1193 26.8977 47.1259C29.296 46.1325 31.3458 44.4503 32.788 42.2919C34.2302 40.1335 35 37.5959 35 35C34.9961 31.5202 33.612 28.1841 31.1515 25.7235C28.6909 23.263 25.3548 21.8789 21.875 21.875ZM21.875 45.9375C19.7118 45.9375 17.5971 45.296 15.7985 44.0942C13.9998 42.8924 12.5979 41.1842 11.7701 39.1856C10.9422 37.187 10.7256 34.9879 11.1477 32.8662C11.5697 30.7445 12.6114 28.7957 14.141 27.266C15.6707 25.7364 17.6195 24.6947 19.7412 24.2727C21.8629 23.8506 24.062 24.0672 26.0606 24.8951C28.0592 25.7229 29.7674 27.1248 30.9692 28.9235C32.171 30.7221 32.8125 32.8368 32.8125 35C32.8092 37.8998 31.6558 40.6799 29.6054 42.7303C27.5549 44.7808 24.7748 45.9342 21.875 45.9375Z" fill="black"/>
<path d="M27.6641 30.9454L20.6786 37.9309L17.0625 35.2188C16.8304 35.0447 16.5387 34.97 16.2516 35.011C15.9644 35.052 15.7053 35.2055 15.5313 35.4375C15.3572 35.6696 15.2825 35.9613 15.3235 36.2485C15.3645 36.5356 15.5179 36.7947 15.75 36.9688L20.125 40.25C20.3356 40.408 20.5962 40.4847 20.8588 40.466C21.1214 40.4474 21.3685 40.3346 21.5547 40.1484L29.2109 32.4922C29.416 32.2871 29.5313 32.0089 29.5313 31.7188C29.5313 31.4287 29.416 31.1505 29.2109 30.9454C29.0058 30.7402 28.7276 30.625 28.4375 30.625C28.1474 30.625 27.8692 30.7402 27.6641 30.9454Z" fill="black"/>
</svg>
