<svg width="70" height="70" viewBox="0 0 70 70" fill="none" xmlns="http://www.w3.org/2000/svg">
<g clip-path="url(#clip0_1_807)">
<path d="M56.8077 60.9677L54.194 53.1255C53.7459 51.7814 52.9447 50.5826 51.8743 49.6544C50.8039 48.7262 49.5036 48.1028 48.1097 47.8495L40.5644 46.4766V45.8918C41.8774 45.1297 43.02 44.1102 43.93 42.9032H46.2095C48.0769 42.9032 49.5966 41.3835 49.5966 39.5161V25.9677C49.5966 17.8748 43.0121 11.2903 34.9192 11.2903C26.8263 11.2903 20.2418 17.8748 20.2418 25.9677V33.871C20.2418 36.0477 21.7897 37.8689 23.8423 38.2934C24.4757 41.5382 26.5034 44.284 29.274 45.8918V46.4766L21.7276 47.8495C20.3338 48.1029 19.0337 48.7263 17.9635 49.6545C16.8933 50.5827 16.0923 51.7815 15.6444 53.1255L15.1928 54.4815L11.3473 50.636C10.9069 50.1956 10.9069 49.4787 11.3473 49.0384L15.8069 44.5798L7.4363 36.2092L2.3963 41.2492C0.903722 42.7418 0.0817871 44.7266 0.0817871 46.8379C0.0817871 48.9492 0.903722 50.9329 2.3963 52.4255L17.6552 67.6844C19.1478 69.1769 21.1326 70 23.2439 70C25.3552 70 27.3389 69.1769 28.7965 67.7182L34.296 62.6794L32.581 60.9677H56.8077ZM47.3386 39.5161C47.3386 40.1394 46.8316 40.6452 46.2095 40.6452H45.26C45.591 39.8907 45.8379 39.102 45.9961 38.2934C46.4794 38.1929 46.9242 38.001 47.3386 37.7594V39.5161ZM46.2095 35.8152V31.9268C46.8813 32.3185 47.3386 33.0389 47.3386 33.871C47.3386 34.7031 46.8813 35.4234 46.2095 35.8152ZM23.6289 35.8152C22.9571 35.4234 22.4998 34.7031 22.4998 33.871C22.4998 33.0389 22.9571 32.3185 23.6289 31.9268V35.8152ZM23.6289 28.2258V29.5152C23.2329 29.6186 22.8531 29.7759 22.4998 29.9826V25.9677C22.4998 19.1202 28.0716 13.5484 34.9192 13.5484C41.7668 13.5484 47.3386 19.1202 47.3386 25.9677V29.9826C46.9856 29.7754 46.6056 29.6182 46.2095 29.5152V28.2258H45.0805C41.7419 28.2258 38.6032 26.9252 36.2413 24.5644L34.9192 23.2423L33.5971 24.5644C31.2352 26.9252 28.0965 28.2258 24.7579 28.2258H23.6289ZM25.8869 36.129V30.441C29.2774 30.1858 32.4387 28.7869 34.9192 26.4284C37.3997 28.7869 40.561 30.1869 43.9515 30.441V36.129C43.9515 37.7752 43.5021 39.3152 42.7299 40.6452H34.9192V42.9032H40.8737C39.2818 44.3044 37.201 45.1613 34.9192 45.1613C29.939 45.1613 25.8869 41.1092 25.8869 36.129ZM38.3063 46.8989V46.9519L34.9192 50.339L31.5321 46.9519V46.8989C32.6024 47.2353 33.7394 47.4194 34.9192 47.4194C36.099 47.4194 37.236 47.2353 38.3063 46.8989ZM17.785 53.839C18.1051 52.8789 18.6773 52.0224 19.4418 51.3593C20.2063 50.6961 21.135 50.2505 22.1307 50.0692L30.0226 48.6353L34.9192 53.5319L39.8147 48.6365L47.7055 50.0703C48.7013 50.2514 49.63 50.6969 50.3946 51.3601C51.1591 52.0234 51.7313 52.8799 52.0511 53.8402L53.6758 58.7097H30.3229L25.9253 54.3121L21.0389 58.7323C20.6132 59.1602 19.8692 59.1602 19.4424 58.7323L16.9766 56.2664L17.785 53.839ZM7.43517 39.4021L12.6129 44.5798L11.3868 45.806L6.20904 40.6282L7.43517 39.4021ZM27.2328 66.0902C26.1669 67.1537 24.7489 67.7419 23.2416 67.7419C21.7344 67.7419 20.3163 67.1537 19.2494 66.0879L3.9905 50.8302C2.92469 49.7644 2.33759 48.3463 2.33759 46.839C2.33759 45.3306 2.92469 43.9126 3.9905 42.8468L4.61146 42.2258L9.7892 47.4035L9.74856 47.4442C8.42872 48.7652 8.42872 50.9137 9.74856 52.2347L17.8448 60.331C18.485 60.97 19.3352 61.3234 20.2407 61.3234C21.1461 61.3234 21.9963 60.9711 22.5947 60.3705L22.6794 60.2948L27.8808 65.4963L27.2328 66.0902ZM29.5473 63.9676L24.3571 58.7774L25.8486 57.4294L31.0297 62.6105L29.5473 63.9676ZM66.5321 0H50.7257C48.8582 0 47.3386 1.51968 47.3386 3.3871V12.4194C47.3386 14.2868 48.8582 15.8065 50.7257 15.8065H53.7413L52.5739 22.6156L63.469 15.8065H66.5321C68.3995 15.8065 69.9192 14.2868 69.9192 12.4194V3.3871C69.9192 1.51968 68.3995 0 66.5321 0ZM67.6611 12.4194C67.6611 13.0415 67.1542 13.5484 66.5321 13.5484H62.821L55.6505 18.0295L56.4194 13.5484H50.7257C50.1036 13.5484 49.5966 13.0415 49.5966 12.4194V3.3871C49.5966 2.765 50.1036 2.25806 50.7257 2.25806H66.5321C67.1542 2.25806 67.6611 2.765 67.6611 3.3871V12.4194Z" fill="black"/>
<path d="M51.8547 4.51624H65.4031V6.7743H51.8547V4.51624ZM51.8547 9.03237H60.887V11.2904H51.8547V9.03237ZM63.145 9.03237H65.4031V11.2904H63.145V9.03237ZM34.9192 3.38721C20.1673 3.38721 7.46004 13.5914 4.15649 27.8251L2.01698 24.2585L0.0806885 25.4203L4.04924 32.033L10.662 28.0645L9.50021 26.1282L6.44053 27.964C9.64021 14.9429 21.3494 5.64527 34.9192 5.64527C37.8852 5.64527 40.8117 6.08559 43.6173 6.95495L44.2857 4.7985C41.2633 3.8614 38.1121 3.38721 34.9192 3.38721ZM69.3705 24.9991L62.7578 21.0306L58.7904 27.6445L60.7267 28.8062L62.7025 25.5129C63.7423 28.5556 64.2741 31.7383 64.2741 35.0001C64.2741 41.7145 61.9483 48.2787 57.7268 53.4824L59.4802 54.9049C64.0279 49.3004 66.5321 42.2304 66.5321 35.0001C66.5321 31.5464 65.9755 28.174 64.8905 24.9449L68.2088 26.9354L69.3705 24.9991Z" fill="black"/>
</g>
<defs>
<clipPath id="clip0_1_807">
<rect width="70" height="70" fill="white"/>
</clipPath>
</defs>
</svg>
