<svg width="38" height="38" viewBox="0 0 38 38" fill="none" xmlns="http://www.w3.org/2000/svg">
<circle cx="19" cy="19" r="19" fill="#F5D531"/>
<path d="M19.125 6C16.5291 6 13.9915 6.76977 11.8331 8.21196C9.67475 9.65416 7.99249 11.704 6.99909 14.1023C6.00569 16.5006 5.74577 19.1396 6.2522 21.6856C6.75863 24.2316 8.00867 26.5702 9.84423 28.4058C11.6798 30.2413 14.0184 31.4914 16.5644 31.9978C19.1104 32.5042 21.7494 32.2443 24.1477 31.2509C26.546 30.2575 28.5958 28.5753 30.038 26.4169C31.4802 24.2585 32.25 21.7209 32.25 19.125C32.2461 15.6452 30.862 12.3091 28.4015 9.84854C25.9409 7.38797 22.6048 6.00391 19.125 6ZM19.125 30.0625C16.9618 30.0625 14.8471 29.421 13.0485 28.2192C11.2498 27.0174 9.84791 25.3092 9.02007 23.3106C8.19224 21.312 7.97564 19.1129 8.39767 16.9912C8.81969 14.8695 9.86139 12.9207 11.391 11.391C12.9207 9.86138 14.8695 8.81969 16.9912 8.39766C19.1129 7.97563 21.312 8.19223 23.3106 9.02007C25.3092 9.8479 27.0174 11.2498 28.2192 13.0484C29.421 14.8471 30.0625 16.9618 30.0625 19.125C30.0592 22.0248 28.9058 24.8049 26.8554 26.8553C24.8049 28.9058 22.0248 30.0592 19.125 30.0625Z" fill="black"/>
<path d="M24.9141 15.0704L17.9286 22.0559L14.3125 19.3438C14.0804 19.1697 13.7887 19.095 13.5016 19.136C13.2144 19.177 12.9553 19.3305 12.7813 19.5625C12.6072 19.7946 12.5325 20.0863 12.5735 20.3735C12.6145 20.6606 12.7679 20.9197 13 21.0938L17.375 24.375C17.5856 24.533 17.8462 24.6097 18.1088 24.591C18.3714 24.5724 18.6185 24.4596 18.8047 24.2734L26.4609 16.6172C26.666 16.4121 26.7813 16.1339 26.7813 15.8438C26.7813 15.5537 26.666 15.2755 26.4609 15.0704C26.2558 14.8652 25.9776 14.75 25.6875 14.75C25.3974 14.75 25.1192 14.8652 24.9141 15.0704Z" fill="black"/>
</svg>
