<svg width="705" height="263" viewBox="0 0 705 263" fill="none" xmlns="http://www.w3.org/2000/svg">
<mask id="mask0_50_357" style="mask-type:alpha" maskUnits="userSpaceOnUse" x="0" y="0" width="705" height="264">
<rect y="0.000488281" width="705" height="263" fill="#F5D531"/>
</mask>
<g mask="url(#mask0_50_357)">
<rect y="0.000488281" width="705" height="263" fill="#F5D531"/>
<path d="M248 278.911V199.254H298.23V216.525H268.625V227.368H276.091C282.635 227.368 288.014 228.403 292.226 230.474C296.472 232.544 299.623 235.432 301.676 239.137C303.73 242.805 304.757 247.055 304.757 251.886C304.757 260.277 302.042 266.888 296.612 271.719C291.181 276.513 283.628 278.911 273.951 278.911H248ZM268.625 261.857H274.316C277.693 261.857 280.164 261.094 281.73 259.569C283.332 258.007 284.132 255.791 284.132 252.921C284.132 251.069 283.715 249.525 282.879 248.29C282.079 247.019 280.965 246.056 279.537 245.402C278.11 244.749 276.509 244.422 274.734 244.422H268.625V261.857Z" fill="white" fill-opacity="0.34"/>
<path d="M388.665 238.973C388.665 245.112 387.952 250.706 386.525 255.755C385.132 260.767 382.939 265.09 379.946 268.722C376.952 272.354 373.105 275.151 368.406 277.113C363.707 279.038 358.085 280 351.541 280C345.136 280 339.584 279.038 334.885 277.113C330.22 275.151 326.374 272.373 323.345 268.777C320.317 265.144 318.072 260.804 316.61 255.755C315.148 250.706 314.417 245.076 314.417 238.864C314.417 230.583 315.722 223.391 318.333 217.288C320.978 211.15 325.051 206.409 330.551 203.068C336.051 199.69 343.082 198 351.645 198C360.348 198 367.414 199.69 372.844 203.068C378.309 206.446 382.313 211.204 384.854 217.343C387.395 223.481 388.665 230.692 388.665 238.973ZM336.138 238.973C336.138 243.768 336.66 247.891 337.704 251.341C338.748 254.792 340.402 257.444 342.665 259.296C344.927 261.149 347.886 262.075 351.541 262.075C355.335 262.075 358.346 261.149 360.574 259.296C362.837 257.444 364.455 254.792 365.43 251.341C366.439 247.891 366.944 243.768 366.944 238.973C366.944 231.781 365.795 226.097 363.498 221.919C361.201 217.742 357.25 215.654 351.645 215.654C347.921 215.654 344.91 216.598 342.612 218.487C340.35 220.376 338.696 223.064 337.652 226.551C336.642 230.038 336.138 234.179 336.138 238.973Z" fill="white" fill-opacity="0.34"/>
<path d="M467.874 278.911H447.145V246.438H423.179V278.911H402.45V199.254H423.179V228.785H447.145V199.254H467.874V278.911Z" fill="white" fill-opacity="0.34"/>
<path d="M550.269 199.254L527.085 255.155C524.823 260.64 522.386 265.235 519.775 268.94C517.165 272.609 513.858 275.369 509.855 277.222C505.886 279.074 500.682 280 494.243 280C492.502 280 490.379 279.873 487.872 279.619C485.401 279.365 483.069 278.947 480.876 278.366V260.386C482.825 261.185 484.931 261.73 487.194 262.02C489.456 262.275 491.493 262.402 493.303 262.402C495.217 262.402 496.766 262.093 497.95 261.476C499.168 260.822 500.125 260.023 500.822 259.078C501.518 258.097 502.04 257.153 502.388 256.245L477.482 199.254H499.725L509.124 223.554C509.611 224.789 510.185 226.315 510.847 228.131C511.508 229.911 512.135 231.727 512.726 233.579C513.353 235.432 513.823 237.048 514.136 238.428H514.763C515.181 236.649 515.755 234.614 516.486 232.326C517.217 230.038 517.948 227.876 518.679 225.842C519.41 223.808 519.932 222.337 520.245 221.429L528.025 199.254H550.269Z" fill="white" fill-opacity="0.34"/>
<path d="M591.309 215.763C588.872 215.763 586.697 216.307 584.782 217.397C582.868 218.451 581.232 219.994 579.874 222.028C578.516 224.063 577.472 226.551 576.741 229.493C576.045 232.399 575.697 235.704 575.697 239.409C575.697 244.422 576.306 248.635 577.524 252.05C578.743 255.464 580.588 258.043 583.059 259.787C585.565 261.53 588.698 262.402 592.458 262.402C595.869 262.402 599.141 261.911 602.274 260.931C605.442 259.95 608.627 258.769 611.829 257.389V275.587C608.453 277.149 604.989 278.275 601.439 278.965C597.923 279.655 594.181 280 590.212 280C581.928 280 575.14 278.293 569.849 274.879C564.593 271.428 560.711 266.652 558.205 260.549C555.734 254.447 554.498 247.364 554.498 239.3C554.498 233.27 555.299 227.749 556.9 222.737C558.536 217.724 560.92 213.383 564.053 209.715C567.186 206.01 571.05 203.158 575.645 201.161C580.274 199.127 585.565 198.109 591.518 198.109C595.208 198.109 599.089 198.564 603.162 199.472C607.269 200.343 611.272 201.76 615.171 203.721L608.853 220.666C606.068 219.286 603.249 218.124 600.394 217.179C597.54 216.235 594.511 215.763 591.309 215.763Z" fill="white" fill-opacity="0.34"/>
<path d="M626.762 278.911V199.254H647.387V227.368H654.227C660.771 227.368 666.149 228.403 670.361 230.474C674.608 232.544 677.758 235.432 679.812 239.137C681.866 242.805 682.893 247.055 682.893 251.886C682.893 260.277 680.178 266.888 674.747 271.719C669.317 276.513 661.763 278.911 652.086 278.911H626.762ZM647.387 261.857H652.4C655.776 261.857 658.265 261.094 659.866 259.569C661.468 258.007 662.268 255.791 662.268 252.921C662.268 251.069 661.85 249.525 661.015 248.29C660.18 247.019 659.048 246.056 657.621 245.402C656.229 244.749 654.628 244.422 652.817 244.422H647.387V261.857ZM688.219 278.911V199.254H709V278.911H688.219Z" fill="white" fill-opacity="0.34"/>
</g>
<path d="M498.171 76.9683C497.123 76.9683 496.187 77.1929 495.363 77.6421C494.54 78.0763 493.836 78.7127 493.252 79.5513C492.668 80.3898 492.219 81.4155 491.904 82.6284C491.605 83.8263 491.455 85.189 491.455 86.7163C491.455 88.7827 491.717 90.5197 492.241 91.9272C492.765 93.3348 493.559 94.3979 494.622 95.1167C495.7 95.8354 497.048 96.1948 498.665 96.1948C500.132 96.1948 501.54 95.9927 502.888 95.5884C504.25 95.1841 505.62 94.6974 506.998 94.1284V101.63C505.546 102.274 504.056 102.738 502.528 103.023C501.016 103.307 499.406 103.45 497.699 103.45C494.135 103.45 491.215 102.746 488.939 101.338C486.678 99.9159 485.009 97.9468 483.931 95.4312C482.868 92.9155 482.336 89.9956 482.336 86.6714C482.336 84.1857 482.68 81.9097 483.369 79.8433C484.073 77.7769 485.099 75.9875 486.446 74.4751C487.794 72.9478 489.456 71.7723 491.433 70.9487C493.424 70.1102 495.7 69.6909 498.261 69.6909C499.848 69.6909 501.518 69.8781 503.27 70.2524C505.036 70.6118 506.758 71.1958 508.436 72.0044L505.718 78.9897C504.52 78.4207 503.307 77.9416 502.079 77.5522C500.851 77.1629 499.549 76.9683 498.171 76.9683Z" fill="white"/>
<path d="M553.515 103H544.598V89.6138H534.288V103H525.371V70.1626H534.288V82.3364H544.598V70.1626H553.515V103Z" fill="white"/>
<path d="M580.782 103L579.165 96.8462H568.496L566.834 103H557.086L567.8 70.0278H579.637L590.485 103H580.782ZM577.323 89.5688L575.908 84.1782C575.758 83.5942 575.541 82.7632 575.257 81.6851C574.972 80.592 574.688 79.4689 574.403 78.3159C574.134 77.1479 573.924 76.1896 573.774 75.4409C573.64 76.1896 573.445 77.118 573.19 78.2261C572.951 79.3192 572.696 80.4048 572.427 81.4829C572.172 82.561 571.948 83.4595 571.753 84.1782L570.338 89.5688H577.323Z" fill="white"/>
<path d="M608.364 103L601.648 79.3491H601.446C601.506 79.9631 601.566 80.7941 601.626 81.8423C601.701 82.8905 601.768 84.021 601.828 85.2339C601.888 86.4468 601.918 87.6147 601.918 88.7378V103H594.057V70.1626H605.871L612.722 93.4771H612.901L619.617 70.1626H631.454V103H623.301V88.603C623.301 87.5698 623.316 86.4618 623.346 85.2788C623.391 84.0809 623.436 82.9578 623.48 81.9097C623.54 80.8465 623.593 80.008 623.638 79.394H623.436L616.81 103H608.364Z" fill="white"/>
<path d="M638.529 70.1626H646.795V85.189C646.795 85.8628 646.787 86.5741 646.772 87.3228C646.757 88.0565 646.735 88.7827 646.705 89.5015C646.675 90.2202 646.638 90.9015 646.593 91.5454C646.548 92.1893 646.495 92.7583 646.436 93.2524H646.615L660.137 70.1626H670.312V103H662.023V88.7827C662.023 88.1688 662.031 87.4725 662.046 86.6938C662.076 85.9152 662.106 85.1141 662.136 84.2905C662.181 83.467 662.226 82.6733 662.271 81.9097C662.33 81.146 662.39 80.4797 662.45 79.9106H662.248L648.727 103H638.529V70.1626Z" fill="white"/>
<path d="M247.543 134V119.723H259.242V134H255.355V122.877H251.42V134H247.543Z" fill="black"/>
<path d="M267.27 119.723C269.079 119.723 270.434 120.117 271.332 120.905C272.237 121.693 272.689 122.812 272.689 124.264C272.689 124.915 272.595 125.54 272.406 126.139C272.224 126.738 271.921 127.272 271.498 127.741C271.081 128.209 270.525 128.581 269.828 128.854C269.138 129.127 268.285 129.264 267.27 129.264H266.186V134H262.328V119.723H267.27ZM267.182 122.838H266.186V126.12H266.947C267.279 126.12 267.589 126.064 267.875 125.954C268.161 125.836 268.389 125.651 268.559 125.397C268.734 125.137 268.822 124.792 268.822 124.362C268.822 123.913 268.689 123.548 268.422 123.268C268.155 122.982 267.742 122.838 267.182 122.838Z" fill="black"/>
<path d="M274.965 119.723H278.559V126.256C278.559 126.549 278.555 126.859 278.549 127.184C278.542 127.503 278.533 127.819 278.52 128.131C278.507 128.444 278.49 128.74 278.471 129.02C278.451 129.3 278.428 129.547 278.402 129.762H278.48L284.359 119.723H288.783V134H285.18V127.819C285.18 127.552 285.183 127.249 285.189 126.911C285.202 126.572 285.215 126.224 285.229 125.866C285.248 125.508 285.268 125.163 285.287 124.831C285.313 124.499 285.339 124.209 285.365 123.961H285.277L279.398 134H274.965V119.723Z" fill="black"/>
<path d="M291.879 119.723H296.859C298.923 119.723 300.395 120.029 301.273 120.641C302.152 121.253 302.592 122.132 302.592 123.278C302.592 123.903 302.478 124.433 302.25 124.87C302.029 125.306 301.745 125.651 301.4 125.905C301.062 126.159 300.714 126.331 300.355 126.422V126.52C300.746 126.618 301.133 126.78 301.518 127.008C301.908 127.23 302.23 127.565 302.484 128.014C302.745 128.457 302.875 129.059 302.875 129.821C302.875 130.687 302.654 131.432 302.211 132.057C301.775 132.682 301.15 133.164 300.336 133.502C299.522 133.834 298.555 134 297.436 134H291.879V119.723ZM295.736 125.202H296.898C297.536 125.202 297.986 125.071 298.246 124.811C298.507 124.544 298.637 124.222 298.637 123.844C298.637 123.454 298.487 123.157 298.188 122.956C297.895 122.747 297.439 122.643 296.82 122.643H295.736V125.202ZM295.736 128.024V131.022H297.094C297.764 131.022 298.233 130.879 298.5 130.592C298.767 130.299 298.9 129.935 298.9 129.499C298.9 129.245 298.842 129.007 298.725 128.786C298.614 128.558 298.422 128.375 298.148 128.239C297.875 128.096 297.497 128.024 297.016 128.024H295.736Z" fill="black"/>
<path d="M318.715 126.842C318.715 127.943 318.581 128.945 318.314 129.85C318.054 130.749 317.644 131.523 317.084 132.174C316.524 132.825 315.805 133.327 314.926 133.678C314.047 134.023 312.995 134.196 311.771 134.196C310.574 134.196 309.535 134.023 308.656 133.678C307.784 133.327 307.064 132.829 306.498 132.184C305.932 131.533 305.512 130.755 305.238 129.85C304.965 128.945 304.828 127.936 304.828 126.823C304.828 125.338 305.072 124.049 305.561 122.956C306.055 121.855 306.817 121.006 307.846 120.407C308.874 119.801 310.189 119.499 311.791 119.499C313.419 119.499 314.74 119.801 315.756 120.407C316.778 121.012 317.527 121.865 318.002 122.965C318.477 124.066 318.715 125.358 318.715 126.842ZM308.891 126.842C308.891 127.702 308.988 128.441 309.184 129.059C309.379 129.678 309.688 130.153 310.111 130.485C310.535 130.817 311.088 130.983 311.771 130.983C312.481 130.983 313.044 130.817 313.461 130.485C313.884 130.153 314.187 129.678 314.369 129.059C314.558 128.441 314.652 127.702 314.652 126.842C314.652 125.553 314.438 124.534 314.008 123.786C313.578 123.037 312.839 122.663 311.791 122.663C311.094 122.663 310.531 122.832 310.102 123.17C309.678 123.509 309.369 123.991 309.174 124.616C308.985 125.241 308.891 125.983 308.891 126.842Z" fill="black"/>
<path d="M333.715 119.723V130.836H335.668V138.444H331.908V134H323.588V138.444H319.828V130.836H321.01C321.452 130.088 321.853 129.284 322.211 128.424C322.569 127.565 322.882 126.663 323.148 125.719C323.422 124.775 323.643 123.802 323.812 122.799C323.988 121.79 324.115 120.765 324.193 119.723H333.715ZM329.828 122.877H327.289C327.224 123.574 327.13 124.264 327.006 124.948C326.882 125.625 326.726 126.295 326.537 126.959C326.355 127.624 326.143 128.278 325.902 128.922C325.661 129.567 325.391 130.205 325.092 130.836H329.828V122.877Z" fill="black"/>
<path d="M337.582 119.723H341.176V126.256C341.176 126.549 341.173 126.859 341.166 127.184C341.16 127.503 341.15 127.819 341.137 128.131C341.124 128.444 341.107 128.74 341.088 129.02C341.068 129.3 341.046 129.547 341.02 129.762H341.098L346.977 119.723H351.4V134H347.797V127.819C347.797 127.552 347.8 127.249 347.807 126.911C347.82 126.572 347.833 126.224 347.846 125.866C347.865 125.508 347.885 125.163 347.904 124.831C347.93 124.499 347.956 124.209 347.982 123.961H347.895L342.016 134H337.582V119.723Z" fill="black"/>
<path d="M372.113 119.723V130.836H374.066V138.444H370.307V134H361.986V138.444H358.227V130.836H359.408C359.851 130.088 360.251 129.284 360.609 128.424C360.967 127.565 361.28 126.663 361.547 125.719C361.82 124.775 362.042 123.802 362.211 122.799C362.387 121.79 362.514 120.765 362.592 119.723H372.113ZM368.227 122.877H365.688C365.622 123.574 365.528 124.264 365.404 124.948C365.281 125.625 365.124 126.295 364.936 126.959C364.753 127.624 364.542 128.278 364.301 128.922C364.06 129.567 363.79 130.205 363.49 130.836H368.227V122.877Z" fill="black"/>
<path d="M380.922 119.723C382.732 119.723 384.086 120.117 384.984 120.905C385.889 121.693 386.342 122.812 386.342 124.264C386.342 124.915 386.247 125.54 386.059 126.139C385.876 126.738 385.574 127.272 385.15 127.741C384.734 128.209 384.177 128.581 383.48 128.854C382.79 129.127 381.938 129.264 380.922 129.264H379.838V134H375.98V119.723H380.922ZM380.834 122.838H379.838V126.12H380.6C380.932 126.12 381.241 126.064 381.527 125.954C381.814 125.836 382.042 125.651 382.211 125.397C382.387 125.137 382.475 124.792 382.475 124.362C382.475 123.913 382.341 123.548 382.074 123.268C381.807 122.982 381.394 122.838 380.834 122.838Z" fill="black"/>
<path d="M400.932 119.723L396.596 129.743C396.173 130.726 395.717 131.549 395.229 132.213C394.74 132.871 394.122 133.366 393.373 133.698C392.631 134.03 391.658 134.196 390.453 134.196C390.128 134.196 389.73 134.173 389.262 134.127C388.799 134.082 388.363 134.007 387.953 133.903V130.68C388.318 130.823 388.712 130.921 389.135 130.973C389.558 131.019 389.939 131.042 390.277 131.042C390.635 131.042 390.925 130.986 391.146 130.875C391.374 130.758 391.553 130.615 391.684 130.446C391.814 130.27 391.911 130.101 391.977 129.938L387.318 119.723H391.479L393.236 124.079C393.327 124.3 393.435 124.573 393.559 124.899C393.682 125.218 393.799 125.543 393.91 125.875C394.027 126.208 394.115 126.497 394.174 126.745H394.291C394.369 126.426 394.477 126.061 394.613 125.651C394.75 125.241 394.887 124.853 395.023 124.489C395.16 124.124 395.258 123.861 395.316 123.698L396.771 119.723H400.932Z" fill="black"/>
<path d="M412.543 123.063C412.543 124.007 412.253 124.762 411.674 125.329C411.101 125.895 410.271 126.273 409.184 126.461V126.54C410.505 126.65 411.485 127.005 412.123 127.604C412.768 128.196 413.09 128.968 413.09 129.918C413.09 130.752 412.859 131.491 412.396 132.135C411.941 132.78 411.267 133.284 410.375 133.649C409.483 134.014 408.386 134.196 407.084 134.196C405.847 134.196 404.779 134.124 403.881 133.981C402.989 133.838 402.243 133.652 401.645 133.424V130.104C402.042 130.299 402.501 130.469 403.021 130.612C403.549 130.749 404.083 130.856 404.623 130.934C405.163 131.006 405.652 131.042 406.088 131.042C407.195 131.042 407.976 130.924 408.432 130.69C408.894 130.456 409.125 130.078 409.125 129.557C409.125 129.075 408.848 128.717 408.295 128.483C407.748 128.242 406.931 128.122 405.844 128.122H404.164V124.997H405.668C406.488 124.997 407.113 124.951 407.543 124.86C407.979 124.769 408.275 124.632 408.432 124.45C408.588 124.267 408.666 124.036 408.666 123.756C408.666 123.418 408.507 123.154 408.188 122.965C407.875 122.777 407.348 122.682 406.605 122.682C406.013 122.682 405.424 122.764 404.838 122.926C404.258 123.083 403.708 123.333 403.188 123.678L401.566 121.022C402.107 120.67 402.654 120.384 403.207 120.163C403.76 119.941 404.369 119.778 405.033 119.674C405.697 119.57 406.469 119.518 407.348 119.518C408.422 119.518 409.346 119.671 410.121 119.977C410.902 120.283 411.501 120.703 411.918 121.237C412.335 121.764 412.543 122.373 412.543 123.063Z" fill="black"/>
<path d="M424.047 134H415.57V119.723H424.047V122.819H419.428V125.065H423.705V128.161H419.428V130.856H424.047V134Z" fill="black"/>
<path d="M426.547 119.723H430.141V126.256C430.141 126.549 430.137 126.859 430.131 127.184C430.124 127.503 430.115 127.819 430.102 128.131C430.089 128.444 430.072 128.74 430.053 129.02C430.033 129.3 430.01 129.547 429.984 129.762H430.062L435.941 119.723H440.365V134H436.762V127.819C436.762 127.552 436.765 127.249 436.771 126.911C436.785 126.572 436.798 126.224 436.811 125.866C436.83 125.508 436.85 125.163 436.869 124.831C436.895 124.499 436.921 124.209 436.947 123.961H436.859L430.98 134H426.547V119.723ZM438.744 114.938C438.666 115.667 438.454 116.312 438.109 116.872C437.764 117.431 437.25 117.871 436.566 118.19C435.883 118.502 434.997 118.659 433.91 118.659C432.855 118.659 431.986 118.522 431.303 118.249C430.619 117.975 430.102 117.565 429.75 117.018C429.398 116.465 429.19 115.771 429.125 114.938H432.309C432.348 115.648 432.504 116.129 432.777 116.383C433.051 116.631 433.428 116.754 433.91 116.754C434.34 116.754 434.701 116.624 434.994 116.364C435.287 116.103 435.46 115.628 435.512 114.938H438.744Z" fill="black"/>
<path d="M453.598 119.723C455.408 119.723 456.762 120.117 457.66 120.905C458.565 121.693 459.018 122.812 459.018 124.264C459.018 124.915 458.923 125.54 458.734 126.139C458.552 126.738 458.249 127.272 457.826 127.741C457.41 128.209 456.853 128.581 456.156 128.854C455.466 129.127 454.613 129.264 453.598 129.264H452.514V134H448.656V119.723H453.598ZM453.51 122.838H452.514V126.12H453.275C453.607 126.12 453.917 126.064 454.203 125.954C454.49 125.836 454.717 125.651 454.887 125.397C455.062 125.137 455.15 124.792 455.15 124.362C455.15 123.913 455.017 123.548 454.75 123.268C454.483 122.982 454.07 122.838 453.51 122.838Z" fill="black"/>
<path d="M470.053 134L469.35 131.325H464.711L463.988 134H459.75L464.408 119.665H469.555L474.271 134H470.053ZM468.549 128.161L467.934 125.817C467.868 125.563 467.774 125.202 467.65 124.733C467.527 124.258 467.403 123.769 467.279 123.268C467.162 122.76 467.071 122.344 467.006 122.018C466.947 122.344 466.863 122.747 466.752 123.229C466.648 123.704 466.537 124.176 466.42 124.645C466.309 125.114 466.212 125.504 466.127 125.817L465.512 128.161H468.549Z" fill="black"/>
<path d="M475.824 134V119.723H485.219V122.819H479.682V124.762H481.078C482.302 124.762 483.308 124.948 484.096 125.319C484.89 125.69 485.479 126.208 485.863 126.872C486.247 127.529 486.439 128.291 486.439 129.157C486.439 130.661 485.932 131.846 484.916 132.711C483.9 133.571 482.488 134 480.678 134H475.824ZM479.682 130.944H480.746C481.378 130.944 481.84 130.807 482.133 130.534C482.432 130.254 482.582 129.857 482.582 129.342C482.582 129.01 482.504 128.734 482.348 128.512C482.198 128.284 481.99 128.112 481.723 127.995C481.456 127.877 481.156 127.819 480.824 127.819H479.682V130.944Z" fill="black"/>
<path d="M502.133 126.842C502.133 127.943 501.999 128.945 501.732 129.85C501.472 130.749 501.062 131.523 500.502 132.174C499.942 132.825 499.223 133.327 498.344 133.678C497.465 134.023 496.413 134.196 495.189 134.196C493.992 134.196 492.953 134.023 492.074 133.678C491.202 133.327 490.482 132.829 489.916 132.184C489.35 131.533 488.93 130.755 488.656 129.85C488.383 128.945 488.246 127.936 488.246 126.823C488.246 125.338 488.49 124.049 488.979 122.956C489.473 121.855 490.235 121.006 491.264 120.407C492.292 119.801 493.607 119.499 495.209 119.499C496.837 119.499 498.158 119.801 499.174 120.407C500.196 121.012 500.945 121.865 501.42 122.965C501.895 124.066 502.133 125.358 502.133 126.842ZM492.309 126.842C492.309 127.702 492.406 128.441 492.602 129.059C492.797 129.678 493.106 130.153 493.529 130.485C493.952 130.817 494.506 130.983 495.189 130.983C495.899 130.983 496.462 130.817 496.879 130.485C497.302 130.153 497.605 129.678 497.787 129.059C497.976 128.441 498.07 127.702 498.07 126.842C498.07 125.553 497.855 124.534 497.426 123.786C496.996 123.037 496.257 122.663 495.209 122.663C494.512 122.663 493.949 122.832 493.52 123.17C493.096 123.509 492.787 123.991 492.592 124.616C492.403 125.241 492.309 125.983 492.309 126.842Z" fill="black"/>
<path d="M511.01 134H507.152V122.877H503.666V119.723H514.486V122.877H511.01V134Z" fill="black"/>
<path d="M525.287 134L524.584 131.325H519.945L519.223 134H514.984L519.643 119.665H524.789L529.506 134H525.287ZM523.783 128.161L523.168 125.817C523.103 125.563 523.008 125.202 522.885 124.733C522.761 124.258 522.637 123.769 522.514 123.268C522.396 122.76 522.305 122.344 522.24 122.018C522.182 122.344 522.097 122.747 521.986 123.229C521.882 123.704 521.771 124.176 521.654 124.645C521.544 125.114 521.446 125.504 521.361 125.817L520.746 128.161H523.783Z" fill="black"/>
<path d="M537.357 134H533.5V122.877H530.014V119.723H540.834V122.877H537.357V134Z" fill="black"/>
<path d="M542.875 134V119.723H546.732V124.762H548.129C549.353 124.762 550.359 124.948 551.146 125.319C551.941 125.69 552.53 126.208 552.914 126.872C553.298 127.529 553.49 128.291 553.49 129.157C553.49 130.661 552.982 131.846 551.967 132.711C550.951 133.571 549.538 134 547.729 134H542.875ZM546.732 130.944H547.797C548.428 130.944 548.891 130.807 549.184 130.534C549.483 130.254 549.633 129.857 549.633 129.342C549.633 129.01 549.555 128.734 549.398 128.512C549.249 128.284 549.04 128.112 548.773 127.995C548.507 127.877 548.207 127.819 547.875 127.819H546.732V130.944Z" fill="black"/>
<path d="M560.922 119.723H565.902C567.966 119.723 569.438 120.029 570.316 120.641C571.195 121.253 571.635 122.132 571.635 123.278C571.635 123.903 571.521 124.433 571.293 124.87C571.072 125.306 570.788 125.651 570.443 125.905C570.105 126.159 569.757 126.331 569.398 126.422V126.52C569.789 126.618 570.176 126.78 570.561 127.008C570.951 127.23 571.273 127.565 571.527 128.014C571.788 128.457 571.918 129.059 571.918 129.821C571.918 130.687 571.697 131.432 571.254 132.057C570.818 132.682 570.193 133.164 569.379 133.502C568.565 133.834 567.598 134 566.479 134H560.922V119.723ZM564.779 125.202H565.941C566.579 125.202 567.029 125.071 567.289 124.811C567.549 124.544 567.68 124.222 567.68 123.844C567.68 123.454 567.53 123.157 567.23 122.956C566.938 122.747 566.482 122.643 565.863 122.643H564.779V125.202ZM564.779 128.024V131.022H566.137C566.807 131.022 567.276 130.879 567.543 130.592C567.81 130.299 567.943 129.935 567.943 129.499C567.943 129.245 567.885 129.007 567.768 128.786C567.657 128.558 567.465 128.375 567.191 128.239C566.918 128.096 566.54 128.024 566.059 128.024H564.779Z" fill="black"/>
<path d="M591.83 134H587.953V128.18H583.471V134H579.594V119.723H583.471V125.016H587.953V119.723H591.83V134Z" fill="black"/>
<path d="M603.686 134L602.982 131.325H598.344L597.621 134H593.383L598.041 119.665H603.188L607.904 134H603.686ZM602.182 128.161L601.566 125.817C601.501 125.563 601.407 125.202 601.283 124.733C601.16 124.258 601.036 123.769 600.912 123.268C600.795 122.76 600.704 122.344 600.639 122.018C600.58 122.344 600.495 122.747 600.385 123.229C600.281 123.704 600.17 124.176 600.053 124.645C599.942 125.114 599.844 125.504 599.76 125.817L599.145 128.161H602.182Z" fill="black"/>
<path d="M628.139 134H609.457V119.723H613.334V130.836H616.898V119.723H620.697V130.836H624.252V119.723H628.139V134Z" fill="black"/>
<path d="M253.842 161H249.984V149.877H246.498V146.723H257.318V149.877H253.842V161Z" fill="black"/>
<path d="M268.119 161L267.416 158.325H262.777L262.055 161H257.816L262.475 146.665H267.621L272.338 161H268.119ZM266.615 155.161L266 152.817C265.935 152.563 265.84 152.202 265.717 151.733C265.593 151.258 265.469 150.769 265.346 150.268C265.229 149.76 265.137 149.344 265.072 149.018C265.014 149.344 264.929 149.747 264.818 150.229C264.714 150.704 264.604 151.176 264.486 151.645C264.376 152.114 264.278 152.504 264.193 152.817L263.578 155.161H266.615Z" fill="black"/>
<path d="M286.371 161H282.006L277.768 153.764V161H273.891V146.723H277.768V153.637L281.85 146.723H286.088L281.684 153.54L286.371 161Z" fill="black"/>
<path d="M294.193 149.682C293.738 149.682 293.331 149.78 292.973 149.975C292.615 150.164 292.309 150.441 292.055 150.805C291.801 151.17 291.605 151.616 291.469 152.143C291.339 152.664 291.273 153.256 291.273 153.92C291.273 154.819 291.387 155.574 291.615 156.186C291.843 156.798 292.188 157.26 292.65 157.573C293.119 157.885 293.705 158.042 294.408 158.042C295.046 158.042 295.658 157.954 296.244 157.778C296.837 157.602 297.432 157.39 298.031 157.143V160.405C297.4 160.685 296.752 160.887 296.088 161.01C295.43 161.134 294.73 161.196 293.988 161.196C292.439 161.196 291.169 160.89 290.18 160.278C289.197 159.659 288.471 158.803 288.002 157.709C287.54 156.616 287.309 155.346 287.309 153.901C287.309 152.82 287.458 151.831 287.758 150.932C288.064 150.034 288.51 149.256 289.096 148.598C289.682 147.934 290.404 147.423 291.264 147.065C292.13 146.7 293.119 146.518 294.232 146.518C294.923 146.518 295.648 146.599 296.41 146.762C297.178 146.918 297.927 147.172 298.656 147.524L297.475 150.561C296.954 150.314 296.426 150.105 295.893 149.936C295.359 149.767 294.792 149.682 294.193 149.682Z" fill="black"/>
<path d="M314.184 153.842C314.184 154.943 314.05 155.945 313.783 156.85C313.523 157.749 313.113 158.523 312.553 159.174C311.993 159.825 311.273 160.327 310.395 160.678C309.516 161.023 308.464 161.196 307.24 161.196C306.042 161.196 305.004 161.023 304.125 160.678C303.253 160.327 302.533 159.829 301.967 159.184C301.4 158.533 300.98 157.755 300.707 156.85C300.434 155.945 300.297 154.936 300.297 153.823C300.297 152.338 300.541 151.049 301.029 149.956C301.524 148.855 302.286 148.006 303.314 147.407C304.343 146.801 305.658 146.499 307.26 146.499C308.887 146.499 310.209 146.801 311.225 147.407C312.247 148.012 312.995 148.865 313.471 149.965C313.946 151.066 314.184 152.358 314.184 153.842ZM304.359 153.842C304.359 154.702 304.457 155.441 304.652 156.059C304.848 156.678 305.157 157.153 305.58 157.485C306.003 157.817 306.557 157.983 307.24 157.983C307.95 157.983 308.513 157.817 308.93 157.485C309.353 157.153 309.656 156.678 309.838 156.059C310.027 155.441 310.121 154.702 310.121 153.842C310.121 152.553 309.906 151.534 309.477 150.786C309.047 150.037 308.308 149.663 307.26 149.663C306.563 149.663 306 149.832 305.57 150.17C305.147 150.509 304.838 150.991 304.643 151.616C304.454 152.241 304.359 152.983 304.359 153.842Z" fill="black"/>
<path d="M316.762 161V146.723H328.461V161H324.574V149.877H320.639V161H316.762Z" fill="black"/>
<path d="M340.307 161L339.604 158.325H334.965L334.242 161H330.004L334.662 146.665H339.809L344.525 161H340.307ZM338.803 155.161L338.188 152.817C338.122 152.563 338.028 152.202 337.904 151.733C337.781 151.258 337.657 150.769 337.533 150.268C337.416 149.76 337.325 149.344 337.26 149.018C337.201 149.344 337.117 149.747 337.006 150.229C336.902 150.704 336.791 151.176 336.674 151.645C336.563 152.114 336.465 152.504 336.381 152.817L335.766 155.161H338.803Z" fill="black"/>
<path d="M351.02 146.723C352.829 146.723 354.184 147.117 355.082 147.905C355.987 148.693 356.439 149.812 356.439 151.264C356.439 151.915 356.345 152.54 356.156 153.139C355.974 153.738 355.671 154.272 355.248 154.741C354.831 155.209 354.275 155.581 353.578 155.854C352.888 156.127 352.035 156.264 351.02 156.264H349.936V161H346.078V146.723H351.02ZM350.932 149.838H349.936V153.12H350.697C351.029 153.12 351.339 153.064 351.625 152.954C351.911 152.836 352.139 152.651 352.309 152.397C352.484 152.137 352.572 151.792 352.572 151.362C352.572 150.913 352.439 150.548 352.172 150.268C351.905 149.982 351.492 149.838 350.932 149.838Z" fill="black"/>
<path d="M371.195 161H366.83L362.592 153.764V161H358.715V146.723H362.592V153.637L366.674 146.723H370.912L366.508 153.54L371.195 161Z" fill="black"/>
<path d="M377.855 146.723H381.449V153.256C381.449 153.549 381.446 153.859 381.439 154.184C381.433 154.503 381.423 154.819 381.41 155.131C381.397 155.444 381.381 155.74 381.361 156.02C381.342 156.3 381.319 156.547 381.293 156.762H381.371L387.25 146.723H391.674V161H388.07V154.819C388.07 154.552 388.074 154.249 388.08 153.911C388.093 153.572 388.106 153.224 388.119 152.866C388.139 152.508 388.158 152.163 388.178 151.831C388.204 151.499 388.23 151.209 388.256 150.961H388.168L382.289 161H377.855V146.723Z" fill="black"/>
<path d="M399.965 161V146.723H411.664V161H407.777V149.877H403.842V161H399.965Z" fill="black"/>
<path d="M428.109 153.842C428.109 154.943 427.976 155.945 427.709 156.85C427.449 157.749 427.038 158.523 426.479 159.174C425.919 159.825 425.199 160.327 424.32 160.678C423.441 161.023 422.39 161.196 421.166 161.196C419.968 161.196 418.93 161.023 418.051 160.678C417.178 160.327 416.459 159.829 415.893 159.184C415.326 158.533 414.906 157.755 414.633 156.85C414.359 155.945 414.223 154.936 414.223 153.823C414.223 152.338 414.467 151.049 414.955 149.956C415.45 148.855 416.212 148.006 417.24 147.407C418.269 146.801 419.584 146.499 421.186 146.499C422.813 146.499 424.135 146.801 425.15 147.407C426.173 148.012 426.921 148.865 427.396 149.965C427.872 151.066 428.109 152.358 428.109 153.842ZM418.285 153.842C418.285 154.702 418.383 155.441 418.578 156.059C418.773 156.678 419.083 157.153 419.506 157.485C419.929 157.817 420.482 157.983 421.166 157.983C421.876 157.983 422.439 157.817 422.855 157.485C423.279 157.153 423.581 156.678 423.764 156.059C423.952 155.441 424.047 154.702 424.047 153.842C424.047 152.553 423.832 151.534 423.402 150.786C422.973 150.037 422.234 149.663 421.186 149.663C420.489 149.663 419.926 149.832 419.496 150.17C419.073 150.509 418.764 150.991 418.568 151.616C418.38 152.241 418.285 152.983 418.285 153.842Z" fill="black"/>
<path d="M442.846 161H438.969V149.877H436.244C436.199 150.411 436.137 151.014 436.059 151.684C435.98 152.348 435.893 153.032 435.795 153.735C435.704 154.431 435.606 155.102 435.502 155.747C435.398 156.391 435.29 156.954 435.18 157.436C435.01 158.224 434.76 158.898 434.428 159.458C434.102 160.017 433.656 160.447 433.09 160.747C432.523 161.046 431.794 161.196 430.902 161.196C430.616 161.196 430.349 161.176 430.102 161.137C429.854 161.098 429.617 161.046 429.389 160.981V158.002C429.564 158.061 429.727 158.11 429.877 158.149C430.027 158.181 430.183 158.198 430.346 158.198C430.561 158.198 430.749 158.136 430.912 158.012C431.081 157.889 431.238 157.618 431.381 157.202C431.531 156.785 431.677 156.144 431.82 155.278C431.872 154.998 431.941 154.581 432.025 154.028C432.11 153.468 432.204 152.807 432.309 152.045C432.419 151.284 432.53 150.45 432.641 149.545C432.758 148.64 432.872 147.7 432.982 146.723H442.846V161Z" fill="black"/>
<path d="M458.256 146.723L453.92 156.743C453.497 157.726 453.041 158.549 452.553 159.213C452.064 159.871 451.446 160.366 450.697 160.698C449.955 161.03 448.982 161.196 447.777 161.196C447.452 161.196 447.055 161.173 446.586 161.127C446.124 161.082 445.688 161.007 445.277 160.903V157.68C445.642 157.823 446.036 157.921 446.459 157.973C446.882 158.019 447.263 158.042 447.602 158.042C447.96 158.042 448.249 157.986 448.471 157.875C448.699 157.758 448.878 157.615 449.008 157.446C449.138 157.27 449.236 157.101 449.301 156.938L444.643 146.723H448.803L450.561 151.079C450.652 151.3 450.759 151.573 450.883 151.899C451.007 152.218 451.124 152.543 451.234 152.875C451.352 153.208 451.439 153.497 451.498 153.745H451.615C451.693 153.426 451.801 153.061 451.938 152.651C452.074 152.241 452.211 151.853 452.348 151.489C452.484 151.124 452.582 150.861 452.641 150.698L454.096 146.723H458.256Z" fill="black"/>
<path d="M471.674 161H467.787V155.717C466.908 156.017 466.111 156.235 465.395 156.372C464.685 156.508 464.011 156.577 463.373 156.577C462.032 156.577 460.977 156.245 460.209 155.581C459.447 154.917 459.066 153.976 459.066 152.758V146.723H462.953V151.479C462.953 152.117 463.08 152.602 463.334 152.934C463.594 153.26 464.053 153.422 464.711 153.422C465.115 153.422 465.574 153.37 466.088 153.266C466.602 153.155 467.169 152.986 467.787 152.758V146.723H471.674V161Z" fill="black"/>
<path d="M483.51 161L482.807 158.325H478.168L477.445 161H473.207L477.865 146.665H483.012L487.729 161H483.51ZM482.006 155.161L481.391 152.817C481.326 152.563 481.231 152.202 481.107 151.733C480.984 151.258 480.86 150.769 480.736 150.268C480.619 149.76 480.528 149.344 480.463 149.018C480.404 149.344 480.32 149.747 480.209 150.229C480.105 150.704 479.994 151.176 479.877 151.645C479.766 152.114 479.669 152.504 479.584 152.817L478.969 155.161H482.006Z" fill="black"/>
<path d="M489.281 146.723H492.875V153.256C492.875 153.549 492.872 153.859 492.865 154.184C492.859 154.503 492.849 154.819 492.836 155.131C492.823 155.444 492.807 155.74 492.787 156.02C492.768 156.3 492.745 156.547 492.719 156.762H492.797L498.676 146.723H503.1V161H499.496V154.819C499.496 154.552 499.499 154.249 499.506 153.911C499.519 153.572 499.532 153.224 499.545 152.866C499.564 152.508 499.584 152.163 499.604 151.831C499.63 151.499 499.656 151.209 499.682 150.961H499.594L493.715 161H489.281V146.723ZM501.479 141.938C501.4 142.667 501.189 143.312 500.844 143.872C500.499 144.431 499.984 144.871 499.301 145.19C498.617 145.502 497.732 145.659 496.645 145.659C495.59 145.659 494.721 145.522 494.037 145.249C493.354 144.975 492.836 144.565 492.484 144.018C492.133 143.465 491.924 142.771 491.859 141.938H495.043C495.082 142.648 495.238 143.129 495.512 143.383C495.785 143.631 496.163 143.754 496.645 143.754C497.074 143.754 497.436 143.624 497.729 143.364C498.021 143.103 498.194 142.628 498.246 141.938H501.479Z" fill="black"/>
<path d="M511.391 161V146.723H523.09V161H519.203V149.877H515.268V161H511.391Z" fill="black"/>
<path d="M531.117 146.723C532.927 146.723 534.281 147.117 535.18 147.905C536.085 148.693 536.537 149.812 536.537 151.264C536.537 151.915 536.443 152.54 536.254 153.139C536.072 153.738 535.769 154.272 535.346 154.741C534.929 155.209 534.372 155.581 533.676 155.854C532.986 156.127 532.133 156.264 531.117 156.264H530.033V161H526.176V146.723H531.117ZM531.029 149.838H530.033V153.12H530.795C531.127 153.12 531.436 153.064 531.723 152.954C532.009 152.836 532.237 152.651 532.406 152.397C532.582 152.137 532.67 151.792 532.67 151.362C532.67 150.913 532.536 150.548 532.27 150.268C532.003 149.982 531.589 149.838 531.029 149.838Z" fill="black"/>
<path d="M552.172 153.842C552.172 154.943 552.038 155.945 551.771 156.85C551.511 157.749 551.101 158.523 550.541 159.174C549.981 159.825 549.262 160.327 548.383 160.678C547.504 161.023 546.452 161.196 545.229 161.196C544.031 161.196 542.992 161.023 542.113 160.678C541.241 160.327 540.521 159.829 539.955 159.184C539.389 158.533 538.969 157.755 538.695 156.85C538.422 155.945 538.285 154.936 538.285 153.823C538.285 152.338 538.529 151.049 539.018 149.956C539.512 148.855 540.274 148.006 541.303 147.407C542.331 146.801 543.646 146.499 545.248 146.499C546.876 146.499 548.197 146.801 549.213 147.407C550.235 148.012 550.984 148.865 551.459 149.965C551.934 151.066 552.172 152.358 552.172 153.842ZM542.348 153.842C542.348 154.702 542.445 155.441 542.641 156.059C542.836 156.678 543.145 157.153 543.568 157.485C543.992 157.817 544.545 157.983 545.229 157.983C545.938 157.983 546.501 157.817 546.918 157.485C547.341 157.153 547.644 156.678 547.826 156.059C548.015 155.441 548.109 154.702 548.109 153.842C548.109 152.553 547.895 151.534 547.465 150.786C547.035 150.037 546.296 149.663 545.248 149.663C544.551 149.663 543.988 149.832 543.559 150.17C543.135 150.509 542.826 150.991 542.631 151.616C542.442 152.241 542.348 152.983 542.348 153.842Z" fill="black"/>
<path d="M569.467 157.836V165.444H565.707V161H554.75V146.723H558.627V157.836H562.592V146.723H566.469V157.836H569.467Z" fill="black"/>
<path d="M579.848 161H571.371V146.723H579.848V149.819H575.229V152.065H579.506V155.161H575.229V157.856H579.848V161Z" fill="black"/>
<path d="M594.584 161H590.707V155.18H586.225V161H582.348V146.723H586.225V152.016H590.707V146.723H594.584V161Z" fill="black"/>
<path d="M603.979 161H600.121V149.877H596.635V146.723H607.455V149.877H603.979V161Z" fill="black"/>
<path d="M628.051 153.842C628.051 154.943 627.917 155.945 627.65 156.85C627.39 157.749 626.98 158.523 626.42 159.174C625.86 159.825 625.141 160.327 624.262 160.678C623.383 161.023 622.331 161.196 621.107 161.196C619.91 161.196 618.871 161.023 617.992 160.678C617.12 160.327 616.4 159.829 615.834 159.184C615.268 158.533 614.848 157.755 614.574 156.85C614.301 155.945 614.164 154.936 614.164 153.823C614.164 152.338 614.408 151.049 614.896 149.956C615.391 148.855 616.153 148.006 617.182 147.407C618.21 146.801 619.525 146.499 621.127 146.499C622.755 146.499 624.076 146.801 625.092 147.407C626.114 148.012 626.863 148.865 627.338 149.965C627.813 151.066 628.051 152.358 628.051 153.842ZM618.227 153.842C618.227 154.702 618.324 155.441 618.52 156.059C618.715 156.678 619.024 157.153 619.447 157.485C619.87 157.817 620.424 157.983 621.107 157.983C621.817 157.983 622.38 157.817 622.797 157.485C623.22 157.153 623.523 156.678 623.705 156.059C623.894 155.441 623.988 154.702 623.988 153.842C623.988 152.553 623.773 151.534 623.344 150.786C622.914 150.037 622.175 149.663 621.127 149.663C620.43 149.663 619.867 149.832 619.438 150.17C619.014 150.509 618.705 150.991 618.51 151.616C618.321 152.241 618.227 152.983 618.227 153.842Z" fill="black"/>
<path d="M636.928 161H633.07V149.877H629.584V146.723H640.404V149.877H636.928V161Z" fill="black"/>
<path d="M247.543 173.723H251.137V180.256C251.137 180.549 251.133 180.859 251.127 181.184C251.12 181.503 251.111 181.819 251.098 182.131C251.085 182.444 251.068 182.74 251.049 183.02C251.029 183.3 251.007 183.547 250.98 183.762H251.059L256.938 173.723H261.361V188H257.758V181.819C257.758 181.552 257.761 181.249 257.768 180.911C257.781 180.572 257.794 180.224 257.807 179.866C257.826 179.508 257.846 179.163 257.865 178.831C257.891 178.499 257.917 178.209 257.943 177.961H257.855L251.977 188H247.543V173.723Z" fill="black"/>
<path d="M277.318 188H272.855L270.072 183.538L267.318 188H262.953L267.689 180.696L263.236 173.723H267.514L270.092 178.137L272.572 173.723H276.977L272.455 180.999L277.318 188Z" fill="black"/>
<path d="M294.418 177.063C294.418 178.007 294.128 178.762 293.549 179.329C292.976 179.895 292.146 180.273 291.059 180.461V180.54C292.38 180.65 293.36 181.005 293.998 181.604C294.643 182.196 294.965 182.968 294.965 183.918C294.965 184.752 294.734 185.491 294.271 186.135C293.816 186.78 293.142 187.284 292.25 187.649C291.358 188.014 290.261 188.196 288.959 188.196C287.722 188.196 286.654 188.124 285.756 187.981C284.864 187.838 284.118 187.652 283.52 187.424V184.104C283.917 184.299 284.376 184.469 284.896 184.612C285.424 184.749 285.958 184.856 286.498 184.934C287.038 185.006 287.527 185.042 287.963 185.042C289.07 185.042 289.851 184.924 290.307 184.69C290.769 184.456 291 184.078 291 183.557C291 183.075 290.723 182.717 290.17 182.483C289.623 182.242 288.806 182.122 287.719 182.122H286.039V178.997H287.543C288.363 178.997 288.988 178.951 289.418 178.86C289.854 178.769 290.15 178.632 290.307 178.45C290.463 178.267 290.541 178.036 290.541 177.756C290.541 177.418 290.382 177.154 290.062 176.965C289.75 176.777 289.223 176.682 288.48 176.682C287.888 176.682 287.299 176.764 286.713 176.926C286.133 177.083 285.583 177.333 285.062 177.678L283.441 175.022C283.982 174.67 284.529 174.384 285.082 174.163C285.635 173.941 286.244 173.778 286.908 173.674C287.572 173.57 288.344 173.518 289.223 173.518C290.297 173.518 291.221 173.671 291.996 173.977C292.777 174.283 293.376 174.703 293.793 175.237C294.21 175.764 294.418 176.373 294.418 177.063Z" fill="black"/>
<path d="M306.205 188L305.502 185.325H300.863L300.141 188H295.902L300.561 173.665H305.707L310.424 188H306.205ZM304.701 182.161L304.086 179.817C304.021 179.563 303.926 179.202 303.803 178.733C303.679 178.258 303.555 177.769 303.432 177.268C303.314 176.76 303.223 176.344 303.158 176.018C303.1 176.344 303.015 176.747 302.904 177.229C302.8 177.704 302.689 178.176 302.572 178.645C302.462 179.114 302.364 179.504 302.279 179.817L301.664 182.161H304.701Z" fill="black"/>
<path d="M316.918 173.723C318.728 173.723 320.082 174.117 320.98 174.905C321.885 175.693 322.338 176.812 322.338 178.264C322.338 178.915 322.243 179.54 322.055 180.139C321.872 180.738 321.57 181.272 321.146 181.741C320.73 182.209 320.173 182.581 319.477 182.854C318.786 183.127 317.934 183.264 316.918 183.264H315.834V188H311.977V173.723H316.918ZM316.83 176.838H315.834V180.12H316.596C316.928 180.12 317.237 180.064 317.523 179.954C317.81 179.836 318.038 179.651 318.207 179.397C318.383 179.137 318.471 178.792 318.471 178.362C318.471 177.913 318.337 177.548 318.07 177.268C317.803 176.982 317.39 176.838 316.83 176.838Z" fill="black"/>
<path d="M333.373 188L332.67 185.325H328.031L327.309 188H323.07L327.729 173.665H332.875L337.592 188H333.373ZM331.869 182.161L331.254 179.817C331.189 179.563 331.094 179.202 330.971 178.733C330.847 178.258 330.723 177.769 330.6 177.268C330.482 176.76 330.391 176.344 330.326 176.018C330.268 176.344 330.183 176.747 330.072 177.229C329.968 177.704 329.857 178.176 329.74 178.645C329.63 179.114 329.532 179.504 329.447 179.817L328.832 182.161H331.869Z" fill="black"/>
<path d="M339.145 188V173.723H348.539V176.819H343.002V178.762H344.398C345.622 178.762 346.628 178.948 347.416 179.319C348.21 179.69 348.799 180.208 349.184 180.872C349.568 181.529 349.76 182.291 349.76 183.157C349.76 184.661 349.252 185.846 348.236 186.711C347.221 187.571 345.808 188 343.998 188H339.145ZM343.002 184.944H344.066C344.698 184.944 345.16 184.807 345.453 184.534C345.753 184.254 345.902 183.857 345.902 183.342C345.902 183.01 345.824 182.734 345.668 182.512C345.518 182.284 345.31 182.112 345.043 181.995C344.776 181.877 344.477 181.819 344.145 181.819H343.002V184.944Z" fill="black"/>
<path d="M365.453 180.842C365.453 181.943 365.32 182.945 365.053 183.85C364.792 184.749 364.382 185.523 363.822 186.174C363.262 186.825 362.543 187.327 361.664 187.678C360.785 188.023 359.734 188.196 358.51 188.196C357.312 188.196 356.273 188.023 355.395 187.678C354.522 187.327 353.803 186.829 353.236 186.184C352.67 185.533 352.25 184.755 351.977 183.85C351.703 182.945 351.566 181.936 351.566 180.823C351.566 179.338 351.811 178.049 352.299 176.956C352.794 175.855 353.555 175.006 354.584 174.407C355.613 173.801 356.928 173.499 358.529 173.499C360.157 173.499 361.479 173.801 362.494 174.407C363.516 175.012 364.265 175.865 364.74 176.965C365.215 178.066 365.453 179.358 365.453 180.842ZM355.629 180.842C355.629 181.702 355.727 182.441 355.922 183.059C356.117 183.678 356.426 184.153 356.85 184.485C357.273 184.817 357.826 184.983 358.51 184.983C359.219 184.983 359.783 184.817 360.199 184.485C360.622 184.153 360.925 183.678 361.107 183.059C361.296 182.441 361.391 181.702 361.391 180.842C361.391 179.553 361.176 178.534 360.746 177.786C360.316 177.037 359.577 176.663 358.529 176.663C357.833 176.663 357.27 176.832 356.84 177.17C356.417 177.509 356.107 177.991 355.912 178.616C355.723 179.241 355.629 179.983 355.629 180.842Z" fill="black"/>
<path d="M374.33 188H370.473V176.877H366.986V173.723H377.807V176.877H374.33V188Z" fill="black"/>
<path d="M392.328 188H387.963L383.725 180.764V188H379.848V173.723H383.725V180.637L387.807 173.723H392.045L387.641 180.54L392.328 188Z" fill="black"/>
<path d="M402.553 188L401.85 185.325H397.211L396.488 188H392.25L396.908 173.665H402.055L406.771 188H402.553ZM401.049 182.161L400.434 179.817C400.368 179.563 400.274 179.202 400.15 178.733C400.027 178.258 399.903 177.769 399.779 177.268C399.662 176.76 399.571 176.344 399.506 176.018C399.447 176.344 399.363 176.747 399.252 177.229C399.148 177.704 399.037 178.176 398.92 178.645C398.809 179.114 398.712 179.504 398.627 179.817L398.012 182.161H401.049Z" fill="black"/>
<g clip-path="url(#clip0_50_357)">
<path d="M96.3856 144.957C95.7257 144.725 95.0684 144.485 94.4139 144.238V133.685C96.0749 134.083 97.0647 134.923 97.1529 134.999C97.5912 135.39 98.1657 135.592 98.7519 135.562C99.3381 135.532 99.8889 135.272 100.285 134.838C100.681 134.405 100.89 133.833 100.868 133.247C100.845 132.66 100.592 132.106 100.164 131.704C100.037 131.587 97.9048 129.666 94.4139 129.143V126.988C94.4043 126.402 94.165 125.844 93.7476 125.433C93.3301 125.023 92.768 124.792 92.1824 124.792C91.5969 124.792 91.0348 125.023 90.6173 125.433C90.1999 125.844 89.9606 126.402 89.951 126.988V129.314C89.6108 129.388 89.2737 129.475 88.9403 129.575C85.7481 130.536 83.3629 133.268 82.7154 136.704C82.1252 139.837 83.1286 142.858 85.3349 144.589C86.5037 145.506 87.9586 146.345 89.9512 147.232V160.613C88.2275 160.486 87.0334 160.065 85.0768 158.785C84.8316 158.623 84.5569 158.512 84.2686 158.457C83.9804 158.402 83.684 158.405 83.3967 158.464C83.1094 158.524 82.8366 158.64 82.5941 158.805C82.3516 158.971 82.144 159.182 81.9834 159.428C81.8227 159.673 81.712 159.948 81.6578 160.237C81.6035 160.525 81.6066 160.821 81.667 161.108C81.7274 161.396 81.8439 161.668 82.0097 161.91C82.1756 162.152 82.3876 162.359 82.6335 162.52C85.4862 164.386 87.4352 164.942 89.9512 165.084V167.497C89.9609 168.082 90.2002 168.641 90.6176 169.051C91.0351 169.462 91.5972 169.692 92.1827 169.692C92.7683 169.692 93.3304 169.462 93.7479 169.051C94.1653 168.641 94.4046 168.082 94.4142 167.497V164.906C99.4207 163.924 102.345 159.796 102.993 155.939C103.826 150.982 101.233 146.671 96.3856 144.957ZM88.0885 141.077C87.1988 140.379 86.8201 139.02 87.1007 137.531C87.3522 136.196 88.2332 134.593 89.9506 133.944V142.267C89.2498 141.887 88.6161 141.491 88.0885 141.077ZM98.5915 155.2C98.248 157.243 96.8253 159.408 94.4136 160.271V148.992C94.5746 149.05 94.7322 149.107 94.8979 149.165C99.0216 150.623 98.7677 154.152 98.5915 155.2Z" fill="black"/>
<path d="M203.877 142.086C203.691 141.231 203.292 140.437 202.717 139.778C202.142 139.12 201.41 138.617 200.588 138.317L194.201 135.97C193.925 135.866 193.632 135.818 193.338 135.828C193.044 135.839 192.754 135.907 192.487 136.03C192.219 136.153 191.978 136.327 191.778 136.543C191.579 136.759 191.423 137.013 191.322 137.289C191.22 137.565 191.174 137.859 191.187 138.153C191.199 138.447 191.27 138.736 191.394 139.003C191.519 139.269 191.695 139.509 191.912 139.707C192.13 139.906 192.384 140.059 192.661 140.159L199.049 142.506C199.381 142.628 199.486 142.896 199.518 143.045C199.551 143.193 199.568 143.48 199.317 143.73L142.303 200.745C142.052 200.996 141.765 200.978 141.617 200.946C141.468 200.913 141.201 200.809 141.079 200.476L133.066 178.675C132.806 177.967 132.395 177.323 131.861 176.789C131.327 176.256 130.684 175.844 129.975 175.585L108.175 167.572C107.842 167.45 107.738 167.183 107.705 167.034C107.672 166.885 107.655 166.599 107.906 166.348L164.921 109.333C165.172 109.082 165.458 109.1 165.606 109.133C165.755 109.165 166.022 109.27 166.145 109.602L174.157 131.402C174.417 132.111 174.828 132.755 175.362 133.289C175.896 133.823 176.539 134.234 177.248 134.494L182.793 136.531C183.95 136.957 185.232 136.364 185.657 135.207C186.082 134.05 185.489 132.767 184.332 132.342L178.787 130.304C178.686 130.267 178.594 130.209 178.518 130.132C178.442 130.056 178.383 129.964 178.346 129.863L170.334 108.063C170.034 107.241 169.532 106.509 168.873 105.934C168.214 105.359 167.421 104.96 166.566 104.774C165.712 104.584 164.824 104.613 163.985 104.858C163.146 105.104 162.382 105.558 161.765 106.177L159.606 108.336V86.1966C159.606 83.3256 157.271 80.9897 154.4 80.9897H131.671C133.751 76.9472 133.101 71.8526 129.718 68.4703C128.326 67.0742 126.577 66.0888 124.661 65.6223C122.746 65.1559 120.739 65.2264 118.861 65.8262C117.407 61.611 113.403 58.5731 108.701 58.5731C103.999 58.5731 99.9953 61.6104 98.5419 65.825C94.7797 64.6197 90.5844 65.5693 87.684 68.47C85.6543 70.4994 84.5366 73.1977 84.5366 76.0681C84.5337 77.7802 84.942 79.4679 85.7271 80.9894H83.855C83.2696 80.9991 82.7113 81.2384 82.3007 81.6558C81.89 82.0733 81.6599 82.6354 81.6599 83.2209C81.6599 83.8065 81.89 84.3686 82.3007 84.7861C82.7113 85.2035 83.2696 85.4428 83.855 85.4524H99.7573V106.573C97.2799 106.121 94.7667 105.892 92.2483 105.891C87.5971 105.891 83.2201 106.616 79.0314 108.011L62.2592 108.012V86.1963C62.2594 85.999 62.3378 85.8099 62.4773 85.6705C62.6167 85.531 62.8058 85.4526 63.0031 85.4524H73.177C73.7625 85.4428 74.3207 85.2035 74.7314 84.7861C75.142 84.3686 75.3722 83.8065 75.3722 83.2209C75.3722 82.6354 75.142 82.0733 74.7314 81.6558C74.3207 81.2384 73.7625 80.9991 73.177 80.9894H63.0025C60.1315 80.9894 57.7956 83.3253 57.7956 86.1963V123.669C57.7956 123.682 57.7975 123.696 57.7978 123.709C52.889 130.611 50 139.044 50 148.139C50 157.214 52.846 165.868 58.2303 173.168C58.4377 173.449 58.7085 173.678 59.0207 173.836C59.333 173.993 59.678 174.075 60.0277 174.075C60.4406 174.074 60.8453 173.96 61.1968 173.743C61.5483 173.527 61.8328 173.217 62.0187 172.848C62.2047 172.48 62.2847 172.067 62.2499 171.655C62.2151 171.244 62.0668 170.85 61.8216 170.518C57.0073 163.992 54.4627 156.253 54.4627 148.139C54.4627 127.304 71.4129 110.354 92.2474 110.354C109.711 110.354 124.723 122.12 128.919 139.023L125.141 142.801C124.011 135.785 120.667 129.323 115.481 124.273C109.218 118.176 100.967 114.817 92.2474 114.817C73.8739 114.817 58.9257 129.765 58.9257 148.139C58.9257 166.512 73.8736 181.461 92.2474 181.461C99.8307 181.461 107.176 178.865 113.077 174.129L117.86 175.887C110.907 182.299 101.745 185.924 92.2474 185.924C83.627 185.924 75.1892 182.931 68.4884 177.498C68.0277 177.135 67.4428 176.969 66.8603 177.034C66.2777 177.099 65.7442 177.391 65.375 177.846C65.0058 178.302 64.8306 178.884 64.8872 179.468C64.9439 180.051 65.2278 180.589 65.6776 180.965C73.1707 187.041 82.6068 190.387 92.2474 190.387C103.623 190.387 114.565 185.74 122.504 177.593L128.435 179.774C128.537 179.811 128.628 179.869 128.705 179.946C128.781 180.022 128.84 180.114 128.877 180.215L136.889 202.015C137.188 202.837 137.691 203.569 138.35 204.144C139.009 204.719 139.802 205.118 140.657 205.304C141.033 205.387 141.411 205.427 141.786 205.427C142.468 205.427 143.144 205.292 143.774 205.03C144.404 204.768 144.977 204.384 145.458 203.901L202.473 146.886C203.093 146.269 203.547 145.506 203.792 144.666C204.038 143.827 204.067 142.939 203.877 142.086ZM62.2586 118.412V112.475H69.6236C66.9555 114.174 64.4853 116.166 62.2586 118.412ZM155.143 86.1966V108.012H117.645V85.4527H154.399C154.597 85.453 154.786 85.5314 154.925 85.6709C155.065 85.8103 155.143 85.9994 155.143 86.1966ZM126.563 71.6261C129.012 74.0757 129.012 78.0613 126.563 80.5103C126.465 80.6084 126.275 80.7708 125.946 80.9897H115.074C118.313 74.8968 119.153 71.9155 119.369 70.4176C120.545 69.8435 121.87 69.6514 123.16 69.8681C124.45 70.0848 125.64 70.6995 126.563 71.6261ZM108.701 63.0361C112.165 63.0361 114.983 65.8544 114.983 69.3182C114.983 69.9631 114.616 72.6978 109.991 80.9894H107.411C102.787 72.6999 102.419 69.9643 102.419 69.3182C102.419 65.8544 105.237 63.0361 108.701 63.0361ZM90.8395 80.5106C89.6529 79.324 88.9993 77.7464 88.9993 76.0684C88.9993 74.3903 89.6529 72.8127 90.8395 71.6261C92.7573 69.7083 95.6411 69.2481 98.0324 70.4188C98.2495 71.9173 99.0887 74.8971 102.328 80.9897H91.4561C91.1267 80.7711 90.9375 80.6087 90.8395 80.5106ZM104.22 85.4527H113.182V108.012H105.455C105.445 108.012 105.436 108.013 105.426 108.013C105.026 107.882 104.623 107.758 104.22 107.638V85.4527ZM118.652 115.181C117.441 114.209 116.177 113.306 114.866 112.475H155.143V112.799L146.505 121.437H124.956C123.079 119.137 120.967 117.04 118.652 115.181ZM128.143 125.9H142.042L132.532 135.41C131.469 132.071 129.994 128.876 128.143 125.9ZM92.2477 176.998C76.3349 176.998 63.3893 164.052 63.3893 148.139C63.3893 132.227 76.3352 119.281 92.2477 119.281C107.567 119.281 120.406 131.615 121.076 146.866L104.75 163.193C103.488 164.455 102.963 166.25 103.347 167.993C103.73 169.737 104.96 171.146 106.636 171.762L108.042 172.279C103.349 175.356 97.8599 176.997 92.2477 176.998Z" fill="black"/>
<path d="M159.419 173.839C159.699 173.839 159.986 173.786 160.262 173.672C160.533 173.562 160.78 173.398 160.988 173.192C161.196 172.986 161.362 172.741 161.475 172.47C161.589 172.2 161.648 171.91 161.649 171.617C161.65 171.324 161.594 171.034 161.483 170.762L148.634 139.33C148.524 139.058 148.36 138.811 148.154 138.603C147.948 138.395 147.703 138.229 147.432 138.116C147.162 138.003 146.872 137.944 146.579 137.942C146.286 137.941 145.996 137.997 145.724 138.108C145.453 138.219 145.206 138.382 144.998 138.589C144.79 138.795 144.624 139.04 144.511 139.31C144.397 139.581 144.338 139.871 144.337 140.164C144.336 140.457 144.392 140.747 144.503 141.018L157.352 172.451C157.52 172.862 157.806 173.213 158.174 173.46C158.542 173.707 158.975 173.839 159.419 173.839ZM132.888 148.635C131.325 150.199 130.56 152.346 130.735 154.681C130.901 156.889 131.902 159.016 133.553 160.668C135.205 162.319 137.332 163.32 139.541 163.486C139.76 163.502 139.977 163.511 140.193 163.511C142.273 163.511 144.169 162.75 145.586 161.333C147.15 159.769 147.914 157.622 147.739 155.288C147.573 153.078 146.572 150.952 144.921 149.3C143.269 147.648 141.143 146.647 138.934 146.482C136.597 146.306 134.451 147.072 132.888 148.635ZM141.765 152.456C142.662 153.353 143.203 154.477 143.289 155.621C143.365 156.64 143.06 157.547 142.43 158.177C141.8 158.807 140.892 159.111 139.874 159.036C138.73 158.95 137.606 158.409 136.709 157.512C135.813 156.615 135.271 155.491 135.186 154.347C135.109 153.329 135.414 152.421 136.044 151.791C136.611 151.225 137.401 150.921 138.296 150.921C138.396 150.921 138.497 150.925 138.6 150.933C139.744 151.018 140.868 151.559 141.765 152.456C141.765 152.456 141.765 152.456 141.765 152.456ZM167.88 166.099C169.961 166.099 171.856 165.338 173.273 163.922C176.407 160.788 176.109 155.39 172.608 151.889C169.108 148.388 163.709 148.09 160.575 151.224C157.442 154.358 157.74 159.755 161.241 163.256C162.893 164.908 165.019 165.909 167.228 166.074C167.447 166.091 167.664 166.099 167.88 166.099ZM163.731 154.38C164.322 153.789 165.124 153.502 165.986 153.502C167.156 153.502 168.438 154.031 169.452 155.045C171.213 156.806 171.511 159.372 170.117 160.766C169.487 161.396 168.579 161.701 167.562 161.625C166.417 161.539 165.293 160.998 164.396 160.101C162.636 158.34 162.338 155.774 163.731 154.38Z" fill="black"/>
</g>
<rect x="188" y="50" width="282" height="55" fill="black"/>
<path d="M229.465 75.1875C229.465 76.6035 229.03 77.7363 228.161 78.5859C227.302 79.4355 226.057 80.002 224.426 80.2852V80.4023C226.408 80.5684 227.878 81.1006 228.835 81.999C229.802 82.8877 230.285 84.0449 230.285 85.4707C230.285 86.7207 229.938 87.8291 229.245 88.7959C228.562 89.7627 227.551 90.5195 226.213 91.0664C224.875 91.6133 223.229 91.8867 221.276 91.8867C219.421 91.8867 217.819 91.7793 216.472 91.5645C215.134 91.3496 214.016 91.0713 213.117 90.7295V85.749C213.713 86.042 214.401 86.2959 215.183 86.5107C215.974 86.7158 216.774 86.877 217.585 86.9941C218.396 87.1016 219.128 87.1553 219.782 87.1553C221.442 87.1553 222.614 86.9795 223.298 86.6279C223.991 86.2764 224.338 85.71 224.338 84.9287C224.338 84.2061 223.923 83.6689 223.093 83.3174C222.272 82.9561 221.047 82.7754 219.416 82.7754H216.896V78.0879H219.152C220.383 78.0879 221.32 78.0195 221.965 77.8828C222.619 77.7461 223.063 77.541 223.298 77.2676C223.532 76.9941 223.649 76.6475 223.649 76.2275C223.649 75.7197 223.41 75.3242 222.932 75.041C222.463 74.7578 221.672 74.6162 220.559 74.6162C219.67 74.6162 218.786 74.7383 217.907 74.9824C217.038 75.2168 216.213 75.5928 215.432 76.1104L213 72.126C213.811 71.5986 214.631 71.1689 215.461 70.8369C216.291 70.5049 217.204 70.2607 218.2 70.1045C219.196 69.9482 220.354 69.8701 221.672 69.8701C223.283 69.8701 224.67 70.0996 225.832 70.5586C227.004 71.0176 227.902 71.6475 228.527 72.4482C229.152 73.2393 229.465 74.1523 229.465 75.1875Z" fill="#F5D531"/>
<path d="M247.146 91.5938L246.091 87.5801H239.133L238.049 91.5938H231.691L238.679 70.0898H246.398L253.474 91.5938H247.146ZM244.89 82.834L243.967 79.3184C243.869 78.9375 243.728 78.3955 243.542 77.6924C243.356 76.9795 243.171 76.2471 242.985 75.4951C242.81 74.7334 242.673 74.1084 242.575 73.6201C242.487 74.1084 242.36 74.7139 242.194 75.4365C242.038 76.1494 241.872 76.8574 241.696 77.5605C241.53 78.2637 241.384 78.8496 241.257 79.3184L240.334 82.834H244.89Z" fill="#F5D531"/>
<path d="M263.215 70.1777C265.93 70.1777 267.961 70.7686 269.309 71.9502C270.666 73.1318 271.345 74.8115 271.345 76.9893C271.345 77.9658 271.203 78.9033 270.92 79.8018C270.646 80.7002 270.192 81.501 269.558 82.2041C268.933 82.9072 268.098 83.4639 267.053 83.874C266.018 84.2842 264.738 84.4893 263.215 84.4893H261.589V91.5938H255.803V70.1777H263.215ZM263.083 74.8506H261.589V79.7725H262.731C263.229 79.7725 263.693 79.6895 264.123 79.5234C264.553 79.3477 264.895 79.0693 265.148 78.6885C265.412 78.2979 265.544 77.7803 265.544 77.1357C265.544 76.4619 265.344 75.915 264.943 75.4951C264.543 75.0654 263.923 74.8506 263.083 74.8506Z" fill="#F5D531"/>
<path d="M287.897 91.5938L286.843 87.5801H279.885L278.801 91.5938H272.443L279.431 70.0898H287.15L294.226 91.5938H287.897ZM285.642 82.834L284.719 79.3184C284.621 78.9375 284.479 78.3955 284.294 77.6924C284.108 76.9795 283.923 76.2471 283.737 75.4951C283.562 74.7334 283.425 74.1084 283.327 73.6201C283.239 74.1084 283.112 74.7139 282.946 75.4365C282.79 76.1494 282.624 76.8574 282.448 77.5605C282.282 78.2637 282.136 78.8496 282.009 79.3184L281.086 82.834H285.642Z" fill="#F5D531"/>
<path d="M296.555 91.5938V70.1777H310.646V74.8213H302.341V77.7363H304.436C306.271 77.7363 307.78 78.0146 308.962 78.5713C310.153 79.1279 311.037 79.9043 311.613 80.9004C312.189 81.8867 312.478 83.0293 312.478 84.3281C312.478 86.584 311.716 88.3613 310.192 89.6602C308.669 90.9492 306.55 91.5938 303.835 91.5938H296.555ZM302.341 87.0088H303.938C304.885 87.0088 305.578 86.8037 306.018 86.3936C306.467 85.9736 306.691 85.3779 306.691 84.6064C306.691 84.1084 306.574 83.6934 306.34 83.3613C306.115 83.0195 305.803 82.7607 305.402 82.585C305.002 82.4092 304.553 82.3213 304.055 82.3213H302.341V87.0088Z" fill="#F5D531"/>
<path d="M329.118 91.5938L328.063 87.5801H321.105L320.021 91.5938H313.664L320.651 70.0898H328.371L335.446 91.5938H329.118ZM326.862 82.834L325.939 79.3184C325.842 78.9375 325.7 78.3955 325.515 77.6924C325.329 76.9795 325.144 76.2471 324.958 75.4951C324.782 74.7334 324.646 74.1084 324.548 73.6201C324.46 74.1084 324.333 74.7139 324.167 75.4365C324.011 76.1494 323.845 76.8574 323.669 77.5605C323.503 78.2637 323.356 78.8496 323.229 79.3184L322.307 82.834H326.862Z" fill="#F5D531"/>
<path d="M347.224 91.5938H341.438V74.9092H336.208V70.1777H352.438V74.9092H347.224V91.5938Z" fill="#F5D531"/>
<path d="M355.5 91.5938V70.1777H361.286V77.7363H363.205C365.041 77.7363 366.55 78.0146 367.731 78.5713C368.923 79.1279 369.807 79.9043 370.383 80.9004C370.959 81.8867 371.247 83.0293 371.247 84.3281C371.247 86.584 370.485 88.3613 368.962 89.6602C367.438 90.9492 365.319 91.5938 362.604 91.5938H355.5ZM361.286 87.0088H362.692C363.64 87.0088 364.338 86.8037 364.787 86.3936C365.236 85.9736 365.461 85.3779 365.461 84.6064C365.461 84.1084 365.344 83.6934 365.109 83.3613C364.875 83.0195 364.558 82.7607 364.157 82.585C363.767 82.4092 363.317 82.3213 362.81 82.3213H361.286V87.0088ZM372.741 91.5938V70.1777H378.571V91.5938H372.741Z" fill="#F5D531"/>
<path d="M383.186 70.1777H390.656C393.752 70.1777 395.959 70.6367 397.277 71.5547C398.596 72.4727 399.255 73.791 399.255 75.5098C399.255 76.4473 399.084 77.2432 398.742 77.8975C398.41 78.5518 397.985 79.0693 397.468 79.4502C396.96 79.8311 396.438 80.0898 395.9 80.2266V80.373C396.486 80.5195 397.067 80.7637 397.644 81.1055C398.229 81.4375 398.713 81.9404 399.094 82.6143C399.484 83.2783 399.68 84.1816 399.68 85.3242C399.68 86.623 399.348 87.7412 398.684 88.6787C398.029 89.6162 397.092 90.3389 395.871 90.8467C394.65 91.3447 393.2 91.5938 391.521 91.5938H383.186V70.1777ZM388.972 78.3955H390.715C391.672 78.3955 392.346 78.2002 392.736 77.8096C393.127 77.4092 393.322 76.9258 393.322 76.3594C393.322 75.7734 393.098 75.3291 392.648 75.0264C392.209 74.7139 391.525 74.5576 390.598 74.5576H388.972V78.3955ZM388.972 82.6289V87.126H391.008C392.014 87.126 392.717 86.9111 393.117 86.4814C393.518 86.042 393.718 85.4951 393.718 84.8408C393.718 84.46 393.63 84.1035 393.454 83.7715C393.288 83.4297 393 83.1562 392.59 82.9512C392.18 82.7363 391.613 82.6289 390.891 82.6289H388.972Z" fill="#F5D531"/>
<path d="M416.54 91.5938L415.485 87.5801H408.527L407.443 91.5938H401.086L408.073 70.0898H415.793L422.868 91.5938H416.54ZM414.284 82.834L413.361 79.3184C413.264 78.9375 413.122 78.3955 412.937 77.6924C412.751 76.9795 412.565 76.2471 412.38 75.4951C412.204 74.7334 412.067 74.1084 411.97 73.6201C411.882 74.1084 411.755 74.7139 411.589 75.4365C411.433 76.1494 411.267 76.8574 411.091 77.5605C410.925 78.2637 410.778 78.8496 410.651 79.3184L409.729 82.834H414.284Z" fill="#F5D531"/>
<path d="M425.197 70.1777H430.588V79.9775C430.588 80.417 430.583 80.8809 430.573 81.3691C430.563 81.8477 430.549 82.3213 430.529 82.79C430.51 83.2588 430.485 83.7031 430.456 84.123C430.427 84.543 430.393 84.9141 430.354 85.2363H430.471L439.289 70.1777H445.925V91.5938H440.52V82.3213C440.52 81.9209 440.524 81.4668 440.534 80.959C440.554 80.4512 440.573 79.9287 440.593 79.3916C440.622 78.8545 440.651 78.3369 440.681 77.8389C440.72 77.3408 440.759 76.9062 440.798 76.5352H440.666L431.848 91.5938H425.197V70.1777ZM443.493 63C443.376 64.0938 443.059 65.0605 442.541 65.9004C442.023 66.7402 441.252 67.3994 440.227 67.8779C439.201 68.3467 437.873 68.5811 436.242 68.5811C434.66 68.5811 433.356 68.376 432.331 67.9658C431.306 67.5557 430.529 66.9404 430.002 66.1201C429.475 65.29 429.162 64.25 429.064 63H433.84C433.898 64.0645 434.133 64.7871 434.543 65.168C434.953 65.5391 435.52 65.7246 436.242 65.7246C436.887 65.7246 437.429 65.5293 437.868 65.1387C438.308 64.748 438.566 64.0352 438.645 63H443.493Z" fill="#F5D531"/>
<defs>
<clipPath id="clip0_50_357">
<rect width="154" height="154" fill="white" transform="translate(50 55.0005)"/>
</clipPath>
</defs>
</svg>
