<?xml version="1.0" encoding="utf-8"?><svg xmlns="http://www.w3.org/2000/svg" xmlns:xlink="http://www.w3.org/1999/xlink"><symbol viewBox="0 0 30 30" id="arrow" xmlns="http://www.w3.org/2000/svg"><path fill-rule="evenodd" clip-rule="evenodd" d="M26.1716 11.1464L29.3536 14.3284C29.5488 14.5237 29.5488 14.8403 29.3536 15.0355L26.1716 18.2175C25.9763 18.4128 25.6597 18.4128 25.4645 18.2175C25.2692 18.0223 25.2692 17.7057 25.4645 17.5104L27.7929 15.182H0V14.182H27.7929L25.4645 11.8536C25.2692 11.6583 25.2692 11.3417 25.4645 11.1464C25.6597 10.9512 25.9763 10.9512 26.1716 11.1464Z"/></symbol><symbol viewBox="0 0 15 15" id="arrow-down" xmlns="http://www.w3.org/2000/svg"><path fill-rule="evenodd" clip-rule="evenodd" d="M2 4.70705L2.70711 3.99994L7.85355 9.14639L13 3.99994L13.7071 4.70705L7.85355 10.5606L2 4.70705Z"/></symbol><symbol viewBox="0 0 40 40" id="arrow-next" xmlns="http://www.w3.org/2000/svg"><path fill-rule="evenodd" clip-rule="evenodd" d="M11.6462 1.99994L10.9391 2.70705L28.5855 20.3535L10.9391 37.9999L11.6462 38.707L29.9998 20.3535L11.6462 1.99994Z"/></symbol><symbol viewBox="0 0 40 40" id="arrow-prev" xmlns="http://www.w3.org/2000/svg"><path fill-rule="evenodd" clip-rule="evenodd" d="M28.3533 1.99994L29.0604 2.70705L11.414 20.3535L29.0604 37.9999L28.3533 38.707L9.99976 20.3535L28.3533 1.99994Z"/></symbol><symbol viewBox="0 0 15 15" id="clock" xmlns="http://www.w3.org/2000/svg"><path fill-rule="evenodd" clip-rule="evenodd" d="M7.5 1.36364C4.11098 1.36364 1.36364 4.11098 1.36364 7.5C1.36364 10.889 4.11098 13.6364 7.5 13.6364C10.889 13.6364 13.6364 10.889 13.6364 7.5C13.6364 4.11098 10.889 1.36364 7.5 1.36364ZM0 7.5C0 3.35786 3.35786 0 7.5 0C11.6421 0 15 3.35786 15 7.5C15 11.6421 11.6421 15 7.5 15C3.35786 15 0 11.6421 0 7.5ZM7.5 2.72727C7.87656 2.72727 8.18182 3.03253 8.18182 3.40909V7.07861L10.5322 8.2538C10.869 8.4222 11.0055 8.83175 10.8371 9.16855C10.6687 9.50536 10.2592 9.64188 9.92235 9.47347L7.19508 8.10984C6.96409 7.99434 6.81818 7.75825 6.81818 7.5V3.40909C6.81818 3.03253 7.12344 2.72727 7.5 2.72727Z"/></symbol><symbol viewBox="0 0 70 70" id="conditions--icon_01" xmlns="http://www.w3.org/2000/svg"><path d="M3.2793 60.1572C2.98922 60.1572 2.71102 60.042 2.5059 59.8369C2.30078 59.6318 2.18555 59.3536 2.18555 59.0635C2.18555 53.6352 6.60102 49.2197 12.0293 49.2197C12.3194 49.2197 12.5976 49.335 12.8027 49.5401C13.0078 49.7452 13.123 50.0234 13.123 50.3135C13.123 50.6036 13.0078 50.8818 12.8027 51.0869C12.5976 51.292 12.3194 51.4072 12.0293 51.4072C7.80852 51.4072 4.37305 54.8427 4.37305 59.0635C4.37305 59.3536 4.25781 59.6318 4.05269 59.8369C3.84758 60.042 3.56938 60.1572 3.2793 60.1572Z"/><path d="M18.5918 51.4084L12.0293 51.4073C11.7392 51.4073 11.461 51.2921 11.2559 51.087C11.0508 50.8819 10.9355 50.6037 10.9355 50.3136C10.9355 50.0235 11.0508 49.7453 11.2559 49.5402C11.461 49.3351 11.7392 49.2198 12.0293 49.2198L18.5918 49.2209C18.8819 49.2209 19.1601 49.3362 19.3652 49.5413C19.5703 49.7464 19.6855 50.0246 19.6855 50.3147C19.6855 50.6048 19.5703 50.883 19.3652 51.0881C19.1601 51.2932 18.8819 51.4084 18.5918 51.4084ZM38.4499 51.4084L33.9043 51.4062C33.6142 51.4062 33.336 51.291 33.1309 51.0859C32.9258 50.8808 32.8105 50.6026 32.8105 50.3125C32.8105 50.0224 32.9258 49.7442 33.1309 49.5391C33.336 49.334 33.6142 49.2188 33.9043 49.2188L38.4499 49.2209C38.74 49.2209 39.0182 49.3362 39.2233 49.5413C39.4284 49.7464 39.5437 50.0246 39.5437 50.3147C39.5437 50.6048 39.4284 50.883 39.2233 51.0881C39.0182 51.2932 38.74 51.4084 38.4499 51.4084ZM3.28148 67.8125C2.9914 67.8125 2.7132 67.6973 2.50809 67.4921C2.30297 67.287 2.18773 67.0088 2.18773 66.7188L2.18555 59.0636C2.18555 58.7735 2.30078 58.4953 2.5059 58.2902C2.71102 58.0851 2.98922 57.9698 3.2793 57.9698C3.56938 57.9698 3.84758 58.0851 4.05269 58.2902C4.25781 58.4953 4.37305 58.7735 4.37305 59.0636L4.37523 66.7188C4.37523 67.0088 4.26 67.287 4.05488 67.4921C3.84976 67.6973 3.57156 67.8125 3.28148 67.8125Z"/><path d="M18.5918 51.4084C18.3017 51.4084 18.0235 51.2932 17.8184 51.0881C17.6133 50.8829 17.498 50.6047 17.498 50.3147V44.0464C17.498 43.7563 17.6133 43.4781 17.8184 43.273C18.0235 43.0679 18.3017 42.9526 18.5918 42.9526C18.8819 42.9526 19.1601 43.0679 19.3652 43.273C19.5703 43.4781 19.6855 43.7563 19.6855 44.0464V50.3147C19.6855 50.6047 19.5703 50.8829 19.3652 51.0881C19.1601 51.2932 18.8819 51.4084 18.5918 51.4084ZM33.9043 51.4062C33.6142 51.4062 33.336 51.291 33.1309 51.0859C32.9258 50.8808 32.8105 50.6026 32.8105 50.3125V44.0464C32.8105 43.7563 32.9258 43.4781 33.1309 43.273C33.336 43.0679 33.6142 42.9526 33.9043 42.9526C34.1944 42.9526 34.4726 43.0679 34.6777 43.273C34.8828 43.4781 34.998 43.7563 34.998 44.0464V50.3125C34.998 50.6026 34.8828 50.8808 34.6777 51.0859C34.4726 51.291 34.1944 51.4062 33.9043 51.4062Z"/><path d="M26.248 47.0322C16.599 47.0322 8.74805 39.1813 8.74805 29.5322C8.74805 29.2421 8.86328 28.9639 9.0684 28.7588C9.27352 28.5537 9.55172 28.4385 9.8418 28.4385C10.1319 28.4385 10.4101 28.5537 10.6152 28.7588C10.8203 28.9639 10.9355 29.2421 10.9355 29.5322C10.9355 37.976 17.8043 44.8447 26.248 44.8447C34.6918 44.8447 41.5605 37.976 41.5605 29.5322C41.5605 29.2421 41.6758 28.9639 41.8809 28.7588C42.086 28.5537 42.3642 28.4385 42.6543 28.4385C42.9444 28.4385 43.2226 28.5537 43.4277 28.7588C43.6328 28.9639 43.748 29.2421 43.748 29.5322C43.748 39.1813 35.8971 47.0322 26.248 47.0322Z"/><path d="M9.8418 30.6259C9.55172 30.6259 9.27352 30.5106 9.0684 30.3055C8.86328 30.1004 8.74805 29.8222 8.74805 29.5321V17.4998C8.74805 17.2097 8.86328 16.9315 9.0684 16.7264C9.27352 16.5213 9.55172 16.406 9.8418 16.406C10.1319 16.406 10.4101 16.5213 10.6152 16.7264C10.8203 16.9315 10.9355 17.2097 10.9355 17.4998V29.5321C10.9355 29.8222 10.8203 30.1004 10.6152 30.3055C10.4101 30.5106 10.1319 30.6259 9.8418 30.6259ZM42.6543 30.6259C42.3642 30.6259 42.086 30.5106 41.8809 30.3055C41.6758 30.1004 41.5605 29.8222 41.5605 29.5321V16.4082C41.5605 16.1181 41.6758 15.8399 41.8809 15.6348C42.086 15.4297 42.3642 15.3145 42.6543 15.3145C42.9444 15.3145 43.2226 15.4297 43.4277 15.6348C43.6328 15.8399 43.748 16.1181 43.748 16.4082V29.5321C43.748 29.8222 43.6328 30.1004 43.4277 30.3055C43.2226 30.5106 42.9444 30.6259 42.6543 30.6259Z"/><path d="M42.6543 17.502C42.3642 17.502 42.086 17.3867 41.8809 17.1816C41.6758 16.9765 41.5605 16.6983 41.5605 16.4082C41.5605 12.789 38.6173 9.8457 34.998 9.8457C34.708 9.8457 34.4298 9.73047 34.2247 9.52535C34.0195 9.32023 33.9043 9.04203 33.9043 8.75195C33.9043 8.46187 34.0195 8.18367 34.2247 7.97856C34.4298 7.77344 34.708 7.6582 34.998 7.6582C39.8226 7.6582 43.748 11.5837 43.748 16.4082C43.748 16.6983 43.6328 16.9765 43.4277 17.1816C43.2226 17.3867 42.9444 17.502 42.6543 17.502Z"/><path d="M34.998 9.84594C34.708 9.84594 34.4298 9.7307 34.2247 9.52559C34.0195 9.32047 33.9043 9.04227 33.9043 8.75219V3.28125C33.9043 2.99117 34.0195 2.71297 34.2247 2.50785C34.4298 2.30273 34.708 2.1875 34.998 2.1875C35.2881 2.1875 35.5663 2.30273 35.7714 2.50785C35.9766 2.71297 36.0918 2.99117 36.0918 3.28125V8.75219C36.0918 9.04227 35.9766 9.32047 35.7714 9.52559C35.5663 9.7307 35.2881 9.84594 34.998 9.84594Z"/><path d="M34.998 4.375H24.0605C23.7705 4.375 23.4923 4.25977 23.2872 4.05465C23.082 3.84953 22.9668 3.57133 22.9668 3.28125C22.9668 2.99117 23.082 2.71297 23.2872 2.50785C23.4923 2.30273 23.7705 2.1875 24.0605 2.1875H34.998C35.2881 2.1875 35.5663 2.30273 35.7714 2.50785C35.9766 2.71297 36.0918 2.99117 36.0918 3.28125C36.0918 3.57133 35.9766 3.84953 35.7714 4.05465C35.5663 4.25977 35.2881 4.375 34.998 4.375Z"/><path d="M9.8418 18.5938C9.55172 18.5938 9.27352 18.4785 9.0684 18.2734C8.86328 18.0683 8.74805 17.7901 8.74805 17.5C8.74805 9.05625 15.6168 2.1875 24.0605 2.1875C24.3506 2.1875 24.6288 2.30273 24.8339 2.50785C25.0391 2.71297 25.1543 2.99117 25.1543 3.28125C25.1543 3.57133 25.0391 3.84953 24.8339 4.05465C24.6288 4.25977 24.3506 4.375 24.0605 4.375C16.8232 4.375 10.9355 10.2627 10.9355 17.5C10.9355 17.7901 10.8203 18.0683 10.6152 18.2734C10.4101 18.4785 10.1319 18.5938 9.8418 18.5938ZM42.6543 24.0625C42.5106 24.0626 42.3684 24.0344 42.2357 23.9794C42.103 23.9244 41.9824 23.8437 41.881 23.742L37.506 19.367C37.4045 19.2655 37.3239 19.1449 37.269 19.0122C37.214 18.8796 37.1857 18.7374 37.1857 18.5938C37.1857 18.4501 37.214 18.3079 37.269 18.1753C37.3239 18.0426 37.4045 17.922 37.506 17.8205C37.6076 17.7189 37.7281 17.6384 37.8608 17.5834C37.9935 17.5285 38.1357 17.5002 38.2793 17.5002C38.4229 17.5002 38.5651 17.5285 38.6978 17.5834C38.8305 17.6384 38.951 17.7189 39.0526 17.8205L43.4276 22.1955C43.581 22.3482 43.6856 22.5431 43.7281 22.7554C43.7706 22.9678 43.7491 23.1879 43.6662 23.388C43.5834 23.588 43.4429 23.7589 43.2628 23.879C43.0826 23.9991 42.8708 24.063 42.6543 24.0625Z"/><path d="M26.2479 22.9686C19.4601 22.9686 13.8874 19.6709 13.6533 19.5309C13.4045 19.3818 13.225 19.14 13.1544 18.8585C13.0839 18.5771 13.128 18.2792 13.2771 18.0303C13.4262 17.7814 13.6681 17.6019 13.9495 17.5314C14.2309 17.4608 14.5288 17.5049 14.7777 17.654C14.8313 17.6869 20.0835 20.7811 26.2479 20.7811C32.4122 20.7811 37.6644 17.6869 37.7169 17.6551C37.9658 17.506 38.2638 17.4619 38.5452 17.5325C38.8266 17.603 39.0685 17.7825 39.2176 18.0314C39.3667 18.2803 39.4108 18.5782 39.3402 18.8596C39.2697 19.141 39.0902 19.3829 38.8413 19.532C38.6083 19.6709 33.0357 22.9686 26.2479 22.9686Z"/><path d="M9.84165 24.0623C9.62513 24.0628 9.41335 23.999 9.23318 23.8789C9.05302 23.7588 8.9126 23.5878 8.82974 23.3878C8.74689 23.1877 8.72534 22.9676 8.76782 22.7553C8.81031 22.543 8.91492 22.3481 9.06837 22.1953L13.4434 17.8203C13.5449 17.7188 13.6655 17.6382 13.7982 17.5832C13.9308 17.5283 14.073 17.5 14.2167 17.5C14.3603 17.5 14.5025 17.5283 14.6351 17.5832C14.7678 17.6382 14.8884 17.7188 14.9899 17.8203C15.0915 17.9219 15.172 18.0424 15.227 18.1751C15.282 18.3078 15.3102 18.45 15.3102 18.5936C15.3102 18.7372 15.282 18.8794 15.227 19.0121C15.172 19.1448 15.0915 19.2653 14.9899 19.3669L10.6149 23.7419C10.5135 23.8436 10.393 23.9243 10.2603 23.9793C10.1276 24.0342 9.9853 24.0625 9.84165 24.0623ZM21.8718 53.5936C21.664 53.5936 21.4529 53.5334 21.2659 53.4098L17.9846 51.2245C17.8651 51.1448 17.7625 51.0423 17.6826 50.923C17.6027 50.8036 17.5471 50.6696 17.5189 50.5288C17.4908 50.3879 17.4907 50.2429 17.5186 50.1019C17.5465 49.961 17.6019 49.827 17.6817 49.7075C17.7614 49.588 17.8638 49.4854 17.9832 49.4055C18.1026 49.3256 18.2366 49.27 18.3774 49.2418C18.5183 49.2137 18.6633 49.2136 18.8042 49.2415C18.9451 49.2694 19.0792 49.3248 19.1987 49.4045L22.4799 51.5898C22.6753 51.7201 22.8236 51.9098 22.9028 52.1309C22.982 52.352 22.988 52.5927 22.9198 52.8175C22.8516 53.0422 22.7128 53.239 22.5241 53.3788C22.3354 53.5186 22.1067 53.5939 21.8718 53.5936Z"/><path d="M21.8717 53.5937C21.605 53.5931 21.3478 53.4951 21.1482 53.3182C20.9487 53.1412 20.8208 52.8974 20.7884 52.6327C20.756 52.368 20.8214 52.1006 20.9724 51.8807C21.1234 51.6609 21.3495 51.5038 21.6081 51.439L25.9831 50.3463C26.1225 50.3113 26.2673 50.3041 26.4095 50.3252C26.5516 50.3463 26.6881 50.3952 26.8113 50.4692C26.9344 50.5432 27.0418 50.6408 27.1271 50.7563C27.2125 50.8718 27.2742 51.0031 27.3088 51.1426C27.3438 51.2819 27.351 51.4268 27.3299 51.5689C27.3088 51.711 27.2598 51.8475 27.1859 51.9707C27.1119 52.0938 27.0143 52.2012 26.8988 52.2866C26.7832 52.3719 26.652 52.4337 26.5125 52.4682L22.1375 53.5608C22.0489 53.5827 21.9592 53.5937 21.8717 53.5937ZM30.6239 53.5937C30.3891 53.5939 30.1604 53.5186 29.9716 53.3789C29.7829 53.2391 29.6442 53.0423 29.576 52.8175C29.5078 52.5928 29.5137 52.3521 29.5929 52.131C29.6721 51.9099 29.8204 51.7202 30.0158 51.5899L33.297 49.4046C33.5384 49.2436 33.8338 49.1851 34.1183 49.2419C34.4028 49.2987 34.6531 49.4662 34.8141 49.7076C34.9751 49.9489 35.0336 50.2443 34.9768 50.5288C34.92 50.8133 34.7525 51.0636 34.5111 51.2246L31.2299 53.4099C31.0503 53.5293 30.8396 53.5932 30.6239 53.5937Z"/><path d="M30.6243 53.5937C30.5368 53.5937 30.4471 53.5828 30.3585 53.5609L25.9835 52.4683C25.8413 52.4363 25.7069 52.3762 25.5883 52.2915C25.4696 52.2068 25.3691 52.0993 25.2926 51.9752C25.2161 51.8511 25.1652 51.713 25.1428 51.569C25.1205 51.4249 25.1271 51.2779 25.1624 51.1364C25.1977 50.995 25.2609 50.8621 25.3483 50.7454C25.4357 50.6287 25.5455 50.5307 25.6713 50.4571C25.7972 50.3835 25.9364 50.3358 26.0809 50.3168C26.2255 50.2978 26.3723 50.3078 26.5129 50.3464L30.8879 51.439C31.1466 51.5039 31.3727 51.661 31.5236 51.8808C31.6746 52.1007 31.74 52.3681 31.7077 52.6328C31.6753 52.8975 31.5473 53.1413 31.3478 53.3182C31.1483 53.4952 30.891 53.5932 30.6243 53.5937ZM26.281 57.9687C25.6762 57.9687 25.1818 57.4798 25.1818 56.875C25.1818 56.2701 25.6652 55.7812 26.269 55.7812H26.281C26.5711 55.7812 26.8493 55.8965 27.0544 56.1016C27.2595 56.3067 27.3748 56.5849 27.3748 56.875C27.3748 57.1651 27.2595 57.4433 27.0544 57.6484C26.8493 57.8535 26.5711 57.9687 26.281 57.9687ZM26.281 64.5323C25.6762 64.5323 25.1818 64.0434 25.1818 63.4386C25.1818 62.8337 25.6652 62.3448 26.269 62.3448H26.281C26.5711 62.3448 26.8493 62.4601 27.0544 62.6652C27.2595 62.8703 27.3748 63.1485 27.3748 63.4386C27.3748 63.7287 27.2595 64.0069 27.0544 64.212C26.8493 64.4171 26.5711 64.5323 26.281 64.5323ZM52.5026 67.8125C44.0588 67.8125 37.1901 60.9426 37.1901 52.4967C37.1901 44.053 44.0588 37.1831 52.5026 37.1831C60.9463 37.1831 67.8151 44.053 67.8151 52.4967C67.8151 60.9426 60.9463 67.8125 52.5026 67.8125ZM52.5026 39.3706C45.2652 39.3706 39.3776 45.2594 39.3776 52.4967C39.3776 59.7351 45.2652 65.625 52.5026 65.625C59.7399 65.625 65.6276 59.7351 65.6276 52.4967C65.6276 45.2594 59.7399 39.3706 52.5026 39.3706Z"/><path d="M52.5024 64.5312C45.8688 64.5312 40.4712 59.1325 40.4712 52.4967C40.4712 45.862 45.8688 40.4644 52.5024 40.4644C59.136 40.4644 64.5337 45.862 64.5337 52.4967C64.5337 59.1325 59.136 64.5312 52.5024 64.5312ZM52.5024 42.6519C47.0742 42.6519 42.6587 47.0684 42.6587 52.4967C42.6587 57.9261 47.0742 62.3437 52.5024 62.3437C57.9307 62.3437 62.3462 57.9261 62.3462 52.4967C62.3462 47.0684 57.9307 42.6519 52.5024 42.6519Z"/><path d="M52.5023 55.7769C50.6932 55.7769 49.221 54.3047 49.221 52.4956C49.221 50.6865 50.6932 49.2133 52.5023 49.2133C54.3113 49.2133 55.7835 50.6865 55.7835 52.4956C55.7835 54.3047 54.3113 55.7769 52.5023 55.7769ZM52.5023 51.4008C52.212 51.4008 51.9337 51.5161 51.7285 51.7213C51.5233 51.9265 51.408 52.2048 51.408 52.4951C51.408 52.7853 51.5233 53.0636 51.7285 53.2688C51.9337 53.4741 52.212 53.5894 52.5023 53.5894C52.7925 53.5894 53.0708 53.4741 53.276 53.2688C53.4813 53.0636 53.5966 52.7853 53.5966 52.4951C53.5966 52.2048 53.4813 51.9265 53.276 51.7213C53.0708 51.5161 52.7925 51.4008 52.5023 51.4008ZM61.9763 48.1206H43.0282C42.7381 48.1206 42.4599 48.0054 42.2548 47.8003C42.0497 47.5951 41.9344 47.3169 41.9344 47.0269C41.9344 46.7368 42.0497 46.4586 42.2548 46.2535C42.4599 46.0483 42.7381 45.9331 43.0282 45.9331H61.9763C62.2664 45.9331 62.5446 46.0483 62.7497 46.2535C62.9548 46.4586 63.0701 46.7368 63.0701 47.0269C63.0701 47.3169 62.9548 47.5951 62.7497 47.8003C62.5446 48.0054 62.2664 48.1206 61.9763 48.1206ZM54.692 64.3005H54.6712C54.5275 64.2977 54.3858 64.2668 54.2542 64.2093C54.1225 64.1518 54.0034 64.069 53.9038 63.9655C53.8042 63.862 53.7259 63.7398 53.6734 63.6061C53.621 63.4723 53.5954 63.3296 53.5982 63.1859C53.7087 57.3726 57.5357 52.4005 63.1215 50.8123C63.3976 50.7417 63.6904 50.7817 63.9375 50.9237C64.1846 51.0657 64.3665 51.2986 64.4445 51.5727C64.5225 51.8469 64.4904 52.1406 64.355 52.3914C64.2196 52.6422 63.9917 52.8303 63.7198 52.9156C59.0659 54.239 55.8776 58.3822 55.7857 63.2264C55.7805 63.513 55.663 63.7862 55.4585 63.9871C55.2539 64.188 54.9787 64.3005 54.692 64.3005ZM50.317 64.3114C49.722 64.3114 49.2341 63.8334 49.2232 63.2373C49.1368 58.3855 45.9485 54.238 41.288 52.9156C41.1498 52.8766 41.0207 52.8108 40.908 52.7218C40.7952 52.6329 40.7012 52.5225 40.6312 52.3971C40.5612 52.2718 40.5166 52.1338 40.5 51.9912C40.4834 51.8485 40.4951 51.704 40.5345 51.5659C40.5733 51.4276 40.6391 51.2984 40.728 51.1856C40.8169 51.0728 40.9273 50.9787 41.0527 50.9087C41.1781 50.8386 41.3161 50.7941 41.4588 50.7775C41.6015 50.761 41.746 50.7728 41.8841 50.8123C47.4787 52.3994 51.3068 57.377 51.4107 63.199C51.4133 63.3427 51.3876 63.4854 51.335 63.6191C51.2825 63.7528 51.2041 63.8749 51.1043 63.9783C51.0046 64.0817 50.8854 64.1644 50.7537 64.2217C50.622 64.2791 50.4803 64.3099 50.3366 64.3125L50.317 64.3114Z"/></symbol><symbol viewBox="0 0 70 70" id="conditions--icon_02" xmlns="http://www.w3.org/2000/svg"><path d="M63.4375 21.8749H60.7841C61.2975 20.0839 61.3881 18.1981 61.0485 16.3662C60.7089 14.5343 59.9485 12.8062 58.8272 11.3183C57.7059 9.83036 56.2544 8.62316 54.587 7.79185C52.9196 6.96054 51.0819 6.52783 49.2188 6.52783C47.3556 6.52783 45.5179 6.96054 43.8505 7.79185C42.1831 8.62316 40.7316 9.83036 39.6103 11.3183C38.489 12.8062 37.7286 14.5343 37.389 16.3662C37.0494 18.1981 37.14 20.0839 37.6534 21.8749H6.5625C5.11263 21.8766 3.72264 22.4533 2.69743 23.4786C1.67221 24.5038 1.09549 25.8938 1.09375 27.3436V57.9686C1.09549 59.4185 1.67221 60.8085 2.69743 61.8337C3.72264 62.8589 5.11263 63.4356 6.5625 63.4374H63.4375C64.8874 63.4356 66.2774 62.8589 67.3026 61.8337C68.3278 60.8085 68.9045 59.4185 68.9062 57.9686V27.3436C68.9045 25.8938 68.3278 24.5038 67.3026 23.4786C66.2774 22.4533 64.8874 21.8766 63.4375 21.8749ZM49.2188 8.74988C51.1657 8.74988 53.0688 9.32721 54.6876 10.4089C56.3064 11.4905 57.5681 13.0279 58.3132 14.8266C59.0582 16.6253 59.2532 18.6046 58.8734 20.5141C58.4935 22.4236 57.556 24.1775 56.1793 25.5542C54.8027 26.9309 53.0487 27.8684 51.1392 28.2482C49.2297 28.6281 47.2504 28.4331 45.4517 27.6881C43.653 26.943 42.1156 25.6813 41.034 24.0625C39.9523 22.4437 39.375 20.5405 39.375 18.5936C39.3782 15.9839 40.4163 13.4819 42.2617 11.6366C44.1071 9.79119 46.609 8.75306 49.2188 8.74988ZM42.3281 28.4374C44.346 29.8608 46.7548 30.6249 49.2242 30.6249C51.6936 30.6249 54.1025 29.8608 56.1203 28.4374H60.1562C60.7364 28.4374 61.2928 28.6678 61.703 29.0781C62.1133 29.4883 62.3438 30.0447 62.3438 30.6249C62.3438 31.205 62.1133 31.7614 61.703 32.1717C61.2928 32.5819 60.7364 32.8124 60.1562 32.8124H38.2812C37.7011 32.8124 37.1447 32.5819 36.7345 32.1717C36.3242 31.7614 36.0938 31.205 36.0938 30.6249C36.0938 30.0447 36.3242 29.4883 36.7345 29.0781C37.1447 28.6678 37.7011 28.4374 38.2812 28.4374H42.3281ZM66.7188 57.9686C66.7188 58.8389 66.373 59.6735 65.7577 60.2888C65.1423 60.9042 64.3077 61.2499 63.4375 61.2499H6.5625C5.69226 61.2499 4.85766 60.9042 4.24231 60.2888C3.62695 59.6735 3.28125 58.8389 3.28125 57.9686V27.3436C3.28125 26.4734 3.62695 25.6388 4.24231 25.0234C4.85766 24.4081 5.69226 24.0624 6.5625 24.0624H38.5153C38.9111 24.8412 39.3904 25.5747 39.9448 26.2499H38.2812C37.1209 26.2499 36.0081 26.7108 35.1877 27.5313C34.3672 28.3518 33.9062 29.4646 33.9062 30.6249C33.9062 31.7852 34.3672 32.898 35.1877 33.7185C36.0081 34.5389 37.1209 34.9999 38.2812 34.9999H60.1562C61.3166 34.9999 62.4294 34.5389 63.2498 33.7185C64.0703 32.898 64.5312 31.7852 64.5312 30.6249C64.5312 29.4646 64.0703 28.3518 63.2498 27.5313C62.4294 26.7108 61.3166 26.2499 60.1562 26.2499H58.4927C59.0471 25.5747 59.5264 24.8412 59.9222 24.0624H63.4375C64.3077 24.0624 65.1423 24.4081 65.7577 25.0234C66.373 25.6388 66.7188 26.4734 66.7188 27.3436V57.9686Z"/><path d="M29.5312 26.2498H7.65625C7.07609 26.2498 6.51969 26.4802 6.10945 26.8905C5.69922 27.3007 5.46875 27.8571 5.46875 28.4373V50.3123C5.46875 50.8924 5.69922 51.4488 6.10945 51.8591C6.51969 52.2693 7.07609 52.4998 7.65625 52.4998H29.5312C30.1114 52.4998 30.6678 52.2693 31.078 51.8591C31.4883 51.4488 31.7188 50.8924 31.7188 50.3123V28.4373C31.7188 27.8571 31.4883 27.3007 31.078 26.8905C30.6678 26.4802 30.1114 26.2498 29.5312 26.2498ZM25.1562 50.3123H19.6875V43.7498H21.875C22.7452 43.7498 23.5798 44.0955 24.1952 44.7108C24.8105 45.3262 25.1562 46.1608 25.1562 47.031V50.3123ZM15.3125 38.281V38.2745C16.5458 38.2162 17.7142 37.7048 18.5938 36.8384C19.4733 37.7048 20.6417 38.2162 21.875 38.2745V38.281C21.875 39.1513 21.5293 39.9859 20.9139 40.6012C20.2986 41.2166 19.464 41.5623 18.5938 41.5623C17.7235 41.5623 16.8889 41.2166 16.2736 40.6012C15.6582 39.9859 15.3125 39.1513 15.3125 38.281ZM21.875 36.0574C21.3916 36.0183 20.9264 35.8556 20.5242 35.5847C20.1219 35.3139 19.7961 34.944 19.5781 34.5109C19.4771 34.3414 19.3337 34.201 19.1621 34.1035C18.9905 34.0061 18.7966 33.9548 18.5992 33.9548C18.4019 33.9548 18.2079 34.0061 18.0363 34.1035C17.8647 34.201 17.7214 34.3414 17.6203 34.5109C17.4014 34.9455 17.0739 35.3163 16.6695 35.5873C16.2652 35.8582 15.7978 36.0202 15.3125 36.0574V33.906C15.3125 33.6159 15.4277 33.3377 15.6329 33.1326C15.838 32.9275 16.1162 32.8123 16.4062 32.8123H20.7812C21.0713 32.8123 21.3495 32.9275 21.5546 33.1326C21.7598 33.3377 21.875 33.6159 21.875 33.906V36.0574ZM15.3125 43.7498H17.5V50.3123H12.0312V47.031C12.0312 46.1608 12.377 45.3262 12.9923 44.7108C13.6077 44.0955 14.4423 43.7498 15.3125 43.7498ZM27.3438 50.3123V47.031C27.3414 45.7531 26.8915 44.5164 26.0724 43.5356C25.2532 42.5548 24.1164 41.8918 22.8594 41.6618C23.6333 40.7045 24.0577 39.512 24.0625 38.281V33.906C24.0625 33.0358 23.7168 32.2012 23.1014 31.5858C22.4861 30.9705 21.6515 30.6248 20.7812 30.6248H16.4062C15.536 30.6248 14.7014 30.9705 14.0861 31.5858C13.4707 32.2012 13.125 33.0358 13.125 33.906V38.281C13.1298 39.512 13.5542 40.7045 14.3281 41.6618C13.0711 41.8918 11.9343 42.5548 11.1151 43.5356C10.296 44.5164 9.84614 45.7531 9.84375 47.031V50.3123H7.65625V28.4373H29.5312V50.3123H27.3438ZM47.0312 26.2498C47.3213 26.2497 47.5995 26.1344 47.8045 25.9293L56.5545 17.1793C56.7596 16.9742 56.8748 16.696 56.8748 16.406C56.8748 16.116 56.7596 15.8378 56.5545 15.6327L54.367 13.4452C54.1619 13.2402 53.8838 13.125 53.5938 13.125C53.3037 13.125 53.0256 13.2402 52.8205 13.4452L47.0312 19.2345L45.617 17.8202C45.4119 17.6152 45.1338 17.5 44.8438 17.5C44.5537 17.5 44.2756 17.6152 44.0705 17.8202L41.883 20.0077C41.6779 20.2128 41.5627 20.491 41.5627 20.781C41.5627 21.071 41.6779 21.3492 41.883 21.5543L46.258 25.9293C46.463 26.1344 46.7412 26.2497 47.0312 26.2498ZM44.8438 20.1401L46.258 21.5543C46.4631 21.7593 46.7412 21.8745 47.0312 21.8745C47.3213 21.8745 47.5994 21.7593 47.8045 21.5543L53.5938 15.7651L54.2347 16.406L47.0312 23.6095L44.2028 20.781L44.8438 20.1401ZM5.46875 55.781H31.7188V57.9685H5.46875V55.781ZM61.25 37.1873H37.1875C36.8974 37.1873 36.6192 37.3025 36.4141 37.5076C36.209 37.7127 36.0938 37.9909 36.0938 38.281V42.656C36.0938 42.9461 36.209 43.2243 36.4141 43.4294C36.6192 43.6345 36.8974 43.7498 37.1875 43.7498H61.25C61.5401 43.7498 61.8183 43.6345 62.0234 43.4294C62.2285 43.2243 62.3438 42.9461 62.3438 42.656V38.281C62.3438 37.9909 62.2285 37.7127 62.0234 37.5076C61.8183 37.3025 61.5401 37.1873 61.25 37.1873ZM60.1562 41.5623H38.2812V39.3748H60.1562V41.5623ZM61.25 50.3123H37.1875C36.8974 50.3123 36.6192 50.4275 36.4141 50.6326C36.209 50.8377 36.0938 51.1159 36.0938 51.406V55.781C36.0938 56.0711 36.209 56.3493 36.4141 56.5544C36.6192 56.7595 36.8974 56.8748 37.1875 56.8748H61.25C61.5401 56.8748 61.8183 56.7595 62.0234 56.5544C62.2285 56.3493 62.3438 56.0711 62.3438 55.781V51.406C62.3438 51.1159 62.2285 50.8377 62.0234 50.6326C61.8183 50.4275 61.5401 50.3123 61.25 50.3123ZM60.1562 54.6873H38.2812V52.4998H60.1562V54.6873ZM36.0938 45.9373H57.9688V48.1248H36.0938V45.9373ZM60.1562 45.9373H62.3438V48.1248H60.1562V45.9373Z"/></symbol><symbol viewBox="0 0 70 70" id="conditions--icon_03" xmlns="http://www.w3.org/2000/svg"><path d="M56.9663 18.0586L59.4816 17.5585C59.9423 17.463 60.3785 17.2742 60.7635 17.0037C61.1484 16.7332 61.4739 16.3867 61.7199 15.9857L65.6798 9.37203C65.9373 8.95062 66.0453 8.4547 65.9862 7.96437C65.9272 7.47405 65.7045 7.01795 65.3543 6.66974L63.3309 4.64845C62.9838 4.29872 62.5291 4.07602 62.04 4.01622C61.551 3.95642 61.056 4.063 60.6348 4.3188L54.0067 8.28802C53.6074 8.53455 53.2626 8.86007 52.9936 9.24461C52.7246 9.62915 52.5369 10.0646 52.4422 10.5243L51.9472 13.0354C51.9064 13.2358 51.8076 13.4198 51.663 13.5645L36.9942 28.2292L28.3645 19.6025C28.8528 17.8245 28.9344 15.9593 28.6031 14.1454C28.2717 12.3315 27.536 10.6156 26.4506 9.12505C25.1185 7.29693 23.314 5.86579 21.2305 4.98507C19.147 4.10434 16.8631 3.80722 14.6236 4.12556C14.2464 4.18292 13.8924 4.34359 13.6009 4.58977C13.3093 4.83595 13.0917 5.15802 12.9719 5.52031C12.8522 5.8826 12.8351 6.27096 12.9225 6.64237C13.01 7.01378 13.1985 7.35374 13.4672 7.62459L19.1725 13.3288C19.3181 13.4749 19.4171 13.6608 19.4572 13.8631C19.4973 14.0654 19.4766 14.275 19.3978 14.4656L18.0699 17.545C18.022 17.6647 17.9505 17.7735 17.8598 17.8651C17.7691 17.9567 17.661 18.0291 17.5419 18.0783L14.4789 19.3855C14.2877 19.4695 14.0757 19.4942 13.8703 19.4565C13.6649 19.4187 13.4755 19.3202 13.3267 19.1736L7.62348 13.4694C7.35532 13.1989 7.0167 13.0091 6.64607 12.9214C6.27545 12.8337 5.88767 12.8517 5.52675 12.9734C5.15901 13.0945 4.83254 13.3162 4.58433 13.6134C4.33613 13.9105 4.1761 14.2712 4.12239 14.6547C3.84111 16.5581 4.01195 18.5009 4.62109 20.326C5.23023 22.1511 6.26055 23.8071 7.62865 25.16C9.16276 26.7056 11.0789 27.8172 13.1821 28.3819C15.2852 28.9466 17.5005 28.9442 19.6024 28.3749L27.1461 35.9092C27.0398 36.3472 26.8153 36.7475 26.4971 37.0666C26.1139 37.4491 25.6166 37.6963 25.0803 37.7709C24.5441 37.8455 23.9982 37.7433 23.5251 37.48C23.1008 37.2208 22.6025 37.1099 22.1083 37.1647C21.6141 37.2195 21.1521 37.4369 20.7949 37.7828L5.67349 52.9228C5.14244 53.4536 4.72117 54.0838 4.43375 54.7774C4.14633 55.4711 3.9984 56.2146 3.9984 56.9654C3.9984 57.7162 4.14633 58.4597 4.43375 59.1533C4.72117 59.847 5.14244 60.4772 5.67349 61.008L8.99167 64.3272C10.0652 65.3972 11.5191 65.9981 13.0348 65.9981C14.5505 65.9981 16.0044 65.3972 17.0779 64.3272L32.2221 49.1944C32.563 48.8387 32.7769 48.3804 32.8308 47.8907C32.8846 47.4009 32.7752 46.9071 32.5197 46.4859C32.3292 46.1529 32.219 45.78 32.1978 45.397C32.1766 45.0139 32.245 44.6312 32.3976 44.2792C32.5501 43.9273 32.7827 43.6157 33.0767 43.3693C33.3708 43.1229 33.7182 42.9484 34.0914 42.8597L47.4158 56.1842C47.3121 58.0646 47.7817 59.9323 48.7626 61.5401C49.7434 63.1478 51.1892 64.4199 52.9088 65.1881C54.6283 65.9563 56.5406 66.1843 58.3926 65.842C60.2445 65.4996 61.9489 64.6032 63.2803 63.2711C64.6127 61.9398 65.5092 60.2351 65.851 58.3829C66.1928 56.5307 65.9638 54.6183 65.1944 52.8992C64.4249 51.18 63.1512 49.7352 61.5422 48.7562C59.9331 47.7772 58.0646 47.3101 56.1841 47.417L41.7726 33.0054L56.4362 18.3428C56.5811 18.198 56.7655 18.0992 56.9663 18.0586ZM19.5849 26.2223C17.9159 26.7613 16.1373 26.8671 14.4162 26.5298C12.6952 26.1925 11.0881 25.4232 9.746 24.2942C8.40391 23.1652 7.3709 21.7135 6.74401 20.0756C6.11712 18.4376 5.91694 16.6672 6.16228 14.9306L11.8655 20.6359C12.3054 21.074 12.8664 21.3703 13.4762 21.4867C14.086 21.6031 14.7167 21.5342 15.287 21.289L18.3541 19.9776C19.0856 19.6682 19.6667 19.0842 19.9724 18.3511L21.3023 15.2623C21.5395 14.694 21.6028 14.0681 21.4841 13.4638C21.3655 12.8596 21.0703 12.3041 20.6358 11.8676L14.9233 6.16855C16.6601 5.91361 18.4332 6.10648 20.0746 6.72888C21.716 7.35129 23.1712 8.3826 24.3023 9.72505C25.4334 11.0675 26.2029 12.6766 26.5378 14.3998C26.8727 16.1229 26.762 17.9031 26.2161 19.5715C26.1564 19.7531 26.1484 19.9476 26.1927 20.1335C26.237 20.3194 26.332 20.4894 26.4672 20.6245L35.533 29.6904L33.8631 31.3613L32.1063 29.6046C31.8874 29.3869 31.6251 29.2178 31.3365 29.1083C31.0479 28.9988 30.7394 28.9514 30.4312 28.9691L27.361 25.8989C27.2657 25.8002 27.1517 25.7215 27.0256 25.6673C26.8995 25.6131 26.7639 25.5846 26.6267 25.5834C26.4895 25.5822 26.3534 25.6084 26.2264 25.6604C26.0994 25.7123 25.9841 25.789 25.887 25.8861C25.79 25.9831 25.7133 26.0985 25.6613 26.2255C25.6094 26.3525 25.5832 26.4885 25.5844 26.6258C25.5856 26.763 25.6141 26.8986 25.6683 27.0246C25.7224 27.1507 25.8011 27.2648 25.8998 27.3601L28.5639 30.0241L27.2308 31.3675C26.9221 31.6681 26.7123 32.0556 26.6294 32.4784L20.6358 26.4786C20.501 26.3437 20.3314 26.2487 20.1459 26.2042C19.9604 26.1597 19.7662 26.1674 19.5849 26.2265V26.2223ZM31.4605 42.0496C30.76 42.7575 30.3096 43.6746 30.1776 44.6618C30.0455 45.6489 30.2391 46.6521 30.7288 47.5193C30.7619 47.5771 30.8012 47.6908 30.7505 47.7445L15.6167 62.866C14.931 63.5503 14.0019 63.9346 13.0332 63.9346C12.0645 63.9346 11.1354 63.5503 10.4498 62.866L7.13469 59.5468C6.79499 59.2078 6.52549 58.8051 6.34161 58.3618C6.15773 57.9185 6.06308 57.4432 6.06308 56.9633C6.06308 56.4834 6.15773 56.0082 6.34161 55.5649C6.52549 55.1216 6.79499 54.7189 7.13469 54.3799L22.2458 39.2615C22.2703 39.2391 22.3026 39.2272 22.3357 39.2284C22.3911 39.2317 22.4447 39.2487 22.4918 39.2781C23.3589 39.7673 24.3625 39.9591 25.349 39.8239C26.3355 39.6888 27.2506 39.2342 27.9542 38.5297C28.6579 37.8253 29.1114 36.9097 29.2454 35.923C29.3794 34.9364 29.1865 33.933 28.6962 33.0664C28.6476 32.9796 28.6352 32.8794 28.6807 32.8349L30.4374 31.0668C30.4656 31.041 30.5025 31.0266 30.5408 31.0266C30.579 31.0266 30.6159 31.041 30.6441 31.0668L38.9349 39.3566C38.9599 39.384 38.9737 39.4197 38.9737 39.4568C38.9737 39.4939 38.9599 39.5297 38.9349 39.5571L37.1503 41.3303C37.1224 41.3572 37.0273 41.3531 36.9353 41.3035C36.0661 40.8141 35.0609 40.6222 34.0726 40.7569C33.0842 40.8916 32.167 41.3455 31.4605 42.0496ZM55.0608 49.2171C55.1714 49.3251 55.3043 49.4076 55.4501 49.4588C55.5959 49.5101 55.7512 49.5288 55.9051 49.5137C57.3948 49.3485 58.899 49.6502 60.2098 50.377C61.5206 51.1038 62.5733 52.2199 63.2223 53.5709C63.8714 54.9219 64.0847 56.4411 63.8329 57.9186C63.5811 59.3961 62.8765 60.7589 61.8166 61.8187C60.7567 62.8784 59.3938 63.5828 57.9162 63.8343C56.4387 64.0859 54.9195 63.8723 53.5686 63.223C52.2177 62.5738 51.1018 61.5209 50.3752 60.21C49.6486 58.8991 49.3472 57.3948 49.5126 55.9051C49.5296 55.7512 49.5117 55.5954 49.4604 55.4492C49.4091 55.3031 49.3255 55.1704 49.216 55.0609L37.5233 43.3702C37.9414 43.2927 38.3253 43.0881 38.6228 42.7843L39.9765 41.4409L47.1937 48.6591C47.388 48.8533 47.6515 48.9623 47.9262 48.9622C48.2009 48.9621 48.4643 48.8529 48.6585 48.6586C48.8527 48.4642 48.9617 48.2008 48.9616 47.926C48.9615 47.6513 48.8523 47.3879 48.658 47.1937L41.0316 39.5674C41.0493 39.259 41.0019 38.9504 40.8924 38.6616C40.7829 38.3728 40.6138 38.1103 40.3961 37.8913L38.6394 36.1345L40.3114 34.4625L55.0608 49.2171ZM37.1833 34.6774L35.3284 32.8225L53.1201 15.0257C53.5547 14.5933 53.8502 14.0409 53.9685 13.4394L54.4676 10.9335C54.5052 10.753 54.5788 10.582 54.6841 10.4307C54.7895 10.2794 54.9242 10.1509 55.0804 10.053L61.7003 6.08795C61.7264 6.07188 61.7573 6.06527 61.7878 6.06922C61.8183 6.07317 61.8465 6.08744 61.8677 6.10965L63.8931 8.13198C63.916 8.15417 63.9304 8.1837 63.9338 8.21541C63.9372 8.24713 63.9294 8.27904 63.9117 8.30558L59.9549 14.9099C59.8575 15.0675 59.7292 15.2037 59.5777 15.3103C59.4262 15.4169 59.2546 15.4916 59.0734 15.5299L56.5623 16.0301C55.9607 16.1491 55.4082 16.4444 54.975 16.8785L37.1833 34.6774Z"/><path d="M56.7009 61.8679C57.7228 61.8679 58.7218 61.5648 59.5715 60.9971C60.4212 60.4293 61.0834 59.6224 61.4745 58.6783C61.8656 57.7341 61.9679 56.6952 61.7685 55.693C61.5692 54.6907 61.0771 53.77 60.3545 53.0474C59.6319 52.3248 58.7112 51.8327 57.7089 51.6333C56.7066 51.434 55.6678 51.5363 54.7236 51.9274C53.7795 52.3184 52.9725 52.9807 52.4048 53.8304C51.837 54.6801 51.534 55.679 51.534 56.701C51.5357 58.0708 52.0806 59.3841 53.0492 60.3527C54.0178 61.3213 55.3311 61.8662 56.7009 61.8679ZM56.7009 53.6008C57.3141 53.6008 57.9134 53.7826 58.4233 54.1233C58.9331 54.4639 59.3304 54.9481 59.5651 55.5146C59.7997 56.0811 59.8611 56.7044 59.7415 57.3058C59.6219 57.9071 59.3266 58.4595 58.893 58.8931C58.4595 59.3267 57.9071 59.6219 57.3057 59.7415C56.7044 59.8612 56.081 59.7998 55.5145 59.5651C54.9481 59.3305 54.4639 58.9331 54.1232 58.4233C53.7826 57.9135 53.6008 57.3141 53.6008 56.701C53.6008 55.8788 53.9274 55.0902 54.5088 54.5088C55.0902 53.9274 55.8787 53.6008 56.7009 53.6008ZM23.8105 42.8743C23.6167 42.6806 23.3539 42.5718 23.0799 42.5718C22.8059 42.5718 22.5431 42.6806 22.3493 42.8743L9.81646 55.4061C9.71776 55.5015 9.63903 55.6155 9.58487 55.7416C9.53072 55.8676 9.50221 56.0032 9.50102 56.1405C9.49982 56.2777 9.52597 56.4137 9.57793 56.5407C9.62989 56.6677 9.70662 56.7831 9.80365 56.8801C9.90067 56.9772 10.0161 57.0539 10.1431 57.1059C10.27 57.1578 10.4061 57.184 10.5433 57.1828C10.6805 57.1816 10.8161 57.1531 10.9422 57.0989C11.0683 57.0448 11.1823 56.966 11.2777 56.8673L23.8105 44.3355C24.0042 44.1418 24.113 43.879 24.113 43.6049C24.113 43.3309 24.0042 43.0681 23.8105 42.8743ZM25.6654 46.1905L13.1336 58.7223C13.0349 58.8176 12.9562 58.9316 12.902 59.0577C12.8479 59.1838 12.8194 59.3194 12.8182 59.4566C12.817 59.5938 12.8431 59.7299 12.8951 59.8569C12.947 59.9839 13.0238 60.0992 13.1208 60.1963C13.2178 60.2933 13.3332 60.37 13.4602 60.422C13.5872 60.4739 13.7233 60.5001 13.8605 60.4989C13.9977 60.4977 14.1333 60.4692 14.2594 60.415C14.3855 60.3609 14.4995 60.2822 14.5948 60.1835L27.1266 47.6517C27.3148 47.4568 27.419 47.1957 27.4167 46.9248C27.4143 46.6538 27.3056 46.3946 27.114 46.203C26.9224 46.0114 26.6632 45.9028 26.3923 45.9004C26.1213 45.8981 25.8603 46.0022 25.6654 46.1905Z"/></symbol><symbol viewBox="0 0 70 70" id="conditions--icon_04" xmlns="http://www.w3.org/2000/svg"><path d="M52.0488 29.9004C52.0488 20.4941 44.3926 12.8516 35 12.8516C25.6074 12.8516 17.9512 20.4941 17.9512 29.9004C17.9512 39.293 25.5937 46.9492 35 46.9492C44.4062 46.9492 52.0488 39.293 52.0488 29.9004ZM35 44.748C26.8105 44.748 20.1387 38.0898 20.1387 29.8867C20.1387 21.6836 26.8105 15.0391 35 15.0391C43.1895 15.0391 49.8613 21.6973 49.8613 29.9004C49.8613 38.1035 43.1895 44.748 35 44.748Z"/><path d="M55.8906 47.5373C56.5059 47.2229 57.0527 46.8127 57.4766 46.2385C58.584 44.7209 58.3242 42.7385 58.0781 40.8108C57.9141 39.5666 57.75 38.2678 58.0371 37.3928C58.2969 36.5725 59.1719 35.6565 60.0059 34.7815C61.3047 33.4143 62.7676 31.8694 62.7676 29.9143C62.7676 27.9592 61.3184 26.3869 60.0195 25.0197C59.1855 24.1311 58.3105 23.2287 58.0508 22.4084C57.7637 21.5334 57.9277 20.2346 58.0918 18.9904C58.3379 17.0627 58.584 15.0803 57.4902 13.5627C56.3828 12.0315 54.4004 11.6623 52.4863 11.2932C51.2559 11.0608 49.9844 10.8283 49.2598 10.2951C48.5352 9.7756 47.9336 8.65451 47.3457 7.56076C46.457 5.92013 45.4316 4.06076 43.6133 3.4592C41.8633 2.88498 40.0723 3.73263 38.3359 4.55295C37.1738 5.09982 35.9844 5.66037 35.0273 5.66037C34.0703 5.66037 32.8809 5.09982 31.7188 4.55295C29.9824 3.73263 28.1914 2.88498 26.4414 3.4592C24.6094 4.04709 23.6523 5.8381 22.709 7.56076C22.1211 8.64084 21.5059 9.7756 20.7949 10.2951C20.0566 10.8283 18.7988 11.0744 17.5684 11.2932C15.6543 11.6486 13.6719 12.0315 12.5645 13.5627C11.457 15.0803 11.7168 17.0627 11.9629 18.9904C12.127 20.2346 12.291 21.5334 12.0039 22.4084C11.7441 23.2287 10.8691 24.1447 10.0352 25.0197C8.73633 26.3869 7.27344 27.9319 7.27344 29.8869C7.27344 31.842 8.75 33.3869 10.0352 34.7541C10.8691 35.6428 11.7441 36.5451 12.0039 37.3654C12.291 38.2404 12.127 39.5393 11.9629 40.7834C11.7168 42.7111 11.4707 44.6936 12.5645 46.2111C12.9883 46.7854 13.5352 47.2092 14.1504 47.51L8.18945 57.8322C7.9707 58.2151 7.99805 58.6936 8.27148 59.049C8.54492 59.4045 8.99609 59.5549 9.41992 59.4455L18.2246 57.0803L20.5898 65.885C20.6992 66.3088 21.0684 66.6233 21.5059 66.6916C21.5605 66.6916 21.6016 66.7053 21.6426 66.7053C22.0254 66.7053 22.3945 66.5002 22.5859 66.1584L28.1777 56.4651C29.3672 56.3283 30.5703 55.7678 31.7324 55.2209C32.8945 54.674 34.084 54.1135 35.041 54.1135C35.998 54.1135 37.1875 54.674 38.3496 55.2209C39.5117 55.7678 40.7148 56.342 41.9043 56.4651L47.4961 66.1584C47.6875 66.5002 48.0566 66.7053 48.4394 66.7053C48.4805 66.7053 48.5352 66.7053 48.5762 66.6916C49.0137 66.6369 49.3691 66.3225 49.4922 65.885L51.8574 57.0803L60.6621 59.4455C61.0859 59.5549 61.5371 59.4045 61.8105 59.049C62.084 58.6936 62.1113 58.2151 61.8926 57.8322L55.8906 47.5373ZM21.9707 62.7951L20.0156 55.4807C19.8652 54.8928 19.2637 54.551 18.6758 54.7014L11.3613 56.6565L16.2285 48.2209C16.6523 48.3166 17.0898 48.3986 17.5273 48.4807C18.7578 48.7131 20.0293 48.9455 20.7539 49.4787C21.4785 49.9983 22.0801 51.1194 22.668 52.2131C23.4609 53.676 24.3496 55.3029 25.8262 56.0686L21.9707 62.7951ZM35 51.9397C33.5508 51.9397 32.1289 52.6096 30.7617 53.2522C29.4082 53.8947 28.0137 54.551 27.0977 54.2502C26.0996 53.9221 25.3477 52.5276 24.6094 51.1877C23.8984 49.8889 23.1738 48.549 22.0527 47.7287C20.918 46.9084 19.4004 46.6213 17.9375 46.3479C16.4473 46.0608 14.9023 45.7736 14.2871 44.9533C13.6992 44.1467 13.8906 42.5881 14.082 41.0979C14.2734 39.6076 14.4648 38.0764 14.0273 36.7229C13.6035 35.4377 12.5645 34.3303 11.5664 33.2776C10.5 32.1565 9.39258 30.9944 9.39258 29.9143C9.39258 28.8342 10.5 27.6721 11.5664 26.551C12.5781 25.4846 13.6172 24.3908 14.0273 23.1057C14.4648 21.7522 14.2734 20.2209 14.082 18.7307C13.8906 17.2268 13.6992 15.6819 14.2871 14.8752C14.8887 14.0412 16.4336 13.7541 17.9375 13.4807C19.4004 13.2072 20.918 12.9201 22.0527 12.0998C23.1738 11.2932 23.8984 9.93966 24.6094 8.64084C25.3477 7.28732 26.0996 5.90646 27.0977 5.57834C28.0273 5.27755 29.4219 5.9338 30.7617 6.57638C32.1289 7.21896 33.5508 7.88888 35 7.88888C36.4492 7.88888 37.8711 7.21896 39.2383 6.57638C40.5918 5.9338 41.9863 5.27755 42.9023 5.57834C43.9004 5.90646 44.6523 7.30099 45.3906 8.64084C46.1016 9.93966 46.8262 11.2795 47.9473 12.0998C49.082 12.9201 50.5996 13.2072 52.0625 13.4807C53.5527 13.7678 55.0977 14.0549 55.7129 14.8752C56.3008 15.6819 56.1094 17.2404 55.918 18.7307C55.7266 20.2209 55.5352 21.7522 55.9727 23.1057C56.3965 24.3908 57.4355 25.4983 58.4336 26.551C59.5 27.6721 60.6074 28.8342 60.6074 29.9143C60.6074 30.9944 59.5 32.1565 58.4336 33.2776C57.4219 34.344 56.3828 35.4377 55.9727 36.7229C55.5352 38.0764 55.7266 39.6076 55.918 41.0979C56.1094 42.6018 56.3008 44.1467 55.7129 44.9533C55.1113 45.7873 53.5664 46.0744 52.0625 46.3479C50.5996 46.6213 49.082 46.9084 47.9473 47.7287C46.8262 48.5354 46.1016 49.8889 45.3906 51.1877C44.6523 52.5412 43.9004 53.9221 42.9023 54.2502C41.9727 54.551 40.5781 53.8947 39.2383 53.2522C37.8711 52.6096 36.4492 51.9397 35 51.9397ZM51.3242 54.7014C50.7363 54.551 50.1348 54.8928 49.9844 55.4807L48.0293 62.7951L44.1602 56.0959C45.623 55.344 46.4844 53.7717 47.3184 52.2404C47.9062 51.1604 48.5215 50.0256 49.2324 49.5061C49.9707 48.9729 51.2285 48.7268 52.459 48.508C52.8965 48.426 53.334 48.344 53.7578 48.2483L58.625 56.6838L51.3242 54.7014Z"/><path d="M45.2539 23.2012C44.8301 22.7773 44.1328 22.7773 43.709 23.2012L32.6348 34.2754L26.3047 27.9453C25.8809 27.5215 25.1836 27.5215 24.7598 27.9453C24.3359 28.3691 24.3359 29.0664 24.7598 29.4902L31.8691 36.5996C32.0742 36.8047 32.3477 36.9141 32.6484 36.9141C32.9492 36.9141 33.2227 36.8047 33.4277 36.5996L45.2539 24.7461C45.6777 24.3223 45.6777 23.625 45.2539 23.2012Z"/></symbol><symbol viewBox="0 0 70 70" id="conditions--icon_05" xmlns="http://www.w3.org/2000/svg"><path d="M16.4059 25.1562H18.5934C18.5934 23.9959 19.0544 22.8831 19.8748 22.0627C20.6953 21.2422 21.8081 20.7812 22.9684 20.7812V18.5938C21.8081 18.5938 20.6953 18.1328 19.8748 17.3123C19.0544 16.4919 18.5934 15.3791 18.5934 14.2188H16.4059C16.4059 15.3791 15.945 16.4919 15.1245 17.3123C14.3041 18.1328 13.1913 18.5938 12.0309 18.5938V20.7812C13.1913 20.7812 14.3041 21.2422 15.1245 22.0627C15.945 22.8831 16.4059 23.9959 16.4059 25.1562ZM17.4997 17.8391C17.9867 18.5721 18.6151 19.2005 19.3481 19.6875C18.6151 20.1745 17.9867 20.8029 17.4997 21.5359C17.0127 20.8029 16.3843 20.1745 15.6513 19.6875C16.3843 19.2005 17.0127 18.5721 17.4997 17.8391ZM51.4059 25.1562H53.5934C53.5934 23.9959 54.0544 22.8831 54.8748 22.0627C55.6953 21.2422 56.8081 20.7812 57.9684 20.7812V18.5938C56.8081 18.5938 55.6953 18.1328 54.8748 17.3123C54.0544 16.4919 53.5934 15.3791 53.5934 14.2188H51.4059C51.4059 15.3791 50.945 16.4919 50.1245 17.3123C49.3041 18.1328 48.1913 18.5938 47.0309 18.5938V20.7812C48.1913 20.7812 49.3041 21.2422 50.1245 22.0627C50.945 22.8831 51.4059 23.9959 51.4059 25.1562ZM52.4997 17.8391C52.9867 18.5721 53.6151 19.2005 54.3481 19.6875C53.6151 20.1745 52.9867 20.8029 52.4997 21.5359C52.0127 20.8029 51.3843 20.1745 50.6513 19.6875C51.3843 19.2005 52.0127 18.5721 52.4997 17.8391ZM33.9059 15.3125H36.0934C36.0934 14.1522 36.5544 13.0394 37.3748 12.2189C38.1953 11.3984 39.3081 10.9375 40.4684 10.9375V8.75C39.3081 8.75 38.1953 8.28906 37.3748 7.46859C36.5544 6.64812 36.0934 5.53532 36.0934 4.375H33.9059C33.9059 5.53532 33.445 6.64812 32.6245 7.46859C31.8041 8.28906 30.6913 8.75 29.5309 8.75V10.9375C30.6913 10.9375 31.8041 11.3984 32.6245 12.2189C33.445 13.0394 33.9059 14.1522 33.9059 15.3125ZM34.9997 7.99531C35.4867 8.72835 36.1151 9.35678 36.8481 9.84375C36.1151 10.3307 35.4867 10.9591 34.9997 11.6922C34.5127 10.9591 33.8843 10.3307 33.1513 9.84375C33.8843 9.35678 34.5127 8.72835 34.9997 7.99531ZM15.9105 48.3033L8.25422 43.2983C8.09408 43.1931 7.90913 43.1319 7.71788 43.1206C7.52663 43.1094 7.33578 43.1486 7.16445 43.2344C6.99312 43.3201 6.84731 43.4493 6.74161 43.6091C6.63592 43.7689 6.57404 43.9536 6.56219 44.1448L6.25703 49.0153C6.24458 49.2136 6.28636 49.4115 6.37789 49.5878C6.46942 49.7641 6.60725 49.9122 6.77657 50.0161L11.1516 52.7002C11.3341 52.8118 11.5453 52.8675 11.7592 52.8603C11.973 52.8531 12.1801 52.7834 12.3547 52.6597L15.9411 50.1102C16.0863 50.007 16.2041 49.8699 16.2842 49.7108C16.3643 49.5518 16.4044 49.3755 16.401 49.1975C16.3975 49.0194 16.3507 48.8449 16.2644 48.689C16.1782 48.5332 16.0552 48.4008 15.9061 48.3033H15.9105ZM11.6809 50.4569L8.48282 48.4958L8.63047 46.1563L13.3708 49.2548L11.6809 50.4569ZM53.5934 49.1969C53.59 49.3751 53.6301 49.5515 53.7103 49.7107C53.7906 49.8698 53.9085 50.007 54.0539 50.1102L57.6403 52.6597C57.8149 52.7834 58.022 52.8531 58.2358 52.8603C58.4497 52.8675 58.6609 52.8118 58.8434 52.7002L63.2184 50.0161C63.3878 49.9122 63.5256 49.7641 63.6171 49.5878C63.7086 49.4115 63.7504 49.2136 63.738 49.0153L63.4372 44.1448C63.4251 43.954 63.3632 43.7696 63.2576 43.6101C63.1521 43.4507 63.0065 43.3217 62.8355 43.236C62.6645 43.1503 62.4741 43.111 62.2831 43.1219C62.0922 43.1329 61.9075 43.1937 61.7473 43.2983L54.0911 48.3033C53.9416 48.4004 53.8181 48.5326 53.7314 48.6883C53.6446 48.8441 53.5973 49.0186 53.5934 49.1969ZM61.3689 46.1563L61.5166 48.4947L58.3184 50.4569L56.6286 49.2538L61.3689 46.1563Z"/><path d="M66.7186 38.2812C66.8624 38.2812 67.0049 38.2528 67.1378 38.1976C67.2707 38.1424 67.3913 38.0616 67.4929 37.9597L68.5867 36.8659C68.7484 36.7036 68.8551 36.4945 68.8916 36.2682C68.9281 36.0419 68.8926 35.8099 68.7901 35.6048L67.6964 33.4173C67.6056 33.2357 67.466 33.0829 67.2933 32.9761C67.1206 32.8692 66.9216 32.8126 66.7186 32.8125H62.3436C62.0535 32.8126 61.7753 32.9278 61.5703 33.133L60.4765 34.2267C60.3141 34.3889 60.2069 34.5981 60.17 34.8246C60.1331 35.0512 60.1684 35.2835 60.2709 35.4889L61.1207 37.1875L60.7029 38.0231L59.1421 34.9016C58.0332 32.6829 56.3631 30.793 54.2979 29.4194C52.2326 28.0458 49.8439 27.2363 47.369 27.0714L35.072 26.25H34.9276L22.6306 27.0692C19.7306 27.2591 16.9592 28.3363 14.6921 30.1547C13.0882 31.4435 11.7803 33.0625 10.8575 34.9016L9.29668 38.0231L8.87886 37.1875L9.73418 35.4889C9.83666 35.2835 9.87195 35.0512 9.83505 34.8246C9.79815 34.5981 9.69092 34.3889 9.52855 34.2267L8.4348 33.133C8.33261 33.0307 8.21117 32.9498 8.0775 32.8948C7.94384 32.8398 7.80059 32.8118 7.65605 32.8125H3.28105C3.07798 32.8126 2.87896 32.8692 2.70626 32.9761C2.53356 33.0829 2.39401 33.2357 2.30324 33.4173L1.20949 35.6048C1.1085 35.8091 1.07382 36.0398 1.1103 36.2647C1.14677 36.4896 1.25257 36.6975 1.41293 36.8594L2.50668 37.9531C2.60772 38.0562 2.72816 38.1383 2.86106 38.1946C2.99397 38.2509 3.13671 38.2804 3.28105 38.2812H6.98011L7.50074 39.3236L4.97965 40.5781C4.8098 40.6641 4.66482 40.7921 4.55855 40.95L2.37105 44.2312C2.25052 44.4127 2.18656 44.6259 2.1873 44.8438V58.7847C2.18883 59.249 2.28685 59.7079 2.47513 60.1323C2.66342 60.5567 2.93786 60.9373 3.28105 61.25V63.3708C3.27318 64.2496 3.61422 65.0956 4.22937 65.7233C4.84452 66.3509 5.68352 66.7089 6.5623 66.7188H10.9373C11.6707 66.7128 12.3811 66.4621 12.9558 66.0063C13.5304 65.5506 13.9364 64.9159 14.1092 64.2031L17.3904 64.5312C17.4276 64.5312 17.4637 64.5367 17.4998 64.5367C17.648 64.5369 17.7946 64.5067 17.9307 64.4481L21.4865 62.9245L21.9896 63.9319C22.0813 64.1127 22.2213 64.2645 22.3942 64.3703C22.567 64.4761 22.7659 64.5319 22.9686 64.5312H47.0311C47.2352 64.5324 47.4357 64.4763 47.6096 64.3694C47.7836 64.2625 47.9242 64.1091 48.0154 63.9264L48.5186 62.9191L52.0743 64.4427C52.2087 64.5005 52.3535 64.5307 52.4998 64.5312C52.5359 64.5313 52.572 64.5312 52.6092 64.5258L55.8751 64.1977C56.0381 64.9189 56.4434 65.5625 57.0233 66.0213C57.6033 66.48 58.3229 66.7262 59.0623 66.7188H63.4373C64.3161 66.7089 65.1551 66.3509 65.7702 65.7233C66.3854 65.0956 66.7264 64.2496 66.7186 63.3708V61.25C67.0619 60.9374 67.3364 60.5568 67.5247 60.1324C67.713 59.708 67.811 59.249 67.8123 58.7847V44.8438C67.812 44.6278 67.7481 44.4166 67.6286 44.2367L65.4411 40.9555C65.3348 40.7976 65.1898 40.6695 65.02 40.5836L62.5043 39.3236L63.0195 38.2812H66.7186ZM16.0604 31.8653C17.9779 30.3263 20.3226 29.4148 22.7761 29.2545L34.9998 28.4375L47.2235 29.2523C49.3175 29.3926 51.3385 30.0778 53.0859 31.2401C54.8334 32.4024 56.2466 34.0013 57.1854 35.8783L58.3853 38.2812H11.6132L12.8164 35.875C13.5928 34.3181 14.6999 32.9497 16.0604 31.8653ZM57.5146 40.4688L50.8329 47.1516L43.5967 49.2188H39.6329L37.6762 48.2344C37.5239 48.1606 37.3565 48.1231 37.1873 48.125H32.8123C32.6431 48.1231 32.4757 48.1606 32.3234 48.2344L30.3667 49.2188H26.4029L19.1842 47.1548L12.8448 40.4688H57.5146ZM6.9834 36.0938H3.73496L3.51621 35.875L3.95371 35H7.20324L7.42199 35.2188L6.9834 36.0938ZM5.6873 58.4063C5.54531 58.5956 5.46855 58.8258 5.46855 59.0625V60.1661L4.87355 59.7581C4.71777 59.6484 4.59098 59.5025 4.50409 59.3329C4.41721 59.1634 4.37284 58.9752 4.3748 58.7847V51.8591L7.92949 55.4138L5.6873 58.4063ZM10.9373 64.5312H6.5623C6.26357 64.5218 5.98075 64.3944 5.77576 64.1769C5.57077 63.9594 5.4603 63.6695 5.46855 63.3708V62.8239L5.6873 62.9716C5.77373 63.0999 5.88692 63.208 6.01908 63.2884C6.15124 63.3688 6.29924 63.4197 6.45293 63.4375L11.8495 63.9778C11.7594 64.142 11.6277 64.2797 11.4676 64.3768C11.3075 64.474 11.1246 64.5272 10.9373 64.5312ZM45.2745 59.1511L44.4126 61.1614L46.4995 62.0561L46.3551 62.3438H23.6445L23.5001 62.0561L25.587 61.1614L24.7251 59.1511L17.3281 62.323L7.65605 61.3594V59.4267L10.2111 56.0186L22.8023 57.9556C22.8573 57.9644 22.9129 57.9688 22.9686 57.9688H47.0311C47.0864 57.9687 47.1416 57.9643 47.1962 57.9556L59.7875 56.0197L62.3436 59.4267V61.3594L52.6715 62.3263L45.2745 59.1511ZM64.3123 58.4063L62.069 55.4148L65.6248 51.8591V58.7847C65.6267 58.9753 65.5822 59.1636 65.4951 59.3332C65.4081 59.5028 65.281 59.6486 65.125 59.7581L64.5311 60.1661V59.0625C64.5311 58.8258 64.4543 58.5956 64.3123 58.4063ZM63.4373 64.5312H59.0623C58.8745 64.5267 58.6912 64.4726 58.5311 64.3745C58.3709 64.2763 58.2395 64.1376 58.1501 63.9723L63.5467 63.4375C63.7003 63.4199 63.8483 63.3692 63.9804 63.289C64.1126 63.2087 64.2258 63.1008 64.3123 62.9727L64.5311 62.825V63.3719C64.539 63.6705 64.4284 63.96 64.2234 64.1773C64.0185 64.3946 63.7358 64.5218 63.4373 64.5312ZM65.6248 45.1719V48.7627L60.7292 53.6583L46.9468 55.7812H23.0528L9.27152 53.6616L4.3748 48.7659V45.1719L6.21777 42.4069L9.91793 40.5573L17.7995 48.8698C17.9347 49.0114 18.1048 49.1148 18.2928 49.1695L25.949 51.357C26.0466 51.3871 26.1478 51.4037 26.2498 51.4062H30.6248C30.794 51.4081 30.9614 51.3707 31.1137 51.2969L33.0704 50.3125H36.9292L38.8859 51.2969C39.0382 51.3707 39.2056 51.4081 39.3748 51.4062H43.7498C43.8515 51.4062 43.9527 51.3922 44.0506 51.3647L51.7068 49.1772C51.8854 49.1256 52.0479 49.0297 52.1793 48.8983L60.3748 40.705L63.7862 42.4102L65.6248 45.1719ZM62.7964 35H66.0426L66.4801 35.875L66.2614 36.0938H63.0195L62.582 35.2188L62.7964 35Z"/><path d="M33.9062 51.4053H36.0938V53.5928H33.9062V51.4053Z"/></symbol><symbol viewBox="0 0 70 70" id="conditions--icon_06" xmlns="http://www.w3.org/2000/svg"><path d="M18.5938 13.125C18.3037 13.125 18.0255 13.0098 17.8204 12.8046C17.6152 12.5995 17.5 12.3213 17.5 12.0312V3.28125C17.5 2.99117 17.6152 2.71297 17.8204 2.50785C18.0255 2.30273 18.3037 2.1875 18.5938 2.1875H53.5938C53.8838 2.1875 54.162 2.30273 54.3671 2.50785C54.5723 2.71297 54.6875 2.99117 54.6875 3.28125C54.6875 3.57133 54.5723 3.84953 54.3671 4.05465C54.162 4.25977 53.8838 4.375 53.5938 4.375H19.6875V12.0312C19.6875 12.3213 19.5723 12.5995 19.3671 12.8046C19.162 13.0098 18.8838 13.125 18.5938 13.125Z"/><path d="M66.6728 17.4998H53.5938C53.3037 17.4998 53.0255 17.3845 52.8204 17.1794C52.6152 16.9743 52.5 16.6961 52.5 16.406V8.74977C52.5 8.45969 52.6152 8.18149 52.8204 7.97637C53.0255 7.77125 53.3037 7.65602 53.5938 7.65602C53.8838 7.65602 54.162 7.77125 54.3671 7.97637C54.5723 8.18149 54.6875 8.45969 54.6875 8.74977V15.3123H64.0369L52.8172 4.05321C52.6185 3.84637 52.5089 3.56975 52.5122 3.28294C52.5155 2.99613 52.6313 2.72207 52.8347 2.51983C53.0381 2.31758 53.3128 2.20333 53.5996 2.20168C53.8864 2.20003 54.1624 2.31112 54.3681 2.51102L67.4472 15.636C67.599 15.7892 67.7022 15.9839 67.7437 16.1956C67.7852 16.4073 67.7632 16.6265 67.6804 16.8257C67.5977 17.0249 67.4579 17.1952 67.2786 17.3151C67.0993 17.435 66.8885 17.4993 66.6728 17.4998Z"/><path d="M66.7188 67.8125H36.0938C35.8037 67.8125 35.5255 67.6973 35.3204 67.4921C35.1152 67.287 35 67.0088 35 66.7188C35 66.4287 35.1152 66.1505 35.3204 65.9454C35.5255 65.7402 35.8037 65.625 36.0938 65.625H65.625V16.4062C65.625 16.1162 65.7402 15.838 65.9454 15.6329C66.1505 15.4277 66.4287 15.3125 66.7188 15.3125C67.0088 15.3125 67.287 15.4277 67.4921 15.6329C67.6973 15.838 67.8125 16.1162 67.8125 16.4062V66.7188C67.8125 67.0088 67.6973 67.287 67.4921 67.4921C67.287 67.6973 67.0088 67.8125 66.7188 67.8125ZM18.5938 15.3125C15.9839 15.3154 13.4818 16.3534 11.6364 18.1989C9.79093 20.0443 8.75289 22.5464 8.75 25.1562C8.75 27.3569 9.46531 29.4372 10.8325 31.1894C12.7225 33.6066 15.3125 36.9206 15.3125 40.1581V40.4688C15.3125 40.7588 15.4277 41.037 15.6329 41.2421C15.838 41.4473 16.1162 41.5625 16.4062 41.5625C16.6963 41.5625 16.9745 41.4473 17.1796 41.2421C17.3848 41.037 17.5 40.7588 17.5 40.4688V40.1581C17.5 36.1659 14.6431 32.5106 12.5431 29.8222C11.4976 28.4921 10.9319 26.848 10.9375 25.1562C10.9375 20.9344 14.3719 17.5 18.5938 17.5C22.8156 17.5 26.25 20.9344 26.25 25.1562C26.25 26.8647 25.6944 28.4791 24.6313 29.8419C22.5444 32.5106 19.6875 36.1659 19.6875 40.1581V44.8438H20.7812C21.1903 44.8438 21.5491 44.9837 21.875 45.1784V40.1581C21.875 36.9206 24.465 33.6066 26.3703 31.1697C27.7161 29.4548 28.4444 27.3362 28.4375 25.1562C28.4375 19.7291 24.0209 15.3125 18.5938 15.3125ZM33.9062 63.4375H3.28125C2.99117 63.4375 2.71297 63.3223 2.50785 63.1171C2.30273 62.912 2.1875 62.6338 2.1875 62.3438V57.9688C2.1875 53.7469 5.62188 50.3125 9.84375 50.3125H10.9375C11.2276 50.3125 11.5058 50.4277 11.7109 50.6329C11.916 50.838 12.0312 51.1162 12.0312 51.4062C12.0312 51.6963 11.916 51.9745 11.7109 52.1796C11.5058 52.3848 11.2276 52.5 10.9375 52.5H9.84375C8.3937 52.5012 7.00338 53.0777 5.97804 54.103C4.9527 55.1284 4.37616 56.5187 4.375 57.9688V61.25H32.8125V57.9688C32.8125 54.9522 30.3603 52.5 27.3438 52.5H16.4062C16.1162 52.5 15.838 52.3848 15.6329 52.1796C15.4277 51.9745 15.3125 51.6963 15.3125 51.4062C15.3125 51.1162 15.4277 50.838 15.6329 50.6329C15.838 50.4277 16.1162 50.3125 16.4062 50.3125H27.3438C31.5656 50.3125 35 53.7469 35 57.9688V62.3438C35 62.6338 34.8848 62.912 34.6796 63.1171C34.4745 63.3223 34.1963 63.4375 33.9062 63.4375Z"/><path d="M31.7188 67.8126H5.46875C5.17867 67.8126 4.90047 67.6973 4.69535 67.4922C4.49023 67.2871 4.375 67.0089 4.375 66.7188V62.3438C4.375 62.0537 4.49023 61.7755 4.69535 61.5704C4.90047 61.3653 5.17867 61.2501 5.46875 61.2501H31.7188C32.0088 61.2501 32.287 61.3653 32.4921 61.5704C32.6973 61.7755 32.8125 62.0537 32.8125 62.3438V66.7188C32.8125 67.0089 32.6973 67.2871 32.4921 67.4922C32.287 67.6973 32.0088 67.8126 31.7188 67.8126ZM6.5625 65.6251H30.625V63.4376H6.5625V65.6251ZM22.9688 48.1251C22.6787 48.1251 22.4005 48.0098 22.1954 47.8047C21.9902 47.5996 21.875 47.3214 21.875 47.0313C21.875 46.4297 21.3828 45.9376 20.7812 45.9376H16.4062C15.8047 45.9376 15.3125 46.4297 15.3125 47.0313C15.3125 47.3214 15.1973 47.5996 14.9921 47.8047C14.787 48.0098 14.5088 48.1251 14.2188 48.1251C13.9287 48.1251 13.6505 48.0098 13.4454 47.8047C13.2402 47.5996 13.125 47.3214 13.125 47.0313C13.125 45.2222 14.5972 43.7501 16.4062 43.7501H20.7812C22.5903 43.7501 24.0625 45.2222 24.0625 47.0313C24.0625 47.3214 23.9473 47.5996 23.7421 47.8047C23.537 48.0098 23.2588 48.1251 22.9688 48.1251ZM46.0009 43.7501H45.9747C45.8185 43.7464 45.6649 43.7094 45.5241 43.6414C45.3834 43.5735 45.2588 43.4763 45.1587 43.3563L39.69 36.7938C39.5293 36.5683 39.4598 36.2905 39.4952 36.0159C39.5307 35.7414 39.6685 35.4903 39.8812 35.313C40.0939 35.1358 40.3656 35.0454 40.6421 35.06C40.9186 35.0745 41.1793 35.193 41.3722 35.3916L46.0381 40.9938L57.2228 28.7919C57.3182 28.6801 57.4352 28.5887 57.5668 28.5231C57.6983 28.4575 57.8417 28.4191 57.9884 28.4102C58.1352 28.4013 58.2822 28.4221 58.4207 28.4712C58.5592 28.5204 58.6864 28.597 58.7946 28.6964C58.9029 28.7958 58.99 28.9161 59.0507 29.0499C59.1115 29.1838 59.1446 29.3285 59.1482 29.4754C59.1518 29.6224 59.1257 29.7685 59.0715 29.9052C59.0173 30.0418 58.9361 30.1661 58.8328 30.2707L46.8059 43.3957C46.7038 43.5076 46.5795 43.5969 46.4409 43.6579C46.3022 43.7189 46.1524 43.7503 46.0009 43.7501Z"/><path d="M45.9375 52.5C38.6991 52.5 32.8125 46.6134 32.8125 39.375C32.8125 32.1366 38.6991 26.25 45.9375 26.25C48.265 26.25 50.5509 26.8669 52.5503 28.035C52.8001 28.182 52.9817 28.4217 53.0554 28.702C53.1292 28.9823 53.0892 29.2804 52.9441 29.5312C52.7967 29.7806 52.5569 29.9618 52.2768 30.0355C51.9967 30.1092 51.6988 30.0695 51.4478 29.925C49.7851 28.9591 47.8974 28.4482 45.9745 28.4436C44.0516 28.4391 42.1615 28.941 40.4942 29.8989C38.8269 30.8568 37.4413 32.237 36.4768 33.9005C35.5124 35.564 35.003 37.4521 35 39.375C35 45.4059 39.9044 50.3125 45.9375 50.3125C47.5724 50.3105 49.1861 49.9424 50.6602 49.2353C52.1343 48.5282 53.4313 47.5 54.4562 46.2261C55.481 44.9523 56.2076 43.4651 56.5826 41.8738C56.9576 40.2825 56.9716 38.6274 56.6234 37.03C56.5919 36.8896 56.5885 36.7444 56.6134 36.6027C56.6383 36.461 56.691 36.3257 56.7685 36.2044C56.8459 36.0832 56.9467 35.9786 57.0648 35.8965C57.183 35.8144 57.3162 35.7566 57.4569 35.7263C57.5972 35.6953 57.7423 35.6923 57.8837 35.7175C58.0252 35.7426 58.1604 35.7954 58.2815 35.8728C58.4025 35.9502 58.5072 36.0507 58.5894 36.1686C58.6716 36.2864 58.7298 36.4193 58.7606 36.5597C59.1791 38.4767 59.1629 40.4632 58.7132 42.3731C58.2635 44.2831 57.3916 46.068 56.1617 47.5969C54.9318 49.1258 53.3751 50.3598 51.6058 51.2083C49.8365 52.0567 47.8997 52.4981 45.9375 52.5ZM43.75 16.4062C43.75 17.0078 43.2578 17.5 42.6562 17.5H29.5312C29.2413 17.4994 28.9635 17.384 28.7585 17.179C28.5535 16.974 28.4381 16.6962 28.4375 16.4062C28.4375 15.8047 28.9297 15.3125 29.5312 15.3125H42.6562C43.2578 15.3125 43.75 15.8047 43.75 16.4062ZM48.125 12.0312C48.125 12.6328 47.6328 13.125 47.0312 13.125H29.5312C29.2413 13.1244 28.9635 13.009 28.7585 12.804C28.5535 12.599 28.4381 12.3212 28.4375 12.0312C28.4375 11.4297 28.9297 10.9375 29.5312 10.9375H47.0312C47.6328 10.9375 48.125 11.4297 48.125 12.0312Z"/></symbol><symbol viewBox="0 0 25 25" id="facebook" xmlns="http://www.w3.org/2000/svg"><path d="M15.9918 5.65292H18V2.15492C17.6535 2.10725 16.462 2 15.0742 2C12.1787 2 10.1952 3.82142 10.1952 7.16908V10.25H7V14.1605H10.1952V24H14.1127V14.1614H17.1787L17.6654 10.2509H14.1118V7.55683C14.1127 6.42658 14.417 5.65292 15.9918 5.65292Z"/></symbol><symbol viewBox="0 0 25 25" id="instagram" xmlns="http://www.w3.org/2000/svg"><g clip-path="url(#gclip0_1_831)"><path d="M24.9756 7.35007C24.917 6.02168 24.7022 5.10852 24.3945 4.31715C24.077 3.47719 23.5886 2.72519 22.9489 2.10002C22.3236 1.46513 21.5667 0.971772 20.7364 0.659308C19.9406 0.351631 19.0321 0.136745 17.7037 0.0782379C16.3654 0.0146513 15.9406 0 12.5464 0C9.15217 0 8.72733 0.0146513 7.39401 0.0732565C6.06568 0.131862 5.15246 0.346845 4.36134 0.654327C3.52114 0.971772 2.76914 1.46015 2.14397 2.10002C1.50908 2.72514 1.01596 3.48213 0.703254 4.31237C0.395577 5.10852 0.18074 6.0168 0.122183 7.34509C0.0586455 8.68338 0.0439453 9.10822 0.0439453 12.5024C0.0439453 15.8967 0.0586455 16.3215 0.117202 17.6548C0.175807 18.9832 0.39079 19.8964 0.698517 20.6877C1.01596 21.5277 1.50908 22.2797 2.14397 22.9049C2.76914 23.5398 3.52612 24.0331 4.35636 24.3456C5.15241 24.6533 6.0607 24.8681 7.38928 24.9266C8.72235 24.9854 9.14743 24.9999 12.5417 24.9999C15.9359 24.9999 16.3607 24.9854 17.694 24.9266C19.0224 24.8681 19.9356 24.6533 20.7267 24.3456C21.5576 24.0243 22.3122 23.533 22.9422 22.9031C23.5721 22.2732 24.0635 21.5186 24.3848 20.6877C24.6923 19.8916 24.9073 18.9832 24.9659 17.6548C25.0245 16.3215 25.0391 15.8967 25.0391 12.5024C25.0391 9.10822 25.0341 8.68334 24.9756 7.35007ZM22.7243 17.5571C22.6705 18.7781 22.4654 19.4374 22.2945 19.8769C21.8744 20.966 21.01 21.8304 19.9209 22.2505C19.4813 22.4215 18.8173 22.6265 17.6011 22.6801C16.2825 22.7389 15.887 22.7534 12.5514 22.7534C9.21571 22.7534 8.81529 22.7389 7.50141 22.6801C6.28047 22.6265 5.62116 22.4215 5.18162 22.2505C4.63967 22.0502 4.14636 21.7328 3.74589 21.3176C3.33077 20.9123 3.01332 20.4239 2.81299 19.8819C2.64206 19.4424 2.43699 18.7781 2.38342 17.5621C2.32462 16.2435 2.31016 15.8478 2.31016 12.5122C2.31016 9.1765 2.32462 8.77608 2.38342 7.46244C2.43699 6.2415 2.64206 5.58219 2.81299 5.14265C3.01332 4.60046 3.33077 4.10725 3.75087 3.70668C4.15603 3.29156 4.6444 2.97412 5.1866 2.77403C5.62614 2.6031 6.29043 2.39798 7.50639 2.34421C8.82501 2.2856 9.22069 2.27095 12.5561 2.27095C15.8968 2.27095 16.2922 2.2856 17.6061 2.34421C18.827 2.39803 19.4863 2.60305 19.9259 2.77398C20.4678 2.97412 20.9612 3.29156 21.3616 3.70668C21.7767 4.11208 22.0942 4.60046 22.2945 5.14265C22.4654 5.58219 22.6705 6.24624 22.7243 7.46244C22.7829 8.78106 22.7975 9.1765 22.7975 12.5122C22.7975 15.8478 22.7829 16.2385 22.7243 17.5571Z"/><path d="M12.5464 6.08032C9.0009 6.08032 6.12427 8.95676 6.12427 12.5025C6.12427 16.0482 9.0009 18.9246 12.5464 18.9246C16.092 18.9246 18.9686 16.0482 18.9686 12.5025C18.9686 8.95676 16.092 6.08032 12.5464 6.08032ZM12.5464 16.6683C10.2463 16.6683 8.38047 14.8028 8.38047 12.5025C8.38047 10.2021 10.2463 8.33662 12.5464 8.33662C14.8467 8.33662 16.7123 10.2021 16.7123 12.5025C16.7123 14.8028 14.8467 16.6683 12.5464 16.6683ZM20.7219 5.82637C20.7219 6.65436 20.0506 7.32568 19.2224 7.32568C18.3945 7.32568 17.7232 6.65436 17.7232 5.82637C17.7232 4.99828 18.3945 4.32715 19.2225 4.32715C20.0506 4.32715 20.7219 4.99823 20.7219 5.82637Z"/></g><defs><clipPath id="gclip0_1_831"><rect width="25" height="25"/></clipPath></defs></symbol><symbol viewBox="0 0 15 15" id="lock" xmlns="http://www.w3.org/2000/svg"><path fill-rule="evenodd" clip-rule="evenodd" d="M3.16667 4.5C3.16667 2.01472 5.10677 0 7.5 0C9.89323 0 11.8333 2.01472 11.8333 4.5V5.36274C12.0374 5.40919 12.2333 5.47682 12.4226 5.57698C12.9662 5.8646 13.4082 6.32354 13.6851 6.88803C13.8637 7.25203 13.9349 7.63956 13.9681 8.06113C14 8.46702 14 8.96529 14 9.56901V10.681C14 11.2847 14 11.783 13.9681 12.1889C13.9349 12.6104 13.8637 12.998 13.6851 13.362C13.4082 13.9265 12.9662 14.3854 12.4226 14.673C12.0721 14.8585 11.6989 14.9324 11.293 14.9669C10.9021 15 10.4223 15 9.84096 15H5.15904C4.57768 15 4.09787 15 3.70702 14.9669C3.30106 14.9324 2.92788 14.8585 2.57736 14.673C2.03378 14.3854 1.59184 13.9265 1.31487 13.362C1.13627 12.998 1.06509 12.6104 1.03192 12.1889C0.999984 11.783 0.999991 11.2847 1 10.681V9.56903C0.999991 8.9653 0.999984 8.46703 1.03192 8.06113C1.06509 7.63956 1.13627 7.25203 1.31487 6.88803C1.59184 6.32354 2.03378 5.8646 2.57736 5.57698C2.76666 5.47682 2.96256 5.40919 3.16667 5.36274V4.5ZM4.61111 5.25122C4.78279 5.24999 4.96529 5.25 5.15906 5.25H9.84094C10.0347 5.25 10.2172 5.24999 10.3889 5.25122V4.5C10.3889 2.84315 9.09549 1.5 7.5 1.5C5.90451 1.5 4.61111 2.84315 4.61111 4.5V5.25122ZM3.82464 6.77816C3.50801 6.80503 3.34608 6.85372 3.23313 6.91349C2.96134 7.0573 2.74036 7.28677 2.60188 7.56901C2.54433 7.68631 2.49744 7.85447 2.47157 8.18328C2.44501 8.52085 2.44445 8.95757 2.44445 9.6V10.65C2.44445 11.2924 2.44501 11.7292 2.47157 12.0667C2.49744 12.3955 2.54433 12.5637 2.60188 12.681C2.74036 12.9632 2.96134 13.1927 3.23313 13.3365C3.34608 13.3963 3.50801 13.445 3.82464 13.4718C4.1497 13.4994 4.57025 13.5 5.18889 13.5H9.81111C10.4298 13.5 10.8503 13.4994 11.1754 13.4718C11.492 13.445 11.6539 13.3963 11.7669 13.3365C12.0387 13.1927 12.2596 12.9632 12.3981 12.681C12.4557 12.5637 12.5026 12.3955 12.5284 12.0667C12.555 11.7292 12.5556 11.2924 12.5556 10.65V9.6C12.5556 8.95757 12.555 8.52085 12.5284 8.18328C12.5026 7.85447 12.4557 7.68631 12.3981 7.56901C12.2596 7.28677 12.0387 7.0573 11.7669 6.91349C11.6539 6.85372 11.492 6.80503 11.1754 6.77816C10.8503 6.75058 10.4298 6.75 9.81111 6.75H5.18889C4.57025 6.75 4.1497 6.75058 3.82464 6.77816ZM7.5 8.625C7.89887 8.625 8.22222 8.96079 8.22222 9.375V10.875C8.22222 11.2892 7.89887 11.625 7.5 11.625C7.10113 11.625 6.77778 11.2892 6.77778 10.875V9.375C6.77778 8.96079 7.10113 8.625 7.5 8.625Z"/></symbol><symbol viewBox="0 0 25 25" id="mail" xmlns="http://www.w3.org/2000/svg"><path fill-rule="evenodd" clip-rule="evenodd" d="M7.75879 4H18.2414C19.0464 3.99999 19.7107 3.99998 20.2519 4.04419C20.814 4.09012 21.3307 4.18868 21.816 4.43597C22.5687 4.81947 23.1806 5.43139 23.5641 6.18404C23.8027 6.65238 23.9029 7.14994 23.9509 7.68931C24.0043 7.8527 24.0137 8.02505 23.9819 8.18959C24.0001 8.63971 24.0001 9.16035 24.0001 9.75868V16.2413C24.0001 17.0463 24.0001 17.7106 23.9559 18.2518C23.91 18.8139 23.8114 19.3306 23.5641 19.816C23.1806 20.5686 22.5687 21.1805 21.816 21.564C21.3307 21.8113 20.814 21.9099 20.2519 21.9558C19.7107 22 19.0464 22 18.2414 22H7.75876C6.9538 22 6.28945 22 5.74826 21.9558C5.18616 21.9099 4.66946 21.8113 4.18412 21.564C3.43148 21.1805 2.81955 20.5686 2.43606 19.816C2.18877 19.3306 2.0902 18.8139 2.04428 18.2518C2.00006 17.7106 2.00007 17.0463 2.00009 16.2413V9.7587C2.00008 9.16037 2.00007 8.63972 2.01822 8.1896C1.98647 8.02505 1.99584 7.85269 2.0493 7.6893C2.09729 7.14993 2.19743 6.65238 2.43606 6.18404C2.81955 5.43139 3.43148 4.81947 4.18412 4.43597C4.66946 4.18868 5.18616 4.09012 5.74826 4.04419C6.28946 3.99998 6.95382 3.99999 7.75879 4ZM4.00009 9.92066V16.2C4.00009 17.0566 4.00086 17.6389 4.03764 18.089C4.07346 18.5274 4.13838 18.7516 4.21807 18.908C4.40982 19.2843 4.71578 19.5903 5.0921 19.782C5.2485 19.8617 5.47271 19.9266 5.91112 19.9624C6.36121 19.9992 6.94351 20 7.80009 20H18.2001C19.0567 20 19.639 19.9992 20.089 19.9624C20.5275 19.9266 20.7517 19.8617 20.9081 19.782C21.2844 19.5903 21.5904 19.2843 21.7821 18.908C21.8618 18.7516 21.9267 18.5274 21.9625 18.089C21.9993 17.6389 22.0001 17.0566 22.0001 16.2V9.92066L15.4086 14.5347C15.3698 14.5618 15.3314 14.5888 15.2933 14.6156C14.7486 14.998 14.2704 15.3338 13.7257 15.4696C13.2492 15.5884 12.7509 15.5884 12.2745 15.4696C11.7298 15.3338 11.2515 14.998 10.7069 14.6156C10.6688 14.5888 10.6303 14.5618 10.5915 14.5347L4.00009 9.92066ZM21.9173 7.53728L14.2617 12.8962C13.5328 13.4065 13.3783 13.495 13.242 13.529C13.0831 13.5686 12.917 13.5686 12.7582 13.529C12.6218 13.495 12.4674 13.4065 11.7385 12.8962L4.08286 7.53728C4.11858 7.33012 4.16506 7.19607 4.21807 7.09202C4.40982 6.7157 4.71578 6.40973 5.0921 6.21799C5.2485 6.1383 5.47271 6.07337 5.91112 6.03755C6.36121 6.00078 6.94351 6 7.80009 6H18.2001C19.0567 6 19.639 6.00078 20.089 6.03755C20.5275 6.07337 20.7517 6.1383 20.9081 6.21799C21.2844 6.40973 21.5904 6.7157 21.7821 7.09202C21.8351 7.19607 21.8816 7.33012 21.9173 7.53728Z"/></symbol><symbol viewBox="0 0 25 25" id="minus" xmlns="http://www.w3.org/2000/svg"><rect x="5" y="12" width="16" height="2"/></symbol><symbol viewBox="0 0 30 30" id="modal-close" xmlns="http://www.w3.org/2000/svg"><path d="M8.45455 7L23 21.5455L21.5455 23L7 8.45455L8.45455 7Z"/><path d="M23 8.45455L8.45455 23L7 21.5455L21.5455 7L23 8.45455Z"/></symbol><symbol viewBox="0 0 25 25" id="phone" xmlns="http://www.w3.org/2000/svg"><path fill-rule="evenodd" clip-rule="evenodd" d="M6.97533 4.10765C6.69155 3.96412 6.35642 3.96412 6.07263 4.10765C5.96591 4.16163 5.83287 4.27689 5.24585 4.86392L5.08822 5.02155C4.528 5.58177 4.37699 5.74379 4.25628 5.95868C4.11637 6.20774 3.99915 6.65848 4 6.94416C4.00076 7.19836 4.03829 7.35145 4.20355 7.9337C5.01916 10.8073 6.55775 13.5191 8.82208 15.7834C11.0864 18.0477 13.7982 19.5863 16.6718 20.4019C17.254 20.5672 17.4071 20.6047 17.6613 20.6055C17.947 20.6063 18.3977 20.4891 18.6468 20.3492C18.8617 20.2285 19.0237 20.0775 19.5839 19.5172L19.7415 19.3596C20.3286 18.7726 20.4438 18.6395 20.4978 18.5328C20.6413 18.249 20.6413 17.9139 20.4978 17.6301C20.4438 17.5234 20.3286 17.3904 19.7415 16.8033L20.4486 16.0962L19.7415 16.8033L19.5467 16.6085C19.161 16.2228 19.0742 16.1438 19.0085 16.101C18.6771 15.8856 18.2498 15.8856 17.9183 16.101C17.8526 16.1438 17.7659 16.2228 17.3801 16.6085C17.3725 16.6161 17.3647 16.6239 17.3567 16.632C17.267 16.722 17.1534 16.836 17.017 16.9337L16.4348 16.1207L17.0169 16.9337C16.53 17.2824 15.8679 17.3953 15.2929 17.2277C15.1325 17.181 15.0005 17.1173 14.8978 17.0678C14.8897 17.0639 14.8817 17.0601 14.874 17.0563C13.324 16.3122 11.8723 15.2981 10.5898 14.0156C9.30737 12.7331 8.29328 11.2814 7.54911 9.73149C7.54539 9.72373 7.54156 9.71579 7.53764 9.70767C7.48814 9.60498 7.4245 9.47297 7.37775 9.3126L8.33779 9.03274L7.37775 9.31259C7.21012 8.73756 7.32302 8.0755 7.67173 7.58851L7.67173 7.58851C7.76943 7.45207 7.88345 7.33846 7.97351 7.24872C7.98154 7.24073 7.98937 7.23292 7.99698 7.22531C8.38269 6.8396 8.46167 6.75287 8.50441 6.68714L8.50441 6.68714C8.7199 6.35569 8.7199 5.9284 8.50441 5.59696C8.46167 5.53122 8.38269 5.4445 7.99698 5.05879L7.80211 4.86392C7.21509 4.27689 7.08205 4.16163 6.97533 4.10765ZM5.16994 2.32295C6.02128 1.89235 7.02668 1.89235 7.87802 2.32295C8.31062 2.54176 8.68617 2.91827 9.12061 3.35383C9.15219 3.38549 9.18408 3.41746 9.21633 3.4497L9.4112 3.64457C9.43244 3.66582 9.45349 3.68683 9.47433 3.70764C9.76099 3.99381 10.0079 4.24033 10.1812 4.50677L9.34279 5.05187L10.1812 4.50678C10.8277 5.50111 10.8277 6.78298 10.1812 7.77732C10.0079 8.04377 9.76099 8.29028 9.47434 8.57645C9.4535 8.59726 9.43244 8.61827 9.4112 8.63952C9.35359 8.69713 9.3242 8.72667 9.30373 8.74833C9.30336 8.74996 9.30299 8.75176 9.30266 8.75371C9.30229 8.75588 9.30202 8.75788 9.30183 8.75969C9.30512 8.76701 9.30958 8.77668 9.31573 8.78974C9.32534 8.81017 9.33664 8.8337 9.35207 8.86584C9.99989 10.2151 10.8834 11.4807 12.0041 12.6014C13.1247 13.7221 14.3903 14.6056 15.7396 15.2534L15.3068 16.1549L15.7396 15.2534C15.7718 15.2688 15.7953 15.2801 15.8157 15.2897C15.8288 15.2959 15.8385 15.3003 15.8458 15.3036C15.8476 15.3034 15.8496 15.3032 15.8517 15.3028C15.8537 15.3025 15.8555 15.3021 15.8571 15.3017C15.8788 15.2813 15.9083 15.2519 15.9659 15.1943C15.9872 15.173 16.0082 15.152 16.029 15.1311C16.3152 14.8445 16.5617 14.5975 16.8281 14.4243C17.8225 13.7778 19.1043 13.7778 20.0987 14.4243C20.3651 14.5975 20.6116 14.8445 20.8978 15.1311C20.9186 15.152 20.9396 15.173 20.9609 15.1943L20.2538 15.9014L20.9609 15.1943L21.1558 15.3891C21.188 15.4214 21.22 15.4533 21.2516 15.4848C21.6872 15.9193 22.0637 16.2948 22.2825 16.7274C22.7131 17.5788 22.7131 18.5842 22.2825 19.4355C22.0637 19.8681 21.6872 20.2437 21.2516 20.6781C21.22 20.7097 21.188 20.7416 21.1558 20.7738L20.9981 20.9315C20.9753 20.9543 20.9527 20.9769 20.9304 20.9992C20.4652 21.4649 20.1084 21.8221 19.6263 22.0929C19.0764 22.4018 18.2861 22.6073 17.6554 22.6054C17.1035 22.6038 16.701 22.4894 16.182 22.3419C16.1634 22.3366 16.1446 22.3313 16.1257 22.3259C12.9324 21.4196 9.9195 19.7092 7.40787 17.1976C4.89623 14.686 3.18588 11.673 2.27955 8.47979C2.27417 8.46086 2.26884 8.44209 2.26355 8.42347C2.11604 7.90447 2.00165 7.50199 2.00001 6.95011C1.99814 6.31934 2.20364 5.5291 2.51257 4.97915L2.51257 4.97915C2.78337 4.49708 3.14053 4.14029 3.60626 3.67504C3.62859 3.65273 3.65117 3.63017 3.674 3.60734L3.83164 3.4497C3.86388 3.41746 3.89577 3.38549 3.92735 3.35383C4.36179 2.91827 4.73735 2.54176 5.16994 2.32295L5.61617 3.20519L5.16994 2.32295Z"/></symbol><symbol viewBox="0 0 25 25" id="plus" xmlns="http://www.w3.org/2000/svg"><path d="M5 11.9091H21V14.0909H5V11.9091Z"/><path d="M14.0909 5L14.0909 21H11.9091L11.9091 5L14.0909 5Z"/></symbol><symbol viewBox="0 0 25 25" id="telegram" xmlns="http://www.w3.org/2000/svg"><path d="M22.5881 3.07027L2.46733 10.6851C1.81562 10.9318 1.8551 11.84 2.52596 12.0324L7.63887 13.4987L9.547 19.3789C9.74633 19.9931 10.5478 20.1793 11.0117 19.7192L13.6552 17.0979L18.842 20.7953C19.4768 21.2478 20.3808 20.9117 20.5419 20.1632L23.9772 4.21269C24.1454 3.43139 23.3539 2.78044 22.5881 3.07027ZM20.0655 6.61008L10.7195 14.6365C10.6264 14.7165 10.5671 14.8272 10.5532 14.9473L10.1934 18.0538C10.1816 18.1551 10.0356 18.1685 10.0045 18.0711L8.52404 13.4383C8.45623 13.2262 8.54464 12.9964 8.73895 12.8793L19.7756 6.23164C20.0294 6.07865 20.2892 6.41797 20.0655 6.61008Z"/></symbol><symbol viewBox="0 0 25 25" id="twitter" xmlns="http://www.w3.org/2000/svg"><path d="M0.00141765 20.7683C2.26478 22.1819 4.94961 23 7.82765 23C15.9131 23 22.4675 16.5446 22.4675 8.5829C22.4675 8.38411 22.4632 8.18679 22.4555 7.99006C22.7479 7.76342 24.5567 6.33575 25 5.41794C25 5.41794 23.5312 6.01908 22.0936 6.1607C22.0908 6.1607 22.0873 6.16136 22.0844 6.16136C22.0844 6.16136 22.0873 6.15996 22.0922 6.15651C22.2246 6.06935 24.0765 4.8279 24.3273 3.34871C24.3273 3.34871 23.2883 3.8948 21.8337 4.37256C21.5929 4.45134 21.3408 4.52879 21.0809 4.60059C20.1432 3.6151 18.8104 3 17.331 3C14.4933 3 12.1938 5.26383 12.1938 8.05627C12.1938 8.45032 12.2398 8.83386 12.3269 9.20212C11.9304 9.1861 5.89152 8.85268 1.7833 3.9533C1.7833 3.9533 -0.671993 7.25421 3.24646 10.6485C3.24646 10.6485 2.05531 10.6018 1.02765 9.99712C1.02765 9.99712 0.650202 13.9961 5.08774 15.0186C5.08774 15.0186 4.21456 15.3443 2.82155 15.112C2.82155 15.112 3.60055 18.3432 7.54311 18.6452C7.54311 18.6452 4.42553 21.4187 0 20.7679L0.00141765 20.7683Z"/></symbol><symbol viewBox="0 0 25 25" id="whatsapp" xmlns="http://www.w3.org/2000/svg"><path d="M2 22.8932L3.46166 17.7019C2.52173 16.1051 2.02685 14.2883 2.02685 12.4219C2.02685 6.67523 6.70208 2 12.4487 2C18.1954 2 22.8705 6.67523 22.8705 12.4219C22.8705 18.1685 18.1954 22.8438 12.4487 22.8438C10.6581 22.8438 8.90475 22.3854 7.35365 21.5151L2 22.8932ZM7.62734 19.6191L7.94635 19.8138C9.29873 20.6395 10.8557 21.0759 12.4487 21.0759C17.2205 21.0759 21.1026 17.1937 21.1026 12.4219C21.1026 7.65007 17.2205 3.7679 12.4487 3.7679C7.67691 3.7679 3.79474 7.65007 3.79474 12.4219C3.79474 14.0846 4.26729 15.6992 5.16119 17.0912L5.37603 17.4257L4.53431 20.4153L7.62734 19.6191Z"/><path d="M9.52111 7.57123L8.84486 7.53437C8.63245 7.52278 8.4241 7.59376 8.26355 7.73322C7.9357 8.01792 7.41149 8.56833 7.25048 9.28557C7.01037 10.355 7.38143 11.6646 8.3418 12.9741C9.30216 14.2837 11.0919 16.379 14.2566 17.2738C15.2764 17.5622 16.0786 17.3678 16.6976 16.9719C17.1878 16.6583 17.5258 16.155 17.6475 15.586L17.7555 15.0816C17.7898 14.9214 17.7084 14.7587 17.5595 14.6901L15.274 13.6366C15.1257 13.5683 14.9497 13.6115 14.8499 13.7408L13.9527 14.9039C13.8849 14.9918 13.7689 15.0266 13.6641 14.9898C13.0497 14.7739 10.9915 13.9119 9.86212 11.7365C9.81314 11.6421 9.82532 11.5276 9.89479 11.4471L10.7523 10.4551C10.8399 10.3538 10.862 10.2114 10.8094 10.0883L9.82421 7.78344C9.77176 7.66074 9.65423 7.5785 9.52111 7.57123Z"/></symbol></svg>