<svg width="36" height="36" viewBox="0 0 36 36" fill="none" xmlns="http://www.w3.org/2000/svg">
<circle cx="18" cy="18" r="15.5" stroke="#F5D531" stroke-width="5"/>
<path d="M18.125 5C15.5291 5 12.9915 5.76977 10.8331 7.21196C8.67475 8.65416 6.99249 10.704 5.99909 13.1023C5.00569 15.5006 4.74577 18.1396 5.2522 20.6856C5.75863 23.2316 7.00867 25.5702 8.84423 27.4058C10.6798 29.2413 13.0184 30.4914 15.5644 30.9978C18.1104 31.5042 20.7494 31.2443 23.1477 30.2509C25.546 29.2575 27.5958 27.5753 29.038 25.4169C30.4802 23.2585 31.25 20.7209 31.25 18.125C31.2461 14.6452 29.862 11.3091 27.4015 8.84854C24.9409 6.38797 21.6048 5.00391 18.125 5ZM18.125 29.0625C15.9618 29.0625 13.8471 28.421 12.0485 27.2192C10.2498 26.0174 8.84791 24.3092 8.02007 22.3106C7.19224 20.312 6.97564 18.1129 7.39767 15.9912C7.81969 13.8695 8.86139 11.9207 10.391 10.391C11.9207 8.86138 13.8695 7.81969 15.9912 7.39766C18.1129 6.97563 20.312 7.19223 22.3106 8.02007C24.3092 8.8479 26.0174 10.2498 27.2192 12.0484C28.421 13.8471 29.0625 15.9618 29.0625 18.125C29.0592 21.0248 27.9058 23.8049 25.8554 25.8553C23.8049 27.9058 21.0248 29.0592 18.125 29.0625Z" fill="black"/>
<path d="M23.9141 14.0704L16.9286 21.0559L13.3125 18.3438C13.0804 18.1697 12.7887 18.095 12.5016 18.136C12.2144 18.177 11.9553 18.3305 11.7813 18.5625C11.6072 18.7946 11.5325 19.0863 11.5735 19.3735C11.6145 19.6606 11.7679 19.9197 12 20.0938L16.375 23.375C16.5856 23.533 16.8462 23.6097 17.1088 23.591C17.3714 23.5724 17.6185 23.4596 17.8047 23.2734L25.4609 15.6172C25.666 15.4121 25.7813 15.1339 25.7813 14.8438C25.7813 14.5537 25.666 14.2755 25.4609 14.0704C25.2558 13.8652 24.9776 13.75 24.6875 13.75C24.3974 13.75 24.1192 13.8652 23.9141 14.0704Z" fill="black"/>
</svg>
