<svg width="25" height="25" viewBox="0 0 25 25" fill="none" xmlns="http://www.w3.org/2000/svg">
<path d="M4.35513 4.35513C4.82863 3.88162 5.59633 3.88162 6.06984 4.35513L20.6449 18.9302C21.1184 19.4037 21.1184 20.1714 20.6449 20.6449C20.1714 21.1184 19.4037 21.1184 18.9302 20.6449L4.35513 6.06984C3.88162 5.59633 3.88162 4.82863 4.35513 4.35513Z" fill="black"/>
<path d="M20.6449 4.35513C21.1184 4.82863 21.1184 5.59633 20.6449 6.06984L6.06984 20.6449C5.59633 21.1184 4.82863 21.1184 4.35513 20.6449C3.88162 20.1714 3.88162 19.4037 4.35513 18.9302L18.9302 4.35513C19.4037 3.88162 20.1714 3.88162 20.6449 4.35513Z" fill="black"/>
</svg>
