<svg width="70" height="70" viewBox="0 0 70 70" fill="none" xmlns="http://www.w3.org/2000/svg">
<g clip-path="url(#clip0_81_1062)">
<path d="M7.45615 48.7364L11.6561 52.9364V64.1667C11.658 65.7132 12.2732 67.1959 13.3667 68.2894C14.4603 69.383 15.943 69.9982 17.4895 70H64.1667C65.7132 69.9982 67.1958 69.383 68.2894 68.2894C69.383 67.1959 69.9981 65.7132 70 64.1667V35C69.9955 33.5276 69.4334 32.1115 68.4268 31.0367C67.4203 29.962 66.044 29.3084 64.575 29.2075C65.1632 28.1073 65.384 26.8476 65.2049 25.6129C65.0259 24.3781 64.4564 23.2331 63.5798 22.3452L48.7235 7.47953L48.7165 7.4667H48.706L42.9532 1.70687C41.8595 0.615424 40.3776 0.00244141 38.8325 0.00244141C37.2874 0.00244141 35.8054 0.615424 34.7118 1.70687L1.70448 34.727C0.61635 35.8264 0.00598145 37.3108 0.00598145 38.8576C0.00598145 40.4045 0.61635 41.8888 1.70448 42.9882L7.45615 48.7364ZM42.945 4.99803L46.2408 8.2962L25.382 29.1667H18.7833L42.945 4.99803ZM11.6666 42.882L8.28332 46.2654L4.98632 42.9684L11.6666 36.2834V42.882ZM9.93298 47.915L11.6666 46.1814V49.6487L9.93298 47.915ZM67.6667 35V64.1667C67.6667 65.095 67.2979 65.9852 66.6415 66.6416C65.9851 67.298 65.0949 67.6667 64.1667 67.6667H17.5C16.5717 67.6667 15.6815 67.298 15.0251 66.6416C14.3687 65.9852 14 65.095 14 64.1667V35C14 34.0718 14.3687 33.1815 15.0251 32.5252C15.6815 31.8688 16.5717 31.5 17.5 31.5H64.1667C65.0949 31.5 65.9851 31.8688 66.6415 32.5252C67.2979 33.1815 67.6667 34.0718 67.6667 35ZM61.9302 28.9485L61.7167 29.1667H28.6802L47.8905 9.94703L61.9267 23.9914C62.5812 24.65 62.9489 25.5407 62.9495 26.4692C62.9502 27.3978 62.5838 28.289 61.9302 28.9485ZM3.35648 36.3732L36.3615 3.35653C37.0262 2.7213 37.9099 2.36622 38.8293 2.36492C39.7488 2.36362 40.6335 2.71619 41.3 3.34953L14.7886 29.8667C13.7573 30.4132 12.9136 31.2565 12.3667 32.2875L3.33898 41.3164C2.69425 40.6541 2.33494 39.7655 2.33821 38.8412C2.34148 37.917 2.70708 37.0309 3.35648 36.3732Z" fill="black"/>
<path d="M18.6667 44.3333H25.6667C26.2855 44.3333 26.879 44.0875 27.3166 43.6499C27.7542 43.2123 28 42.6188 28 42V37.3333C28 36.7145 27.7542 36.121 27.3166 35.6834C26.879 35.2458 26.2855 35 25.6667 35H18.6667C18.0479 35 17.4544 35.2458 17.0168 35.6834C16.5792 36.121 16.3334 36.7145 16.3334 37.3333V42C16.3334 42.6188 16.5792 43.2123 17.0168 43.6499C17.4544 44.0875 18.0479 44.3333 18.6667 44.3333ZM18.6667 37.3333H25.6667V42H18.6667V37.3333ZM17.5 51.3333C17.8095 51.3333 18.1062 51.2104 18.325 50.9916C18.5438 50.7728 18.6667 50.4761 18.6667 50.1667V47.8333C18.6667 47.5239 18.5438 47.2272 18.325 47.0084C18.1062 46.7896 17.8095 46.6667 17.5 46.6667C17.1906 46.6667 16.8939 46.7896 16.6751 47.0084C16.4563 47.2272 16.3334 47.5239 16.3334 47.8333V50.1667C16.3334 50.4761 16.4563 50.7728 16.6751 50.9916C16.8939 51.2104 17.1906 51.3333 17.5 51.3333ZM22.1667 46.6667C21.8573 46.6667 21.5605 46.7896 21.3417 47.0084C21.123 47.2272 21 47.5239 21 47.8333V50.1667C21 50.4761 21.123 50.7728 21.3417 50.9916C21.5605 51.2104 21.8573 51.3333 22.1667 51.3333C22.4761 51.3333 22.7729 51.2104 22.9917 50.9916C23.2105 50.7728 23.3334 50.4761 23.3334 50.1667V47.8333C23.3334 47.5239 23.2105 47.2272 22.9917 47.0084C22.7729 46.7896 22.4761 46.6667 22.1667 46.6667ZM25.6667 47.8333V50.1667C25.6667 50.4761 25.7896 50.7728 26.0084 50.9916C26.2272 51.2104 26.524 51.3333 26.8334 51.3333C27.1428 51.3333 27.4395 51.2104 27.6583 50.9916C27.8771 50.7728 28 50.4761 28 50.1667V47.8333C28 47.5239 27.8771 47.2272 27.6583 47.0084C27.4395 46.7896 27.1428 46.6667 26.8334 46.6667C26.524 46.6667 26.2272 46.7896 26.0084 47.0084C25.7896 47.2272 25.6667 47.5239 25.6667 47.8333ZM31.5 46.6667C31.1906 46.6667 30.8939 46.7896 30.6751 47.0084C30.4563 47.2272 30.3334 47.5239 30.3334 47.8333V50.1667C30.3334 50.4761 30.4563 50.7728 30.6751 50.9916C30.8939 51.2104 31.1906 51.3333 31.5 51.3333C31.8095 51.3333 32.1062 51.2104 32.325 50.9916C32.5438 50.7728 32.6667 50.4761 32.6667 50.1667V47.8333C32.6667 47.5239 32.5438 47.2272 32.325 47.0084C32.1062 46.7896 31.8095 46.6667 31.5 46.6667ZM36.1667 51.3333C36.4761 51.3333 36.7729 51.2104 36.9917 50.9916C37.2105 50.7728 37.3334 50.4761 37.3334 50.1667V47.8333C37.3334 47.5239 37.2105 47.2272 36.9917 47.0084C36.7729 46.7896 36.4761 46.6667 36.1667 46.6667C35.8573 46.6667 35.5605 46.7896 35.3417 47.0084C35.123 47.2272 35 47.5239 35 47.8333V50.1667C35 50.4761 35.123 50.7728 35.3417 50.9916C35.5605 51.2104 35.8573 51.3333 36.1667 51.3333ZM45.5 46.6667C45.1906 46.6667 44.8939 46.7896 44.6751 47.0084C44.4563 47.2272 44.3334 47.5239 44.3334 47.8333V50.1667C44.3334 50.4761 44.4563 50.7728 44.6751 50.9916C44.8939 51.2104 45.1906 51.3333 45.5 51.3333C45.8095 51.3333 46.1062 51.2104 46.325 50.9916C46.5438 50.7728 46.6667 50.4761 46.6667 50.1667V47.8333C46.6667 47.5239 46.5438 47.2272 46.325 47.0084C46.1062 46.7896 45.8095 46.6667 45.5 46.6667ZM50.1667 46.6667C49.8573 46.6667 49.5605 46.7896 49.3418 47.0084C49.123 47.2272 49 47.5239 49 47.8333V50.1667C49 50.4761 49.123 50.7728 49.3418 50.9916C49.5605 51.2104 49.8573 51.3333 50.1667 51.3333C50.4761 51.3333 50.7729 51.2104 50.9917 50.9916C51.2105 50.7728 51.3334 50.4761 51.3334 50.1667V47.8333C51.3334 47.5239 51.2105 47.2272 50.9917 47.0084C50.7729 46.7896 50.4761 46.6667 50.1667 46.6667ZM54.8334 46.6667C54.524 46.6667 54.2272 46.7896 54.0084 47.0084C53.7896 47.2272 53.6667 47.5239 53.6667 47.8333V50.1667C53.6667 50.4761 53.7896 50.7728 54.0084 50.9916C54.2272 51.2104 54.524 51.3333 54.8334 51.3333C55.1428 51.3333 55.4395 51.2104 55.6583 50.9916C55.8771 50.7728 56 50.4761 56 50.1667V47.8333C56 47.5239 55.8771 47.2272 55.6583 47.0084C55.4395 46.7896 55.1428 46.6667 54.8334 46.6667ZM59.5 46.6667C59.1906 46.6667 58.8939 46.7896 58.6751 47.0084C58.4563 47.2272 58.3334 47.5239 58.3334 47.8333V50.1667C58.3334 50.4761 58.4563 50.7728 58.6751 50.9916C58.8939 51.2104 59.1906 51.3333 59.5 51.3333C59.8095 51.3333 60.1062 51.2104 60.325 50.9916C60.5438 50.7728 60.6667 50.4761 60.6667 50.1667V47.8333C60.6667 47.5239 60.5438 47.2272 60.325 47.0084C60.1062 46.7896 59.8095 46.6667 59.5 46.6667ZM22.1667 53.6667H17.5C17.1906 53.6667 16.8939 53.7896 16.6751 54.0084C16.4563 54.2272 16.3334 54.5239 16.3334 54.8333C16.3334 55.1428 16.4563 55.4395 16.6751 55.6583C16.8939 55.8771 17.1906 56 17.5 56H22.1667C22.4761 56 22.7729 55.8771 22.9917 55.6583C23.2105 55.4395 23.3334 55.1428 23.3334 54.8333C23.3334 54.5239 23.2105 54.2272 22.9917 54.0084C22.7729 53.7896 22.4761 53.6667 22.1667 53.6667ZM31.5 53.6667H26.8334C26.524 53.6667 26.2272 53.7896 26.0084 54.0084C25.7896 54.2272 25.6667 54.5239 25.6667 54.8333C25.6667 55.1428 25.7896 55.4395 26.0084 55.6583C26.2272 55.8771 26.524 56 26.8334 56H31.5C31.8095 56 32.1062 55.8771 32.325 55.6583C32.5438 55.4395 32.6667 55.1428 32.6667 54.8333C32.6667 54.5239 32.5438 54.2272 32.325 54.0084C32.1062 53.7896 31.8095 53.6667 31.5 53.6667ZM22.1667 58.3333H17.5C17.1906 58.3333 16.8939 58.4563 16.6751 58.675C16.4563 58.8938 16.3334 59.1906 16.3334 59.5C16.3334 59.8094 16.4563 60.1062 16.6751 60.325C16.8939 60.5438 17.1906 60.6667 17.5 60.6667H22.1667C22.4761 60.6667 22.7729 60.5438 22.9917 60.325C23.2105 60.1062 23.3334 59.8094 23.3334 59.5C23.3334 59.1906 23.2105 58.8938 22.9917 58.675C22.7729 58.4563 22.4761 58.3333 22.1667 58.3333ZM31.5 58.3333H26.8334C26.524 58.3333 26.2272 58.4563 26.0084 58.675C25.7896 58.8938 25.6667 59.1906 25.6667 59.5C25.6667 59.8094 25.7896 60.1062 26.0084 60.325C26.2272 60.5438 26.524 60.6667 26.8334 60.6667H31.5C31.8095 60.6667 32.1062 60.5438 32.325 60.325C32.5438 60.1062 32.6667 59.8094 32.6667 59.5C32.6667 59.1906 32.5438 58.8938 32.325 58.675C32.1062 58.4563 31.8095 58.3333 31.5 58.3333ZM40.8334 53.6667H36.1667C35.8573 53.6667 35.5605 53.7896 35.3417 54.0084C35.123 54.2272 35 54.5239 35 54.8333C35 55.1428 35.123 55.4395 35.3417 55.6583C35.5605 55.8771 35.8573 56 36.1667 56H40.8334C41.1428 56 41.4395 55.8771 41.6583 55.6583C41.8771 55.4395 42 55.1428 42 54.8333C42 54.5239 41.8771 54.2272 41.6583 54.0084C41.4395 53.7896 41.1428 53.6667 40.8334 53.6667Z" fill="black"/>
</g>
<defs>
<clipPath id="clip0_81_1062">
<rect width="70" height="70" fill="white"/>
</clipPath>
</defs>
</svg>
