<svg width="70" height="70" viewBox="0 0 70 70" fill="none" xmlns="http://www.w3.org/2000/svg">
<path d="M69.9852 21.5206C69.9847 20.3236 69.514 19.268 68.6239 18.4682L57.9839 8.90391C56.6605 7.71459 54.9918 6.49902 52.6457 6.49902H52.6433C50.2957 6.49984 48.6269 7.71705 47.3041 8.90773L36.671 18.4793C35.7813 19.2799 35.3114 20.3359 35.3119 21.5329L35.3168 33.8171H28.2551C29.5332 31.1629 30.4233 26.9703 29.4237 23.8309C28.7201 21.6213 27.1707 20.1647 24.943 19.6184C24.8022 19.5839 24.656 19.5777 24.5128 19.6002C24.3697 19.6227 24.2324 19.6734 24.109 19.7494C23.9856 19.8254 23.8785 19.9252 23.794 20.0429C23.7095 20.1606 23.6492 20.294 23.6167 20.4352C23.4954 20.962 23.3831 21.4558 23.2777 21.9199C21.964 27.7051 21.7952 28.4485 18.1665 30.8202C15.603 32.4957 15.4211 32.712 13.8268 35.0378C13.6461 35.3017 13.4649 35.5652 13.2832 35.8283C12.6376 36.7621 11.8117 37.1832 10.6114 37.1938L10.5189 37.194V36.9321C10.5189 35.5698 9.41063 34.4616 8.04822 34.4616H2.47051C1.10824 34.4616 0 35.5698 0 36.9321V61.0305C0 62.3929 1.10824 63.5012 2.47051 63.5012H8.04836C9.41062 63.5012 10.519 62.3929 10.519 61.0305V59.9094C11.012 60.0814 11.5049 60.2649 12.0124 60.4544C14.4972 61.3824 17.3135 62.4344 21.4951 62.4344H36.014C36.633 62.4344 37.222 62.3052 37.7567 62.0734C38.2817 62.3095 38.8504 62.4344 39.4335 62.4344H39.4345L65.895 62.4252C68.1594 62.4242 70.0008 60.5814 69.9999 58.3171L69.9852 21.5206ZM8.3315 61.0305C8.3315 61.1841 8.20189 61.3137 8.04836 61.3137H2.47051C2.31711 61.3137 2.1875 61.1841 2.1875 61.0305V36.9321C2.1875 36.7787 2.31711 36.6491 2.47051 36.6491H8.04836C8.20189 36.6491 8.3315 36.7787 8.3315 36.9321V61.0305ZM21.4951 60.2469C17.7088 60.2469 15.202 59.3105 12.7779 58.4051C12.046 58.1318 11.2956 57.8515 10.5191 57.6013V39.3815L10.6246 39.3813C12.5352 39.3646 14.0353 38.5876 15.0828 37.0721C15.2857 36.7787 15.4669 36.5144 15.6312 36.2746C17.1015 34.1296 17.1015 34.1296 19.3635 32.6511C23.7326 29.7955 24.0547 28.3765 25.411 22.4043L25.4721 22.1349C26.3735 22.6134 26.9886 23.3929 27.3394 24.4945C28.3713 27.7353 26.744 32.7246 25.4707 34.1947C25.3335 34.3532 25.2447 34.5478 25.2149 34.7553C25.1851 34.9628 25.2156 35.1746 25.3027 35.3653C25.3899 35.5559 25.53 35.7176 25.7063 35.8309C25.8827 35.9443 26.0879 36.0045 26.2976 36.0046H38.8019C40.0205 36.0046 41.0118 36.9959 41.0118 38.2145C41.0118 39.4331 40.0205 40.4245 38.8019 40.4245H30.1811C29.891 40.4245 29.6128 40.5398 29.4077 40.7449C29.2026 40.95 29.0873 41.2282 29.0873 41.5183C29.0873 41.8084 29.2026 42.0866 29.4077 42.2917C29.6128 42.4968 29.891 42.612 30.1811 42.612H40.6085C41.8271 42.612 42.8184 43.6034 42.8184 44.822C42.8184 46.0405 41.8271 47.032 40.6085 47.032H30.1811C29.891 47.032 29.6128 47.1473 29.4077 47.3524C29.2026 47.5575 29.0873 47.8357 29.0873 48.1258C29.0873 48.4159 29.2026 48.6941 29.4077 48.8992C29.6128 49.1043 29.891 49.2195 30.1811 49.2195H39.4729C40.6915 49.2195 41.6828 50.2109 41.6828 51.4295C41.6828 52.648 40.6915 53.6394 39.4729 53.6394H30.1811C29.891 53.6394 29.6128 53.7546 29.4077 53.9597C29.2026 54.1648 29.0873 54.443 29.0873 54.7331C29.0873 55.0232 29.2026 55.3014 29.4077 55.5065C29.6128 55.7116 29.891 55.8269 30.1811 55.8269H36.0142C37.2328 55.8269 38.2242 56.8184 38.2242 58.0369C38.2242 59.2555 37.2329 60.2469 36.0142 60.2469H21.4951ZM65.8942 60.2377L39.8136 60.2467C40.2058 59.5764 40.4122 58.8136 40.4116 58.0369C40.4126 57.2554 40.204 56.4879 39.8076 55.8143C42.0766 55.6426 43.8703 53.7415 43.8703 51.4295C43.8713 50.3974 43.5076 49.3981 42.8434 48.6081C44.1368 47.8417 45.0059 46.4313 45.0059 44.822C45.0059 43.021 43.9175 41.4695 42.3641 40.7903C42.9079 40.0416 43.2004 39.1398 43.1993 38.2145C43.1993 35.7898 41.2266 33.8171 38.8019 33.8171H37.5044L37.4995 21.5322C37.4994 20.9569 37.707 20.4901 38.1346 20.1053L48.7677 10.5336C50.2247 9.22205 51.3479 8.68707 52.6442 8.68652H52.6459C53.9412 8.68652 55.0644 9.22096 56.5219 10.5307L67.1619 20.095C67.5896 20.4796 67.7977 20.9462 67.798 21.5215L67.8125 58.3179C67.8129 59.3761 66.9524 60.2373 65.8942 60.2377ZM59.2147 45.4361C59.3749 46.7561 59.0211 47.9609 58.1916 48.92C57.216 50.0479 55.5948 50.8041 53.7497 51.0163V52.4075C53.7497 52.6976 53.6345 52.9758 53.4294 53.1809C53.2243 53.3861 52.9461 53.5013 52.656 53.5013C52.3659 53.5013 52.0877 53.3861 51.8826 53.1809C51.6775 52.9758 51.5622 52.6976 51.5622 52.4075V51.0004C48.8301 50.625 46.7063 48.8974 46.0914 46.4313C46.0213 46.1498 46.0658 45.852 46.2152 45.6033C46.3646 45.3547 46.6066 45.1756 46.8881 45.1054C47.1696 45.0352 47.4674 45.0797 47.716 45.2291C47.9647 45.3785 48.1438 45.6206 48.214 45.9021C48.7806 48.1742 51.0671 48.9323 52.854 48.8877C54.3882 48.8512 55.8339 48.3023 56.5372 47.4891C56.964 46.9957 57.1296 46.4102 57.0433 45.6997C56.8392 44.0181 55.4363 43.0528 52.4945 42.5698C47.8127 41.801 46.7225 39.4266 46.6326 37.5703C46.5076 34.9979 48.3085 32.8419 51.1138 32.2056C51.2624 32.172 51.412 32.1433 51.5625 32.1196V30.697C51.5625 30.4069 51.6778 30.1287 51.8829 29.9236C52.088 29.7185 52.3662 29.6033 52.6563 29.6033C52.9464 29.6033 53.2246 29.7185 53.4297 29.9236C53.6348 30.1287 53.75 30.4069 53.75 30.697V32.1103C55.7525 32.4068 57.728 33.5669 58.715 35.9178C58.8273 36.1852 58.8287 36.4863 58.719 36.7548C58.6093 37.0234 58.3974 37.2373 58.1299 37.3496C57.9975 37.4052 57.8554 37.4342 57.7118 37.435C57.5682 37.4357 57.4258 37.4081 57.2928 37.3537C57.1598 37.2994 57.0389 37.2194 56.9368 37.1183C56.8348 37.0172 56.7537 36.897 56.6981 36.7646C55.7494 34.5052 53.4529 33.9184 51.5977 34.3392C50.1957 34.6571 48.7292 35.6451 48.8176 37.4645C48.8452 38.0342 48.9293 39.7679 52.849 40.4114C54.3013 40.6496 58.7218 41.3754 59.2147 45.4361ZM52.647 21.1653C54.7947 21.1653 56.5421 19.418 56.5421 17.2701C56.5421 15.1223 54.7948 13.375 52.647 13.375C50.4991 13.375 48.7517 15.1223 48.7517 17.2701C48.7517 19.418 50.4991 21.1653 52.647 21.1653ZM52.647 15.5624C53.5886 15.5624 54.3546 16.3286 54.3546 17.27C54.3546 18.2114 53.5886 18.9776 52.647 18.9776C51.7054 18.9776 50.9392 18.2114 50.9392 17.27C50.9392 16.3286 51.7054 15.5624 52.647 15.5624Z" fill="black"/>
</svg>
