<svg width="70" height="70" viewBox="0 0 70 70" fill="none" xmlns="http://www.w3.org/2000/svg">
<path d="M31.6436 9.73369H29.2308C29.0465 9.73369 28.9683 9.93481 28.9683 10.1191C28.9683 10.3313 29.0633 10.5156 29.2308 10.5156H30.0016V13.5483C30.0016 13.727 30.2195 13.8164 30.4373 13.8164C30.6551 13.8164 30.8729 13.727 30.8729 13.5483V10.5156H31.6436C31.8112 10.5156 31.9061 10.3313 31.9061 10.1191C31.9061 9.93467 31.8279 9.73369 31.6436 9.73369ZM35.4137 13.3975L34.3691 9.99059C34.3077 9.79508 34.0564 9.7002 33.7994 9.7002C33.5425 9.7002 33.2912 9.79508 33.2298 9.99059L32.1909 13.3975C32.1853 13.4199 32.1796 13.4422 32.1796 13.4589C32.1796 13.6656 32.4979 13.8163 32.7381 13.8163C32.8779 13.8163 32.9896 13.7715 33.0231 13.6544L33.213 12.9562H34.3915L34.5814 13.6544C34.615 13.7715 34.7267 13.8163 34.8663 13.8163C35.1065 13.8163 35.4249 13.6654 35.4249 13.4589C35.4249 13.4421 35.4192 13.4198 35.4137 13.3975ZM33.3915 12.2861L33.7992 10.7893L34.2069 12.2861H33.3915ZM39.2058 13.2634L38.2394 11.7722L39.1665 10.2866C39.2056 10.2251 39.2224 10.1693 39.2224 10.1135C39.2224 9.87889 38.9042 9.7002 38.6585 9.7002C38.5356 9.7002 38.4518 9.7449 38.3958 9.84539L37.653 11.1411L36.9101 9.84539C36.8542 9.74477 36.7705 9.7002 36.6476 9.7002C36.4019 9.7002 36.0835 9.87889 36.0835 10.1135C36.0835 10.1694 36.1002 10.2252 36.1393 10.2866L37.0665 11.7722L36.1003 13.2634C36.0667 13.3193 36.05 13.3695 36.05 13.4198C36.05 13.66 36.3907 13.8497 36.6309 13.8497C36.7202 13.8497 36.7986 13.8219 36.8375 13.7603L37.653 12.3752L38.4686 13.7603C38.5021 13.8217 38.5859 13.8497 38.6752 13.8497C38.9154 13.8497 39.2561 13.6598 39.2561 13.4198C39.2561 13.3695 39.2394 13.3191 39.2058 13.2634ZM40.5961 9.73369C40.3781 9.73369 40.1605 9.81189 40.1605 9.99619V13.5483C40.1605 13.727 40.3783 13.8164 40.5961 13.8164C40.814 13.8164 41.0316 13.727 41.0316 13.5483V9.99619C41.0316 9.81189 40.814 9.73369 40.5961 9.73369Z" fill="black"/>
<path d="M67.2949 26.9453H63.1903C62.5581 26.9453 61.9773 27.1648 61.5162 27.5296L58.8412 19.1008C57.963 16.3336 55.4225 14.4745 52.5193 14.4745H48.3905L46.8624 9.26467C46.443 7.83445 45.1088 6.83545 43.6183 6.83545H26.3817C24.8912 6.83545 23.5571 7.83432 23.1376 9.26467L21.6095 14.4745H17.4836C14.5804 14.4745 12.0399 16.3336 11.1619 19.1008L8.48627 27.5315C8.02484 27.1657 7.44297 26.9453 6.80969 26.9453H2.70512C1.21352 26.9453 0 28.1588 0 29.6504V31.7136C0 33.2052 1.21352 34.4186 2.70512 34.4186H4.73908C3.25814 36.3595 2.36441 38.8252 2.36441 41.1119V48.4919C2.36441 51.3173 4.26398 53.7059 6.85248 54.4521V59.0869C6.85248 61.3352 8.68164 63.1644 10.93 63.1644H15.4546C17.7029 63.1644 19.5321 61.3352 19.5321 59.0869V54.6954H50.4679V59.0869C50.4679 61.3352 52.2971 63.1644 54.5454 63.1644H59.07C61.3184 63.1644 63.1475 61.3352 63.1475 59.0869V54.3482C65.7537 53.4671 67.6356 51.0003 67.6356 48.1004V41.1119C67.6356 38.825 66.7419 36.3593 65.2609 34.4186H67.2949C68.7865 34.4186 70 33.2051 70 31.7136V29.6504C70 28.1588 68.7865 26.9453 67.2949 26.9453ZM25.1051 9.84176C25.2701 9.27902 25.7951 8.88596 26.3817 8.88596H43.6185C44.205 8.88596 44.73 9.27902 44.895 9.84176L46.2539 14.4745H23.7461L25.1051 9.84176ZM9.51467 31.0574C9.52314 31.0358 9.53203 31.0144 9.53914 30.992L13.1161 19.7211C13.7227 17.8093 15.4778 16.525 17.4835 16.525H52.5193C54.5249 16.525 56.28 17.8095 56.8868 19.7211L60.4852 31.0593V31.0617C59.9456 30.9246 59.3912 30.855 58.8345 30.8545H58.3782L55.2344 20.9488C54.7769 19.5074 53.4538 18.5388 51.9415 18.5388H45.8071C45.5381 18.5432 45.2815 18.6532 45.0929 18.845C44.9042 19.0368 44.7984 19.2951 44.7984 19.5641C44.7984 19.8332 44.9042 20.0914 45.0929 20.2832C45.2815 20.475 45.5381 20.585 45.8071 20.5894H51.9415C52.5562 20.5894 53.0942 20.983 53.2801 21.5691L56.2272 30.8546H13.7767L16.7236 21.5692C16.8131 21.2845 16.9912 21.0359 17.2321 20.8596C17.4729 20.6833 17.7637 20.5886 18.0622 20.5894H41.037C41.306 20.585 41.5625 20.475 41.7512 20.2832C41.9399 20.0914 42.0456 19.8332 42.0456 19.5641C42.0456 19.2951 41.9399 19.0368 41.7512 18.845C41.5625 18.6532 41.306 18.5432 41.037 18.5388H18.0623C17.3282 18.5369 16.6126 18.7697 16.0202 19.2033C15.4278 19.6369 14.9895 20.2486 14.7693 20.9489L11.6256 30.8545H11.1654C10.5993 30.8545 10.0477 30.9272 9.51467 31.0617V31.0574ZM2.70512 32.3682C2.53155 32.368 2.36514 32.299 2.24239 32.1763C2.11964 32.0536 2.05059 31.8872 2.05037 31.7136V29.6504C2.05059 29.4768 2.11964 29.3104 2.24239 29.1877C2.36514 29.065 2.53155 28.996 2.70512 28.9958H6.80969C6.98323 28.996 7.14961 29.065 7.27233 29.1877C7.39504 29.3105 7.46408 29.4768 7.4643 29.6504V31.9272C7.23767 32.0641 7.01741 32.2112 6.80422 32.3682H2.70512ZM17.4818 59.087C17.4817 60.2048 16.5722 61.1142 15.4546 61.1142H10.93C9.81217 61.1142 8.90285 60.2047 8.90285 59.087V54.6955H17.4818V59.087ZM61.0974 59.087H61.0973C61.0973 60.2048 60.1878 61.1142 59.0702 61.1142H54.5456C53.4278 61.1142 52.5185 60.2047 52.5185 59.087V54.6955H61.041C61.0598 54.6955 61.0784 54.6943 61.0974 54.6941V59.087ZM65.5854 41.1119V48.1004C65.5854 50.6064 63.5467 52.645 61.0408 52.645H8.56775C6.27771 52.645 4.41465 50.7819 4.41465 48.4919V41.1119C4.41465 38.3424 5.78594 35.9035 7.54838 34.4186H7.76836L9.68188 37.8655C10.6153 39.5468 12.6304 40.6333 14.8155 40.6333H17.9952C18.2642 40.6289 18.5207 40.5189 18.7094 40.3271C18.8981 40.1353 19.0038 39.8771 19.0038 39.608C19.0038 39.339 18.8981 39.0807 18.7094 38.8889C18.5207 38.6971 18.2642 38.5872 17.9952 38.5828H14.8155C13.3634 38.5828 12.0522 37.9105 11.4747 36.8704L9.51467 33.3397V33.2324C10.0689 33.0205 10.627 32.9048 11.1654 32.9048H58.8345C59.4044 32.9048 59.9572 33.0104 60.4852 33.2003V33.3933C60.4852 33.3972 60.4857 33.4009 60.4857 33.4047L58.5618 36.8704C57.9843 37.9107 56.6729 38.5828 55.221 38.5828H22.7653C22.4963 38.5872 22.2398 38.6971 22.0511 38.8889C21.8624 39.0807 21.7567 39.339 21.7567 39.608C21.7567 39.8771 21.8624 40.1353 22.0511 40.3271C22.2398 40.5189 22.4963 40.6289 22.7653 40.6333H55.2211C57.4063 40.6333 59.4214 39.5469 60.3546 37.8655L62.2681 34.4186H62.4958C64.3567 36.0521 65.5854 38.7386 65.5854 41.1119ZM67.9496 31.7136C67.9494 31.8872 67.8804 32.0536 67.7576 32.1763C67.6349 32.299 67.4685 32.368 67.2949 32.3682H63.1958C62.9826 32.2113 62.7623 32.0641 62.5357 31.9272V29.6505C62.5359 29.477 62.605 29.3106 62.7277 29.1879C62.8504 29.0652 63.0168 28.9961 63.1903 28.9959H67.2949C67.4685 28.9961 67.6349 29.0651 67.7576 29.1878C67.8804 29.3106 67.9494 29.477 67.9496 29.6505V31.7136Z" fill="black"/>
<path d="M19.9102 47.3131L18.3338 43.7598C18.1932 43.4452 17.9738 43.1722 17.6968 42.9673C17.4198 42.7624 17.0946 42.6324 16.7526 42.59L9.94733 41.7648C9.62232 41.725 9.29252 41.7661 8.98722 41.8845C8.68193 42.0028 8.41059 42.1948 8.19733 42.4432C7.98353 42.6912 7.83429 42.9881 7.76286 43.3077C7.69143 43.6272 7.70001 43.9594 7.78786 44.2748L8.78249 47.8616C8.88789 48.247 9.10733 48.5916 9.41201 48.8501C9.7167 49.1085 10.0924 49.2689 10.4898 49.31L17.8769 50.1019C17.9506 50.1099 18.0237 50.1137 18.0965 50.1137C18.7306 50.1137 19.318 49.8171 19.6989 49.2947C20.1234 48.7126 20.2023 47.9717 19.9102 47.3131ZM10.7475 47.2754L9.78682 43.8107L16.4729 44.6215L17.9951 48.0522L10.7475 47.2754ZM61.8392 42.4432C61.6259 42.1948 61.3546 42.0029 61.0493 41.8845C60.744 41.7661 60.4142 41.725 60.0892 41.7647L53.2839 42.5899C52.9419 42.6323 52.6167 42.7622 52.3397 42.9672C52.0627 43.1721 51.8433 43.4451 51.7027 43.7597L50.1262 47.313C49.8341 47.9716 49.9131 48.7123 50.3376 49.2946C50.7185 49.817 51.306 50.1135 51.9401 50.1135C52.0128 50.1135 52.0861 50.1097 52.1596 50.1018L59.5467 49.3099C59.9441 49.2688 60.3198 49.1084 60.6245 48.8499C60.9292 48.5915 61.1487 48.2469 61.254 47.8615L62.2487 44.2748C62.3365 43.9594 62.3451 43.6272 62.2736 43.3077C62.2022 42.9881 62.053 42.6912 61.8392 42.4432ZM59.289 47.2754L52.0415 48.0522L53.5636 44.6215L60.2497 43.8107L59.289 47.2754ZM48.4706 47.3371L47.6256 44.0477C47.4884 43.5133 47.1773 43.0397 46.7413 42.7016C46.3053 42.3634 45.7691 42.1799 45.2173 42.18H24.8193C24.2675 42.1799 23.7314 42.3633 23.2953 42.7015C22.8593 43.0396 22.5482 43.5133 22.411 44.0477L21.5661 47.3369C21.3735 48.0867 21.5351 48.8678 22.0096 49.4794C22.4842 50.0911 23.2002 50.4421 23.9744 50.4421H46.0623C46.8365 50.4421 47.5526 50.0913 48.0271 49.4794C48.5016 48.8676 48.6631 48.0867 48.4706 47.3371ZM46.4068 48.2229C46.3664 48.2758 46.3142 48.3187 46.2544 48.348C46.1946 48.3773 46.1287 48.3923 46.0621 48.3917H23.9744C23.9078 48.3923 23.842 48.3773 23.7822 48.348C23.7224 48.3187 23.6702 48.2758 23.6299 48.2229C23.5886 48.1706 23.56 48.1094 23.5465 48.0441C23.533 47.9789 23.5349 47.9114 23.5521 47.847L24.397 44.5578C24.4211 44.4641 24.4756 44.3811 24.5521 44.3218C24.6286 44.2625 24.7226 44.2303 24.8193 44.2303H45.2173C45.4165 44.2303 45.5903 44.3649 45.6398 44.5578L46.4846 47.847C46.5017 47.9114 46.5036 47.9789 46.4901 48.0441C46.4766 48.1094 46.4481 48.1706 46.4068 48.2229Z" fill="black"/>
</svg>
