<svg width="70" height="70" viewBox="0 0 70 70" fill="none" xmlns="http://www.w3.org/2000/svg">
<g clip-path="url(#clip0_81_1074)">
<path d="M57.764 36.9976C57.4939 36.9976 57.2348 37.1049 57.0437 37.2959C56.8527 37.487 56.7453 37.7461 56.7453 38.0162C56.7453 38.7295 56.1651 39.3097 55.4519 39.3097C54.7387 39.3097 54.1584 38.7295 54.1584 38.0162C54.1584 37.7461 54.051 37.487 53.86 37.2959C53.6689 37.1049 53.4098 36.9976 53.1397 36.9976C52.8695 36.9976 52.6104 37.1049 52.4193 37.2959C52.2283 37.487 52.121 37.7461 52.121 38.0162C52.121 39.8529 53.6153 41.3471 55.4519 41.3471C57.2884 41.3471 58.7827 39.8528 58.7827 38.0162C58.7827 37.8825 58.7564 37.75 58.7052 37.6264C58.654 37.5028 58.579 37.3905 58.4844 37.2959C58.3898 37.2013 58.2775 37.1263 58.1539 37.0751C58.0303 37.0239 57.8978 36.9975 57.764 36.9976Z" fill="black"/>
<path d="M67.3263 37.1642L64.4591 36.2457C64.0918 36.128 63.8024 35.8348 63.685 35.4615C63.0807 33.5402 62.1687 31.7364 60.9745 30.1002C60.4302 29.3544 59.825 28.6422 59.1638 27.9642C59.5868 26.1085 59.8168 24.0084 59.787 22.194C59.7443 19.5984 59.2256 18.076 58.2013 17.5396C57.6496 17.2503 55.9707 16.3714 46.8835 20.5312C46.6706 20.6291 46.4687 20.7493 46.2812 20.8898C45.662 20.7235 45.0389 20.5722 44.4124 20.4362C44.3365 20.4197 44.2583 20.405 44.1819 20.3889C44.9257 18.7654 45.3492 17.0136 45.429 15.2296C45.435 15.0959 45.4147 14.9624 45.369 14.8366C45.3234 14.7108 45.2535 14.5953 45.1632 14.4965C45.0729 14.3978 44.9641 14.3178 44.8429 14.2611C44.7217 14.2045 44.5905 14.1722 44.4568 14.1663C43.8962 14.1384 43.4186 14.5762 43.3936 15.1384C43.2608 18.1039 42.0306 20.8942 39.9298 22.9952C38.716 24.2105 37.2515 25.146 35.6385 25.7364C32.9185 25.3552 30.1586 25.3552 27.4386 25.7364C25.8256 25.1461 24.3611 24.2105 23.1473 22.9952C20.9059 20.7538 19.6715 17.7738 19.6715 14.6039C19.6715 11.434 20.9059 8.45404 23.1473 6.21268C25.3887 3.97117 28.3689 2.73674 31.5386 2.73674C34.7082 2.73674 37.6884 3.97117 39.9298 6.21268C40.8254 7.10641 41.5723 8.13768 42.1421 9.26738C42.2022 9.3869 42.2853 9.49339 42.3866 9.58078C42.4879 9.66817 42.6055 9.73474 42.7325 9.77669C42.8596 9.81864 42.9937 9.83514 43.1271 9.82526C43.2605 9.81538 43.3907 9.77931 43.5102 9.7191C43.6297 9.65895 43.7362 9.57585 43.8236 9.47454C43.9109 9.37324 43.9775 9.25571 44.0194 9.12867C44.0614 9.00163 44.0779 8.86758 44.068 8.73416C44.0582 8.60074 44.0221 8.47058 43.9619 8.35109C43.2971 7.03053 42.4252 5.82645 41.3707 4.7718C38.7444 2.14557 35.2527 0.699219 31.5387 0.699219C27.8247 0.699219 24.3329 2.14557 21.7067 4.7718C19.0805 7.39816 17.6341 10.8898 17.6341 14.6038C17.6341 18.3178 19.0805 21.8096 21.7067 24.4358C22.4481 25.1779 23.2712 25.8337 24.1601 26.3906L24.1609 26.3904C23.5269 26.5547 22.8986 26.7406 22.2772 26.9477C22.0222 27.0344 21.8119 27.2185 21.6922 27.4598C21.5725 27.7011 21.5533 27.9799 21.6387 28.2354C21.7241 28.4908 21.9072 28.7021 22.1479 28.8229C22.3886 28.9438 22.6674 28.9644 22.9232 28.8802C28.4789 27.0229 34.5985 27.0229 40.1542 28.8802C40.281 28.9228 40.4151 28.9399 40.5486 28.9307C40.6821 28.9214 40.8124 28.8858 40.9322 28.8261C41.0519 28.7663 41.1587 28.6835 41.2464 28.5824C41.3341 28.4813 41.401 28.364 41.4433 28.237C41.5289 27.9807 41.5093 27.7009 41.3887 27.4592C41.2681 27.2174 41.0564 27.0334 40.8002 26.9477C40.1788 26.7405 39.5505 26.5546 38.9164 26.3904L38.9173 26.3906C39.8063 25.8337 40.6293 25.1779 41.3707 24.4358C42.0344 23.7708 42.6292 23.0405 43.1461 22.2559C43.4269 22.3105 43.7057 22.3676 43.9804 22.4272C44.3462 22.5067 44.7104 22.592 45.0714 22.6815C45.06 22.7258 45.0484 22.77 45.039 22.815C44.5421 25.1727 44.5744 27.2579 45.1348 29.0124C45.6385 30.5895 46.5475 31.8671 47.8364 32.8101C49.3555 33.9213 51.1894 34.4013 52.8507 34.4013C54.101 34.4013 55.2537 34.1293 56.1002 33.6498C57.0578 33.1074 57.8601 31.9646 58.4951 30.2488C58.7867 30.5888 59.0649 30.94 59.3291 31.3017C60.3924 32.7583 61.2041 34.3636 61.7416 36.0729C62.0573 37.0768 62.841 37.8668 63.8378 38.1863L66.7051 39.1047C67.0708 39.2209 67.3899 39.4507 67.6161 39.7606C67.8423 40.0705 67.9638 40.4445 67.9629 40.8282V45.5826C67.9638 45.9663 67.8423 46.3403 67.6161 46.6502C67.3899 46.9602 67.0708 47.1899 66.7051 47.3061L62.0855 48.7858C61.3464 49.0227 60.7209 49.5306 60.3243 50.2162C58.5093 53.3528 55.6559 55.9484 51.8427 57.9309C51.6266 58.0423 51.4388 58.2016 51.2937 58.3966C51.1485 58.5916 51.0498 58.8172 51.0051 59.0561L49.5255 66.8905C49.5056 66.9952 49.4498 67.0897 49.3677 67.1577C49.2857 67.2256 49.1825 67.2629 49.0759 67.2629H44.2652C44.1586 67.2629 44.0554 67.2256 43.9733 67.1577C43.8912 67.0897 43.8354 66.9952 43.8155 66.8905L42.996 62.5608C42.9195 62.1516 42.6867 61.7883 42.3469 61.548C42.0071 61.3076 41.587 61.2091 41.1757 61.2733C39.1035 61.5866 36.9682 61.7454 34.8295 61.7454C33.2384 61.7454 31.6676 61.6566 30.1606 61.4815C29.3273 61.3857 28.551 61.9537 28.3953 62.7765L27.6165 66.8905C27.5966 66.9952 27.5408 67.0897 27.4587 67.1577C27.3766 67.2256 27.2734 67.2629 27.1668 67.2629H22.3561C22.249 67.2627 22.1454 67.225 22.0632 67.1564C21.9809 67.0878 21.9253 66.9926 21.9059 66.8872L20.4813 59.4877C20.4363 59.2527 20.339 59.0307 20.1968 58.8382C20.0545 58.6457 19.8708 58.4876 19.6593 58.3755C13.1592 54.9055 9.72344 49.1081 9.72344 41.6104C9.72344 37.8222 10.5522 34.4724 12.1867 31.6538C13.7119 29.0235 15.9396 26.8487 18.8078 25.1896C19.0417 25.0543 19.2123 24.8316 19.282 24.5706C19.3517 24.3095 19.3149 24.0315 19.1796 23.7976C19.0442 23.5638 18.8216 23.3933 18.5606 23.3236C18.2996 23.2539 18.0216 23.2906 17.7877 23.4258C12.2261 26.6431 8.87168 31.6065 7.94814 37.9106V37.9105C7.85012 37.9016 7.75195 37.8931 7.6542 37.883C7.67197 37.2029 7.54893 36.5165 7.28096 35.8504C6.68992 34.3813 5.47586 33.3209 4.18783 33.149C3.17283 33.0131 2.20691 33.444 1.53658 34.3297C0.564648 35.614 0.723105 36.6304 1.02703 37.2569C1.54014 38.3141 2.85906 39.062 5.04779 39.5321C4.98537 39.6254 4.91905 39.716 4.849 39.8036C3.55578 41.4255 2.03219 41.7842 1.04289 41.8179C0.46375 41.8375 0 42.3025 0 42.882V42.8869C0 43.4586 0.451035 43.9248 1.02211 43.9509C1.09525 43.9543 1.17168 43.9561 1.25125 43.9561C2.50305 43.9561 4.51213 43.4944 6.44232 41.074C6.74707 40.6921 6.99535 40.289 7.18621 39.8726C7.37844 39.8943 7.56314 39.9129 7.74006 39.9293L7.7402 39.9282C7.70456 40.4882 7.68655 41.0492 7.68619 41.6104C7.68619 45.8525 8.6975 49.6348 10.6918 52.8528C12.5307 55.8196 15.1635 58.2488 18.5196 60.0756L19.9046 67.2692C20.1273 68.4461 21.1583 69.3003 22.3561 69.3003H27.1668C28.3646 69.3003 29.3956 68.4461 29.6183 67.2692L30.3224 63.5494C31.7848 63.7043 33.2988 63.7828 34.8294 63.7828C36.9294 63.7828 39.0269 63.6365 41.0711 63.3477L41.8134 67.2695C42.0362 68.4464 43.0672 69.3005 44.2649 69.3005H49.0756C50.2734 69.3005 51.3044 68.4462 51.5272 67.2689L52.9678 59.6413C57.0377 57.4892 60.1054 54.6621 62.0875 51.2365C62.2304 50.9896 62.4504 50.8084 62.7069 50.7263L67.3263 49.2465C68.1037 48.9994 68.782 48.5109 69.2628 47.852C69.7437 47.1931 70.0019 46.398 70 45.5823V40.8279C70.0019 40.0123 69.7437 39.2173 69.2629 38.5584C68.782 37.8996 68.1037 37.4112 67.3263 37.1642ZM57.5966 25.0568C57.2045 28.4099 56.1527 31.2783 55.0959 31.8768C53.8947 32.5573 51.1213 32.6887 49.0391 31.1655C46.9544 29.6405 46.2606 26.8982 47.0323 23.235C47.1099 22.8671 47.3713 22.5487 47.7315 22.3838C52.8317 20.0492 55.7721 19.2856 56.8645 19.2856C57.0294 19.2856 57.1521 19.3029 57.2339 19.3349C57.562 19.6847 57.9924 21.6727 57.5966 25.0568ZM2.86029 36.3672C2.75488 36.1498 3.00371 35.7677 3.16148 35.5591C3.41154 35.2288 3.64191 35.1612 3.81596 35.1612C3.85273 35.1612 3.88705 35.1642 3.9185 35.1685C4.38689 35.231 5.04314 35.7464 5.39082 36.6106C5.51268 36.9174 5.58464 37.2417 5.60396 37.5713C4.19371 37.2791 3.09805 36.8579 2.86029 36.3672Z" fill="black"/>
<path d="M32.5278 13.4361V9.79059C33.7849 9.88041 34.252 10.455 34.6829 10.455C35.2217 10.455 35.4731 9.77268 35.4731 9.43143C35.4731 8.55137 33.749 8.1743 32.5278 8.13834V7.65326C32.5278 7.43779 32.2583 7.24023 31.989 7.24023C31.6836 7.24023 31.4681 7.43779 31.4681 7.65326V8.17402C29.762 8.35367 28.0559 9.25164 28.0559 11.5145C28.0559 13.8133 29.8518 14.4598 31.4681 15.0344V19.2548C29.6362 19.1111 29.1514 17.854 28.5587 17.854C28.1097 17.854 27.7327 18.4467 27.7327 18.8777C27.7327 19.7577 29.2412 20.9609 31.4681 20.9969V21.5536C31.4681 21.7691 31.6837 21.9666 31.989 21.9666C32.2585 21.9666 32.5278 21.7691 32.5278 21.5536V20.943C34.4674 20.6735 35.7963 19.4524 35.7963 17.2434C35.7963 14.8011 34.0902 14.0107 32.5278 13.4361ZM31.5758 13.0949C30.624 12.7358 29.8518 12.3587 29.8518 11.3351C29.8518 10.4012 30.5701 9.95219 31.5758 9.82654V13.0949ZM32.4199 19.2188V15.4296C33.2999 15.8066 34.0003 16.3095 34.0003 17.4408C34.0003 18.4647 33.3897 19.0393 32.4199 19.2188Z" fill="black"/>
</g>
<defs>
<clipPath id="clip0_81_1074">
<rect width="70" height="70" fill="white"/>
</clipPath>
</defs>
</svg>
