<svg width="70" height="70" viewBox="0 0 70 70" fill="none" xmlns="http://www.w3.org/2000/svg">
<g clip-path="url(#clip0_81_1086)">
<path d="M31.9922 53.5939H21.6016C21.384 53.5939 21.1754 53.6803 21.0215 53.8342C20.8677 53.988 20.7813 54.1967 20.7813 54.4142C20.7813 54.6318 20.8677 54.8404 21.0215 54.9943C21.1754 55.1481 21.384 55.2345 21.6016 55.2345H31.9922C32.2098 55.2345 32.4184 55.1481 32.5723 54.9943C32.7261 54.8404 32.8125 54.6318 32.8125 54.4142C32.8125 54.1967 32.7261 53.988 32.5723 53.8342C32.4184 53.6803 32.2098 53.5939 31.9922 53.5939ZM22.2507 37.5781C22.8623 38.1966 23.6924 38.5498 24.5621 38.5616C25.4317 38.5733 26.2711 38.2427 26.8992 37.641L35.449 29.5369C35.7712 29.2372 36.0307 28.8766 36.2128 28.476C36.3948 28.0754 36.4956 27.6427 36.5095 27.2029C36.5233 26.7631 36.4499 26.325 36.2934 25.9137C36.137 25.5024 35.9006 25.1263 35.5979 24.8069C35.2953 24.4875 34.9323 24.2312 34.5301 24.0529C34.1278 23.8746 33.6942 23.7777 33.2543 23.7679C32.8144 23.7581 32.3769 23.8356 31.9671 23.9958C31.5573 24.156 31.1833 24.3958 30.8668 24.7014L24.6679 30.5759L22.7938 28.7013C22.485 28.3901 22.1177 28.1429 21.7132 27.974C21.3086 27.8051 20.8747 27.7177 20.4363 27.7168C19.9979 27.716 19.5636 27.8017 19.1584 27.969C18.7532 28.1364 18.385 28.3821 18.075 28.6921C17.765 29.0021 17.5192 29.3703 17.3518 29.7755C17.1843 30.1806 17.0986 30.6149 17.0994 31.0533C17.1002 31.4917 17.1875 31.9257 17.3564 32.3303C17.5253 32.7348 17.7724 33.1021 18.0836 33.4109L22.2507 37.5781ZM19.2429 29.8617C19.5649 29.5542 19.9929 29.3826 20.4381 29.3826C20.8833 29.3826 21.3114 29.5542 21.6333 29.8617L24.0724 32.3002C24.2234 32.4514 24.4275 32.5376 24.6412 32.5406C24.8549 32.5435 25.0612 32.463 25.2164 32.3161L31.9977 25.8925C32.1582 25.7367 32.348 25.6143 32.5561 25.5324C32.7642 25.4506 32.9865 25.4108 33.2101 25.4155C33.4337 25.4201 33.6542 25.4692 33.8587 25.5597C34.0632 25.6502 34.2477 25.7804 34.4015 25.9427C34.5553 26.1051 34.6754 26.2964 34.7547 26.5055C34.8341 26.7146 34.8711 26.9374 34.8637 27.1609C34.8563 27.3844 34.8046 27.6043 34.7116 27.8077C34.6186 28.0111 34.4861 28.194 34.3219 28.3458L25.7682 36.4499C25.4495 36.7546 25.0239 36.9219 24.583 36.916C24.1421 36.9101 23.7211 36.7313 23.4107 36.4182L19.2435 32.251C18.9266 31.9338 18.7486 31.5037 18.7486 31.0553C18.7486 30.6069 18.9266 30.1768 19.2435 29.8595L19.2429 29.8617Z" fill="black"/>
<path d="M15.0392 62.3438H23.8067C27.2547 69.8808 36.8403 68.8423 39.2832 68.4414C40.3163 69.4903 41.3548 70 42.4223 70H61.891C62.7017 69.9993 63.494 69.7583 64.1679 69.3076C64.8417 68.8569 65.3668 68.2166 65.677 67.4676C65.9871 66.7185 66.0683 65.8944 65.9104 65.0993C65.7524 64.3041 65.3624 63.5736 64.7895 63L54.6586 52.8642C53.9559 42.9844 52.8993 40.2385 49.7657 36.6067V26.8877C49.7773 26.3784 49.6868 25.8719 49.4994 25.3982C49.3121 24.9245 49.0317 24.4931 48.6749 24.1295C48.318 23.766 47.892 23.4776 47.4218 23.2814C46.9517 23.0852 46.447 22.9852 45.9376 22.9873V7.38281C45.9354 5.42544 45.1569 3.54885 43.7728 2.16477C42.3887 0.780698 40.5122 0.00217125 38.5548 0L15.0392 0C13.0818 0.00217125 11.2052 0.780698 9.82111 2.16477C8.43704 3.54885 7.65851 5.42544 7.65634 7.38281V17.9665C6.86719 17.9635 6.09949 18.2233 5.47423 18.7047C4.84897 19.1862 4.40171 19.8621 4.20293 20.6258C4.00416 21.3895 4.06517 22.1976 4.37635 22.9228C4.68753 23.6481 5.2312 24.2491 5.92165 24.6313C5.354 24.9232 4.87557 25.3628 4.53674 25.9038C4.19791 26.4447 4.01122 27.0671 3.99633 27.7052C3.98144 28.3434 4.1389 28.9737 4.45213 29.5299C4.76536 30.0861 5.22276 30.5475 5.77619 30.8656L6.0179 31.0051C5.41297 31.3147 4.91018 31.7923 4.56978 32.3805C4.10297 33.1979 3.97776 34.1667 4.2214 35.076C4.46503 35.9853 5.0578 36.7616 5.87079 37.2362L5.99822 37.3095C5.42941 37.6003 4.94963 38.0392 4.60949 38.58C4.26934 39.1208 4.08144 39.7433 4.06559 40.382C4.04974 41.0206 4.20654 41.6517 4.51945 42.2087C4.83235 42.7657 5.28977 43.2279 5.84345 43.5466L7.65634 44.5933V54.9609C7.65851 56.9183 8.43704 58.7949 9.82111 60.179C11.2052 61.5631 13.0818 62.3416 15.0392 62.3438ZM48.1251 26.9062V36.9141C48.1252 37.1131 48.1977 37.3054 48.3291 37.4549C51.2374 40.7701 52.3213 42.8597 53.0437 53.2842C53.0574 53.4817 53.1421 53.6676 53.2821 53.8076L63.6323 64.1583C63.9764 64.5024 64.2108 64.9409 64.3058 65.4182C64.4007 65.8955 64.3521 66.3903 64.1659 66.84C63.9797 67.2896 63.6643 67.674 63.2597 67.9444C62.8551 68.2149 62.3794 68.3593 61.8927 68.3594H42.5278C41.7885 68.3895 41.025 67.9481 40.1899 67.0097C40.095 66.9031 39.9739 66.8231 39.8385 66.7776C39.7032 66.7321 39.5584 66.7228 39.4183 66.7505C38.3306 66.9648 29.1759 68.5617 25.648 62.3432H38.5548C38.8595 62.341 39.1638 62.3197 39.4659 62.2792C39.6502 62.8296 39.8714 63.367 40.1281 63.8876C40.226 64.0819 40.397 64.2295 40.6036 64.2977C40.8102 64.366 41.0355 64.3494 41.2298 64.2515C41.4242 64.1537 41.5717 63.9827 41.64 63.7761C41.7082 63.5695 41.6916 63.3442 41.5938 63.1498C38.8156 57.633 40.9572 50.4257 43.6347 45.9298C43.7101 45.8031 43.75 45.6584 43.7501 45.5109V26.8291C43.7552 26.5419 43.8167 26.2584 43.9314 25.995C44.046 25.7315 44.2113 25.4932 44.4181 25.2936C44.6248 25.0941 44.8688 24.9372 45.1361 24.832C45.4034 24.7267 45.6889 24.6751 45.9762 24.6802C46.2634 24.6853 46.5469 24.7469 46.8103 24.8615C47.0738 24.9761 47.3121 25.1415 47.5117 25.3482C47.7112 25.5549 47.8681 25.7989 47.9733 26.0662C48.0786 26.3335 48.1302 26.619 48.1251 26.9062ZM35.0608 1.64062L33.9244 3.75758C33.6763 4.25669 33.2977 4.67932 32.8288 4.9806C32.3599 5.28188 31.8182 5.45056 31.2611 5.46875H21.9123C21.3554 5.45031 20.8139 5.28151 20.3452 4.98025C19.8765 4.67898 19.4981 4.25649 19.2501 3.75758L18.1131 1.64062H35.0608ZM9.29697 7.38281C9.2987 5.86042 9.90424 4.40088 10.9807 3.32439C12.0572 2.2479 13.5168 1.64236 15.0392 1.64062H16.2516L17.8042 4.53305C18.1917 5.29401 18.7785 5.93553 19.502 6.38924C20.2255 6.84296 21.0585 7.09184 21.9123 7.10938H31.2638C32.1177 7.09176 32.9508 6.84285 33.6743 6.38915C34.3978 5.93546 34.9848 5.29397 35.3725 4.53305L36.9218 1.64062H38.5548C40.0772 1.64236 41.5367 2.2479 42.6132 3.32439C43.6897 4.40088 44.2952 5.86042 44.297 7.38281V23.345C43.6405 23.651 43.0855 24.1388 42.6977 24.7506C42.31 25.3624 42.1059 26.0726 42.1095 26.7969V45.2873C39.7579 49.3221 37.8663 55.3104 39.018 60.6769C38.8627 60.69 38.7074 60.7031 38.5548 60.7031H15.0392C13.5168 60.7014 12.0572 60.0959 10.9807 59.0194C9.90424 57.9429 9.2987 56.4833 9.29697 54.9609V45.5405C9.29697 45.5405 10.1889 46.0518 10.4842 46.2257C10.8888 46.4665 11.3371 46.6246 11.8032 46.6907C12.2694 46.7569 12.744 46.7297 13.1995 46.6109C13.6551 46.4921 14.0825 46.284 14.457 45.9987C14.8314 45.7134 15.1455 45.3565 15.3809 44.9488C15.6163 44.5411 15.7684 44.0907 15.8283 43.6237C15.8883 43.1567 15.8548 42.6825 15.73 42.2286C15.6051 41.7747 15.3913 41.3501 15.101 40.9794C14.8108 40.6088 14.4497 40.2995 14.0389 40.0695L13.9142 39.9973C14.482 39.7053 14.9606 39.2657 15.2998 38.7248C15.639 38.1838 15.8263 37.5615 15.8419 36.9232C15.8575 36.285 15.7009 35.6542 15.3885 35.0974C15.0762 34.5405 14.6196 34.0781 14.0668 33.7586L13.8273 33.6208C14.3985 33.3251 14.8789 32.88 15.217 32.3328C15.5552 31.7857 15.7386 31.157 15.7477 30.5138C15.7567 29.8707 15.591 29.2371 15.2684 28.6806C14.9457 28.1242 14.478 27.6657 13.9153 27.3541C14.4816 27.0609 14.9585 26.6208 15.2962 26.0798C15.6338 25.5389 15.8197 24.9171 15.8345 24.2796C15.8492 23.6421 15.6921 23.0123 15.3798 22.4564C15.0674 21.9005 14.6113 21.4388 14.0592 21.1198L9.41837 18.4401C9.37845 18.4171 9.33744 18.3991 9.29697 18.3777V7.38281ZM5.9829 20.5625C6.23949 20.1257 6.65757 19.8074 7.14686 19.6762C7.63615 19.545 8.15739 19.6116 8.59806 19.8614L13.2388 22.5411C13.4583 22.6659 13.6509 22.8328 13.8055 23.0323C13.9602 23.2318 14.0739 23.4599 14.14 23.7035C14.2061 23.9471 14.2234 24.2014 14.1909 24.4517C14.1584 24.7021 14.0766 24.9435 13.9504 25.1621C13.8242 25.3807 13.656 25.5722 13.4555 25.7255C13.255 25.8788 13.0261 25.991 12.782 26.0555C12.538 26.12 12.2836 26.1356 12.0335 26.1014C11.7834 26.0672 11.5425 25.9839 11.3248 25.8562L6.684 23.1766C6.24632 22.9211 5.92715 22.5032 5.79587 22.0137C5.66459 21.5242 5.73181 21.0027 5.9829 20.5625ZM5.89486 26.8286C6.15044 26.3906 6.56863 26.0712 7.05847 25.9399C7.54831 25.8086 8.07017 25.876 8.51056 26.1275L13.1508 28.8072C13.3702 28.9319 13.5628 29.0989 13.7175 29.2984C13.8721 29.4979 13.9858 29.726 14.052 29.9696C14.1181 30.2132 14.1354 30.4675 14.1029 30.7178C14.0703 30.9681 13.9886 31.2096 13.8624 31.4282C13.7362 31.6468 13.5679 31.8383 13.3674 31.9916C13.1669 32.1449 12.938 32.2571 12.694 32.3216C12.45 32.3861 12.1956 32.4017 11.9455 32.3675C11.6954 32.3333 11.4545 32.25 11.2367 32.1223L6.5965 29.4427C6.15752 29.1884 5.83719 28.7705 5.70568 28.2806C5.57417 27.7906 5.6422 27.2685 5.89486 26.8286ZM5.99056 33.2008C6.24714 32.7641 6.66515 32.4459 7.15434 32.3149C7.64354 32.1838 8.16465 32.2504 8.60517 32.5002L13.2465 35.1799C13.6862 35.4337 14.007 35.8518 14.1385 36.3422C14.2699 36.8326 14.2011 37.3551 13.9473 37.7948C13.8216 38.0125 13.6543 38.2033 13.4549 38.3564C13.2555 38.5094 13.0278 38.6217 12.785 38.6868C12.2946 38.8182 11.7721 38.7494 11.3324 38.4956L6.69111 35.8159C6.25344 35.5602 5.93437 35.142 5.80321 34.6524C5.67204 34.1627 5.73936 33.6411 5.99056 33.2008ZM6.66376 42.1258C6.44432 42.001 6.25173 41.8341 6.09707 41.6346C5.94241 41.4351 5.82874 41.207 5.7626 40.9634C5.69647 40.7197 5.67917 40.4655 5.7117 40.2151C5.74424 39.9648 5.82597 39.7234 5.95218 39.5048C6.0784 39.2862 6.24661 39.0947 6.44713 38.9414C6.64765 38.7881 6.87652 38.6759 7.12056 38.6114C7.3646 38.5469 7.619 38.5312 7.8691 38.5654C8.1192 38.5996 8.36006 38.683 8.57783 38.8106L13.2186 41.4903C13.6583 41.7441 13.9791 42.1622 14.1106 42.6526C14.242 43.143 14.1732 43.6655 13.9194 44.1052C13.6656 44.5449 13.2475 44.8657 12.7571 44.9972C12.2667 45.1286 11.7442 45.0598 11.3045 44.806C10.1512 44.123 6.66376 42.1258 6.66376 42.1258Z" fill="black"/>
</g>
<defs>
<clipPath id="clip0_81_1086">
<rect width="70" height="70" fill="white"/>
</clipPath>
</defs>
</svg>
