<svg width="70" height="70" viewBox="0 0 70 70" fill="none" xmlns="http://www.w3.org/2000/svg">
<g clip-path="url(#clip0_81_1080)">
<path d="M56.808 60.9677L54.1943 53.1255C53.7461 51.7814 52.9449 50.5826 51.8745 49.6544C50.8041 48.7262 49.5039 48.1028 48.1099 47.8495L40.5646 46.4766V45.8918C41.8777 45.1297 43.0203 44.1102 43.9303 42.9032H46.2098C48.0772 42.9032 49.5969 41.3835 49.5969 39.5161V25.9677C49.5969 17.8748 43.0123 11.2903 34.9194 11.2903C26.8265 11.2903 20.242 17.8748 20.242 25.9677V33.871C20.242 36.0477 21.7899 37.8689 23.8425 38.2934C24.4759 41.5382 26.5036 44.284 29.2743 45.8918V46.4766L21.7278 47.8495C20.334 48.1029 19.034 48.7263 17.9637 49.6545C16.8935 50.5827 16.0925 51.7815 15.6446 53.1255L15.193 54.4815L11.3475 50.636C10.9072 50.1956 10.9072 49.4787 11.3475 49.0384L15.8072 44.5798L7.43655 36.2092L2.39655 41.2492C0.903967 42.7418 0.0820312 44.7266 0.0820312 46.8379C0.0820312 48.9492 0.903967 50.9329 2.39655 52.4255L17.6554 67.6844C19.148 69.1769 21.1328 70 23.2441 70C25.3554 70 27.3391 69.1769 28.7967 67.7182L34.2962 62.6794L32.5812 60.9677H56.808ZM47.3388 39.5161C47.3388 40.1394 46.8319 40.6452 46.2098 40.6452H45.2603C45.5913 39.8907 45.8381 39.102 45.9964 38.2934C46.4796 38.1929 46.9244 38.001 47.3388 37.7594V39.5161ZM46.2098 35.8152V31.9268C46.8815 32.3185 47.3388 33.0389 47.3388 33.871C47.3388 34.7031 46.8815 35.4234 46.2098 35.8152ZM23.6291 35.8152C22.9573 35.4234 22.5001 34.7031 22.5001 33.871C22.5001 33.0389 22.9573 32.3185 23.6291 31.9268V35.8152ZM23.6291 28.2258V29.5152C23.2332 29.6186 22.8533 29.7759 22.5001 29.9826V25.9677C22.5001 19.1202 28.0719 13.5484 34.9194 13.5484C41.767 13.5484 47.3388 19.1202 47.3388 25.9677V29.9826C46.9858 29.7754 46.6059 29.6182 46.2098 29.5152V28.2258H45.0807C41.7422 28.2258 38.6035 26.9252 36.2415 24.5644L34.9194 23.2423L33.5974 24.5644C31.2354 26.9252 28.0967 28.2258 24.7582 28.2258H23.6291ZM25.8872 36.129V30.441C29.2777 30.1858 32.439 28.7869 34.9194 26.4284C37.3999 28.7869 40.5612 30.1869 43.9517 30.441V36.129C43.9517 37.7752 43.5023 39.3152 42.7301 40.6452H34.9194V42.9032H40.874C39.282 44.3044 37.2012 45.1613 34.9194 45.1613C29.9393 45.1613 25.8872 41.1092 25.8872 36.129ZM38.3065 46.8989V46.9519L34.9194 50.339L31.5323 46.9519V46.8989C32.6027 47.2353 33.7396 47.4194 34.9194 47.4194C36.0993 47.4194 37.2362 47.2353 38.3065 46.8989ZM17.7853 53.839C18.1053 52.8789 18.6775 52.0224 19.442 51.3593C20.2065 50.6961 21.1352 50.2505 22.1309 50.0692L30.0228 48.6353L34.9194 53.5319L39.8149 48.6365L47.7057 50.0703C48.7015 50.2514 49.6303 50.6969 50.3948 51.3601C51.1593 52.0234 51.7315 52.8799 52.0514 53.8402L53.6761 58.7097H30.3232L25.9256 54.3121L21.0391 58.7323C20.6135 59.1602 19.8694 59.1602 19.4427 58.7323L16.9769 56.2664L17.7853 53.839ZM7.43542 39.4021L12.6132 44.5798L11.387 45.806L6.20929 40.6282L7.43542 39.4021ZM27.233 66.0902C26.1672 67.1537 24.7491 67.7419 23.2419 67.7419C21.7346 67.7419 20.3165 67.1537 19.2496 66.0879L3.99074 50.8302C2.92493 49.7644 2.33784 48.3463 2.33784 46.839C2.33784 45.3306 2.92493 43.9126 3.99074 42.8468L4.61171 42.2258L9.78945 47.4035L9.7488 47.4442C8.42896 48.7652 8.42896 50.9137 9.7488 52.2347L17.8451 60.331C18.4853 60.97 19.3354 61.3234 20.2409 61.3234C21.1464 61.3234 21.9965 60.9711 22.5949 60.3705L22.6796 60.2948L27.8811 65.4963L27.233 66.0902ZM29.5475 63.9676L24.3574 58.7774L25.8488 57.4294L31.0299 62.6105L29.5475 63.9676ZM66.5323 0H50.7259C48.8585 0 47.3388 1.51968 47.3388 3.3871V12.4194C47.3388 14.2868 48.8585 15.8065 50.7259 15.8065H53.7415L52.5741 22.6156L63.4693 15.8065H66.5323C68.3998 15.8065 69.9194 14.2868 69.9194 12.4194V3.3871C69.9194 1.51968 68.3998 0 66.5323 0ZM67.6614 12.4194C67.6614 13.0415 67.1544 13.5484 66.5323 13.5484H62.8212L55.6507 18.0295L56.4196 13.5484H50.7259C50.1038 13.5484 49.5969 13.0415 49.5969 12.4194V3.3871C49.5969 2.765 50.1038 2.25806 50.7259 2.25806H66.5323C67.1544 2.25806 67.6614 2.765 67.6614 3.3871V12.4194Z" fill="black"/>
<path d="M51.8548 4.51624H65.4032V6.7743H51.8548V4.51624ZM51.8548 9.03237H60.8871V11.2904H51.8548V9.03237ZM63.1452 9.03237H65.4032V11.2904H63.1452V9.03237ZM34.9194 3.38721C20.1674 3.38721 7.46017 13.5914 4.15662 27.8251L2.0171 24.2585L0.0808105 25.4203L4.04936 32.033L10.6621 28.0645L9.50033 26.1282L6.44065 27.964C9.64033 14.9429 21.3495 5.64527 34.9194 5.64527C37.8853 5.64527 40.8118 6.08559 43.6174 6.95495L44.2858 4.7985C41.2634 3.8614 38.1123 3.38721 34.9194 3.38721ZM69.3707 24.9991L62.7579 21.0306L58.7905 27.6445L60.7268 28.8062L62.7026 25.5129C63.7424 28.5556 64.2742 31.7383 64.2742 35.0001C64.2742 41.7145 61.9484 48.2787 57.7269 53.4824L59.4803 54.9049C64.0281 49.3004 66.5323 42.2304 66.5323 35.0001C66.5323 31.5464 65.9756 28.174 64.8906 24.9449L68.2089 26.9354L69.3707 24.9991Z" fill="black"/>
</g>
<defs>
<clipPath id="clip0_81_1080">
<rect width="70" height="70" fill="white"/>
</clipPath>
</defs>
</svg>
