<svg width="153" height="234" viewBox="0 0 153 234" fill="none" xmlns="http://www.w3.org/2000/svg">
<path d="M45.2708 150.052V136.707C45.2708 130.293 46.0381 124.5 47.5727 119.328C49.2096 114.155 52.0742 109.241 56.1665 104.586C60.2588 99.931 65.9368 95.2759 73.2006 90.6207C80.1575 86.1724 85.2728 82.3448 88.5466 79.1379C91.8205 75.8276 93.9689 72.8276 94.992 70.1379C96.015 67.3448 96.5266 64.5517 96.5266 61.7586C96.5266 57.4138 94.5827 54 90.6951 51.5172C86.8074 48.931 81.7432 47.6379 75.5025 47.6379C67.7272 47.6379 59.2869 49.0345 50.1815 51.8276C41.1785 54.6207 31.5617 58.7586 21.331 64.2414L0 22.0345C11.5607 15.3103 23.8887 9.98276 36.984 6.05172C50.0792 2.01724 64.3511 0 79.7994 0C103.023 0 121.029 5.22414 133.817 15.6724C146.606 26.0172 153 39.6724 153 56.6379C153 64.7069 151.772 72.1034 149.317 78.8276C146.862 85.5517 142.974 91.8621 137.654 97.7586C132.334 103.655 125.326 109.448 116.63 115.138C110.491 119.069 105.632 122.431 102.051 125.224C98.5727 128.017 96.0662 130.707 94.5316 133.293C93.0993 135.879 92.3831 138.828 92.3831 142.138V150.052H45.2708ZM38.672 204.362C38.672 193.397 41.7924 185.69 48.0331 181.241C54.3761 176.793 62.0491 174.569 71.0522 174.569C79.6459 174.569 87.0632 176.793 93.3039 181.241C99.6469 185.69 102.818 193.397 102.818 204.362C102.818 214.81 99.6469 222.362 93.3039 227.017C87.0632 231.672 79.6459 234 71.0522 234C62.0491 234 54.3761 231.672 48.0331 227.017C41.7924 222.362 38.672 214.81 38.672 204.362Z" fill="#F0F0F0"/>
</svg>
