<svg width="57" height="57" viewBox="0 0 57 57" fill="none" xmlns="http://www.w3.org/2000/svg">
<circle cx="28.5" cy="28.5" r="28.5" fill="#F5D531"/>
<path d="M25.6452 32.0312V30.6054C25.6452 29.9202 25.7272 29.3013 25.8911 28.7487C26.066 28.1961 26.3721 27.6711 26.8093 27.1737C27.2465 26.6764 27.8531 26.179 28.6292 25.6817C29.3724 25.2065 29.9189 24.7975 30.2687 24.4549C30.6185 24.1012 30.848 23.7807 30.9573 23.4934C31.0666 23.195 31.1213 22.8966 31.1213 22.5981C31.1213 22.134 30.9136 21.7692 30.4982 21.504C30.0829 21.2277 29.5418 21.0895 28.8751 21.0895C28.0444 21.0895 27.1427 21.2387 26.1699 21.5371C25.208 21.8355 24.1806 22.2776 23.0875 22.8634L20.8086 18.3541C22.0437 17.6357 23.3608 17.0665 24.7599 16.6466C26.1589 16.2155 27.6837 16 29.3342 16C31.8153 16 33.7391 16.5581 35.1053 17.6744C36.4716 18.7796 37.1547 20.2385 37.1547 22.0511C37.1547 22.9131 37.0236 23.7034 36.7613 24.4218C36.4989 25.1401 36.0836 25.8143 35.5152 26.4443C34.9468 27.0743 34.1981 27.6932 33.2691 28.3011C32.6132 28.721 32.0941 29.0802 31.7115 29.3786C31.3399 29.6771 31.0721 29.9644 30.9081 30.2407C30.7551 30.517 30.6786 30.832 30.6786 31.1857V32.0312H25.6452ZM24.9402 37.8336C24.9402 36.662 25.2736 35.8386 25.9403 35.3634C26.618 34.8882 27.4378 34.6505 28.3996 34.6505C29.3178 34.6505 30.1102 34.8882 30.777 35.3634C31.4546 35.8386 31.7935 36.662 31.7935 37.8336C31.7935 38.9498 31.4546 39.7566 30.777 40.254C30.1102 40.7513 29.3178 41 28.3996 41C27.4378 41 26.618 40.7513 25.9403 40.254C25.2736 39.7566 24.9402 38.9498 24.9402 37.8336Z" fill="black"/>
</svg>
