<svg width="125" height="94" viewBox="0 0 125 94" fill="none" xmlns="http://www.w3.org/2000/svg">
<mask id="mask0_201_1696" style="mask-type:alpha" maskUnits="userSpaceOnUse" x="0" y="0" width="125" height="78">
<rect width="125" height="78" transform="matrix(1 0 0 -1 0 78)" fill="white"/>
</mask>
<g mask="url(#mask0_201_1696)">
<path d="M24.9866 4C32.6679 4 38.8308 6.66845 43.4753 12.0053C48.1645 17.3422 50.5091 24.8361 50.5091 34.487C50.5091 44.1379 48.3208 51.6762 43.9443 57.1021C39.5677 62.5279 33.2485 65.2408 24.9866 65.2408C17.4839 65.2408 11.4327 62.5279 6.8328 57.1021C2.2776 51.6762 0 44.1379 0 34.487C0 24.8361 2.14362 17.3422 6.43087 12.0053C10.7628 6.66845 16.948 4 24.9866 4ZM25.2546 20.2775C23.3342 20.2775 21.9945 21.5895 21.2353 24.2135C20.5207 26.793 20.1635 30.3064 20.1635 34.7538C20.1635 39.1123 20.5207 42.6257 21.2353 45.2942C21.9945 47.9182 23.3342 49.2302 25.2546 49.2302C27.1749 49.2302 28.4923 47.9404 29.2069 45.3609C29.9214 42.7369 30.2787 39.2012 30.2787 34.7538C30.2787 30.3064 29.9214 26.793 29.2069 24.2135C28.4923 21.5895 27.1749 20.2775 25.2546 20.2775ZM99.3435 5.40093L45.0161 102.933H25.1206L79.448 5.40093L99.3435 5.40093ZM99.4775 42.8259C107.159 42.8259 113.322 45.4943 117.966 50.8312C122.655 56.1681 125 63.662 125 73.3129C125 82.9193 122.812 90.4354 118.435 95.8612C114.059 101.287 107.739 104 99.4775 104C91.9748 104 85.9235 101.287 81.3237 95.8612C76.7685 90.4354 74.4909 82.9193 74.4909 73.3129C74.4909 63.662 76.6345 56.1681 80.9218 50.8312C85.2537 45.4943 91.4389 42.8259 99.4775 42.8259Z" fill="#F5D531"/>
</g>
<path d="M81.2484 93.4544H52.4345V86.3619L62.1297 76.5143C64.1393 74.4047 65.6963 72.7135 66.8007 71.4405C67.9232 70.1674 68.7108 69.0854 69.1634 68.1943C69.616 67.3032 69.8423 66.3757 69.8423 65.4118C69.8423 64.2298 69.4621 63.375 68.7017 62.8476C67.9413 62.3202 67.0451 62.0566 66.0131 62.0566C64.7639 62.0566 63.4966 62.4203 62.2111 63.1477C60.9438 63.857 59.5045 64.9117 57.8931 66.312L52 59.3832C53.1949 58.3103 54.4623 57.2919 55.802 56.328C57.1418 55.346 58.7259 54.5458 60.5545 53.9275C62.3831 53.3092 64.61 53 67.2352 53C69.9328 53 72.2684 53.4728 74.2418 54.4185C76.2333 55.3642 77.7722 56.6644 78.8585 58.3194C79.9448 59.9561 80.488 61.8201 80.488 63.9115C80.488 66.2211 80.0625 68.2852 79.2116 70.1038C78.3787 71.9042 77.1205 73.7137 75.4367 75.5323C73.753 77.3327 71.6528 79.3786 69.1362 81.67L66.2304 84.2888V84.5615H81.2484V93.4544Z" fill="black"/>
<path d="M114 73.5682C114 76.7689 113.747 79.6332 113.24 82.161C112.733 84.6707 111.918 86.8075 110.795 88.5715C109.691 90.3356 108.225 91.6813 106.396 92.6088C104.567 93.5363 102.322 94 99.661 94C96.3478 94 93.6321 93.1907 91.5138 91.5722C89.3955 89.9355 87.8295 87.5986 86.8156 84.5615C85.8198 81.5063 85.3219 77.8419 85.3219 73.5682C85.3219 69.2582 85.7746 65.5755 86.6798 62.5203C87.6032 59.4469 89.1149 57.0918 91.2151 55.4551C93.3152 53.8184 96.1305 53 99.661 53C102.974 53 105.681 53.8184 107.781 55.4551C109.899 57.0736 111.465 59.4196 112.479 62.493C113.493 65.5482 114 69.24 114 73.5682ZM95.9947 73.5682C95.9947 76.1688 96.0853 78.3511 96.2663 80.1151C96.4655 81.8791 96.8276 83.2067 97.3526 84.0978C97.8958 84.9707 98.6652 85.4072 99.661 85.4072C100.657 85.4072 101.417 84.9707 101.942 84.0978C102.467 83.2067 102.829 81.8882 103.028 80.1424C103.228 78.3784 103.327 76.187 103.327 73.5682C103.327 70.9312 103.228 68.7308 103.028 66.9667C102.829 65.2027 102.467 63.8751 101.942 62.984C101.417 62.0747 100.657 61.6201 99.661 61.6201C98.6652 61.6201 97.8958 62.0747 97.3526 62.984C96.8276 63.8751 96.4655 65.2027 96.2663 66.9667C96.0853 68.7308 95.9947 70.9312 95.9947 73.5682Z" fill="black"/>
</svg>
