<svg width="125" height="94" viewBox="0 0 125 94" fill="none" xmlns="http://www.w3.org/2000/svg">
<path fill-rule="evenodd" clip-rule="evenodd" d="M70.4118 78C73.1236 76.3193 75 72.6973 75 68.5C75 62.701 71.4183 58 67 58C62.5817 58 59 62.701 59 68.5C59 72.6973 60.8764 76.3193 63.5882 78H70.4118Z" fill="white"/>
<mask id="mask0_201_1681" style="mask-type:alpha" maskUnits="userSpaceOnUse" x="0" y="0" width="125" height="78">
<rect width="125" height="78" transform="matrix(1 0 0 -1 0 78)" fill="white"/>
</mask>
<g mask="url(#mask0_201_1681)">
<path d="M24.9866 4C32.6679 4 38.8308 6.66845 43.4753 12.0053C48.1645 17.3422 50.5091 24.8361 50.5091 34.487C50.5091 44.1379 48.3208 51.6762 43.9443 57.1021C39.5677 62.5279 33.2485 65.2408 24.9866 65.2408C17.4839 65.2408 11.4327 62.5279 6.8328 57.1021C2.2776 51.6762 0 44.1379 0 34.487C0 24.8361 2.14362 17.3422 6.43087 12.0053C10.7628 6.66845 16.948 4 24.9866 4ZM25.2546 20.2775C23.3342 20.2775 21.9945 21.5895 21.2353 24.2135C20.5207 26.793 20.1635 30.3064 20.1635 34.7538C20.1635 39.1123 20.5207 42.6257 21.2353 45.2942C21.9945 47.9182 23.3342 49.2302 25.2546 49.2302C27.1749 49.2302 28.4923 47.9404 29.2069 45.3609C29.9214 42.7369 30.2787 39.2012 30.2787 34.7538C30.2787 30.3064 29.9214 26.793 29.2069 24.2135C28.4923 21.5895 27.1749 20.2775 25.2546 20.2775ZM99.3435 5.40093L45.0161 102.933H25.1206L79.448 5.40093L99.3435 5.40093ZM99.4775 42.8259C107.159 42.8259 113.322 45.4943 117.966 50.8312C122.655 56.1681 125 63.662 125 73.3129C125 82.9193 122.812 90.4354 118.435 95.8612C114.059 101.287 107.739 104 99.4775 104C91.9748 104 85.9235 101.287 81.3237 95.8612C76.7685 90.4354 74.4909 82.9193 74.4909 73.3129C74.4909 63.662 76.6345 56.1681 80.9218 50.8312C85.2537 45.4943 91.4389 42.8259 99.4775 42.8259Z" fill="#F5D531"/>
</g>
<path d="M43.4181 93.4544H32.4733V73.7319C32.4733 73.3682 32.4733 72.7044 32.4733 71.7405C32.4733 70.7585 32.4824 69.6764 32.5006 68.4943C32.537 67.3123 32.5825 66.2484 32.637 65.3027C32.164 65.8665 31.7182 66.3484 31.2997 66.7485C30.8993 67.1486 30.5081 67.5214 30.126 67.8669L25.5952 71.6041L20 64.7299L33.7015 53.5729H43.4181V93.4544Z" fill="black"/>
<path d="M81.2474 73.5682C81.2474 76.7689 80.9926 79.6332 80.4832 82.161C79.9737 84.6707 79.1549 86.8075 78.0267 88.5715C76.9168 90.3355 75.4429 91.6813 73.6051 92.6088C71.7673 93.5363 69.511 94 66.8362 94C63.5064 94 60.777 93.1907 58.6481 91.5722C56.5192 89.9355 54.9452 87.5986 53.9262 84.5615C52.9255 81.5063 52.4251 77.8419 52.4251 73.5682C52.4251 69.2582 52.88 65.5755 53.7898 62.5203C54.7178 59.4469 56.2371 57.0918 58.3479 55.4551C60.4586 53.8184 63.288 53 66.8362 53C70.1661 53 72.8864 53.8184 74.9971 55.4551C77.126 57.0736 78.7 59.4196 79.7189 62.493C80.7379 65.5482 81.2474 69.24 81.2474 73.5682ZM63.1516 73.5682C63.1516 76.1688 63.2425 78.3511 63.4245 80.1151C63.6247 81.8791 63.9886 83.2067 64.5163 84.0978C65.0621 84.9707 65.8355 85.4072 66.8362 85.4072C67.837 85.4072 68.6012 84.9707 69.1289 84.0978C69.6566 83.2067 70.0205 81.8882 70.2207 80.1424C70.4208 78.3784 70.5209 76.187 70.5209 73.5682C70.5209 70.9312 70.4208 68.7308 70.2207 66.9667C70.0205 65.2027 69.6566 63.8751 69.1289 62.984C68.6012 62.0747 67.837 61.6201 66.8362 61.6201C65.8355 61.6201 65.0621 62.0747 64.5163 62.984C63.9886 63.8751 63.6247 65.2027 63.4245 66.9667C63.2425 68.7308 63.1516 70.9312 63.1516 73.5682Z" fill="black"/>
<path d="M114 73.5682C114 76.7689 113.745 79.6332 113.236 82.161C112.726 84.6707 111.907 86.8075 110.779 88.5715C109.669 90.3355 108.196 91.6813 106.358 92.6088C104.52 93.5363 102.264 94 99.5889 94C96.259 94 93.5296 93.1907 91.4007 91.5722C89.2718 89.9355 87.6978 87.5986 86.6789 84.5615C85.6781 81.5063 85.1777 77.8419 85.1777 73.5682C85.1777 69.2582 85.6326 65.5755 86.5424 62.5203C87.4704 59.4469 88.9897 57.0918 91.1005 55.4551C93.2112 53.8184 96.0407 53 99.5889 53C102.919 53 105.639 53.8184 107.75 55.4551C109.879 57.0736 111.453 59.4196 112.472 62.493C113.491 65.5482 114 69.24 114 73.5682ZM95.9042 73.5682C95.9042 76.1688 95.9952 78.3511 96.1771 80.1151C96.3773 81.8791 96.7412 83.2067 97.2689 84.0978C97.8148 84.9707 98.5881 85.4072 99.5889 85.4072C100.59 85.4072 101.354 84.9707 101.882 84.0978C102.409 83.2067 102.773 81.8882 102.973 80.1424C103.173 78.3784 103.274 76.187 103.274 73.5682C103.274 70.9312 103.173 68.7308 102.973 66.9667C102.773 65.2027 102.409 63.8751 101.882 62.984C101.354 62.0747 100.59 61.6201 99.5889 61.6201C98.5881 61.6201 97.8148 62.0747 97.2689 62.984C96.7412 63.8751 96.3773 65.2027 96.1771 66.9667C95.9952 68.7308 95.9042 70.9312 95.9042 73.5682Z" fill="black"/>
</svg>
