<svg width="70" height="70" viewBox="0 0 70 70" fill="none" xmlns="http://www.w3.org/2000/svg">
<path d="M62.7286 28.546C65.0601 29.2045 66.5017 30.646 66.9288 33.0131C67 33.3513 67 33.725 67 34.0809C67 42.5881 67 51.0953 67 59.6024C67 62.717 64.9889 64.7281 61.8743 64.7281C44.1659 64.7281 26.4397 64.7281 8.73132 64.7281C5.31422 64.7281 3.05395 62.4856 3.05395 59.0685C3.03615 49.8138 3.08954 40.577 3.00056 31.3401C2.96496 28.3146 4.63792 25.5382 8.35757 25.2178C8.35757 24.9865 8.35757 24.7551 8.35757 24.5059C8.35757 21.3024 8.35757 18.1167 8.35757 14.9132C8.37537 12.119 10.1551 10.3392 12.9493 10.3392C13.8748 10.3392 14.8002 10.3392 15.7613 10.3392C15.8503 9.84089 15.9215 9.36036 16.046 8.89763C16.7046 6.53058 18.7691 5 21.3141 5C30.2128 5 39.1115 5 48.028 5C51.0713 5 54.1147 5 57.158 5C60.4506 5 62.7286 7.27807 62.7464 10.5706C62.7464 16.3013 62.7464 22.0321 62.7464 27.7629C62.7286 27.9942 62.7286 28.2434 62.7286 28.546ZM57.158 62.5746C56.197 61.1864 56.3216 59.6914 56.3216 58.232C56.3216 46.3256 56.3216 34.4191 56.3216 22.5126C56.3216 20.0744 55.0757 18.8464 52.6197 18.8464C48.5619 18.8464 44.4863 18.8464 40.4285 18.8464C38.6487 18.8464 37.6165 19.5583 36.9758 21.2134C36.3351 22.8864 35.7122 24.5771 35.0893 26.2501C34.7155 27.229 34.5197 27.3713 33.4697 27.3713C25.2295 27.3713 16.9893 27.3713 8.76691 27.3713C6.41766 27.3713 5.15404 28.6349 5.15404 31.002C5.15404 40.31 5.15404 49.6181 5.15404 58.9261C5.15404 61.3288 6.39986 62.5746 8.80251 62.5746C24.6244 62.5746 40.4641 62.5746 56.286 62.5746C56.5351 62.5746 56.7843 62.5746 57.158 62.5746ZM51.0001 16.7285C51.0001 16.0522 51.0001 15.4827 51.0001 14.8954C51.0001 13.3114 50.1637 12.4571 48.5797 12.4571C36.6732 12.4571 24.7846 12.4571 12.8781 12.4571C11.3475 12.4571 10.4933 13.3114 10.4933 14.8598C10.4933 18.0989 10.4933 21.338 10.4933 24.5949C10.4933 24.8085 10.5111 25.0221 10.5289 25.2178C10.6356 25.2356 10.689 25.2534 10.7246 25.2534C18.075 25.2534 25.4253 25.2534 32.7756 25.2712C33.1316 25.2712 33.2739 25.1289 33.3807 24.8263C33.9324 23.3313 34.4842 21.8363 35.0537 20.3414C35.9257 18.0455 37.8123 16.7463 40.2861 16.7463C42.9023 16.7463 45.5185 16.7463 48.1526 16.7463C49.0602 16.7285 49.9857 16.7285 51.0001 16.7285ZM17.986 10.3392C18.3063 10.3392 18.5555 10.3392 18.8224 10.3392C28.6822 10.3392 38.542 10.3392 48.4017 10.3392C51.4273 10.3392 53.1358 12.0656 53.1358 15.1089C53.1358 15.6428 53.1358 16.159 53.1358 16.6929C56.8733 17.031 58.5284 19.7896 58.5106 22.9576C58.4217 33.6894 58.475 44.4212 58.475 55.1531C58.475 55.4022 58.475 55.6692 58.475 55.9717C58.6352 55.9184 58.7242 55.9006 58.7954 55.865C60.059 55.1887 60.6107 54.1208 60.6107 52.7148C60.6107 38.7617 60.6107 24.8085 60.6107 10.8731C60.6107 8.4171 59.3827 7.17128 56.9445 7.17128C45.1804 7.17128 33.4163 7.17128 21.6344 7.17128C21.4209 7.17128 21.1895 7.17128 20.9759 7.17128C19.303 7.24247 18.0216 8.59507 17.986 10.3392ZM62.7286 30.8418C62.7286 31.1622 62.7286 31.4291 62.7286 31.6961C62.7286 38.7261 62.7286 45.7738 62.7286 52.8038C62.7286 55.0997 61.6786 56.7904 59.6141 57.8049C59.2581 57.9829 58.8844 58.0896 58.475 58.232C58.475 58.8549 58.4395 59.4778 58.475 60.1007C58.5284 61.1686 59.2581 62.1297 60.2904 62.4144C60.7887 62.5568 61.3404 62.5568 61.8743 62.5568C63.7787 62.5746 64.8643 61.4889 64.8643 59.6024C64.8643 56.2743 64.8643 52.9462 64.8643 49.6181C64.8643 44.4034 64.8643 39.1888 64.8643 33.9742C64.8465 32.4614 64.099 31.3224 62.7286 30.8418Z" fill="black"/>
<path d="M22.6836 59.3711C19.6581 59.3711 16.6503 59.3889 13.6248 59.3711C11.5069 59.3533 9.81611 57.7872 9.51355 55.6515C9.22879 53.676 10.4568 51.7182 12.3967 51.0953C12.8773 50.9352 13.3934 50.864 13.8917 50.864C19.8004 50.8462 25.7092 50.8462 31.6001 50.864C34.1096 50.864 36.0317 52.7327 36.0317 55.1353C36.0317 57.538 34.1096 59.3889 31.6001 59.4067C28.628 59.3889 25.6558 59.3889 22.6836 59.3711C22.6836 59.3889 22.6836 59.3889 22.6836 59.3711ZM22.7548 57.2532C25.6914 57.2532 28.6102 57.2532 31.5467 57.2532C32.9527 57.2532 33.9316 56.3634 33.9316 55.1175C33.9316 53.8717 32.9527 52.9997 31.5467 52.9997C25.6914 52.9997 19.836 52.9997 13.9807 52.9997C12.5747 52.9997 11.5958 53.8895 11.5958 55.1353C11.5958 56.3812 12.5747 57.2532 13.9807 57.271C16.8995 57.2532 19.836 57.2532 22.7548 57.2532Z" fill="black"/>
<path d="M23.2895 16.7285C20.2462 16.7285 17.2028 16.7285 14.1595 16.7285C13.9637 16.7285 13.7501 16.7463 13.5544 16.7107C12.9849 16.6039 12.6289 16.2479 12.6289 15.6606C12.6289 15.0733 12.9671 14.7173 13.5544 14.6106C13.7679 14.575 13.9993 14.5928 14.2129 14.5928C20.2462 14.5928 26.2973 14.5928 32.3306 14.5928C32.5442 14.5928 32.7756 14.575 32.9891 14.6106C33.5586 14.7173 33.9146 15.0733 33.9146 15.6606C33.9146 16.2479 33.5586 16.6039 32.9891 16.7107C32.7934 16.7463 32.5976 16.7285 32.384 16.7285C29.3763 16.7285 26.3329 16.7285 23.2895 16.7285Z" fill="black"/>
<path d="M21.6878 21C19.1783 21 16.6689 21 14.1595 21C13.9637 21 13.7501 21.0178 13.5544 20.9822C12.9849 20.8754 12.6289 20.5373 12.6289 19.9322C12.6289 19.3448 12.9671 18.9889 13.5366 18.8821C13.679 18.8465 13.8391 18.8643 13.9993 18.8643C19.1072 18.8643 24.1972 18.8643 29.3051 18.8643C29.3763 18.8643 29.4296 18.8643 29.5008 18.8643C30.2305 18.8821 30.6933 19.3092 30.7111 19.9144C30.7111 20.5373 30.2483 20.9644 29.5186 20.9822C29.0915 21 28.6822 20.9822 28.255 20.9822C26.0837 21 23.8769 21 21.6878 21Z" fill="black"/>
</svg>
