<svg width="70" height="70" viewBox="0 0 70 70" fill="none" xmlns="http://www.w3.org/2000/svg">
<path d="M33.5631 2C34.7444 2.35261 35.9608 2.61706 37.1068 3.05782C38.2528 3.48094 38.3762 4.3272 37.4947 5.22634C35.908 6.8307 34.3036 8.43505 32.7169 10.0394C32.5582 10.1981 32.3995 10.3744 32.1703 10.6388C33.0519 10.6917 33.8452 10.6741 34.6209 10.7799C39.1343 11.344 42.2372 13.7594 43.9297 17.973C44.3705 19.0661 43.8768 19.7713 42.6956 19.7713C40.4389 19.789 38.1823 19.7713 35.9256 19.7713C35.6964 19.7713 35.4496 19.7713 35.2204 19.7713C35.1675 19.8418 35.1322 19.9124 35.0793 19.9829C35.3438 20.1945 35.6259 20.406 35.8727 20.6352C39.1696 24.0202 40.0863 28.9391 38.1823 33.0822C37.6357 34.2458 36.8247 34.4045 35.908 33.4877C32.6816 30.2966 29.4729 27.0879 26.2642 23.8792C26.1055 23.7205 26.035 23.4561 25.8058 23.315C24.3072 35.286 20.693 46.3931 14.7516 56.8125C15.9152 57.4472 17.0259 58.0643 18.1543 58.6285C18.3658 58.7342 18.6832 58.6814 18.9476 58.6814C35.3085 58.6814 51.6871 58.6814 68.048 58.6814C68.3477 58.6814 68.665 58.6814 69 58.6814C69 59.4571 69 60.1447 69 60.938C53.2385 60.938 37.4947 60.938 21.6274 60.938C23.0202 62.1545 24.3425 63.2123 25.5766 64.3936C26.7931 65.5572 27.9038 66.8089 29.1027 68.0607C28.468 68.5719 27.9391 69.0303 27.322 69.5416C25.4356 67.3026 23.3728 65.2398 21.0633 63.4415C18.7537 61.6432 16.3031 60.0741 13.6057 58.8224C12.7594 60.127 11.9131 61.3964 11.0493 62.7363C10.4146 62.2956 9.83277 61.8901 9.19808 61.4493C9.35675 61.2025 9.48017 60.9733 9.63884 60.7617C15.5802 51.9466 19.7234 42.3381 21.9271 31.9538C22.65 28.5336 23.0202 25.0604 23.4786 21.5872C23.5315 21.1641 23.0202 20.6881 22.7381 20.1592C21.8919 20.8997 21.2748 21.4638 21.169 22.6098C20.0054 35.8678 15.1571 47.6448 6.71221 57.9233C6.64169 58.0114 6.57117 58.0819 6.43013 58.223C5.86596 57.747 5.31942 57.2886 4.73762 56.8125C4.93155 56.5305 5.10786 56.266 5.35468 55.8958C3.97952 55.6489 2.71014 55.4021 1.37024 55.1553C1.44076 54.4501 1.49365 53.7625 1.5818 52.9163C2.72777 53.1102 3.82084 53.3041 4.93155 53.4981C4.94918 53.4981 4.96681 53.5157 5.00207 53.5157C5.65439 53.6391 6.39487 54.027 6.90614 53.833C7.43505 53.6215 7.7524 52.8457 8.12263 52.3168C13.5351 44.489 16.9907 35.8854 18.4363 26.4708C18.5421 25.8009 18.6127 25.1133 18.7008 24.4257C18.7008 24.3728 18.6832 24.3199 18.6479 24.1789C18.4363 24.3728 18.26 24.5315 18.1014 24.6902C15.1747 27.5992 12.2481 30.4905 9.33912 33.3995C8.29894 34.4397 7.5232 34.2987 6.92377 32.9588C5.17838 29.0625 5.97174 24.1965 8.89837 21.076C9.25097 20.6881 9.69173 20.3708 10.0972 20.0181C10.062 19.9476 10.0267 19.8771 9.99144 19.8066C9.76225 19.789 9.55069 19.7713 9.32149 19.7713C7.10008 19.7713 4.89629 19.7537 2.67488 19.7713C1.84625 19.7713 1.28208 19.5245 1 18.7488C1 18.6606 1 18.5725 1 18.4843C1.01763 18.4667 1.03526 18.4491 1.05289 18.4314C2.49857 13.7594 6.9943 10.4978 12.16 10.6565C12.4068 10.6565 12.6536 10.6565 13.0591 10.6565C12.777 10.3568 12.6184 10.1805 12.4421 10.0041C10.8553 8.39979 9.25097 6.81307 7.68188 5.20871C6.80036 4.30957 6.92378 3.46331 8.12263 3.02256C9.19808 2.59943 10.3617 2.33498 11.5076 2C12.1776 2 12.8299 2 13.4999 2C13.9054 2.07052 14.3285 2.14104 14.734 2.21156C17.6959 2.72284 19.9349 4.41535 21.8566 6.61913C22.1034 6.88359 22.3326 7.16567 22.5971 7.44776C22.8792 7.13041 23.1084 6.84833 23.3376 6.58387C24.7127 5.06767 26.176 3.62199 28.133 2.91677C29.2437 2.51128 30.4249 2.29971 31.5709 2C32.2409 2 32.8932 2 33.5631 2ZM36.5779 30.9313C37.5476 26.9116 36.1724 23.8439 33.3339 21.2523C30.8481 18.9603 28.0096 18.1846 24.8185 18.978C28.6972 22.9271 32.5758 26.8763 36.5779 30.9313ZM8.72206 31.0194C12.6712 26.9997 16.5499 23.0329 20.4286 19.0837C18.0309 18.2199 14.258 18.5548 10.9787 22.0633C8.38709 24.8312 7.7524 28.4983 8.72206 31.0194ZM22.8263 15.4872C22.9673 15.3461 23.0379 15.2756 23.0907 15.1875C24.3425 13.5126 25.9292 12.2785 27.8509 11.4851C28.0977 11.3793 28.3446 11.1854 28.5385 10.9914C30.4778 9.05211 32.4172 7.09515 34.3565 5.15582C34.4975 5.01478 34.6386 4.83848 34.8501 4.60928C31.6238 3.85118 28.8911 4.52113 26.4934 6.61913C23.8312 8.94633 22.2269 11.6967 22.8263 15.4872ZM20.2699 16.6331C17.6959 13.1952 14.2227 12.5782 10.4146 13.0542C7.61136 13.4068 5.47809 14.9054 3.92663 17.4794C4.31449 17.4794 4.56132 17.4794 4.79051 17.4794C6.65932 17.4794 8.5105 17.4618 10.3793 17.4794C11.966 17.497 13.5704 17.5675 15.0513 16.8271C15.1219 16.7918 15.2276 16.7742 15.2982 16.7565C16.9025 16.351 18.5245 16.3158 20.2699 16.6331ZM24.8714 16.6331C27.3044 16.1924 29.5082 16.4392 31.6238 17.3736C31.853 17.4794 32.1351 17.4618 32.3995 17.4618C35.0793 17.4618 37.7591 17.4618 40.4389 17.4618C40.6505 17.4618 40.8621 17.4441 41.197 17.4265C39.6632 14.8701 37.5123 13.3715 34.6738 13.0366C30.901 12.5958 27.4454 13.2129 24.8714 16.6331ZM20.3228 13.2658C20.5872 12.2079 20.8693 11.1677 21.0985 10.1276C21.1514 9.84548 21.1514 9.42235 20.9927 9.24605C20.076 8.20586 19.1945 7.09515 18.119 6.21364C15.8623 4.36246 13.2354 3.88644 10.2912 4.60928C10.5027 4.83848 10.6261 4.99715 10.7848 5.15582C12.1952 6.56624 13.7114 7.88851 14.9632 9.42235C16.4618 11.203 18.5774 11.9787 20.3228 13.2658Z" fill="black"/>
<path d="M50.9282 56.3895C44.687 56.4071 39.5743 51.3296 39.5743 45.0885C39.5566 38.865 44.6694 33.7522 50.8929 33.7522C57.134 33.7346 62.2292 38.8121 62.2468 45.0532C62.2644 51.2943 57.1869 56.3718 50.9282 56.3895ZM50.9105 54.1328C55.8999 54.1328 59.9549 50.1131 59.9725 45.1061C60.0078 40.1167 55.8999 36.0089 50.8929 36.0265C45.8859 36.0265 41.7957 40.1344 41.8133 45.1237C41.8662 50.0955 45.9212 54.1328 50.9105 54.1328Z" fill="black"/>
<path d="M39.6094 65.4338C39.6094 64.6933 39.6094 63.9881 39.6094 63.2477C47.1551 63.2477 54.648 63.2477 62.2114 63.2477C62.2114 63.9705 62.2114 64.6757 62.2114 65.4338C54.6656 65.4338 47.1551 65.4338 39.6094 65.4338Z" fill="black"/>
<path d="M44.4766 69.9824C44.4766 69.2243 44.4766 68.5367 44.4766 67.7963C48.7784 67.7963 53.0449 67.7963 57.329 67.7963C57.329 68.5367 57.329 69.2243 57.329 69.9824C53.0625 69.9824 48.796 69.9824 44.4766 69.9824Z" fill="black"/>
<path d="M7.875 67.708C7.875 66.9499 7.875 66.2447 7.875 65.5219C8.61547 65.5219 9.30305 65.5219 10.0612 65.5219C10.0612 66.2447 10.0612 66.9675 10.0612 67.708C9.33831 67.708 8.6331 67.708 7.875 67.708Z" fill="black"/>
<path d="M14.6992 65.416C14.6992 64.6755 14.6992 63.988 14.6992 63.2122C15.3515 63.2122 15.951 63.1946 16.568 63.2299C16.6914 63.2475 16.903 63.4767 16.9206 63.6354C16.9559 64.1995 16.9383 64.7813 16.9383 65.416C16.1802 65.416 15.475 65.416 14.6992 65.416Z" fill="black"/>
</svg>
