<svg width="70" height="70" viewBox="0 0 70 70" fill="none" xmlns="http://www.w3.org/2000/svg">
<path d="M42.2601 19.9863C42.2429 19.9863 42.2086 19.9863 42.1914 19.9863C30.9328 19.9863 21.7509 29.151 21.6994 40.4439C21.6479 51.7711 30.8299 61.0217 42.1742 61.0732C42.2086 61.0732 42.2429 61.0732 42.2772 61.0732C47.7006 61.0732 52.815 58.9622 56.6937 55.1006C60.6067 51.2219 62.7692 46.056 62.7863 40.564C62.7863 29.254 53.5873 20.0206 42.2601 19.9863ZM42.2429 58.7391C42.2257 58.7391 42.2257 58.7391 42.2086 58.7391C37.3516 58.7219 32.7692 56.8169 29.3367 53.3501C25.8871 49.8833 24.0164 45.2837 24.0335 40.4267C24.085 30.4382 32.2372 22.3204 42.2086 22.3204C42.2257 22.3204 42.2429 22.3204 42.2601 22.3204C47.1514 22.3375 51.7337 24.2425 55.1491 27.6922C58.5815 31.1419 60.4523 35.7242 60.4351 40.5984C60.4008 50.6041 52.2314 58.7391 42.2429 58.7391Z" fill="black"/>
<path d="M51.0993 33.2871L52.1634 32.2231C52.3178 32.0858 52.4551 31.9313 52.5753 31.7597C52.8842 31.3306 52.8327 30.7128 52.4551 30.318C52.0776 29.9233 51.4769 29.8546 51.0306 30.1464C50.8419 30.2665 50.6874 30.421 50.5329 30.5926L50.224 30.9016C48.3705 32.7551 46.4483 34.6601 44.5776 36.548C44.303 36.8226 44.0455 36.9599 43.5993 36.7883C42.7069 36.445 41.8144 36.445 40.922 36.7883C40.4586 36.9599 40.2011 36.8226 39.9265 36.548C39.24 35.8443 38.5192 35.1235 37.8327 34.437L37.5753 34.1796C37.1977 33.802 36.8201 33.6132 36.4597 33.6132C36.1851 33.6132 35.9277 33.7162 35.7217 33.9393C35.4815 34.1624 35.3785 34.4199 35.3613 34.6945C35.3613 35.0549 35.5501 35.4324 35.9105 35.7929L36.3053 36.1876C36.9231 36.8226 37.5753 37.4748 38.2275 38.0926C38.605 38.4359 38.6737 38.762 38.5021 39.2425C38.0902 40.461 38.2789 41.7826 39.0341 42.8295C39.7892 43.8764 40.9563 44.4771 42.2435 44.4771C42.2606 44.4771 42.2606 44.4771 42.2778 44.4771C43.565 44.4771 44.732 43.8592 45.4872 42.7951C46.2252 41.7482 46.4139 40.461 46.0192 39.2597C45.8304 38.6933 45.9849 38.4015 46.3281 38.0583C47.9071 36.4965 49.5375 34.8661 51.0993 33.2871ZM42.2435 42.1601C41.7972 42.1601 41.4025 41.9885 41.0764 41.6796C40.7503 41.3707 40.5787 40.9416 40.5787 40.4954C40.5787 40.0491 40.7503 39.6372 41.0593 39.3455C41.3682 39.0366 41.7972 38.8821 42.2435 38.8821C42.6897 38.8821 43.1016 39.0709 43.4105 39.3798C43.7194 39.6887 43.8739 40.1178 43.8567 40.564C43.8567 41.4393 43.1188 42.1601 42.2435 42.1601Z" fill="black"/>
<path d="M43.4106 26.6796C43.4106 26.5252 43.4106 26.3879 43.4106 26.2334C43.3763 25.5641 42.9473 25.1178 42.3294 25.1007C42.3123 25.1007 42.2779 25.1007 42.2608 25.1007C41.6601 25.1007 41.1795 25.5126 41.1109 26.0961C41.0594 26.611 41.0594 27.143 41.1109 27.6407C41.1795 28.2414 41.6944 28.6705 42.3294 28.6361C42.9301 28.6018 43.3592 28.1556 43.3935 27.5377C43.4106 27.4004 43.3935 27.246 43.3935 27.0915C43.3935 27.0229 43.3935 26.9542 43.3935 26.8856V26.7139C43.4106 26.6968 43.4106 26.6968 43.4106 26.6796Z" fill="black"/>
<path d="M56.0947 41.6968C56.232 41.6968 56.3522 41.6968 56.4895 41.6968C57.1931 41.6453 57.6909 41.1476 57.6737 40.5126C57.6565 39.8604 57.1588 39.397 56.438 39.3798C55.9574 39.3627 55.597 39.3627 55.2538 39.3798C54.6016 39.4142 54.1554 39.8432 54.1211 40.4611C54.0867 41.1133 54.5158 41.611 55.1851 41.6796C55.3396 41.6968 55.4941 41.6968 55.6657 41.6796C55.7515 41.6796 55.8201 41.6796 55.906 41.6796H56.0776V41.6968C56.0776 41.6968 56.0776 41.6968 56.0947 41.6968Z" fill="black"/>
<path d="M43.3771 53.9851C43.3771 53.9679 43.3771 53.9507 43.3771 53.9507C43.3771 53.7963 43.3771 53.659 43.3771 53.5217C43.3084 52.8695 42.8279 52.4061 42.2272 52.4061C42.21 52.4061 42.21 52.4061 42.1929 52.4061C41.5579 52.4233 41.0945 52.9038 41.0773 53.5903C41.0602 54.0537 41.0602 54.4484 41.0773 54.8432C41.1116 55.461 41.575 55.9416 42.1757 55.9759C42.7764 56.0102 43.2913 55.564 43.3771 54.9462C43.3943 54.7745 43.3943 54.6201 43.3943 54.4313C43.3943 54.3455 43.3943 54.2597 43.3943 54.1738L43.3771 53.9851Z" fill="black"/>
<path d="M30.3334 40.4439C30.3163 39.8776 29.9215 39.4485 29.3723 39.3798C29.2007 39.3627 29.0291 39.3455 28.8403 39.3455C28.806 39.3455 28.7888 39.3455 28.7545 39.3455L28.5829 39.3627C28.4971 39.3627 28.4284 39.3627 28.3426 39.3627C28.2568 39.3627 28.1881 39.3627 28.1195 39.3627C28.0337 39.3627 27.9479 39.3627 27.862 39.3798C27.2442 39.4313 26.798 39.8776 26.7636 40.4611C26.7293 41.0618 27.1584 41.5766 27.7247 41.6281C28.3254 41.6968 28.9261 41.6796 29.4753 41.5938C30.0245 41.508 30.3678 41.0446 30.3334 40.4439Z" fill="black"/>
<path d="M7.42112 49.9004C7.62707 49.9176 7.85018 49.9176 8.05613 49.9176H8.12478C8.77695 49.9176 9.42912 49.9176 10.0813 49.9176C12.0893 49.9176 14.1488 49.9176 16.1911 49.9004C16.2083 49.9004 16.2083 49.9004 16.2255 49.9004C16.8948 49.9004 17.2209 50.1235 17.4612 50.7414C19.984 56.937 24.738 61.9141 30.8479 64.7631L30.8822 64.7803C31.0195 64.9004 31.174 64.9862 31.3456 65.072C34.246 66.342 37.2666 67.08 40.3044 67.2517C40.6305 67.2688 40.9909 67.286 41.3856 67.286C41.8318 67.3031 42.2781 67.3031 42.7243 67.3031H43.0675C43.4966 67.3031 43.9085 67.3031 44.3376 67.3031L48.0103 66.7368L48.817 66.4965C51.46 65.8272 53.9829 64.7459 56.3341 63.2871C56.5057 63.1842 56.6602 63.064 56.7975 62.9439L56.8147 62.9267C59.9554 60.9359 62.5469 58.3443 64.5206 55.2551L64.5378 55.2208C64.6407 55.1178 64.7266 54.9977 64.8124 54.8775C66.5114 52.2002 67.6957 49.334 68.3307 46.3478C68.5195 45.4382 68.6739 44.5114 68.8112 43.6189C68.8799 43.2071 68.9314 42.7952 69 42.3833V38.6762L68.9314 38.1613C68.8799 37.7837 68.8284 37.4233 68.7597 37.0457C67.1979 27.0915 61.7746 19.9519 52.627 15.8329C51.6316 15.3867 50.619 15.0606 49.5378 14.7174C49.0401 14.5629 48.5252 14.3913 48.0275 14.2197L47.9073 14.1853V14.0652C47.9073 13.8078 47.9073 13.5675 47.9073 13.3101C47.9073 12.675 47.9245 12.0057 47.8902 11.3364C47.873 10.8215 48.1133 10.6156 48.508 10.4611C50.4646 9.70594 51.6316 7.74942 51.3055 5.7929C50.9623 3.59611 49.2632 2.08581 47.1007 2.05149C43.1533 1.98284 40.1328 1.98284 37.3009 2.05149C35.928 2.08581 34.6751 2.72082 33.8685 3.81922C33.0618 4.91762 32.8216 6.29061 33.1991 7.59496C33.6453 9.12242 34.6751 10.135 36.357 10.667L36.4772 10.7014V11.5595C36.4772 12.2288 36.4772 12.8982 36.4772 13.5675C36.4772 13.7048 36.4772 13.8421 36.46 13.9794C36.46 14.048 36.46 14.1167 36.4428 14.1682V14.2883L36.3227 14.3226C36.254 14.3398 36.2026 14.357 36.1511 14.3913C36.0309 14.4256 35.9108 14.4771 35.7907 14.5114C30.0756 15.9359 25.2357 18.9908 21.4428 23.6075C21.0996 24.0194 20.7563 24.1911 20.2071 24.1911H20.19C17.2724 24.1739 14.3547 24.1739 11.5058 24.1911C10.6477 24.1911 10.0985 24.6544 10.0985 25.3581C10.0985 26.0618 10.6477 26.508 11.5058 26.508C12.8101 26.508 14.0973 26.508 15.4017 26.508C16.3799 26.508 17.341 26.508 18.3193 26.508C18.4737 26.508 18.6282 26.5251 18.7483 26.5251C18.7998 26.5251 18.8685 26.5251 18.92 26.5423L19.1774 26.5595L19.0744 26.7826C18.8856 27.2116 18.6969 27.6235 18.5081 28.0526C18.0104 29.1682 17.5298 30.2322 17.0836 31.3135C16.8605 31.8283 16.603 32.0171 16.071 32.0171C12.484 32 8.82844 32 5.29297 32H2.71861H2.59847C2.39252 32 2.20373 32 1.99778 32.0171C1.44858 32.0858 1.05385 32.5148 1.00236 33.064C0.968035 33.6132 1.31128 34.111 1.82616 34.2482C2.10076 34.3169 2.42684 34.3341 2.71861 34.3341C6.04812 34.3341 9.37764 34.3341 12.7072 34.3341H16.0538L15.3502 39.7917H14.492C13.9943 39.7917 13.5138 39.7917 13.0161 39.7917C11.8319 39.7917 10.6133 39.7917 9.41196 39.8089C8.7083 39.8089 8.21059 40.3066 8.21059 40.9759C8.21059 41.6281 8.72546 42.1258 9.42912 42.1258C10.2872 42.143 11.1625 42.143 12.0035 42.1258C12.3639 42.1258 12.7243 42.1258 13.0847 42.1258H15.3673L16.2426 47.6006H13.8399C11.9177 47.6006 9.99549 47.6006 8.07329 47.6006H7.97032C7.78153 47.6006 7.59274 47.6006 7.42112 47.6178C6.78611 47.7036 6.33988 48.1842 6.35705 48.7849C6.37421 49.3684 6.80327 49.8146 7.42112 49.9004ZM35.3788 6.46224C35.3616 5.89588 35.5675 5.381 35.928 5.00343C36.3227 4.59153 36.9062 4.36842 37.5584 4.36842C40.5103 4.35126 43.5309 4.35126 46.8261 4.36842C47.4954 4.36842 48.0961 4.60869 48.4909 5.02059C48.8513 5.39817 49.0572 5.89588 49.0401 6.44508C49.0229 7.61212 48.0961 8.43592 46.7746 8.45308C45.7106 8.45308 44.6293 8.45308 43.5652 8.45308C43.0675 8.45308 42.587 8.45308 42.0893 8.45308C41.6431 8.45308 41.1968 8.45308 40.7506 8.45308C40.3044 8.45308 39.8582 8.45308 39.4119 8.45308C38.7941 8.45308 38.1762 8.45308 37.5756 8.45308C36.2884 8.41876 35.3959 7.62928 35.3788 6.46224ZM45.5733 10.8387V13.8078H38.8627V10.8387H45.5733ZM20.0527 30.1979C22.7815 24.3112 27.6385 19.8318 33.7312 17.6007C39.6522 15.421 46.071 15.5583 51.8032 17.9782L52.3524 18.2185L52.2323 18.2357C58.9085 21.2219 63.8341 27.0057 65.7735 34.1796C67.7643 41.4908 66.3055 49.1281 61.7918 55.135C59.9382 57.6064 57.7758 59.6315 55.3902 61.1761H55.373C55.3044 61.2105 55.2185 61.262 55.1499 61.3134C53.7597 62.1544 52.3181 62.8752 50.8593 63.4244C48.3707 64.334 45.6247 64.8489 42.7243 64.969C42.69 64.969 42.6385 64.969 42.6041 64.969H42.5183C42.5012 64.969 42.5012 64.969 42.484 64.969C40.8364 64.969 39.1545 64.7974 37.4554 64.4542C30.0412 62.9782 23.8284 58.2757 20.4131 51.5652C16.9978 44.8546 16.8605 37.0629 20.0527 30.1979Z" fill="black"/>
</svg>
