<svg width="70" height="70" viewBox="0 0 70 70" fill="none" xmlns="http://www.w3.org/2000/svg">
<path d="M3 40.0349C3.66793 39.033 4.30246 38.0144 4.98708 37.0459C6.52332 34.9085 7.87587 32.671 9.04475 30.3165C9.31192 29.7655 9.24512 29.3814 8.81097 28.9974C8.5438 28.7636 8.27663 28.5298 8.02616 28.2793C6.84058 27.1606 6.48992 25.8915 7.15785 24.4221C8.14304 22.2847 8.71078 20.0471 9.37871 17.8096C10.6144 13.6684 12.8185 10.1451 16.442 7.65708C18.9468 5.95386 21.7855 5.03546 24.7243 4.51782C28.064 3.95008 31.4203 3.46583 34.7934 3.06507C36.0457 2.91479 37.3315 3.06507 38.6005 3.11517C39.3019 3.14857 39.7193 3.61612 39.6859 4.23395C39.6525 4.86848 39.1683 5.25254 38.4336 5.23584C36.9808 5.23584 35.5114 5.15235 34.0753 5.26924C30.1012 5.5865 26.1938 6.23773 22.3532 7.30642C16.5255 8.95954 13.069 12.9337 11.3992 18.561C10.748 20.7819 10.1802 23.0027 9.17833 25.1067C8.77757 25.9416 8.87776 26.142 9.56239 26.8099C9.92975 27.1773 10.3639 27.4945 10.6645 27.8953C11.4326 28.8972 11.5829 29.9659 10.9984 31.1681C9.57909 34.0736 7.87587 36.8121 5.90549 39.3669C4.8702 40.7028 4.78671 40.5525 6.35634 41.521C6.6736 41.7214 7.02426 41.8717 7.34153 42.0554C9.09484 43.0739 9.59579 44.677 8.72748 46.5305C8.5271 46.9479 8.31003 47.332 8.09295 47.7494C8.61059 48.217 9.21173 48.601 9.61248 49.1187C10.1134 49.7866 9.4622 50.3543 9.17833 50.9221C9.31192 51.0056 9.37871 51.0724 9.4789 51.1225C11.1821 52.0743 11.7832 53.3934 11.3157 55.3137C11.0819 56.2822 11.0652 57.2006 11.3992 58.1357C11.7999 59.2545 12.7016 59.7888 13.8538 59.4382C17.1935 58.4363 20.5331 57.4177 23.8727 56.3657C25.4925 55.8481 27.1122 55.297 28.6985 54.6625C29.5835 54.3118 30.4184 53.8276 31.2199 53.3099C32.0382 52.7756 32.5558 52.0242 32.6059 50.9889C32.6393 50.3377 33.1235 49.9703 33.7414 50.0204C34.3091 50.0538 34.7099 50.4879 34.7099 51.1225C34.7099 52.3581 34.2256 53.3767 33.374 54.2617C32.1049 55.5642 30.5019 56.2989 28.8321 56.9167C27.7467 57.3175 26.6279 57.6849 25.4424 58.1023C27.2124 60.1228 28.4647 62.3603 29.1828 64.8484C37.2313 64.8484 45.2297 64.8484 53.2449 64.8484C53.2449 64.7315 53.2616 64.6647 53.2449 64.6146C51.3413 61.5588 50.5732 58.1524 50.0054 54.6625C49.3876 50.8219 49.6881 47.0648 51.1409 43.4413C51.9257 41.5043 53.0612 39.751 54.3302 38.0979C55.8999 36.044 57.4027 33.94 58.0873 31.3852C58.1541 31.1514 58.2042 30.901 58.2877 30.6672C58.4881 30.0994 59.0391 29.8156 59.5735 29.9659C60.1245 30.1328 60.4418 30.6338 60.3249 31.2349C59.9575 32.9214 59.3397 34.5078 58.4046 35.9605C57.6532 37.1294 56.8684 38.2816 56.0168 39.3836C53.5287 42.573 51.9758 46.113 51.8422 50.2041C51.742 53.0261 52.2597 55.7479 52.961 58.4697C53.4786 60.4568 54.2134 62.3436 55.3989 64.0469C55.6995 64.4643 55.9166 64.9486 56.1003 65.4328C56.4342 66.2677 55.9834 66.9523 55.065 66.969C53.7291 67.0024 52.3932 66.9857 51.0574 67.0024C50.9572 67.0024 50.857 67.0525 50.7568 67.0692C43.1758 67.0692 35.5949 67.0692 27.9972 67.0692C27.73 66.6685 27.4128 66.2844 27.2291 65.8503C26.7782 64.7816 26.4276 63.6628 25.9433 62.6108C25.3756 61.3585 24.6075 60.223 23.5388 59.3046C23.2048 59.0207 22.9042 58.9873 22.4701 59.1209C19.6982 59.9725 16.9096 60.8241 14.1043 61.5922C12.1506 62.1266 10.1969 61.0245 9.4789 59.1376C8.96125 57.785 8.82767 56.3991 9.19503 54.9797C9.4956 53.8276 9.34531 53.5604 8.32672 52.9426C8.14304 52.8424 7.97606 52.7255 7.79238 52.6253C7.12445 52.2245 6.85728 51.6401 6.99087 50.872C7.05766 50.538 7.15785 50.2041 7.24134 49.8534C7.14115 49.7699 7.04096 49.6864 6.94077 49.6029C5.57152 48.5175 5.48803 48.05 6.33964 46.4971C6.37303 46.4303 6.42313 46.3468 6.45653 46.28C7.34153 44.677 7.25804 44.3931 5.63831 43.5415C4.50284 42.9571 3.48425 42.2891 3 41.0368C3 40.7028 3 40.3688 3 40.0349Z" fill="black"/>
<path d="M58.2377 26.6261C57.7869 27.3608 57.1356 27.6781 56.3508 27.8117C55.5493 27.9453 54.7478 28.1122 53.963 28.3126C53.7626 28.3627 53.6123 28.5798 53.4286 28.7301C53.4119 28.7468 53.4119 28.7635 53.3952 28.7802C52.744 29.7654 52.8776 30.6337 53.6791 31.502C54.0632 31.9027 54.3303 32.4204 54.6142 32.9046C55.1652 33.8063 55.0818 34.7247 54.3804 35.4928C53.7793 36.1441 53.1448 36.7953 52.4768 37.3964C51.7087 38.0978 50.7235 38.1646 49.8218 37.5968C49.0704 37.1126 48.319 36.6116 47.601 36.094C47.3004 35.8769 47.0499 35.9103 46.6993 36.0105C45.5638 36.2944 45.0962 36.9957 45.0461 38.1145C45.0127 38.6488 44.8458 39.1832 44.7289 39.7008C44.4784 40.8029 43.7103 41.4207 42.6082 41.4374C41.8234 41.4541 41.0219 41.4541 40.2371 41.4374C39.0348 41.4207 38.25 40.7695 37.9995 39.5839C37.8325 38.749 37.6488 37.9141 37.4986 37.0792C37.4318 36.6951 37.2481 36.5615 36.9308 36.3612C35.9289 35.7433 35.1107 35.9103 34.2758 36.6784C33.875 37.0458 33.3908 37.2963 32.9399 37.5801C31.9882 38.1646 31.003 38.0811 30.2014 37.313C29.617 36.7619 29.0326 36.1775 28.4815 35.593C27.6967 34.7748 27.5965 33.7729 28.2311 32.8044C28.7153 32.053 29.2496 31.335 29.7005 30.5669C29.8174 30.3665 29.8174 30.0492 29.7673 29.7988C29.5669 28.5965 28.7821 28.1122 27.6132 28.0455C27.0455 28.0121 26.461 27.8451 25.91 27.6948C24.9749 27.4443 24.3905 26.7096 24.3571 25.7411C24.3237 24.8394 24.3237 23.9544 24.3571 23.0527C24.3905 22.0341 25.0083 21.2827 26.0102 21.0489C26.8952 20.8485 27.7969 20.6815 28.6986 20.5146C29.0493 20.4478 29.2163 20.2641 29.3999 19.9468C30.0178 18.9449 29.8341 18.1267 29.0994 17.2918C28.732 16.8744 28.4481 16.3734 28.1643 15.8892C27.6132 15.0042 27.7134 14.0023 28.4147 13.2509C28.9992 12.633 29.6003 12.0152 30.2181 11.4475C31.0197 10.696 31.9715 10.6125 32.9066 11.197C33.658 11.6812 34.4094 12.1655 35.1441 12.6831C35.4447 12.9002 35.6785 12.8668 36.0458 12.7833C37.2481 12.5161 37.6488 11.7313 37.7323 10.6125C37.7657 10.1116 37.8993 9.62735 37.9995 9.1431C38.25 7.97423 39.0515 7.323 40.2705 7.323C41.0553 7.3063 41.8568 7.3397 42.6416 7.3063C42.8921 7.2896 43.1759 7.15601 43.393 7.02243C43.6101 6.87215 43.7771 6.63837 43.9775 6.45469C44.7456 5.73667 45.5972 5.63648 46.4822 6.20422C47.0499 6.55488 47.5843 6.95564 48.152 7.3063C48.6529 7.64026 49.6882 7.20611 49.8218 6.60497C49.9721 5.93705 50.0723 5.25242 50.2226 4.58449C50.4397 3.64939 51.141 3.08166 52.0928 3.04826C52.7774 3.03156 53.462 3.03156 54.1467 3.04826C55.0484 3.08166 55.733 3.6327 55.9501 4.501C56.117 5.16893 56.2172 5.85356 56.3675 6.52148C56.5178 7.20611 57.5197 7.64026 58.1041 7.2562C58.6218 6.92224 59.1394 6.55488 59.6571 6.22092C60.5755 5.63648 61.4271 5.70327 62.2286 6.43799C62.6961 6.87215 63.1637 7.3397 63.5978 7.80724C64.3158 8.57536 64.3826 9.42697 63.8149 10.312C63.4642 10.863 63.0969 11.3807 62.7462 11.915C62.3789 12.466 62.813 13.4846 63.4642 13.6182C64.1322 13.7685 64.8168 13.8687 65.4847 14.0357C66.4031 14.2527 66.9542 14.9374 66.9876 15.8725C67.0043 16.5571 67.0043 17.2417 66.9876 17.9263C66.9542 18.8614 66.4031 19.5628 65.5014 19.7631C64.8335 19.9301 64.1489 20.0303 63.4809 20.1639C62.8297 20.2975 62.4123 21.3161 62.7629 21.8671C63.1303 22.4182 63.5143 22.9692 63.865 23.5369C64.3993 24.3885 64.3159 25.2569 63.6145 25.9916C63.1637 26.4758 62.6794 26.9434 62.1952 27.4109C61.4772 28.0788 60.6089 28.1456 59.7906 27.6447C59.3064 27.3441 58.8054 26.9935 58.2377 26.6261ZM40.1536 39.3C40.8716 39.3 41.5395 39.2833 42.2074 39.3C42.5748 39.3167 42.7084 39.1665 42.7752 38.8158C42.9589 37.7638 43.1926 36.7285 43.393 35.6932C43.4932 35.1255 43.8105 34.7915 44.3615 34.6078C45.0795 34.3574 45.8143 34.0735 46.4822 33.7228C47.0666 33.4223 47.5676 33.4223 48.1019 33.8063C49.0704 34.491 50.0556 35.1255 51.0909 35.8101C51.5918 35.2925 52.0594 34.7915 52.5603 34.324C52.8108 34.0902 52.8108 33.9065 52.6104 33.6393C52.0093 32.7877 51.4582 31.9027 50.8571 31.0511C50.4731 30.5168 50.4397 30.0158 50.7569 29.4314C51.0742 28.8303 51.3914 28.1957 51.5584 27.5445C51.7755 26.743 52.2264 26.3756 53.0279 26.2587C54.13 26.0918 55.2153 25.8246 56.3508 25.6075C56.3508 24.8895 56.3341 24.2216 56.3508 23.5703C56.3675 23.203 56.2172 23.0694 55.8666 23.0026C54.848 22.8189 53.8294 22.5851 52.8108 22.4015C52.193 22.2846 51.8256 21.984 51.6252 21.3662C51.3915 20.6315 51.0909 19.9134 50.7402 19.2455C50.4397 18.6778 50.4731 18.2102 50.8404 17.6759C51.525 16.7074 52.1596 15.7055 52.7941 14.7537C52.193 14.1359 51.6085 13.5514 51.0074 12.9336C50.0222 13.5848 49.0203 14.2527 48.0184 14.9374C47.5342 15.2713 47.1 15.3047 46.5657 15.0376C45.8477 14.6869 45.0795 14.3863 44.3281 14.1025C43.7771 13.9021 43.4765 13.5681 43.3596 13.0004C43.1759 11.9651 42.9589 10.9131 42.7251 9.87782C42.6917 9.69414 42.508 9.42697 42.3744 9.41027C41.6397 9.36018 40.8883 9.39357 40.1369 9.39357C39.8864 10.6459 39.6192 11.8148 39.4021 13.0004C39.2853 13.6182 38.9346 13.9188 38.3669 14.1192C37.6822 14.3529 36.9809 14.6034 36.3464 14.9541C35.7118 15.3047 35.1942 15.2713 34.6098 14.8539C33.658 14.186 32.6895 13.5514 31.8212 12.9837C31.1699 13.6015 30.5688 14.1693 29.951 14.7537C30.5855 15.7055 31.22 16.674 31.888 17.6258C32.272 18.1601 32.3054 18.6611 31.9882 19.2455C31.6542 19.9134 31.3536 20.5981 31.1365 21.3161C30.9362 21.9673 30.5521 22.2679 29.9176 22.3848C28.899 22.5684 27.8804 22.7855 26.8618 23.0026C26.7115 23.036 26.4611 23.203 26.4611 23.3366C26.4277 24.088 26.4444 24.8227 26.4444 25.5908C27.6633 25.8413 28.8155 26.0751 29.9844 26.2921C30.6022 26.409 30.9529 26.7263 31.1532 27.3441C31.3703 28.0622 31.6709 28.7468 32.0048 29.4147C32.3054 29.9991 32.2887 30.5001 31.9047 31.0344C31.22 32.0029 30.5855 32.9881 30.0011 33.8731C30.6356 34.5244 31.2033 35.1088 31.7878 35.7266C32.7563 35.0754 33.7749 34.4242 34.7601 33.7395C35.2276 33.4223 35.6618 33.4223 36.1627 33.656C36.9141 34.0067 37.6822 34.324 38.467 34.6078C38.968 34.7915 39.2686 35.0754 39.3688 35.6097C39.6359 36.8454 39.9031 38.031 40.1536 39.3ZM45.4803 8.04102C44.8625 8.40838 44.5953 8.85923 44.8625 9.56055C44.996 9.92791 45.0795 10.3287 45.0962 10.7127C45.1296 11.7981 45.6139 12.4326 46.6826 12.7332C47.0833 12.8501 47.3505 12.8501 47.7012 12.6163C48.9702 11.7814 50.1725 10.9632 51.7755 10.6292C56.4009 9.67744 60.5254 13.6349 59.5235 18.2436C59.2563 19.496 58.6218 20.548 57.7368 21.4831C58.3713 22.1009 58.5049 22.8356 58.4882 23.6371C58.4882 23.8709 58.555 24.2049 58.722 24.3385C59.3899 24.8561 60.1246 25.3069 60.8259 25.7745C61.2267 25.3737 61.6107 24.9897 62.0115 24.5889C61.4939 23.8041 60.9929 23.0527 60.4753 22.2846C60.1747 21.8504 60.158 21.4163 60.3918 20.932C60.659 20.3476 60.9094 19.7631 61.1432 19.1453C61.3269 18.6444 61.6274 18.3438 62.1618 18.2436C63.0635 18.0766 63.9485 17.893 64.8502 17.7093C64.8502 17.1415 64.8502 16.6072 64.8502 16.0395C63.9485 15.8558 63.0802 15.6721 62.1952 15.5051C61.6107 15.4049 61.2935 15.0877 61.1098 14.5366C60.9261 13.9856 60.709 13.4345 60.4419 12.9336C60.1413 12.3659 60.1747 11.8816 60.5421 11.364C61.043 10.6626 61.5106 9.92791 61.9948 9.20989C61.594 8.79244 61.21 8.40838 60.8092 8.00762C60.0578 8.50857 59.3231 8.99282 58.5884 9.49376C58.0874 9.84442 57.6199 9.84442 57.0688 9.56055C56.5512 9.29338 56.0169 9.07631 55.4658 8.89263C54.8981 8.70895 54.5975 8.37498 54.4973 7.80724C54.347 6.92224 54.1467 6.05393 53.963 5.16893C53.3952 5.16893 52.8609 5.16893 52.2932 5.16893C52.1095 6.08733 51.9091 6.97233 51.7421 7.87404C51.6419 8.40838 51.3414 8.70895 50.8404 8.87593C50.2727 9.07631 49.7049 9.27668 49.1706 9.56055C48.6029 9.86112 48.1186 9.82773 47.601 9.46037C46.9163 8.99282 46.1816 8.52527 45.4803 8.04102ZM54.0298 12.8167C54.13 12.9336 54.1967 13.0338 54.2802 13.1173C55.1485 14.0858 55.2153 14.9708 54.514 16.0562C54.2134 16.5237 53.9296 17.0246 53.5622 17.4421C52.9444 18.1601 52.7941 18.8281 53.295 19.7131C53.7292 20.4979 54.8981 20.9153 55.6662 20.4144C57.3193 19.3123 57.9705 17.1916 57.2525 15.3381C56.7015 13.9355 55.3155 12.8334 54.0298 12.8167Z" fill="black"/>
<path d="M14.923 21.9006C14.2217 21.7503 13.5705 21.6001 12.8691 21.4498C13.2532 19.446 13.871 17.5925 14.8061 15.8058C16.9101 11.7815 20.4334 9.82783 24.6915 8.92612C24.9586 8.87603 25.2258 8.80924 25.493 8.75914C26.1609 8.65895 26.6451 8.94282 26.7787 9.52726C26.929 10.1284 26.6118 10.6293 25.9271 10.8297C25.1089 11.0468 24.274 11.2472 23.4558 11.4642C18.7803 12.75 16.4092 16.1063 15.257 20.5648C15.1401 20.9822 15.0566 21.3997 14.923 21.9006Z" fill="black"/>
<path d="M41.4056 31.8361C37.2811 31.8361 33.9248 28.463 33.9415 24.3553C33.9582 20.2308 37.3145 16.9079 41.439 16.9079C45.53 16.9246 48.8697 20.2642 48.8697 24.3553C48.8864 28.4797 45.53 31.8361 41.4056 31.8361ZM41.4223 29.6987C44.3611 29.682 46.749 27.3109 46.7323 24.372C46.7323 21.4164 44.2943 19.0286 41.3388 19.0453C38.4333 19.062 36.0621 21.4665 36.0788 24.4054C36.1122 27.361 38.4834 29.6987 41.4223 29.6987Z" fill="black"/>
<path d="M42.4749 24.4053C42.4582 24.9898 41.9573 25.4573 41.3728 25.4406C40.7717 25.4239 40.3375 24.9397 40.3709 24.3385C40.4043 23.7708 40.8719 23.3199 41.4229 23.3366C41.9907 23.3199 42.4916 23.8209 42.4749 24.4053Z" fill="black"/>
</svg>
