<svg width="70" height="70" viewBox="0 0 70 70" fill="none" xmlns="http://www.w3.org/2000/svg">
<path d="M69.9951 23.3472C69.8987 20.7701 67.9142 18.6478 65.2957 18.317C62.7875 18 60.362 19.64 59.6316 22.1206C59.1768 23.6641 59.4111 25.1525 60.362 26.6409L60.4447 26.7787L56.7927 30.8304L56.6411 30.6513C56.6135 30.6237 56.5997 30.5961 56.5722 30.5686C56.5308 30.5134 56.4895 30.4721 56.4619 30.417C52.9339 24.367 47.6281 21.7623 40.6961 22.6305C40.4756 22.6581 40.1311 22.5203 40.0071 22.2998C39.6212 21.597 39.2353 20.8803 38.877 20.1913C38.7668 19.9708 38.6427 19.7503 38.5325 19.5298L38.4636 19.3919L38.56 19.2817C39.7314 18.0414 40.324 16.6081 40.2827 15.1335C40.2413 13.7416 39.6074 12.3497 38.6014 11.4264C36.548 9.52455 33.4472 9.52455 31.3938 11.4264C30.3877 12.3635 29.7538 13.7416 29.7124 15.1473C29.6711 16.6219 30.2499 18.0414 31.4075 19.2541L31.4902 19.3368L31.4627 19.4471C31.4627 19.4609 31.4627 19.4609 31.4627 19.4746C31.4627 19.516 31.4489 19.5711 31.4213 19.6262C31.2835 19.8743 31.1595 20.1361 31.0217 20.3842C30.7323 20.9354 30.4291 21.5005 30.1535 22.0655C29.9329 22.5341 29.6435 22.6857 29.1061 22.6168C24.0897 21.9139 19.7624 23.3196 16.2619 26.7925C15.5039 27.5505 14.87 28.4049 14.2085 29.3007C13.9053 29.7003 13.6021 30.1276 13.2852 30.5272L13.1336 30.7202L9.59177 26.7925L9.77093 26.4755C9.83984 26.3653 9.89496 26.255 9.95009 26.1586C11.1628 23.9122 10.6254 21.1146 8.66843 19.5022C6.68392 17.876 3.92767 17.876 1.92938 19.5022C1.00603 20.2464 0.399657 21.2938 0 22.7959V24.3946C0.0137813 24.4359 0.0275626 24.4635 0.0413439 24.5048C0.0826877 24.6151 0.11025 24.7115 0.151594 24.8218C0.509907 26.1723 1.33678 27.895 3.2386 28.4049C4.83723 28.8459 5.12664 29.783 5.34714 31.0785C6.24292 36.3567 7.22139 41.7038 8.1723 46.8718L8.40658 48.1397C8.51683 48.7461 8.37902 49.1044 7.86911 49.4627C6.94577 50.138 6.43586 51.0889 6.35317 52.3017C6.28427 53.3766 6.67014 54.4515 7.40055 55.2371C8.13096 56.0226 9.12321 56.4498 10.1981 56.4498C22.7253 56.4636 35.4592 56.4636 47.7797 56.4636H59.8383C59.8521 56.4636 59.8797 56.4636 59.8935 56.4636C61.561 56.3947 63.008 55.2922 63.4904 53.7073C63.9865 52.1225 63.4352 50.4136 62.126 49.4489C61.6575 49.1044 61.5059 48.7461 61.6161 48.181C62.5808 42.8477 63.6144 37.1285 64.9512 29.6314C65.0477 29.1215 65.2819 28.8735 65.7918 28.777C68.3276 28.2533 70.1054 25.9656 69.9951 23.3472ZM41.6333 24.7804C41.9227 24.7804 42.1983 24.7804 42.4739 24.7666C43.0252 24.7529 43.5489 24.7391 44.0725 24.7942C48.8684 25.2352 52.4102 27.6332 54.6152 31.9191C54.946 32.5669 54.8909 33.0079 54.4085 33.5315C53.1544 34.8821 51.9417 36.2327 50.66 37.6659C50.1914 38.1896 49.7091 38.7271 49.2267 39.2646L49.0338 39.4851L41.3163 24.7942H41.6333V24.7804ZM32.9235 13.2317C33.4885 12.6667 34.2189 12.3635 35.0045 12.3635C35.79 12.3635 36.5342 12.6805 37.0854 13.2317C37.6505 13.7967 37.9537 14.5409 37.9537 15.3265C37.9537 16.9527 36.6306 18.2757 34.9907 18.2757C33.3645 18.2757 32.0415 16.9389 32.0415 15.3127C32.0553 14.5272 32.3585 13.7967 32.9235 13.2317ZM15.2834 32.2499C17.2266 28.0604 20.5065 25.5935 25.0406 24.9045C25.7572 24.7942 26.4876 24.7804 27.2043 24.7666C27.5212 24.7666 27.8658 24.7529 28.1827 24.7391L28.3481 24.7253L28.4859 25.1939L21.0027 39.4437L19.7624 38.0656C18.2326 36.3567 16.7856 34.7581 15.3248 33.1043C15.1318 32.9252 15.1732 32.4704 15.2834 32.2499ZM5.29201 26.5582C4.50648 26.5582 3.76229 26.255 3.21104 25.69C2.64601 25.125 2.34282 24.3808 2.34282 23.5952C2.34282 21.969 3.66582 20.6323 5.29201 20.6323C6.9182 20.6323 8.24121 21.9553 8.24121 23.5952C8.25499 25.2214 6.93199 26.5582 5.29201 26.5582ZM59.1768 48.6083H55.7591C50.8529 48.6083 45.933 48.6083 41.0269 48.6083C40.9718 48.6083 40.9166 48.6083 40.8615 48.6083C40.6824 48.6083 40.517 48.6083 40.3654 48.6221C39.7728 48.7047 39.3318 49.2009 39.3318 49.7797C39.3318 50.3723 39.7728 50.8546 40.3654 50.9373C40.517 50.9511 40.6824 50.9511 40.8615 50.9511C40.9166 50.9511 40.9718 50.9511 41.0269 50.9511H59.1768C59.232 50.9511 59.2871 50.9511 59.356 50.9511C59.5351 50.9511 59.7143 50.9511 59.8935 50.9649C60.7066 51.0476 61.2991 51.6953 61.3267 52.4946C61.3543 53.3215 60.7341 54.0105 59.8935 54.107C59.7694 54.1208 59.6592 54.1208 59.5351 54.1208C59.48 54.1208 59.4111 54.1208 59.356 54.1208C59.3009 54.1208 59.2457 54.1208 59.1768 54.1208C43.0389 54.1208 26.9011 54.1208 10.777 54.1208C9.04052 54.1208 8.65465 53.2663 8.65465 52.5497C8.65465 52.1225 8.77868 51.7642 9.0543 51.4886C9.41262 51.1302 9.97765 50.9511 10.7494 50.9511H28.9683C29.0234 50.9511 29.0785 50.9511 29.1336 50.9511C29.3128 50.9511 29.4644 50.9511 29.6298 50.9373C30.2224 50.8546 30.6634 50.3585 30.6496 49.7659C30.6496 49.1871 30.1948 48.691 29.6022 48.6221C29.4506 48.6083 29.2852 48.6083 29.1061 48.6083C29.0509 48.6083 28.9958 48.6083 28.9407 48.6083C24.0621 48.6083 19.1973 48.6083 14.3188 48.6083H10.8321L7.22139 28.5427L7.84155 28.1568L7.9518 28.3222C8.00693 28.4049 8.06205 28.4738 8.10339 28.5565C8.19986 28.7219 8.31011 28.8735 8.42036 29.0113C10.9423 31.8227 13.4781 34.634 16.0001 37.4454C17.3506 38.9476 18.7012 40.4497 20.0655 41.9519C20.5479 42.4894 21.0027 42.7374 21.3886 42.6961C21.7882 42.641 22.1603 42.2964 22.5048 41.6349L23.7727 39.2094C26.8597 33.3386 30.0432 27.2748 33.1716 21.2938C33.3921 20.8665 33.6677 20.3429 34.4946 20.5909C34.8115 20.6874 35.2387 20.6874 35.5971 20.5771C36.3412 20.3704 36.5893 20.839 36.7685 21.1835C39.5936 26.572 42.4739 32.0569 45.2577 37.3627L47.449 41.5247C47.8348 42.2689 48.2207 42.641 48.6066 42.6961C49.0062 42.7374 49.4748 42.4618 50.0398 41.8279C52.2862 39.3335 54.5325 36.8391 56.7789 34.3446L61.5059 29.094C61.6437 28.9286 61.7953 28.777 61.9469 28.6116L62.2501 28.2809L62.7875 28.5014L59.1768 48.6083ZM64.7169 26.5582C64.7031 26.5582 64.7031 26.5582 64.6893 26.5582C63.0632 26.5444 61.7402 25.2076 61.7539 23.5677C61.7677 21.9415 63.1045 20.6185 64.7307 20.6323C66.3569 20.646 67.6799 21.9828 67.6661 23.6228C67.6661 24.4083 67.3491 25.1525 66.7841 25.7038C66.2191 26.255 65.4887 26.5582 64.7169 26.5582Z" fill="black"/>
<path d="M30.3744 37.8451C29.7818 38.4514 29.7818 39.0716 30.3882 39.678C31.5458 40.8494 32.7861 42.1173 34.0815 43.3714C34.2469 43.523 34.4674 43.6332 34.7293 43.7572C34.8257 43.7986 34.9222 43.8537 35.0187 43.9088C35.1151 43.8537 35.2116 43.8124 35.2943 43.7572C35.5424 43.6332 35.7491 43.523 35.9007 43.3714C37.0859 42.2137 38.3124 41.001 39.6492 39.6229C40.2142 39.044 40.2004 38.4101 39.6354 37.8313C38.3813 36.5496 37.1272 35.2818 35.9007 34.0828C35.6113 33.7934 35.3081 33.6556 35.0049 33.6556C34.7017 33.6556 34.4123 33.7934 34.1229 34.0828C32.9239 35.268 31.6974 36.4945 30.3744 37.8451ZM34.9911 36.591L37.1686 38.7546L34.9635 40.8632L32.855 38.7684L34.9911 36.591Z" fill="black"/>
<path d="M35.0182 48.6082H35.0044C34.398 48.6082 33.8605 49.1182 33.8467 49.7245C33.833 50.0277 33.957 50.3447 34.1637 50.5652C34.3842 50.7995 34.6736 50.9235 34.9906 50.9373C35.3076 50.9511 35.597 50.827 35.8175 50.5927C36.038 50.3722 36.1758 50.0691 36.162 49.7521C36.162 49.1457 35.6383 48.622 35.0182 48.6082Z" fill="black"/>
</svg>
