<svg width="70" height="70" viewBox="0 0 70 70" fill="none" xmlns="http://www.w3.org/2000/svg">
<path d="M16.8759 6.27582C16.769 4.92207 16.9115 3.6752 17.9981 2.76677C18.6215 2.25021 19.334 1.98302 20.1534 2.00084C22.1127 2.03646 23.039 3.26552 23.324 6.22238C31.4642 6.22238 39.6045 6.22238 47.816 6.22238C47.727 4.88645 47.8695 3.62177 48.9917 2.73114C49.6151 2.2324 50.3454 1.98302 51.1469 2.01865C53.0707 2.0899 53.9969 3.33677 54.2463 6.27582C54.4779 6.27582 54.7094 6.27582 54.941 6.27582C57.1141 6.27582 59.305 6.27582 61.4781 6.27582C64.7022 6.29363 67 8.57362 67 11.762C67 28.007 67 44.2519 67 60.4968C67 63.703 64.7022 66.0008 61.496 66.0008C43.826 66.0008 26.1561 66.0008 8.50404 66.0008C5.31561 66.0187 3 63.703 3 60.5502C3 44.2875 3 28.0248 3 11.7442C3 8.59143 5.31561 6.29363 8.48622 6.29363C11.0156 6.27582 13.5449 6.29363 16.0921 6.29363C16.3237 6.27582 16.5731 6.27582 16.8759 6.27582ZM60.5519 51.0919C60.5519 41.8116 60.5519 32.6026 60.5519 23.4114C43.4876 23.4114 26.4589 23.4114 9.43028 23.4114C9.43028 35.4882 9.43028 47.5294 9.43028 59.5884C23.6446 59.5884 37.8233 59.5884 52.0732 59.5884C52.0732 59.339 52.0732 59.1252 52.0732 58.9115C52.0732 56.8987 52.0732 54.8681 52.0732 52.8553C52.0732 51.3412 52.3048 51.1097 53.7832 51.1097C56.0276 51.0919 58.2719 51.0919 60.5519 51.0919ZM16.8402 8.41331C16.6265 8.41331 16.4484 8.41331 16.2702 8.41331C13.6874 8.41331 11.1225 8.41331 8.53966 8.41331C6.49123 8.43112 5.13749 9.76705 5.13749 11.7977C5.13749 28.0426 5.13749 44.2875 5.13749 60.5324C5.13749 62.5274 6.50905 63.8812 8.48622 63.8812C26.1561 63.8812 43.826 63.8812 61.4781 63.8812C63.5088 63.8812 64.8625 62.5274 64.8625 60.479C64.8625 44.2519 64.8625 28.0426 64.8625 11.8155C64.8625 9.76705 63.5088 8.43112 61.496 8.41331C59.2516 8.41331 57.0072 8.41331 54.7629 8.41331C54.5847 8.41331 54.4244 8.43112 54.2463 8.44893C54.2463 9.16143 54.2463 9.8383 54.2463 10.5508C56.651 10.5508 59.0022 10.5508 61.3535 10.5508C62.351 10.5508 62.725 10.907 62.725 11.9045C62.725 25.2104 62.725 38.5341 62.7072 51.84C62.7072 52.2675 62.4757 52.8018 62.1728 53.1225C59.501 55.8478 56.7935 58.5552 54.0682 61.2271C53.7654 61.5121 53.2488 61.7259 52.8391 61.7259C38.1083 61.7437 23.3774 61.7437 8.64653 61.7437C7.63123 61.7437 7.27498 61.3874 7.27498 60.3899C7.27498 44.2341 7.27498 28.0782 7.27498 11.9223C7.27498 10.8892 7.63123 10.5508 8.69997 10.5508C11.1581 10.5508 13.634 10.5508 16.0921 10.5508C16.3237 10.5508 16.5731 10.5508 16.8402 10.5508C16.8402 9.8383 16.8402 9.17924 16.8402 8.41331ZM9.43028 21.167C26.5124 21.167 43.541 21.167 60.6053 21.167C60.6053 18.4061 60.6053 15.6986 60.6053 12.9911C60.6053 12.902 60.5875 12.8308 60.5697 12.7239C58.45 12.7239 56.3482 12.7239 54.2107 12.7239C54.2107 13.1158 54.2285 13.472 54.2107 13.8105C54.1572 15.5561 52.7679 16.9276 51.0401 16.9455C49.2945 16.9633 47.8695 15.5739 47.816 13.8105C47.7982 13.4364 47.816 13.0802 47.816 12.7239C39.5867 12.7239 31.4642 12.7239 23.2883 12.7239C23.2883 13.0802 23.2883 13.4186 23.2883 13.7392C23.2527 15.5561 21.8277 16.9633 20.0643 16.9455C18.3187 16.9276 16.9293 15.5205 16.8937 13.7392C16.8937 13.4008 16.8937 13.0445 16.8937 12.7239C14.3465 12.7239 11.924 12.7239 9.44809 12.7239C9.43028 15.5383 9.43028 18.3348 9.43028 21.167ZM47.7626 8.46674C39.5689 8.46674 31.4464 8.46674 23.3062 8.46674C23.3062 9.17924 23.3062 9.85611 23.3062 10.5152C31.482 10.5152 39.6045 10.5152 47.7626 10.5152C47.7626 9.82049 47.7626 9.17924 47.7626 8.46674ZM21.133 9.49986C21.133 8.14612 21.133 6.79238 21.133 5.43863C21.133 4.63707 20.7412 4.17395 20.0821 4.15614C19.423 4.13833 18.9955 4.63707 18.9955 5.45644C18.9955 8.14612 18.9955 10.8358 18.9955 13.5255C18.9955 14.3092 19.3874 14.7901 20.0287 14.808C20.6877 14.8258 21.1152 14.327 21.1152 13.5077C21.133 12.1717 21.133 10.8358 21.133 9.49986ZM52.0732 9.5533C52.0732 8.18174 52.0732 6.79238 52.0732 5.42082C52.0732 4.63707 51.6635 4.15614 51.0045 4.15614C50.3632 4.15614 49.9357 4.63707 49.9357 5.42082C49.9357 8.12831 49.9357 10.8358 49.9357 13.5611C49.9357 14.3448 50.3454 14.8258 51.0045 14.8258C51.6457 14.8258 52.0732 14.3448 52.0732 13.5611C52.0732 12.2252 52.0732 10.8892 52.0732 9.5533ZM54.2285 57.8784C55.7782 56.3287 57.3279 54.7968 58.8597 53.265C57.3635 53.265 55.796 53.265 54.2285 53.265C54.2285 54.8503 54.2285 56.3821 54.2285 57.8784Z" fill="black"/>
<path d="M34.9904 25.8516C35.9345 25.8694 36.5579 26.3325 36.9676 27.1341C38.1254 29.4853 39.301 31.8187 40.441 34.1878C40.6369 34.6153 40.8685 34.8112 41.3672 34.8646C43.9857 35.2209 46.5863 35.6306 49.2047 36.0046C50.0775 36.1293 50.6831 36.6103 50.9681 37.4296C51.2709 38.2846 51.0394 39.0506 50.3981 39.6918C48.5278 41.5265 46.6575 43.3612 44.7516 45.178C44.3597 45.5521 44.2885 45.9083 44.3775 46.4071C44.8407 48.9543 45.2503 51.5192 45.6957 54.0842C45.856 54.9749 45.5888 55.723 44.8585 56.2574C44.1282 56.7917 43.3266 56.7917 42.5429 56.382C40.2094 55.153 37.8582 53.9417 35.5426 52.6949C35.1685 52.4989 34.9013 52.4811 34.5095 52.6771C32.2473 53.8883 29.9495 55.0639 27.6873 56.2752C26.8323 56.7205 25.9951 56.863 25.1758 56.2752C24.3386 55.6874 24.1605 54.8502 24.3386 53.8527C24.7839 51.3767 25.1758 48.9008 25.6211 46.4427C25.7279 45.8727 25.6211 45.5165 25.1936 45.1068C23.3767 43.379 21.5955 41.5977 19.7786 39.8699C19.0839 39.1931 18.7277 38.4271 19.0305 37.4831C19.3333 36.5568 20.0102 36.1293 20.972 35.9868C23.5726 35.6306 26.1554 35.2209 28.7561 34.8646C29.1657 34.8112 29.3795 34.6509 29.5398 34.2946C30.6798 31.9434 31.8554 29.5922 33.0132 27.2409C33.4051 26.3681 34.0463 25.8694 34.9904 25.8516ZM48.5635 37.964C48.6347 38.0174 48.7238 38.0709 48.795 38.1243C48.706 38.1065 48.6347 38.0531 48.5456 38.0531C45.9985 37.679 43.4513 37.3049 40.9041 36.9665C39.8354 36.824 39.1051 36.3787 38.6419 35.3812C37.591 33.1547 36.4866 30.9637 35.3823 28.755C35.2754 28.5412 35.1507 28.3453 35.0082 28.0603C34.8479 28.3453 34.7232 28.559 34.6342 28.755C33.5476 30.9637 32.4432 33.1547 31.3745 35.3812C30.9114 36.3431 30.1989 36.824 29.1657 36.9487C26.9036 37.2515 24.6414 37.5899 22.3792 37.9106C21.9873 37.964 21.5955 38.0531 21.2036 38.1065C21.1858 38.1599 21.168 38.2134 21.1502 38.2846C21.3461 38.4449 21.542 38.5696 21.7202 38.7477C23.4836 40.4577 25.247 42.2034 27.0282 43.8955C27.7407 44.5724 27.9901 45.3562 27.812 46.3002C27.5626 47.6896 27.3132 49.0968 27.0817 50.5039C26.8679 51.7864 26.6542 53.0689 26.4048 54.4761C26.7433 54.3158 26.957 54.2089 27.1707 54.102C29.3439 52.9621 31.5348 51.8399 33.7079 50.6643C34.6163 50.1655 35.4535 50.1833 36.3441 50.6643C38.3213 51.733 40.2985 52.7483 42.2935 53.7992C42.7032 54.013 43.095 54.2267 43.576 54.4583C43.5582 54.1911 43.5582 54.013 43.5404 53.8349C43.1307 51.448 42.7744 49.0611 42.2935 46.6921C42.0441 45.4452 42.3469 44.5546 43.2554 43.6462C45.0722 41.8115 46.7822 39.8699 48.5635 37.964Z" fill="black"/>
</svg>
