<svg width="82" height="70" viewBox="0 0 82 70" fill="none" xmlns="http://www.w3.org/2000/svg">
<rect x="15" y="15" width="67" height="40" fill="#F5D531"/>
<path d="M65.7117 38.1449C63.6095 30.3971 59.761 23.7343 53.539 18.5295C53.4712 18.4787 53.4204 18.3769 53.3186 18.2413C56.0482 18.5804 58.5912 19.0551 60.5239 21.1234C60.8969 21.5303 61.4903 21.4964 61.9141 21.1573C62.321 20.8183 62.4227 20.2418 62.1515 19.7841C62.0328 19.5807 61.8802 19.4111 61.7107 19.2416C60.6257 18.1565 59.3033 17.4614 57.8792 16.9698C57.3706 16.7833 56.845 16.6477 56.2686 16.4781C56.4551 16.2577 56.6246 16.0882 56.7602 15.9187C58.0318 14.3759 58.3539 12.6805 57.5062 10.8326C56.8789 9.44238 55.8447 8.44212 54.4037 7.91655C53.9459 7.74702 53.8273 7.52662 53.8951 7.08583C53.9629 6.54331 53.9968 5.98384 53.9968 5.44132C53.9798 3.71205 52.3353 2.67788 50.7926 3.4747C50.267 3.74596 49.7923 4.10199 49.3345 4.47497C48.2665 5.3396 46.8424 5.47523 45.8251 4.6445C44.9266 3.89854 43.9772 3.30517 42.8583 3C42.3157 3 41.7563 3 41.2138 3C40.0948 3.30517 39.1624 3.89854 38.2638 4.62755C37.2466 5.45828 35.8055 5.32265 34.7544 4.45801C34.3306 4.11894 33.8898 3.76291 33.4151 3.50861C31.7706 2.64397 30.0922 3.66119 30.1261 5.50914C30.1939 9.44238 31.1094 13.0874 33.9406 16.0034C32.347 17.2071 30.7534 18.4278 29.075 19.6824C29.075 19.462 29.075 19.2416 29.075 19.0212C29.075 16.6985 29.041 14.3759 29.0919 12.0363C29.1258 10.7478 28.5833 9.79841 27.583 9.0694C26.3285 8.13695 24.8705 7.71311 23.3446 7.49271C20.8355 7.11973 18.3603 7.23841 15.9867 8.18781C15.3425 8.44212 14.7322 8.79814 14.1727 9.22198C13.2572 9.90013 12.7995 10.8326 12.8164 12.0024C12.8334 15.2744 12.8164 18.5634 12.8334 21.8355C12.8334 22.395 12.6977 22.5984 12.1213 22.6662C10.7311 22.8358 9.39178 23.2426 8.18808 23.9886C6.93351 24.7854 6.28927 25.8535 6.30622 27.3963C6.34013 36.1104 6.32318 44.8246 6.34013 53.5388C6.34013 54.1322 6.23841 54.4882 5.61112 54.5899C5.33987 54.6408 5.10251 54.7764 4.84821 54.8781C3.52583 55.4884 2.4747 56.3022 2 57.7094C2 59.8625 2 62.0326 2 64.1857C2.4747 65.5589 3.49192 66.4066 4.7804 66.9661C7.06914 67.9663 9.47655 68.1867 11.9348 67.8816C14.4609 67.5594 16.8514 66.9661 18.2077 64.4569C20.7846 65.8132 23.4972 66.0675 26.3115 65.6945C27.9391 65.4741 29.4988 65.0503 30.8551 64.05C31.7197 63.4058 32.3131 62.609 32.347 61.49C32.4487 61.49 32.5504 61.49 32.6522 61.49C35.7886 61.5239 38.925 61.5239 42.0614 61.507C45.1979 61.507 48.3343 61.507 51.4707 61.49C52.81 61.4731 54.1833 61.3714 55.5057 61.1171C59.1846 60.422 62.321 58.7435 64.508 55.5902C66.3221 52.9793 66.9663 50.0124 67.0002 46.893C67.0172 43.9091 66.4916 41.01 65.7117 38.1449ZM53.4373 9.96794C55.1157 10.1714 56.2855 12.3415 55.5565 13.8334C54.7936 15.444 52.1149 16.4612 50.3687 15.783C51.8945 14.0877 52.9118 12.155 53.4373 9.96794ZM32.347 5.3396C32.7539 5.64477 33.076 5.86516 33.3812 6.10251C35.3817 7.76397 38.0095 7.74702 39.9931 6.05165C41.3833 4.8649 42.7396 4.8649 44.1298 6.05165C46.1303 7.76397 48.7412 7.76397 50.7756 6.06861C51.0638 5.83126 51.369 5.62781 51.8606 5.27179C51.7759 6.289 51.742 7.11973 51.6233 7.93351C51.3181 10.0697 50.64 12.0871 49.2498 13.7825C48.419 14.7997 47.4527 15.6305 46.1134 15.8848C45.876 15.9356 45.6217 15.9356 45.3165 15.9695C45.7743 14.9862 46.249 14.0538 46.6559 13.1044C46.9271 12.4601 47.1475 11.7989 47.3679 11.1377C47.6392 10.324 47.3849 9.74755 46.7237 9.5441C46.0964 9.35761 45.5539 9.67973 45.3165 10.4766C44.774 12.2736 43.9772 13.9351 42.9769 15.5118C42.5192 16.2238 41.6037 16.2408 41.2307 15.4948C40.4339 13.9351 39.7049 12.3415 38.9589 10.7648C38.8742 10.5952 38.8572 10.3918 38.7724 10.2222C38.5351 9.64582 37.9926 9.37457 37.45 9.56106C36.8567 9.74755 36.5176 10.307 36.7549 10.9173C37.3144 12.3754 37.9247 13.7995 38.5181 15.2405C38.6029 15.444 38.7216 15.6474 38.925 16.0204C38.3486 15.9187 37.9078 15.8678 37.484 15.7322C36.1446 15.3083 35.2291 14.342 34.4493 13.24C33.0421 11.2564 32.1436 7.95046 32.347 5.3396ZM16.3428 10.4087C19.3944 9.17112 22.48 9.17112 25.5316 10.3918C25.8199 10.5105 26.0911 10.68 26.3454 10.8834C27.0744 11.4429 27.0914 11.9515 26.3285 12.494C25.0908 13.3926 23.6328 13.6469 22.1409 13.7995C21.751 13.8334 21.3441 13.7995 20.9372 13.7995C19.3436 13.8334 17.7669 13.6299 16.3089 12.9348C15.7494 12.6636 15.0204 12.4093 15.0373 11.6633C15.0543 10.9343 15.7663 10.6291 16.3428 10.4087ZM15.0373 14.7319C19.0045 16.4612 22.9038 16.4442 26.8032 14.7658C26.8371 14.8167 26.871 14.8506 26.871 14.8845C26.871 17.1902 26.8879 19.4959 26.871 21.8016C26.871 21.9542 26.7862 22.1067 26.6845 22.2593C25.1078 24.0395 23.7346 25.9383 22.5648 27.9557C22.5648 27.6845 22.5648 27.4132 22.5648 27.142C22.5648 26.0061 22.124 25.1414 21.2763 24.4463C20.3269 23.6665 19.2079 23.1918 18.0212 22.9375C17.0379 22.734 16.0376 22.5984 15.0204 22.4289C15.0373 19.8858 15.0373 17.3258 15.0373 14.7319ZM24.1754 45.2485C25.8029 45.2485 27.3796 45.4519 28.8546 46.164C29.414 46.4352 30.1261 46.7065 30.1091 47.4355C30.0922 48.1136 29.414 48.4188 28.8546 48.6561C25.7351 49.9277 22.6156 49.9277 19.5131 48.6392C18.9536 48.4018 18.2924 48.1136 18.2755 47.4185C18.2755 46.7234 18.9536 46.4522 19.4961 46.1809C20.9881 45.4689 22.5648 45.2485 24.1754 45.2485ZM8.9849 26.1248C9.69695 25.684 10.4768 25.294 11.2736 25.0906C13.698 24.4633 16.1393 24.4972 18.5128 25.3449C19.0554 25.5314 19.5809 25.8535 20.0387 26.2095C20.5642 26.6164 20.5642 27.0742 20.0387 27.481C19.547 27.854 18.9706 28.227 18.3942 28.3796C17.1226 28.7187 15.8003 28.9221 14.3931 29.1934C13.0368 28.9052 11.6297 28.6339 10.2564 28.2609C9.79867 28.1422 9.37483 27.854 9.00185 27.5658C8.34066 27.0572 8.30675 26.5316 8.9849 26.1248ZM5.42463 57.0143C8.56106 55.7088 11.6975 55.7088 14.8339 57.0312C15.3934 57.2686 16.1393 57.6077 16.0037 58.2688C15.9189 58.7266 15.3086 59.1843 14.8339 59.4556C13.6811 60.1168 11.9518 60.405 10.1038 60.405C8.47629 60.405 6.8996 60.2016 5.42463 59.4895C4.88212 59.2183 4.18702 58.947 4.18702 58.2688C4.20397 57.5568 4.88212 57.2516 5.42463 57.0143ZM16.0376 63.694C15.9698 64.067 15.529 64.4569 15.156 64.6943C14.0032 65.4233 12.6977 65.6606 11.3584 65.7793C9.49351 65.9488 7.64556 65.7963 5.88238 65.1012C5.5094 64.9486 5.15338 64.7621 4.8143 64.5417C4.35655 64.2535 4.10225 63.8466 4.15311 63.2702C4.18702 62.6429 4.17006 61.9986 4.17006 61.2866C8.17112 63.0328 12.0874 63.0328 16.0715 61.2866C16.0715 62.1173 16.1732 62.9311 16.0376 63.694ZM18.072 44.5194C16.7327 45.2993 15.9867 46.3844 16.0546 48.0458C16.1393 50.1989 16.0715 52.352 16.0715 54.5221C16.0715 54.7255 16.0715 54.929 16.0715 55.2511C13.6471 54.0474 11.138 53.7253 8.5102 53.9965C8.5102 45.9605 8.5102 37.9753 8.5102 29.9054C12.4773 31.6516 16.3936 31.6516 20.3608 29.9054C20.3777 30.1428 20.3947 30.3293 20.3947 30.5157C20.3947 34.6524 20.3777 38.8061 20.4116 42.9428C20.4116 43.4344 20.2421 43.6209 19.8013 43.7735C19.2079 43.943 18.6315 44.1973 18.072 44.5194ZM29.2445 62.5412C27.9051 63.3041 26.4302 63.5584 24.9213 63.6431C23.1581 63.7449 21.4119 63.5414 19.7674 62.8463C18.7502 62.4225 18.1738 61.8291 18.2077 60.5576C18.3094 57.2177 18.2416 53.8779 18.2416 50.4024C20.1912 51.3348 22.1409 51.7417 24.2093 51.7417C26.2776 51.7417 28.2273 51.3179 30.16 50.4024C30.16 50.7075 30.16 50.911 30.16 51.1144C30.16 54.3865 30.143 57.6755 30.1769 60.9475C30.1939 61.7443 29.8548 62.1851 29.2445 62.5412ZM64.5759 49.5716C63.9147 53.471 61.8802 56.3531 58.2182 57.9976C56.1669 58.93 53.9968 59.3369 51.742 59.3369C50.267 59.3369 48.7751 59.3369 47.3001 59.3369C47.1475 59.3369 46.9949 59.3369 46.8593 59.3369C45.2487 59.3369 43.6381 59.3369 42.0445 59.3369C40.4339 59.3369 38.8233 59.3369 37.2296 59.3369C37.0771 59.3369 36.9245 59.3369 36.7889 59.3369C35.3139 59.3369 33.822 59.3369 32.347 59.3369C32.347 55.3867 32.364 51.4365 32.3131 47.4863C32.3131 46.859 32.0079 46.147 31.618 45.6553C31.1602 45.0789 30.4991 44.6212 29.8379 44.2651C28.0238 43.2988 26.0233 43.0614 23.9889 43.0953C23.5311 43.0953 23.0734 43.0953 22.5648 43.0953C22.5648 42.8071 22.5648 42.5528 22.5648 42.2985C22.5648 39.0943 22.5648 35.8901 22.5648 32.6858C23.582 30.3632 24.8365 28.1592 26.3454 26.1078C26.3793 26.0739 26.4302 26.04 26.4641 26.0061C26.6167 25.8365 26.7523 25.6501 26.9049 25.4636C27.9391 24.1242 29.041 22.8697 30.2448 21.7168C30.3295 21.632 30.4312 21.5473 30.516 21.4625C32.0418 20.0384 33.7033 18.7838 35.5512 17.7158C35.7377 17.614 35.992 17.5123 36.1785 17.5632C36.6363 17.6818 37.0771 17.8683 37.6026 18.0548C36.738 18.8686 35.8903 19.6485 35.0765 20.4114C34.4323 21.0048 34.3475 21.6151 34.8053 22.1237C35.263 22.6323 35.8903 22.5984 36.5345 22.022C37.7891 20.8522 39.0437 19.6824 40.2983 18.5295C40.4678 18.3769 40.6882 18.2752 41.0103 18.0548C41.0103 18.4956 41.0103 18.7669 41.0103 19.0381C41.0103 19.835 40.9934 20.6487 41.0273 21.4456C41.0612 22.0898 41.5698 22.5306 42.1632 22.4967C42.7396 22.4628 43.1465 22.0389 43.1804 21.3947C43.1973 21.0387 43.1804 20.6826 43.1804 20.3097C43.1804 19.5976 43.1804 18.9025 43.1804 18.004C43.5364 18.2583 43.7568 18.36 43.9263 18.5295C45.1131 19.6146 46.2829 20.7165 47.4527 21.8185C47.5714 21.9372 47.69 22.0559 47.8257 22.1576C48.3682 22.5984 48.9955 22.5814 49.4193 22.1237C49.8092 21.6829 49.7923 21.0556 49.3176 20.5979C48.436 19.7502 47.5375 18.9195 46.5881 18.0379C46.9441 17.9192 47.2662 17.8683 47.5205 17.7158C48.063 17.4106 48.5208 17.5293 48.9616 17.8853C50.6908 19.2416 52.5557 20.4453 54.1324 21.9711C59.1337 26.769 62.1515 32.7367 63.8299 39.4164C64.6437 42.7393 65.1523 46.1131 64.5759 49.5716Z" fill="black"/>
<path d="M43.1462 35.4494C43.1462 34.7204 43.1462 34.0253 43.1462 33.3302C43.1462 32.6181 43.1462 31.906 43.1462 31.177C43.3666 31.194 43.4852 31.177 43.6039 31.2109C44.5533 31.4313 45.1806 32.1434 45.2993 33.1776C45.401 34.0422 45.8418 34.466 46.5369 34.3813C47.1981 34.3135 47.5202 33.8218 47.4524 32.9741C47.3167 31.3635 46.5199 30.1768 45.0789 29.4647C44.5024 29.1765 43.8413 29.0748 43.1292 28.8544C43.1292 28.634 43.1292 28.3119 43.1292 28.0067C43.1122 27.2777 42.7054 26.8539 42.0611 26.8369C41.4338 26.8369 40.993 27.2777 40.9591 27.9728C40.9422 28.2949 40.9591 28.634 40.9591 28.9561C37.9923 29.1765 36.6699 31.3805 36.636 33.2115C36.5851 35.585 38.1618 37.2295 40.9252 37.7042C40.9252 39.1113 40.9252 40.5185 40.9252 41.9256C39.7724 41.9596 38.9417 41.1627 38.806 39.9251C38.7213 39.0944 38.2974 38.7045 37.6193 38.7553C36.9581 38.8062 36.6021 39.3487 36.6529 40.1455C36.7885 41.9596 38.094 43.5362 39.8402 43.994C40.1962 44.0957 40.5692 44.1296 40.9761 44.2144C40.9761 44.5535 40.9591 44.8756 40.9761 45.1977C41.0269 45.8928 41.4677 46.3336 42.095 46.3166C42.7054 46.2997 43.0953 45.8758 43.1292 45.1807C43.1462 44.8586 43.1292 44.5196 43.1292 44.1974C45.8926 43.7736 47.4524 42.163 47.4524 39.8234C47.4693 37.4838 45.8757 35.8223 43.1462 35.4494ZM40.9422 35.4663C39.6876 35.3815 38.7891 34.466 38.823 33.2962C38.8399 32.1434 39.7554 31.2279 40.9422 31.2109C40.9422 32.6181 40.9422 34.0083 40.9422 35.4663ZM43.1801 41.9426C43.1801 40.5354 43.1801 39.1453 43.1801 37.7042C44.5024 37.789 45.3332 38.6875 45.2993 39.9421C45.2654 41.078 44.3499 41.9596 43.1801 41.9426Z" fill="black"/>
<path d="M61.5742 46.2997C60.913 46.2828 60.4553 46.8083 60.4044 47.673C60.4044 47.8255 60.4044 47.9781 60.3875 48.1138C60.0823 50.8094 58.9633 52.9455 56.3525 54.0814C55.064 54.6409 53.7077 54.9122 52.3006 54.9461C51.419 54.98 50.8934 55.4377 50.9273 56.0989C50.9443 56.811 51.5037 57.2348 52.4192 57.184C53.0974 57.1331 53.7586 57.0483 54.4198 56.9466C59.2855 56.2006 62.4897 52.6065 62.6423 47.7408C62.6762 46.8931 62.2524 46.3167 61.5742 46.2997Z" fill="black"/>
</svg>
