<svg width="82" height="70" viewBox="0 0 82 70" fill="none" xmlns="http://www.w3.org/2000/svg">
<rect x="15" y="15" width="67" height="40" fill="#F5D531"/>
<path d="M2 68.228C2 67.1631 2 66.0983 2 65.0334C2.08874 64.2525 2.17748 63.4539 2.26621 62.673C2.60342 59.3897 3.91674 56.7275 6.95159 55.1302C7.32429 54.935 7.67924 54.7043 8.05194 54.5091C11.424 52.6811 15.0268 51.3678 18.665 50.1787C19.1087 50.0367 19.3572 49.8415 19.5169 49.38C20.1558 47.4455 20.4398 45.4755 20.4398 43.4346C20.4398 42.352 20.1736 41.5178 19.2152 40.9321C18.8425 40.7014 18.5585 40.3465 18.2036 40.0625C16.3401 38.6427 15.4527 36.7615 15.6124 34.4188C15.6479 33.9573 15.5237 33.7444 15.0268 33.5846C12.7196 32.8747 11.211 30.8692 11.069 28.4556C10.9448 26.1661 12.3291 23.9832 14.5298 23.0425C14.6895 22.9716 14.8315 22.9006 15.009 22.8118C14.1039 20.8063 13.465 18.7654 13.2165 16.6179C12.7551 12.6247 14.4588 9.14616 17.8841 7.14068C18.1148 6.9987 18.3278 6.78572 18.5053 6.57275C20.0138 4.58502 21.8596 3.00548 24.1668 2.1181C25.4978 1.60342 26.9177 1.3727 28.302 1C29.1361 1 29.988 1 30.8221 1C31.0528 1.05324 31.3013 1.10649 31.532 1.14198C33.5198 1.39045 35.4188 1.95837 37.2468 2.77476C37.8679 3.04098 38.2229 3.53791 38.2584 4.21232C38.2939 4.92222 37.9922 5.45465 37.3887 5.80961C37.2113 5.91609 37.0515 6.00483 36.8031 6.16456C37.0515 6.28879 37.2645 6.35978 37.442 6.46627C38.6666 7.15842 39.9622 7.76184 41.098 8.57823C43.7779 10.5127 45.2687 13.1216 45.038 16.5292C44.9492 17.7538 44.8427 18.9961 44.7185 20.2917C44.9315 20.2917 45.1977 20.2917 45.4462 20.2917C52.066 20.2917 58.6859 20.2917 65.3058 20.2917C67.8969 20.2917 69.9556 22.1729 69.9734 24.6576C70.0089 30.816 70.0089 36.9744 69.9734 43.1151C69.9556 45.2271 68.3761 47.0196 66.2996 47.3745C65.6075 47.4988 64.8798 47.41 64.1877 47.4988C63.8504 47.5343 63.46 47.6585 63.1938 47.8715C61.4368 49.3623 59.733 50.9063 57.9937 52.4149C57.6743 52.6988 57.2661 52.9473 56.8579 53.0538C55.4558 53.4087 54.1957 52.4149 54.1425 50.9241C54.107 49.806 54.1425 48.6701 54.1425 47.481C53.823 47.481 53.5923 47.481 53.3439 47.481C50.3268 47.481 47.3274 47.481 44.3103 47.481C41.2932 47.481 39.412 45.6175 39.3942 42.6182C39.3942 42.0502 39.3942 41.4823 39.3942 40.8079C38.6488 41.4113 37.9922 41.8018 37.9744 42.8134C37.9212 45.0673 38.1874 47.268 38.8973 49.4155C39.0393 49.806 39.2345 50.0189 39.6427 50.1609C40.8495 50.5514 42.0386 50.9418 43.21 51.3855C46.2803 52.5213 49.2974 53.7814 52.0838 55.5384C54.0893 56.8163 55.4026 58.5555 55.7575 60.8805C56.0947 63.0634 56.219 65.2641 56.3787 67.4826C56.4674 68.6539 56.0415 69.0266 54.8524 69.0266C37.7437 69.0266 20.6173 69.0266 3.50855 69.0444C2.83414 69.0266 2.3372 68.8314 2 68.228ZM56.4319 50.8353C56.7337 50.5869 56.8934 50.4626 57.0531 50.3029C58.3664 49.1493 59.7508 48.0489 60.9576 46.7889C62.1467 45.5465 63.46 45.0318 65.1993 45.1738C66.8675 45.3158 67.7727 44.2864 67.7727 42.6182C67.7727 36.797 67.7727 30.9757 67.7727 25.1545C67.7727 23.4152 66.8853 22.5279 65.1638 22.5279C58.2067 22.5279 51.2674 22.5279 44.3103 22.5279C42.5711 22.5279 41.7192 23.3975 41.7192 25.1545C41.7192 30.9757 41.7192 36.797 41.7192 42.6182C41.7192 44.3574 42.5888 45.2093 44.3458 45.2093C47.8598 45.2093 51.3916 45.2093 54.9057 45.2093C56.0947 45.2093 56.4497 45.5465 56.4497 46.7534C56.4319 48.0667 56.4319 49.3623 56.4319 50.8353ZM15.5947 25.119C14.1394 25.5627 13.1633 27.089 13.3407 28.5443C13.5537 30.2481 14.7605 31.4372 16.4998 31.5969C17.5469 31.6856 17.8486 32.0228 17.8664 33.07C17.8664 33.7266 17.8664 34.401 17.8664 35.0577C17.8664 36.2113 18.2923 37.1519 19.1797 37.9151C21.1852 39.6543 23.1907 41.4113 25.1784 43.1506C25.8883 43.7718 26.7047 44.0912 27.6631 44.0735C28.6747 44.0557 29.704 44.0557 30.7156 44.0735C31.745 44.0912 32.5969 43.7363 33.36 43.0619C35.2058 41.4113 37.087 39.7786 38.9683 38.1635C39.3055 37.8796 39.4297 37.5778 39.4297 37.1519C39.412 33.1764 39.4297 29.1832 39.412 25.2078C39.412 24.2139 39.5717 23.2733 40.1041 22.4214C40.1751 22.2971 40.2461 22.1374 40.2284 21.9954C40.1219 21.0726 39.2523 20.3449 38.3471 20.4159C38.0809 20.4336 37.8147 20.4691 37.5485 20.4869C34.3184 20.7886 31.2126 20.4514 28.2487 18.9783C26.5627 18.1442 24.8057 17.4875 23.0664 16.7954C21.4159 16.1565 19.9251 16.6712 19.1442 18.2684C18.6473 19.2801 18.2568 20.4159 18.1148 21.534C17.9019 23.22 17.9196 24.9238 17.8664 26.6276C17.8309 27.6924 17.4582 28.2426 16.7128 28.2248C15.9674 28.2071 15.5947 27.6569 15.5947 26.5743C15.5947 26.0951 15.5947 25.6337 15.5947 25.119ZM42.2516 20.4691C42.7485 18.6944 42.9615 16.8309 42.7485 14.9496C42.5001 12.8732 41.2755 11.3291 39.5895 10.2465C38.2406 9.37688 36.7498 8.72022 35.2945 8.06355C34.0345 7.49563 33.6618 6.28879 34.5314 5.22393C34.7444 4.95772 34.9928 4.70925 35.33 4.33655C34.0345 4.0171 32.8631 3.6444 31.674 3.46692C26.8644 2.77476 22.9067 4.23007 20.0671 8.29427C19.8896 8.54274 19.6589 8.77346 19.3927 8.91544C17.0322 10.1223 15.7012 11.9858 15.4882 14.6479C15.364 16.263 15.5592 17.8247 16.0916 19.2978C16.5353 18.4282 16.8903 17.523 17.4227 16.7244C18.9667 14.3995 21.2917 13.6718 23.9006 14.6657C25.5866 15.3046 27.2549 16.05 28.9231 16.7421C29.7218 17.0793 30.5027 17.452 31.3191 17.7183C33.7505 18.5346 36.2529 18.3394 38.7376 18.0377C39.4297 17.949 40.0331 18.0377 40.5123 18.5347C41.098 19.1558 41.6659 19.8125 42.2516 20.4691ZM17.0677 53.2135C17.05 53.178 17.0145 53.1425 16.9967 53.107C16.1981 53.4087 15.3995 53.6927 14.6008 54.0121C12.0806 55.0238 9.57823 56.0709 7.28879 57.5794C6.04646 58.3958 5.21232 59.5139 4.92836 60.9692C4.67989 62.176 4.52016 63.4006 4.37818 64.6252C4.28944 65.3174 4.28944 66.0095 4.25395 66.7194C8.49563 66.7194 12.6308 66.7194 16.8193 66.7194C16.7305 66.471 16.6595 66.2758 16.5708 66.0805C15.7189 64.2348 14.9203 62.3713 13.9974 60.561C13.323 59.2477 13.4295 58.1651 14.3346 57.0115C15.3107 55.8047 16.1626 54.4913 17.0677 53.2135ZM54.1602 66.7372C54.0715 65.5126 54.0005 64.3413 53.9295 63.1699C53.7166 60.1706 52.4032 57.8989 49.5814 56.6388C47.3807 55.6627 45.18 54.6688 42.9792 53.6927C42.4646 53.462 41.9321 53.3022 41.2222 53.0538C42.3403 54.6156 43.2987 55.9999 44.3103 57.3842C44.967 58.2716 45.0557 59.1767 44.5765 60.1706C43.6359 62.1406 42.7308 64.146 41.8257 66.1338C41.7369 66.3112 41.6659 66.5065 41.5594 66.7372C45.7834 66.7372 49.9008 66.7372 54.1602 66.7372ZM35.543 44.1622C35.3655 44.3042 35.0993 44.5349 34.8508 44.7656C33.6618 45.8482 32.2952 46.3807 30.6802 46.3452C29.6685 46.3274 28.6392 46.3274 27.6276 46.3452C26.119 46.3629 24.8234 45.866 23.6876 44.8721C23.4036 44.6237 23.1019 44.3752 22.7292 44.0557C22.6937 44.3219 22.6937 44.4994 22.6582 44.6591C22.392 46.2387 22.2145 47.8537 21.8418 49.4155C21.5046 50.8886 21.4159 50.8708 22.7647 51.6517C23.1907 51.9002 23.6343 52.0954 24.078 52.2906C25.6576 52.9295 27.3259 53.1425 29.0119 53.1603C31.3901 53.178 33.6795 52.8408 35.7737 51.5985C36.9628 50.8886 36.9628 50.8708 36.5546 49.5575C36.5369 49.522 36.5369 49.4688 36.5191 49.4333C36.1997 47.6585 35.8802 45.9192 35.543 44.1622ZM17.9196 55.9289C17.2452 56.8873 16.6063 57.7391 16.0206 58.6088C15.8964 58.7863 15.8786 59.1235 15.9674 59.3009C17.0322 61.6614 18.1148 64.0041 19.2152 66.3467C19.2862 66.5065 19.5169 66.7194 19.6589 66.7194C21.5224 66.7372 23.3681 66.7372 25.2849 66.7372C25.4091 65.2641 25.4624 63.8088 25.6931 62.4068C25.8528 61.4484 25.4801 60.7917 24.9122 60.1528C23.4569 60.845 22.7292 60.7207 21.5756 59.5849C20.3865 58.3958 19.1797 57.189 17.9196 55.9289ZM40.4768 55.9289C39.2523 57.1712 38.0632 58.3071 36.9451 59.4962C35.9334 60.5788 34.8331 61.0047 33.502 60.1883C32.8099 60.8627 32.5437 61.6081 32.7211 62.5487C32.8631 63.3296 32.8809 64.1283 32.9518 64.9269C33.0051 65.5304 33.0761 66.1338 33.1471 66.7727C35.0283 66.7727 36.8563 66.7904 38.6666 66.7549C38.8441 66.7549 39.1103 66.5597 39.1813 66.4C40.2994 64.0396 41.382 61.6791 42.4646 59.3009C42.5356 59.1412 42.5533 58.8927 42.4823 58.7685C41.8612 57.8279 41.1867 56.905 40.4768 55.9289ZM38.1342 52.6456C36.2529 54.1186 34.1764 54.935 31.9047 55.2545C32.9341 56.2838 33.928 57.26 34.8863 58.2183C36.2529 56.8518 37.655 55.4497 39.0925 53.9944C38.8263 53.604 38.5069 53.1603 38.1342 52.6456ZM19.3394 53.9412C20.7947 55.3965 22.2145 56.7985 23.6876 58.2716C24.1135 57.8101 24.5927 57.2955 25.0897 56.7808C25.5688 56.2838 26.0658 55.8047 26.6159 55.2545C23.9716 54.793 23.4746 54.5978 20.2623 52.6633C19.9428 53.1248 19.6234 53.5685 19.3394 53.9412ZM29.2248 56.0709C28.4085 56.8873 27.5566 57.7391 26.7224 58.5733C27.2371 60.6852 28.9941 59.8156 30.3429 59.9576C31.3191 60.0463 31.2658 58.9992 31.7628 58.6088C30.8576 57.7037 30.0057 56.8518 29.2248 56.0709ZM27.5743 66.7017C28.7102 66.7017 29.7573 66.7017 30.8576 66.7017C30.7156 65.1931 30.5737 63.7201 30.4494 62.2648C29.5798 62.2648 28.7989 62.2648 27.9825 62.2648C27.8405 63.7733 27.6986 65.2109 27.5743 66.7017Z" fill="black"/>
<path d="M47.5929 30.4967C46.7765 30.4967 46.2796 30.9227 46.2264 31.4906C46.1731 32.1118 46.5458 32.6087 47.1847 32.7329C47.5042 32.7862 47.8414 32.7862 48.1609 32.8749C49.5452 33.2121 50.539 34.348 50.7165 35.7678C50.8762 37.0811 50.2018 38.4477 48.995 39.1043C48.6933 39.2641 48.4803 39.406 48.4093 39.7965C48.3206 40.3644 47.8946 40.6839 47.3267 40.6661C46.7233 40.6484 46.3684 40.3112 46.2086 39.7255C46.1554 39.5125 45.9602 39.3173 45.7827 39.1576C45.339 38.7316 44.8243 38.3767 44.4339 37.9152C44.0434 37.4183 44.2209 36.7439 44.7178 36.4067C45.1793 36.0872 45.8359 36.1405 46.2086 36.6019C46.6346 37.1343 47.096 37.507 47.7882 37.1698C48.2851 36.9391 48.5158 36.5132 48.4093 35.963C48.2496 35.2353 47.6994 35.0579 47.0073 35.0046C45.4987 34.8981 44.2564 33.7445 43.9547 32.2892C43.6707 30.8339 44.3806 29.3964 45.6762 28.6332C45.9069 28.509 46.0844 28.225 46.1731 27.9766C46.3683 27.4264 46.7233 27.1069 47.2912 27.1069C47.8592 27.1069 48.2851 27.4264 48.3738 27.9943C48.4271 28.3848 48.6578 28.509 48.9418 28.7042C49.3677 29.0059 49.7936 29.3609 50.1131 29.7513C50.539 30.2838 50.4148 30.9759 49.9356 31.3486C49.4387 31.7391 48.8353 31.6326 48.3383 31.1356C48.1076 30.8339 47.7527 30.621 47.5929 30.4967Z" fill="black"/>
<path d="M59.3243 25.9531C60.9216 25.9531 62.5189 25.9531 64.0984 25.9531C64.9503 25.9531 65.465 26.3791 65.4827 27.0535C65.5005 27.7456 64.9503 28.2248 64.0806 28.2248C60.8506 28.2248 57.6205 28.2248 54.3905 28.2248C53.5386 28.2248 53.0239 27.7989 53.0239 27.1067C53.0061 26.3968 53.5208 25.9709 54.4259 25.9709C56.041 25.9531 57.6915 25.9531 59.3243 25.9531Z" fill="black"/>
<path d="M59.3243 30.4787C60.9216 30.4787 62.5188 30.4787 64.0984 30.4787C64.9503 30.4787 65.465 30.9046 65.4827 31.579C65.5004 32.2712 64.9503 32.7326 64.0806 32.7326C60.8506 32.7326 57.6205 32.7326 54.3904 32.7326C53.5563 32.7326 53.0239 32.3067 53.0239 31.6145C53.0061 30.9046 53.5385 30.4609 54.4259 30.4609C56.041 30.4787 57.6915 30.4787 59.3243 30.4787Z" fill="black"/>
<path d="M59.2533 35.0039C60.8683 35.0039 62.4833 35.0039 64.0984 35.0039C64.9325 35.0039 65.465 35.4298 65.4827 36.1043C65.5004 36.7964 64.9503 37.2579 64.0806 37.2579C60.8506 37.2579 57.6205 37.2579 54.3904 37.2579C53.5386 37.2579 53.0239 36.8319 53.0239 36.1575C53.0061 35.4476 53.5385 35.0039 54.4082 35.0039C56.0232 35.0039 57.6382 35.0039 59.2533 35.0039Z" fill="black"/>
<path d="M57.6028 41.8019C56.5024 41.8019 55.4021 41.8019 54.284 41.8019C53.5031 41.8019 53.0062 41.3405 53.0239 40.6661C53.0239 40.0272 53.5208 39.548 54.2485 39.548C56.4492 39.5302 58.6676 39.5302 60.8683 39.548C61.596 39.548 62.0574 40.0272 62.0574 40.7016C62.0574 41.376 61.596 41.8019 60.8329 41.8019C59.768 41.8019 58.6854 41.8019 57.6028 41.8019Z" fill="black"/>
<path d="M34.8509 24.8C34.1232 24.8 33.3956 24.8177 32.6679 24.8C31.958 24.7822 31.5143 24.3563 31.4966 23.7174C31.4788 23.0607 31.9403 22.5638 32.6679 22.546C34.141 22.5283 35.6318 22.5283 37.1048 22.546C37.8147 22.5638 38.2939 23.0607 38.2762 23.6996C38.2584 24.3208 37.797 24.7645 37.1048 24.7822C36.3417 24.8177 35.5963 24.8 34.8509 24.8Z" fill="black"/>
<path d="M23.4928 24.8C22.7829 24.8 22.073 24.8177 21.3631 24.8C20.6177 24.7822 20.1562 24.3385 20.1562 23.6819C20.1562 23.0252 20.6177 22.5638 21.3631 22.546C22.8006 22.5283 24.2382 22.5283 25.6758 22.546C26.4389 22.546 26.9536 23.0607 26.9358 23.7174C26.9181 24.3563 26.4212 24.8 25.6758 24.8C24.9481 24.8 24.2205 24.8 23.4928 24.8Z" fill="black"/>
<path d="M29.2064 38.412C28.4965 38.412 27.7866 38.4297 27.0767 38.412C26.2958 38.3942 25.7988 37.915 25.7988 37.2584C25.7988 36.6017 26.3135 36.158 27.0944 36.1403C28.4965 36.1225 29.8808 36.1225 31.2828 36.1403C32.0992 36.1403 32.5607 36.5662 32.5784 37.2406C32.5962 37.9505 32.117 38.3765 31.2651 38.3942C31.2296 38.3942 31.1764 38.3942 31.1409 38.3942C30.4842 38.412 29.8453 38.412 29.2064 38.412Z" fill="black"/>
<path d="M37.1225 27.1957C37.0871 27.3022 37.0693 27.5684 36.9451 27.6572C36.3594 28.0831 35.9512 28.6865 35.4188 29.1657C34.9041 29.6094 34.1587 29.29 33.8215 28.651C33.715 28.4558 33.5198 28.2428 33.3246 28.1541C32.8099 27.8879 32.5437 27.4974 32.6501 26.9295C32.7566 26.3261 33.1471 26.0066 33.7505 25.9889C34.4959 25.9711 35.259 25.9711 36.0044 25.9889C36.6966 25.9889 37.1403 26.4681 37.1225 27.1957Z" fill="black"/>
<path d="M23.5635 25.9528C23.9539 25.9528 24.3621 25.9351 24.7526 25.9528C25.3027 25.9883 25.6577 26.3078 25.7642 26.8402C25.8707 27.4081 25.64 27.8163 25.1253 28.1003C24.9123 28.2245 24.7703 28.4907 24.5573 28.6327C24.2201 28.8812 23.8652 29.2361 23.5102 29.2539C23.1908 29.2716 22.8358 28.8989 22.5164 28.6504C22.3034 28.4907 22.1792 28.2245 21.9662 28.1003C21.4693 27.8163 21.1853 27.4259 21.2918 26.8579C21.3983 26.3078 21.771 25.9706 22.3566 25.9351C22.7648 25.9528 23.1553 25.9528 23.5635 25.9528Z" fill="black"/>
<path d="M29.2075 41.8018C28.8171 41.8018 28.4089 41.8196 28.0184 41.8018C27.3973 41.7663 26.9891 41.3227 26.9713 40.737C26.9536 40.1513 27.3263 39.6189 27.9297 39.5834C28.7816 39.5301 29.6512 39.5301 30.5208 39.5834C31.1065 39.6189 31.5147 40.1868 31.497 40.737C31.4615 41.3049 31.0178 41.7663 30.4143 41.8018C30.0062 41.8196 29.598 41.8018 29.2075 41.8018Z" fill="black"/>
<path d="M29.2077 33.8507C28.7818 33.8507 28.3736 33.8862 27.9477 33.8507C27.362 33.7975 26.9715 33.3538 26.9538 32.8036C26.936 32.2357 27.2732 31.721 27.8589 31.6855C28.764 31.6145 29.6692 31.6323 30.5743 31.6855C31.1422 31.721 31.5327 32.2889 31.4794 32.8213C31.4084 33.407 31.089 33.8152 30.4678 33.8685C30.0419 33.8862 29.6159 33.8507 29.2077 33.8507Z" fill="black"/>
</svg>
