<svg width="120" height="20" viewBox="0 0 120 20" fill="none" xmlns="http://www.w3.org/2000/svg">
<path d="M10 0.800049L12.3607 8.1338H20L13.8197 12.6663L16.1803 20L10 15.4675L3.81966 20L6.18034 12.6663L0 8.1338H7.63932L10 0.800049Z" fill="#F5D531"/>
<path d="M35 0.800049L37.3607 8.1338H45L38.8197 12.6663L41.1803 20L35 15.4675L28.8197 20L31.1803 12.6663L25 8.1338H32.6393L35 0.800049Z" fill="#F5D531"/>
<path d="M60 0.800049L62.3607 8.1338H70L63.8197 12.6663L66.1803 20L60 15.4675L53.8197 20L56.1803 12.6663L50 8.1338H57.6393L60 0.800049Z" fill="#F5D531"/>
<path d="M85 0.800049L87.3607 8.1338H95L88.8197 12.6663L91.1803 20L85 15.4675L78.8197 20L81.1803 12.6663L75 8.1338H82.6393L85 0.800049Z" fill="#F5D531"/>
<path d="M110 0.800049L112.361 8.1338H120L113.82 12.6663L116.18 20L110 15.4675L103.82 20L106.18 12.6663L100 8.1338H107.639L110 0.800049Z" fill="#E2E2E2"/>
</svg>
